<svg viewBox="0 0 1417.0999755859375 400" xmlns="http://www.w3.org/2000/svg"><g><g><g><g><g><line x1="41.149001121520996" y1="363.67977739437094" x2="36.149001121520996" y2="363.67977739437094" style="visibility: inherit;" fill="rgb(0, 0, 0)" stroke="rgb(204, 204, 204)" stroke-width="1px"></line><line x1="41.149001121520996" y1="313.90159639729956" x2="36.149001121520996" y2="313.90159639729956" style="visibility: inherit;" fill="rgb(0, 0, 0)" stroke="rgb(204, 204, 204)" stroke-width="1px"></line><line x1="41.149001121520996" y1="264.1234154002281" x2="36.149001121520996" y2="264.1234154002281" style="visibility: inherit;" fill="rgb(0, 0, 0)" stroke="rgb(204, 204, 204)" stroke-width="1px"></line><line x1="41.149001121520996" y1="214.34523440315672" x2="36.149001121520996" y2="214.34523440315672" style="visibility: inherit;" fill="rgb(0, 0, 0)" stroke="rgb(204, 204, 204)" stroke-width="1px"></line><line x1="41.149001121520996" y1="164.56705340608525" x2="36.149001121520996" y2="164.56705340608525" style="visibility: inherit;" fill="rgb(0, 0, 0)" stroke="rgb(204, 204, 204)" stroke-width="1px"></line><line x1="41.149001121520996" y1="114.7888724090139" x2="36.149001121520996" y2="114.7888724090139" style="visibility: inherit;" fill="rgb(0, 0, 0)" stroke="rgb(204, 204, 204)" stroke-width="1px"></line><line x1="41.149001121520996" y1="65.01069141194243" x2="36.149001121520996" y2="65.01069141194243" style="visibility: inherit;" fill="rgb(0, 0, 0)" stroke="rgb(204, 204, 204)" stroke-width="1px"></line><line x1="41.149001121520996" y1="15.232510414871088" x2="36.149001121520996" y2="15.232510414871088" style="visibility: inherit;" fill="rgb(0, 0, 0)" stroke="rgb(204, 204, 204)" stroke-width="1px"></line></g><g transform="translate(31.149001121520996, 0)"><text style="text-anchor: end; visibility: inherit; font-family: Roboto, sans-serif; font-size: 12px; font-weight: 200;" x="0" y="363.67977739437094" dx="0em" dy="0.3em" fill="rgb(33, 33, 33)" stroke="none" stroke-width="1px">0</text><text style="text-anchor: end; visibility: inherit; font-family: Roboto, sans-serif; font-size: 12px; font-weight: 200;" x="0" y="313.90159639729956" dx="0em" dy="0.3em" fill="rgb(33, 33, 33)" stroke="none" stroke-width="1px">0.1</text><text style="text-anchor: end; visibility: inherit; font-family: Roboto, sans-serif; font-size: 12px; font-weight: 200;" x="0" y="264.1234154002281" dx="0em" dy="0.3em" fill="rgb(33, 33, 33)" stroke="none" stroke-width="1px">0.2</text><text style="text-anchor: end; visibility: inherit; font-family: Roboto, sans-serif; font-size: 12px; font-weight: 200;" x="0" y="214.34523440315672" dx="0em" dy="0.3em" fill="rgb(33, 33, 33)" stroke="none" stroke-width="1px">0.3</text><text style="text-anchor: end; visibility: inherit; font-family: Roboto, sans-serif; font-size: 12px; font-weight: 200;" x="0" y="164.56705340608525" dx="0em" dy="0.3em" fill="rgb(33, 33, 33)" stroke="none" stroke-width="1px">0.4</text><text style="text-anchor: end; visibility: inherit; font-family: Roboto, sans-serif; font-size: 12px; font-weight: 200;" x="0" y="114.7888724090139" dx="0em" dy="0.3em" fill="rgb(33, 33, 33)" stroke="none" stroke-width="1px">0.5</text><text style="text-anchor: end; visibility: inherit; font-family: Roboto, sans-serif; font-size: 12px; font-weight: 200;" x="0" y="65.01069141194243" dx="0em" dy="0.3em" fill="rgb(33, 33, 33)" stroke="none" stroke-width="1px">0.6</text><text style="text-anchor: end; visibility: inherit; font-family: Roboto, sans-serif; font-size: 12px; font-weight: 200;" x="0" y="15.232510414871088" dx="0em" dy="0.3em" fill="rgb(33, 33, 33)" stroke="none" stroke-width="1px">0.7</text></g><line x1="41.149001121520996" y1="0" x2="41.149001121520996" y2="376.57899951934814" fill="rgb(0, 0, 0)" stroke="rgb(204, 204, 204)" stroke-width="1px"></line></g></g><g transform="translate(41, 0)" clip-path="url(#clip_0)"><clipPath id="clip_0"><rect width="1375" height="376"></rect></clipPath><g><g><g><line x1="97.17395341641392" y1="0" x2="97.17395341641392" y2="376.57899951934814" fill="rgb(0, 0, 0)" stroke="rgb(66, 66, 66)" stroke-width="1px" opacity="0.25"></line><line x1="284.5357545887096" y1="0" x2="284.5357545887096" y2="376.57899951934814" fill="rgb(0, 0, 0)" stroke="rgb(66, 66, 66)" stroke-width="1px" opacity="0.25"></line><line x1="471.8975557610052" y1="0" x2="471.8975557610052" y2="376.57899951934814" fill="rgb(0, 0, 0)" stroke="rgb(66, 66, 66)" stroke-width="1px" opacity="0.25"></line><line x1="659.2593569333009" y1="0" x2="659.2593569333009" y2="376.57899951934814" fill="rgb(0, 0, 0)" stroke="rgb(66, 66, 66)" stroke-width="1px" opacity="0.25"></line><line x1="846.6211581055966" y1="0" x2="846.6211581055966" y2="376.57899951934814" fill="rgb(0, 0, 0)" stroke="rgb(66, 66, 66)" stroke-width="1px" opacity="0.25"></line><line x1="1033.9829592778922" y1="0" x2="1033.9829592778922" y2="376.57899951934814" fill="rgb(0, 0, 0)" stroke="rgb(66, 66, 66)" stroke-width="1px" opacity="0.25"></line><line x1="1221.3447604501878" y1="0" x2="1221.3447604501878" y2="376.57899951934814" fill="rgb(0, 0, 0)" stroke="rgb(66, 66, 66)" stroke-width="1px" opacity="0.25"></line></g><g><line x1="0" y1="363.67977739437094" x2="1375.950998878479" y2="363.67977739437094" fill="rgb(0, 0, 0)" stroke="rgb(66, 66, 66)" stroke-width="1px" opacity="0.25"></line><line x1="0" y1="313.90159639729956" x2="1375.950998878479" y2="313.90159639729956" fill="rgb(0, 0, 0)" stroke="rgb(66, 66, 66)" stroke-width="1px" opacity="0.25"></line><line x1="0" y1="264.1234154002281" x2="1375.950998878479" y2="264.1234154002281" fill="rgb(0, 0, 0)" stroke="rgb(66, 66, 66)" stroke-width="1px" opacity="0.25"></line><line x1="0" y1="214.34523440315672" x2="1375.950998878479" y2="214.34523440315672" fill="rgb(0, 0, 0)" stroke="rgb(66, 66, 66)" stroke-width="1px" opacity="0.25"></line><line x1="0" y1="164.56705340608525" x2="1375.950998878479" y2="164.56705340608525" fill="rgb(0, 0, 0)" stroke="rgb(66, 66, 66)" stroke-width="1px" opacity="0.25"></line><line x1="0" y1="114.7888724090139" x2="1375.950998878479" y2="114.7888724090139" fill="rgb(0, 0, 0)" stroke="rgb(66, 66, 66)" stroke-width="1px" opacity="0.25"></line><line x1="0" y1="65.01069141194243" x2="1375.950998878479" y2="65.01069141194243" fill="rgb(0, 0, 0)" stroke="rgb(66, 66, 66)" stroke-width="1px" opacity="0.25"></line><line x1="0" y1="15.232510414871088" x2="1375.950998878479" y2="15.232510414871088" fill="rgb(0, 0, 0)" stroke="rgb(66, 66, 66)" stroke-width="1px" opacity="0.25"></line></g></g></g><g><g><line x1="0" y1="363.67977739437094" x2="1375.950998878479" y2="363.67977739437094" fill="rgb(0, 0, 0)" stroke="rgb(153, 153, 153)" stroke-width="1.5px"></line></g></g><g><g><line x1="97.17395341641392" y1="0" x2="97.17395341641392" y2="376.57899951934814" fill="rgb(0, 0, 0)" stroke="rgb(153, 153, 153)" stroke-width="1.5px"></line></g></g><g><g><g><g><g><path style="fill: none;" stroke="rgb(255, 112, 67)" stroke-width="2px" d="M97.57678128893436,331.9740700860945L98.74779254626121,339.53007535080025L99.32861412989531,345.2439981496224L101.62379619425593,347.44593027935144L102.20461777789006,350.90701468425544L102.67302228082079,354.7745100755644L103.24447577439629,357.55316225004316L106.68256482590793,358.70214350614896L109.67098555460603,360.2173464197673L110.158126237654,359.55251745446634L110.63589883064336,353.71866879214275L113.42758966811057,354.39478516616L113.45569393828642,354.09837227684517L114.76722654649248,356.4202037847651L118.79550527169684,357.7649355561804L119.56368865650326,358.35757961699596L120.47239339218889,351.7933233394602L122.33664331385323,352.6582064122397L127.59214183673612,352.8792229580486L128.14485915019438,231.1926814142744L137.62536628951256,278.67792788608807L138.40291776437758,310.74450228834235L139.26478204977013,324.649897286696L139.4240395807666,326.49103375914774L143.75209718784663,331.20944379649035L145.27909586740083,343.8048317195744L147.25576286976855,330.1850548131765L150.79690091192495,341.84417178702734L152.52062948271006,350.56803280288364L153.29818095757508,345.75345924899995L155.2654798698842,350.2189666947419L159.94015680913296,349.5362482208257L160.05257388983634,215.418297085109L161.39221076821826,272.93566257729196L162.44143685478312,301.34989900066324L164.2120058758613,319.1090885906961L167.09737761391466,331.7886981175987L170.23568778355062,338.64450864425555L170.56357093560212,282.6969636466955L172.74633591925937,308.9971159197628L173.81429818594145,330.86003349581716L174.19838987834464,336.91708073609755L176.79335082458095,343.70559833839627L180.35322504685456,345.38539485918903L180.8872061801956,346.50665412204455L183.93183544924543,353.3391602768368L185.88039818143727,346.23794126094884L186.68605392647814,343.32759289267943L188.0350588949187,315.56244676076386L194.6020900260077,333.1732316663666L195.35153723069686,334.22471520806573L195.75436510321725,336.7849248721942L199.34234359566676,347.26970963156333L199.91379708924222,346.3702129203305L200.41967395240744,349.57768003831814L205.2161360624182,355.14631267599856L205.53465112441108,350.2519407533747L209.30999141803287,271.2842269547314L209.3568318683259,303.31950641751195L211.13676897946277,323.5357034454861L212.3171483268482,339.32570934664386L217.81621719125508,341.1699556617284L219.28700733045758,248.77358449120842L219.5399457620402,289.2628361228554L224.77670810480586,315.2216404548572L231.09080080431224,316.42032342348256L234.59446648623415,327.28220842949054L235.6343244827404,336.26935292634465L236.5149249482502,297.7820897144033L242.13577898341907,323.3856393623806L244.86189319047597,338.2987874941857L248.15946089110838,321.9349070929743L255.1012156245419,336.4764753450471L257.0591464467924,347.357012382443L257.34955723860946,338.8755924222564L259.4105370515047,347.58276495424525L261.52772540475166,346.7862441065218L280.1514884412779,349.2553547546804L281.17261025766686,354.8745020124077L282.02510645300083,356.3742531015487L284.4982822284751,352.71052219728534L285.04163145187476,356.8027076133319L285.1259442624023,358.11993701104933L286.8309366530702,355.79109078417446L287.57101576770077,352.5190446395442L289.59452322036157,353.4429424664874L289.9598787326475,330.17423541782483L291.84286483442907,340.05128808337656L291.8709691046049,344.64064136215853L292.5548396788838,351.12374751416627L294.66265994207214,276.3043974065128L295.2622177058235,310.27214894736323L296.9016334660811,327.28169870957447L301.8573531070883,331.4243924446722L305.5764848603584,326.17490695370066L306.3727725153406,340.71833592406506L306.63507903698184,261.96170350344937L313.94218928270135,295.4553234078346L315.3286666113763,316.1455020380945L316.03127336577245,332.55419598737893L316.64956730964104,327.68354913516464L318.92601319388444,337.4574949685233L319.2164239857015,347.91757036428135L323.39459215184365,346.9371777257946L324.6592843097567,347.69836164700945L324.6780204898739,353.0326138315947L325.0340079121013,357.1144195263932L327.8350668396271,352.7091416997477L328.82808438584027,291.6972741338468L330.76727902797353,314.42309922313814L333.7556997566716,279.5319944903248L335.0484961847605,303.3730731056123L338.9924620994373,319.65145003148456L339.3203452514888,327.5945916017914L340.0135839158263,331.81229682159477L348.22003080717286,344.54479067711685L348.2293988972315,351.3322111698949L354.85263856867215,351.949453759378L355.7707113944164,332.1091748846788L356.0985945464679,344.50199322468643L358.7029235827628,346.9976227506918L363.5930665933597,353.5294424881723L364.5767160495143,351.7225544131482L368.5768905045428,346.67349600393175L368.8204608460668,353.4175405526445L369.43875478993533,357.4548987292732L370.74091930808277,359.9360841112101L371.32174089171696,350.57964178917666L373.27030362390883,344.26027982715584L376.6240798648929,327.6670599039705L378.2728637152091,341.85991079977754L378.5164340567331,338.43117231751756L379.856070935115,338.0827857718318L382.6290255924649,346.45560151558254L383.95929438078826,341.4091565548255L384.839894846298,345.16916977592473L384.97104810711863,306.21978832397315L391.3975578873284,327.01456650622475L391.74417721949715,341.5276729786051L395.8380325751118,343.6363933323465L396.36264561839425,342.5019643278288L401.037322557643,349.0743109409666L402.0397081939148,354.8954740342737L403.11703855065554,353.43601575493324L404.10068800681006,353.09566408105474L405.3372758945472,341.29326137941393L405.41222061501605,325.50640387602164L406.64880850275324,328.9196434172003L408.02591774136965,342.4268846727879L409.8433272127409,350.4522057360858L410.1056337343821,354.6901252564483L413.23457581395945,312.84097009738997L413.34699289466283,267.37548647575557L413.6842441367729,175.14497725842213L414.19012099993813,250.0652397516826L414.5367403321069,293.9710981362166L414.8833596642757,320.81164950431895L416.03563474148524,335.1010154088882L419.0896321005937,342.4123331891882L420.6166307801479,340.47907116669745L421.30986944448534,344.5452312469325L428.3827774387396,348.03800287371547L429.5912610563009,282.75508001273425L432.28927099318196,314.438139358672L433.9942633838498,326.63969953647023L434.78118294877345,340.9658652364659L440.3270922634734,343.8094238861905L440.6081349652318,325.8189777981812L442.39744016642726,338.2969815168824L445.69500786705964,344.00278211167245L448.3836497138821,292.8791516130379L450.9598744800012,321.0825145765761L452.009100566566,336.49009634438937L457.433224710504,346.6475983357378L459.9157685760369,264.9164296309646L461.0399393830707,303.4566780084557L462.3608400813353,327.52043255115365L465.311788449799,331.2162949079765L469.1152330135966,341.71448262154263L471.05442765572985,346.33462475179687L472.0942856522361,351.1705382617353L474.67987850841376,338.05283866848646L476.5909688803712,284.8629655849154L478.1554399201599,309.45048477215016L478.65194869326643,328.39007121889045L479.33581926754533,333.4250930023149L481.64973751202325,342.1097843958527L483.8137663155632,350.6529383047623L486.324414451272,352.60437141403975L491.8984280361478,351.169395820524L494.8587444946701,297.26670006302203L495.02737011572515,321.2067076044337L496.9946690280342,330.8106858993656L504.8638646772706,279.1287390276035L505.99740357436303,282.2300360123798L506.6719060585833,313.6855424713587L506.9623168504004,310.53135598261645L507.5525065240931,329.7430214628936L509.3137074551126,340.3054234741714L510.06315465980185,346.29039492467615L511.2529020972459,346.60380738294265L511.31847872765627,350.5043582698802L511.7306746902353,351.0130695905578L512.2271834633418,324.16010167284156L517.0236455733526,338.30267985186094L518.4101229020275,343.43723562527185L522.2323036459425,351.25430399300575L523.4969958038554,355.9632835643837L524.9115774027063,353.5651394852323L531.0945168413921,352.32928929526815L531.2444062823298,356.86191769614356L531.9844853969604,354.9589562977555L540.3033493690103,347.0543860792012L543.4603957187635,353.6777720752523L544.0880577526907,350.0589351794972L544.4534132649767,352.89596061706436L546.3551355468754,346.5344228122293L546.5706016182236,351.7682315632164L547.5636191644369,356.524803689814L548.5472686205914,323.8938256473693L548.9782007632876,328.0446798266367L551.741787330579,336.86233951855723L558.7678548745401,335.6851867000009L559.5079339891707,330.24226402995396L560.6883133365561,336.1267131240044L565.6440329775633,346.1664514754306L566.1124374804941,337.13193752572613L567.133559296883,342.5230669353303L567.4146019986415,345.3852486145876L573.2602901952172,350.1435076251385L574.7591846045955,355.459378672888L576.2112385636808,353.378084576202L577.082470939132,357.41918357065725L582.431650362601,359.09385387536184L584.3333726444998,339.5194305139936L587.0594868515568,349.1171428375108L587.6309403451322,353.46630247947036L589.1017304843348,357.0870313417412L590.7130419744165,344.15877722951905L592.8114941475462,351.6580969891782L593.1206411194805,299.5671332377459L594.5539588984485,318.96039503483746L594.6944802493279,327.65842395701816L598.0763607604877,328.8794271732048L600.305966194438,339.3206669941923L600.4090151850828,347.80504927982076L601.767388243582,349.26281889545265L602.1795842061609,352.40287907993473L604.2124597488804,356.55114692145054L610.6202333489729,358.42674008065904L611.8380850565928,341.379732213081L612.2596491092305,345.5603158523581L615.2293336578114,311.07785021264533L617.5151476321133,317.76430296408444L617.5900923525822,325.42188467988836L619.6042317151845,334.82786970622266L624.9534111386536,344.0232550670503L626.5459864486181,346.6285482148539L626.6771397094386,353.3556691173884L627.4921635445381,252.8105719780824L629.1690516650301,295.3775206517679L629.4781986369645,316.4486064794515L634.0217223153926,335.2721552410907L635.6986104358847,337.4005372847393L644.6545045319205,335.2543021463887L647.2682016582739,343.8799538531839L647.5211400898565,321.28128439834705L647.680397620853,327.88822535710557L652.3738107402189,340.24561564075714L652.8141109729739,338.20384427099657L653.9476498700662,346.9758910446864L655.8962126022582,344.99151245656606L660.9456131438516,352.332110589999L661.0018216842033,347.9682794160232L661.2079196654927,339.3531734626421L662.051047770768,322.870761243367L663.7185678012015,336.9869724953436L670.5572735439903,347.2051349261049L671.222407938152,349.92745699507924L675.0071163218323,341.9534979344806L679.3070696587365,342.56291818172286L683.1292504026513,298.0905795050893L686.1926158518183,323.24423321607173L687.5978293606106,330.7348751714522L692.1788253992731,332.54825307094984L693.6589836285343,332.88222662666743L695.4763930999056,344.11909029151L701.621860178357,351.578615961798L705.0693173199272,343.92282622140846L708.8446576135489,321.50100582017143L711.7393974416609,330.7631093884364L712.1328572241226,343.8019037452648L715.9363017879202,342.2709881260496L722.8499522511779,270.71021707163607L724.6205212722562,299.6431451386033L725.042085324894,322.2706920517706L728.9673150594534,333.72932079226433L736.8458787987485,344.2378654293092L737.7545835344341,337.9789660865511L738.2323561274234,324.22161501263895L739.7406186268604,338.8218342006183L745.1834789509156,346.25074780042183L745.3146322117362,318.7669231519399L747.8440165275622,323.5133790108226L750.3171923030366,311.306221399256L751.0572714176672,325.02143060257674L752.1533379545251,330.0445570595804L757.2776832165873,341.1694156207598L758.3831178435038,283.52395309802176L759.0950926879586,311.77109041918516L761.5214280131398,304.4914146532226L762.2802433078875,321.3056095914002L766.3272582132092,338.0127542468622L767.5076375605947,336.9778811450688L768.8379063489181,344.88501026785275L770.8052052612271,352.3112988906076L771.2829778542164,345.54858013715034L771.4890758355059,332.0662153558274L771.7982228074402,342.3614813043538L772.0324250589056,339.71583298366403L774.4681284741455,342.85511174791066L774.4868646542626,350.31828948973646L775.4424098402415,248.94393310333507L775.4705141104172,285.614564139966L776.9131999794439,305.56224476413036L778.4589348391154,298.21928750021965L779.8641483479075,314.13308064354226L781.1382085958792,319.8572326879112L782.7307839058437,319.73078283153626L788.4921592918918,335.8972649937205L789.7100109995116,344.73443099876334L792.1738186849274,352.0012536544496L804.3523357611266,340.2736399237134L811.2004095939741,342.7058341712259L813.6735853694483,328.05349287314885L815.0225903378889,333.91147321394754L815.4628905706437,332.8865605888223L816.5589571075017,342.3959000037341L817.645655554301,344.0368058601311L817.7112321847113,350.4704385489203L820.3811378514166,353.6512130227368L823.4913437508767,355.9544557391708L826.9669051626227,353.4221419646853L829.1590382363385,357.2045915894704L829.8429088106175,359.3687008406985L835.1546158738521,359.7192767695746L835.7916459978378,361.2477973299649L836.5129889323512,361.9807605649273L836.6441421931718,361.9339125053945L837.0094977054578,360.043654844291L837.3092765873333,361.2078168130405L842.8551859020334,356.18531589652207L846.3963239441898,352.90548125164105L846.9209369874721,353.82343053466803L847.5673352015166,271.20086581096905L848.1762610553266,225.96079459469502L850.2840813185148,273.9965270033559L850.4339707594527,298.82114996881074L851.7829757278932,316.27290106951347L852.0265460694172,328.99500501871626L852.373165401586,335.51807648089857L855.9611438940356,343.34616207311814L856.139137605149,341.9009417017635L857.0946827911279,349.4562569057996L859.5678585666021,346.77119924577954L860.6264527432256,351.2662897425945L872.2616205960251,343.4129846576208L872.5801356580181,345.4086720052102L873.3202147726486,352.63996607364834L877.2360764171495,356.15705424504824L881.8732809961639,354.6668555874711L887.9344352640876,344.7081579196522L889.7331085553417,352.2683311214933L890.5293962103241,344.0974029841716L891.7659840980612,337.70933797154356L894.3047365039457,337.8030914904385L895.054183708635,342.9483753539494L898.2299662385054,350.58604563284524L898.5203770303225,273.5405019927926L898.8295240022567,304.9228252348834L899.8974862689388,265.440197859211L902.9702198081644,300.7477489127168L910.1461767930633,305.2412145581045L910.9424644480456,327.87765799628244L912.2821013264276,339.909521273531L915.8888159989942,341.9711869206857L916.4227971323353,348.78236271198347L918.446304584996,347.90626809433775L919.9733032645502,330.0567122335017L922.8586750026036,334.943263079574L927.8893393640798,346.32135942585745L929.2102400623444,348.9313268656895L934.1940639735275,353.7297794556849L934.3439534144653,357.5303191222482L937.9225638168562,359.91110724057205L940.0584883502203,354.43217278306116L940.6393099338545,282.57791063202126L942.5316641256946,299.34829042357717L944.5270673081797,324.2012641441106L950.5601173059274,333.3755114187335L952.4899438580021,341.3886726037058L955.5252050369934,345.06466619322185L955.7406711083415,347.3842452589247L956.5369587633238,334.922946971422L956.5650630334995,337.0192379746624L960.1717777060662,346.5445824107862L965.8769445517627,311.8475730946124L966.429661865221,322.5508775907065L969.5960763050327,329.15030681952766L970.5047810407184,302.75357419097844L972.8280673752548,317.30695256739443L976.8563461004592,308.8589753343275L982.8050832876795,329.36320125738325L985.1283696222162,339.826963209512L987.6858582082178,346.08689538036106L988.875605645662,350.63277420598126L990.1590339836922,347.0971742506891L990.6836470269745,348.23380204742085L990.9834259088503,354.2925990392589L991.6485603030119,347.5992709285272L996.0421945405022,352.87786708030177L996.2576606118505,346.3181961369014L999.3397622411347,343.456381012469L1001.5318953148505,336.1121623659393L1002.1408211686605,343.7368818370824L1007.3494792412503,349.7913656978831L1008.0052455453533,353.93808479344995L1009.7851826564903,351.61564759217663L1011.4714388670408,349.5930788460684L1013.3450568787638,355.22499714294094L1014.094504083453,349.76503756759104L1015.1249939899006,354.3031189568582L1017.2421823431475,310.672720565055L1019.0408556344016,323.01585768804097L1019.6966219385047,331.9442526507139L1020.1556583513767,258.89233120254454L1025.1394822625598,300.56956973361474L1029.364490878995,289.04729467923494L1030.3575084252082,257.8297645574065L1030.3762446053254,246.35336238745361L1032.9056289211514,293.1536141699754L1039.2946663411267,316.8437509853683L1039.5101324124748,333.79322806691965L1041.0277630019705,337.0627040167553L1042.0301486382423,346.64126391231196L1042.5828659517006,352.2161202750632L1043.3323131563895,288.2725703741165L1044.0349199107857,309.70692131869964L1044.8124713856507,327.3639091898832L1045.5525505002813,336.73884072138617L1046.4987275962014,345.21936580192613L1047.3980642418285,339.6050487245587L1048.0350943658143,344.55301978001773L1052.007164550667,349.0598266346155L1052.1945263518394,354.3032612431037L1057.4968653250153,352.9918876723682L1057.796644206891,249.36824236786146L1059.1456491753315,294.2886295584203L1060.9724267367615,316.7483925171347L1061.2628375285785,278.4732389137398L1061.7780824818021,308.37421567712363L1062.1059656338537,326.1700412784222L1062.1996465344398,337.2746055770281L1064.0264240958697,347.5272394630733L1066.939900104099,305.74003649151086L1070.9681788293033,328.9120040758203L1074.0502804585876,295.37622506546734L1074.5936296819873,320.225246470785L1079.1652576305912,307.9825449361645L1079.7273430341081,319.6668060993553L1079.8584962949287,284.4791941691637L1079.999017645808,308.27657971587126L1080.12080281657,300.7708365195434L1081.704010036476,324.8860588249187L1084.8985287464634,332.09170954463616L1086.5473125967796,344.49847659826867L1088.0836793663925,348.5498462836321L1088.2148326272131,354.4564913982856L1092.1681666319485,349.6236043144638L1092.7021477652897,346.70561456323827L1093.8544228424992,353.4952795292954L1095.5032066928154,357.5475138859953L1096.440015698677,355.3476097033036L1100.5338710542915,353.2896036017631L1107.410049157315,305.22217676810317L1113.143320273187,316.83142612522863L1114.4267486112171,328.4507700022537L1120.5722156896686,325.36139997115913L1120.5815837797272,314.05031681066976L1121.124933003127,333.7763722695508L1122.99855101485,320.83997124838675L1126.005707923665,328.3004996879676L1128.2634176277913,338.50574668925174L1129.462533155294,348.1950099298916L1129.7716801272284,349.669698952255L1131.5890895985997,354.9955796036818L1133.1629287284468,350.8215695764905L1133.6781736816706,281.6707658919217L1134.5775103272977,302.5348171568693L1138.8587274840845,324.84712209325767L1139.2428191764877,335.7029542744291L1140.0672111016459,333.13714390125773L1143.5802448736265,345.1460143666948L1145.6131204163457,345.3986145440323L1152.6298198702484,244.4759737511668L1152.9951753825344,291.9657143875053L1154.8594253041988,316.82786626574386L1158.794023128817,324.7216776232457L1161.295303174467,332.2591616100556L1162.7192528633766,339.1607959683741L1164.9582263873854,344.7732585409389L1167.8810704856733,352.16975204888195L1169.445541525462,352.65649730794206L1175.4130148927995,319.0066059396278L1179.2539318168315,331.44872963657775L1179.3663488975349,342.7941310450549L1181.6802671420128,347.0782434332191L1182.7388613186363,345.1245497555567L1184.2471238180733,351.2400160797091L1190.186492915235,352.86419754709743L1190.5424803374624,356.64845044531313L1191.2169828216827,357.15106003126823L1191.5823383339687,359.1452137427223L1193.3997478053398,343.0174596463639L1193.5309010661604,348.42964443645354L1193.6901585971568,351.9820993901929L1194.7019123234872,356.60710229633L1199.1985955516225,359.0096282341137L1200.9785326627593,347.0416234867061L1202.0652311095585,349.97257070956863L1204.1262109224538,347.30150763843517L1204.3978855341536,283.37336703719865L1208.7165750511751,308.5165026199129L1211.1241741962392,318.13138666503073L1211.395848807939,322.21786026874037L1211.9673023015143,334.66949948751324L1214.8152016793333,345.0471591865425L1216.3890408091804,341.2657513812431L1221.1573986490155,346.81665947335875L1232.5208918901153,347.6184232525444L1232.530259980174,349.94836762174384L1233.8324244983214,355.14502679226683L1234.1134672000796,355.99943517002913L1234.4975588924829,324.43731383303566L1238.5445737978046,332.71135895663383L1238.9380335802664,338.84477196581616L1242.010767119492,347.7989912355008L1245.9172606739344,350.4527472378119L1246.0296777546378,343.97585374619626L1247.0133272107923,350.9845301128191L1250.0954288400765,330.28575252356706L1255.1635655617872,342.7677688431028L1255.388399723194,318.56036873796245L1255.6975466951283,336.0255727041431L1259.7914020507428,334.4754678334341L1260.6720025162526,345.5704195160509L1265.9462372192527,341.82470478665573L1266.4895864426524,346.69468534623644L1268.5974067058407,353.4634001625957L1270.9113249503187,351.7682198227701L1281.7221008779602,356.32984778433837L1283.9985467622034,353.4907757658441L1286.32183309674,357.2485906231408L1286.8183418698466,350.02159166308843L1287.8394636862354,355.4839872530075L1290.8091482348163,354.981636533303L1292.008263762319,349.7722613753947L1292.8982323178875,355.2655896380079L1294.2847096465623,347.1546904448868L97.4175237579379,353.6258406894424L97.9889772515134,354.49513552039014L98.15760287256848,358.167128078302L100.18111032522927,358.05113271761184L101.9797836164833,350.90562012083683L102.95406498257924,353.0931712669765L107.11349696860421,357.3278115111313L109.86771544583695,359.8196172912199L111.4790269359187,360.6423373099851L112.3034188610768,348.32029840086346L112.41583594178016,351.60770698146854L112.4907806622491,350.29179533548484L113.20275550670381,355.3118738397089L113.60558337922424,357.4657168710131L117.16545760149786,334.7147186732757L118.53319875005563,317.59042362409025L124.45383166710016,330.6929265098217L126.54291575017126,343.3314925306711L131.83588663328862,350.778333184003L131.93893562393336,349.83471340514967L133.6064556543668,352.06659775834277L134.112332517532,351.30277305447817L135.4426013058553,354.78362640656667L142.93707335274712,348.67470445377717L145.18541496681468,325.77595080135944L147.90216108381296,337.5861592974214L148.9513871703778,346.5715540488244L150.91868608268692,347.18645501140605L151.5931885669072,352.0415433571989L154.02889198214703,335.41848141521047L155.40600122076341,343.7234256966178L158.86282645239226,335.54734371524637L158.98461162315425,341.2437282966983L159.7808992781365,346.22402401832295L163.55623957175828,327.25570071466177L164.54925711797142,341.825162978463L170.469890035016,350.5663049859011L172.87748918008,350.0763448838965L176.03453552983314,351.7344015711957L176.69966992399483,344.31487307570694L177.43038094856675,348.9237501270637L180.3813293170304,346.5434759487456L180.4281697673235,290.1342945429165L180.5686911182027,319.5216231885381L183.6601608375456,332.80814414222056L183.95993971942127,321.2273346637885L185.80545346096838,335.30637381177786L188.7376656493148,338.04291902759445L188.91565936042846,340.16482320229994L189.8805726364658,342.5054591038515L192.49426976281933,342.31434542434357L196.9722168108372,350.75708046237594L197.2345233324784,355.55285320518215L198.04017907751927,339.05012840192677L201.6094213898515,333.5295935292361L204.59784211854964,340.47236193548923L205.95621517704876,316.49681642516333L206.38714731974505,333.3177248230325L211.31476269057643,339.2459324291508L211.68948629292103,347.1952143973584L211.97052899467948,345.2189119885214L212.0642098952656,351.7838150159496L212.77618473972035,319.070734700002L213.09469980171323,323.59107435858834L214.20013442862978,256.0701197327912L218.5750324860029,290.63523096301503L220.81400601001184,313.16704054105196L222.99677099366906,333.14876072216157L228.908035820655,342.97751876067196L229.2452870627651,345.425915784113L230.15399179845076,348.00181999904373L232.12129071075987,351.009095258977L232.13065880081848,355.9045962349675L234.9317177283443,358.6404893476532L237.32058069329108,358.3503331569705L238.64148139155574,360.3588078288647L241.3956998687885,361.09102986441036L242.8571219179324,360.8938395506397L244.1967587963143,350.2781582756347L245.00241454135517,344.991540073271L246.83856019284366,344.9161893638508L247.07276244430906,344.61713929656656L248.25314179169453,343.5569142720468L251.13851352974785,351.59628300961293L251.6912308432061,355.52256329405753L252.80603356018128,305.3417041194303L253.96767672744954,284.53689480652713L264.22573534163274,301.2745972400977L265.0501272667908,326.00849416448085L265.4154827790768,324.29812970557674L265.79957447148,333.71127324135534L270.6803493920183,329.9723635171156L274.27769597452635,308.94315443450625L280.55431631379827,330.8037974849874L281.7253275711251,339.36205671698036L288.26425443203823,344.8743247938321L289.1916953478411,321.27606959186414L290.4657555958127,331.7173573419482L291.60866258296375,272.9418583438651L292.15201180636336,307.98855909480994L292.7984100204078,321.4780488616298L292.83588238064226,312.82046781404864L293.7820594765624,333.1641537217817L294.5877152216032,342.22442007845535L300.00247127548255,350.56884827875297L302.2601809796087,347.5994807531288L304.1619032615075,347.7060629412514L304.6396758544969,322.93995340238433L305.28607406854127,328.5418006859723L310.26052988966575,341.05977584388944L310.43852360077943,350.097751108451L312.3308777926196,354.05277597265206L313.3145272487742,303.99916176237315L314.99141536926624,326.3816326743791L315.12256863008685,337.34840085304853L315.459819872197,342.6301404867465L315.84391156460015,333.0602892941636L316.72451203010996,338.9455145788706L317.1835484429821,322.9176272516281L318.86980465353275,331.0525456667175L319.6848284886322,344.06846821816777L319.8534541096873,351.2382979914595L321.1181462676003,356.07192714217626L328.86555674607473,356.9867541840684L331.1420026303181,345.47974852638316L338.5427937766238,344.53980575584217L339.17045581055095,336.40005794019453L339.74190930412647,329.1796793480059L347.58300068318704,342.867870650624L348.92263756156893,348.4400448991213L353.8408848423417,292.7357673944117L357.54128041549455,289.6717829366534L358.8153406634662,318.3009259105019L358.95586201434537,332.66411554071465L364.3331457079903,342.21893752379253L365.1106971828553,342.2072980080808L367.54640059809515,342.4492465044293L369.1764482682941,330.99764547397234L369.860318842573,240.8348885765171L371.22805999113075,287.56203267488695L371.40605370224444,310.1757955537144L372.02434764611303,318.6090484383072L373.53261014555,336.45238505151303L374.38510634088397,340.70592669696595L374.8347746636975,349.3346347605249L376.6428160450101,297.2881508646996L378.3852807959125,315.0274321175515L379.490715422829,328.67453779331373L380.1277455468148,334.6693746771732L380.55867768951106,346.1092139674016L386.71351285802103,352.5224174985314L388.1749349071649,352.84917075761746L389.3927866147848,356.9799265602815L390.88231293410456,350.6147579454874L393.36485679963744,355.808798266997L394.43281906631955,358.9368129006901L396.84041821138356,343.68007149713094L400.8031203061776,351.17248323706895L401.27152480910837,354.7329338045845L402.8828362991901,354.5922231688773L403.2294556313589,352.99935959778725L405.5433738758367,357.1312046412723L407.84792403025597,276.82548878944425L409.76838249227194,311.0751695324821L410.0306890139132,328.023957864444L411.688840954288,341.216277738037L417.1785417286362,349.27951738637677L417.3940077999844,339.07737627264964L418.9772150198903,341.81692544633177L418.9865831099489,343.34617432248683L419.5767727836416,330.2944923746227L420.3449561684481,341.7955464383968L421.5534397860094,349.47397964417627L422.0874209193504,351.15927457375676L423.10854273573943,356.16545452948236L423.77367712990105,354.9718060307732L425.0383692878141,357.2924674528152L428.2141518176845,358.6149005225295L429.78799094753174,359.17733314154486L435.97093038621756,359.83125705145505L442.210078365255,294.35096489780216L444.0555921068021,273.4280405022173L444.43031570914667,300.86106346275824L445.58259078635626,307.63768814115645L450.08864210455,329.9427075669029L451.3439661724044,342.0796444360082L453.2456884543032,321.48890901492456L455.0912021958503,323.07982795047326L457.91099730349333,336.0308176623189L458.1264633748415,343.9186206547837L459.9251366660955,309.7294781169814L463.26954481702097,323.7119881179415L463.99088775153433,339.6958552801926L465.8832419433745,343.5669659806269L466.6795295983568,350.163708065664L467.719387594863,335.7301930081613L468.1971601878524,345.1282802210666L470.52044652238885,346.58753207091974L474.20210591542445,328.40147410867525L475.54174279380635,333.587136845661L477.49967361605684,244.29336872636566L478.9985680254352,292.03976569917506L480.6005114254583,308.1679737720636L482.07130156466087,328.22992447470693L483.46714698339446,342.04120059695987L486.24946973080307,347.52527729424656L488.41349853434303,351.38535582112087L490.8585700396415,346.7111227205429L491.40191926304124,342.4274589954412L492.24504736831653,329.7634848404747L494.35286763150486,302.793498729136L497.2288712794996,318.9919460044673L503.9457918515264,327.53183675255866L507.7679725954412,336.75512089848706L508.1333281077272,343.1408319169745L508.22700900831336,307.98334377579266L513.4918756212548,326.8298682814702L515.2249722820986,319.88659956007075L520.4336303546884,333.30317805345584L521.5671692517808,335.362750750773L522.3259845465286,339.40348634828007L523.459523443621,275.5933266591615L525.9045949489195,308.0960376969461L527.6751639699976,328.22523272073965L533.9424162192109,329.9004592111605L536.1251812028681,336.94140667833165L538.7014059689873,347.26068662452485L540.4626069000068,348.8855870651079L541.0246923035237,347.6302542425383L541.989605579561,348.9936414250023L542.9732550357155,354.68779302373906L544.5939346158559,351.5779874643156L549.5590223469218,353.6793981092313L551.4513765387619,347.9610065664696L551.5918978896411,350.0225476439655L554.2618035563464,348.865034867083L558.964584765771,347.38040703373764L564.5854388009399,345.8604452826001L565.4473030863325,347.4917145982603L566.627682433718,303.52579795935503L569.3350604606576,324.5737532899993L573.7286946981479,281.2575936125131L573.7849032384996,305.70369820218565L574.1034183004925,328.7616968306401L575.3212700081124,338.40169772400384L578.468948267807,331.62158581356675L578.7406228795069,338.7704394636842L581.6540988877359,303.91091056906544L583.2747784678763,325.3507818104454L585.9540522246401,340.5344692360826L589.2235156550968,349.4049285942099L589.5045583568552,347.92939697290404L591.9308936820364,347.14496081769715L596.09969375812,323.6496856277051L596.1371661183545,339.01093976262416L596.6524110715783,347.0805703038262L598.1419373908981,353.00396805639406L599.3972614587524,354.53294608824166L599.9780830423865,350.16940287073925L601.5987626225269,344.0027965608315L605.8237712389621,272.00299342359745L609.7115286132872,305.4466184341809L612.8311026028059,322.13705762193064L613.3369794659711,317.24426670411873L613.852224419195,316.68206727466224L613.899064869488,326.50097169662047L616.4752896356072,341.28565160954474L616.9155898683621,337.7458103665546L616.9343260484793,347.7078858536818L618.9297292309642,351.0769798422306L619.9789553175291,258.6056453319988L621.9649904099555,208.14228513981607L623.0048484064616,268.3192807116396L623.0985293070478,295.97722950200364L625.1407729398259,302.3882430616621L630.7241546147602,321.4603341275668L630.8178355153464,334.4940263467705L631.4736018194494,342.8290028454503L633.6563668031066,348.49119173647784L638.8743929657551,349.936711723276L642.5279480886148,344.6599511107631L644.6545045319205,350.24771406891097L644.7762897026824,352.58466780595205L646.7435886149915,356.86145816265764L647.5117719997979,351.0958976979978L648.9263535986487,354.1144453617894L649.18866012029,353.0573086213434L651.1465909425405,351.34700376606196L652.1677127589295,348.99682343883813L652.6923258022119,337.1814224745994L653.1607303051426,344.737793348845L653.2637792957873,351.5632658437029L657.4700517321054,348.6360907792046L658.1632903964429,343.0136460590003L660.6833066222102,312.62434503262915L661.1142387649066,283.4845756940701L661.8730540596544,315.5361691937046L664.7396896175906,329.4036924482219L672.7494066177061,342.9392741755815L672.9461365089371,348.9210751957565L673.0117131393473,345.5669090171719L673.2271792106956,347.35729936800857L673.60190281304,335.10573827981267L676.0001338680455,338.64323575702883L677.3678750166032,342.7473540235172L679.3258058388537,350.26057701132913L682.0331838657934,260.70211134011055L683.1198823125927,294.16140946641366L684.0941636786887,313.29979122456905L700.7037873526126,325.9571386746386L711.177312038144,335.8504167794482L712.7979916182843,346.903594069587L714.9151799715313,344.6247909184751L715.2524312136414,350.6289097550848L720.9294937891619,348.9666618402375L721.7913580745545,352.1099913944077L723.2434120336399,356.47268541792084L726.3910902933344,354.4248917451927L729.4357195623842,356.951190878605L729.5762409132634,353.3747410033121L730.5411541893008,346.20796263558884L731.5997483659243,352.8014540045309L732.5927659121373,349.4940725136459L735.3095120291357,319.78469161938926L740.8085808935425,336.2945716944595L742.963241607024,268.5527396160204L743.4316461099546,305.29130528527105L745.5769387333775,328.58009341157276L746.7292138105871,342.13642477148846L754.1019006867169,350.17695323873215L756.7811744434807,353.6909956081116L758.7391052657312,285.87386912199844L762.8704329815804,316.77232608040384L762.9079053418147,332.71654250451206L766.6926137254951,344.3268399817382L766.9549202471364,322.5904363183816L770.467954019117,337.3104371905767L770.4960582892927,340.25478901733715L771.6483333665024,344.1197495157895L774.0840367817423,351.92247607062757L775.6110354612964,349.7483788681067L776.1262804145202,351.9534322062072L782.1405942321509,349.8788889657513L786.759062631048,347.6399510826446L788.6982572731814,347.215201598287L790.356409213556,348.2090610519053L791.6211013714691,295.2982725064063L795.5838034662631,263.1087653270638L796.6986061832383,296.6618231127763L799.0499967879506,302.6347914991323L801.448227842956,326.9235866999071L803.9026674383132,332.4891999621524L806.3664751237287,334.36506314132686L812.3245804010078,341.00190485145094L813.1770765963417,344.0450188309964L818.1609005075248,349.7567252557793L819.6504268268445,351.3009552678329L823.2196691391769,345.1258947075021L824.5218336573241,345.8539077725916L825.8052619953544,331.69831935186255L830.873398717065,284.14895259800164L834.8829412621523,307.8692493857729L839.679403372163,329.56051758711106L844.9161657149286,305.0961252056707L846.8085199067688,327.67292290843363L847.5017585711063,331.49076319462193L851.7173990974829,343.1577145614715L852.5417910226411,350.29758810481593L852.6635761934031,344.4156126362659L855.5864202916908,337.4497068548841L857.3288850425931,345.7909033269431L857.647400104586,352.88589423534L861.806832090611,348.2899514406649L862.3970217643038,353.4735972057249L867.0998029737284,353.73899579896243L867.2028519643732,344.3684403151264L869.1045742462719,350.4583077809144L870.1912726930713,355.52240426467165L872.8143379094835,315.99976125601984L875.962016169178,326.27208544545067L876.5896782031052,341.23341900023735L878.9410688078175,344.1303505228214L879.8404054534445,249.35111344219385L881.7702320055192,282.92180758734867L883.2035497844872,302.0199371526534L891.2601072348959,321.6309759798969L896.3469801367238,336.76333793740474L897.068323071237,343.95535479939446L903.5416733017398,316.86469259305454L903.6728265625604,333.6329490758638L905.5839169345179,337.6213796408623L905.9118000865695,347.8253221744495L906.6987196514931,348.8139525470806L910.5021642152908,286.3586672468811L911.0829857989247,315.485184454932L911.5982307521485,324.9273808423139L917.2471890574933,335.80221146342956L923.0835091640103,345.05911594577117L923.7392754681133,352.43243670100355L924.0109500798131,283.9137535512397L924.4887226728026,250.77972009548526L930.0158958073853,284.6646784498454L930.3344108693782,304.1411291336517L932.8544270951455,326.3685778731096L937.1262761618739,334.77475081306704L938.1005575279698,339.87294818082427L939.4589305864689,347.4746972565964L941.0140335361991,344.85454991061727L944.32096932689,351.83901679794315L944.5364353982382,354.0991927194528L945.9416489070304,355.16160407277243L949.5952040298903,338.01614632335816L954.1762000685528,298.24871174590737L956.4432778627377,320.5058783474324L957.4175592288335,312.3975443070915L959.0288707189153,332.76979234083535L959.6940051130769,232.18941715791684L962.4575916803683,274.12773729472303L963.4787134967572,302.4951210636968L967.7505625634857,322.5204170990924L968.8372610102849,321.8789256303438L972.8936440056651,331.9190622980714L973.4838336793578,339.57302569076586L977.0624440817487,315.47687046552784L979.2452090654059,332.1622926613397L980.144545711033,342.23728182123875L987.779539108804,284.2715267451125L988.4821458632002,308.60407975672325L989.0067589064826,322.80079311772676L994.1311041685448,338.4914670470171L994.1966807989551,347.79549424518694" fill="none"></path></g></g></g></g><g opacity="0.2"><g><g><g><path style="fill: none;" stroke="rgb(255, 112, 67)" stroke-width="2px" d="M97.57678128893436,331.9740700860945L98.74779254626121,344.0636785096237L99.32861412989531,350.7293640364917L101.62379619425593,350.0354024639127L102.20461777789006,355.42580648329806L102.67302228082079,360.12464850008564L103.24447577439629,361.52667931798265L106.68256482590793,360.37736920777127L109.67098555460603,362.4519764043404L110.158126237654,358.56532392282134L110.63589883064336,345.02080837665335L113.42758966811057,355.4052803317357L113.45569393828642,353.6547207823855L114.76722654649248,359.89840233701267L118.79550527169684,359.7804525315853L119.56368865650326,359.2461277297114L120.47239339218889,341.94971669641956L122.33664331385323,353.95531142769033L127.59214183673612,353.21071410711585L128.14485915019438,48.6739917305109L137.62536628951256,349.90319339003844L138.40291776437758,358.843308727434L139.26478204977013,345.50771524645904L139.4240395807666,329.2527166578086L143.75209718784663,338.2870253160651L145.27909586740083,362.69785989062444L147.25576286976855,309.755424302856L150.79690091192495,359.3328293483127L152.52062948271006,363.65381629075915L153.29818095757508,338.53160157911606L155.2654798698842,356.9172263825439L159.94015680913296,348.51217064578964L160.05257388983634,14.241386392523733L161.39221076821826,359.2117066957155L162.44143685478312,343.971252414568L164.2120058758613,345.7478725178058L167.09737761391466,350.8081122117783L170.23568778355062,348.92822437059846L170.56357093560212,198.77564646197152L172.74633591925937,348.44734424147197L173.81429818594145,363.6544098160609L174.19838987834464,346.0026515892311L176.79335082458095,353.888374736944L180.35322504685456,347.9050896396506L180.8872061801956,348.1885430160365L183.93183544924543,363.58791950795995L185.88039818143727,335.58611273778126L186.68605392647814,338.9620703404386L188.0350588949187,273.91472756382575L194.6020900260077,359.5894090244148L195.35153723069686,335.80194052060165L195.75436510321725,340.6252393683683L199.34234359566676,362.9968867705713L199.91379708924222,345.0209678534836L200.41967395240744,354.38888071529453L205.2161360624182,363.49926163251394L205.53465112441108,342.9103828694416L209.30999141803287,152.8326562567934L209.3568318683259,351.37242561167625L211.13676897946277,353.8599989874448L212.3171483268482,363.0107181983794L217.81621719125508,343.93632513435506L219.28700733045758,110.17902773543099L219.5399457620402,349.99671357032514L224.77670810480586,354.15984695285977L231.09080080431224,318.2183478764207L234.59446648623415,343.57503593850237L235.6343244827404,349.7500696716258L236.5149249482502,240.05119489649135L242.13577898341907,361.7909638343464L244.86189319047597,360.6685096918934L248.15946089110838,297.3890864911572L255.1012156245419,358.2888277231564L257.0591464467924,363.6778179385367L257.34955723860946,326.15346248197653L259.4105370515047,360.6435237522285L261.52772540475166,345.5914628349367L280.1514884412779,352.9590207269183L281.17261025766686,363.3032228989986L282.02510645300083,358.6238797352601L284.4982822284751,347.2149258408903L285.04163145187476,362.9409857374017L285.1259442624023,360.09578110762556L286.8309366530702,352.2978214438621L287.57101576770077,347.6109754225987L289.59452322036157,354.82878920690234L289.9598787326475,295.271174844831L291.84286483442907,354.86686708170413L291.8709691046049,351.5246712803315L292.5548396788838,360.8484067421778L294.66265994207214,164.07537224503264L295.2622177058235,361.2237762586388L296.9016334660811,352.7960233528914L301.8573531070883,337.63843304731887L305.5764848603584,318.3006787172433L306.3727725153406,362.53347937961166L306.63507903698184,143.8267548725259L313.94218928270135,345.6957532644124L315.3286666113763,347.1807699834843L316.03127336577245,357.1672369113056L316.64956730964104,320.3775788568432L318.92601319388444,352.11841371856127L319.2164239857015,363.60768345791837L323.39459215184365,345.4665887680644L324.6592843097567,348.84013752883186L324.6780204898739,361.0339921084725L325.0340079121013,363.237128068591L327.8350668396271,346.10122495977953L328.82808438584027,200.1794727849955L330.76727902797353,348.5118368570751L333.7556997566716,227.1953373911047L335.0484961847605,339.1346910285437L338.9924620994373,344.06901542029277L339.3203452514888,339.50930395725175L340.0135839158263,338.1388546512998L348.22003080717286,363.6435314603999L348.2293988972315,361.513341909062L354.85263856867215,352.87531764360256L355.7707113944164,302.3487565726301L356.0985945464679,363.0912207346979L358.7029235827628,350.7410670396998L363.5930665933597,363.3271720943932L364.5767160495143,349.012222300612L368.5768905045428,339.0999083901071L368.8204608460668,363.5336073757134L369.43875478993533,363.5109359942164L370.74091930808277,363.65786218411534L371.32174089171696,336.54497830612655L373.27030362390883,334.78123688412467L376.6240798648929,302.77723001919236L378.2728637152091,363.14918714348806L378.5164340567331,333.28806459412755L379.856070935115,337.56020595330335L382.6290255924649,359.0148251312086L383.95929438078826,333.83948911369L384.839894846298,350.8091896075735L384.97104810711863,247.7957161460459L391.3975578873284,358.206733779602L391.74417721949715,363.29733268717564L395.8380325751118,346.79947386295856L396.36264561839425,340.80032082105237L401.037322557643,358.9328308606732L402.0397081939148,363.6272186742344L403.11703855065554,351.2468283359225L404.10068800681006,352.585136570237L405.3372758945472,323.5896573269527L405.41222061501605,301.82611762093313L406.64880850275324,334.0395027289683L408.02591774136965,362.6877465561694L409.8433272127409,362.49018733103264L410.1056337343821,361.04700453699195L413.23457581395945,250.06723735880254L413.34699289466283,199.17726104330396L413.6842441367729,36.79921343242205L414.19012099993813,362.44563349157335L414.5367403321069,359.8298857130176L414.8833596642757,361.07247655647245L416.03563474148524,356.53506426574205L419.0896321005937,353.3793098596382L420.6166307801479,337.5791781329614L421.30986944448534,350.644471367285L428.3827774387396,353.2771603138899L429.5912610563009,184.8306957212625L432.28927099318196,361.9627283775786L433.9942633838498,344.9420398031676L434.78118294877345,362.4551137864594L440.3270922634734,348.07476186077736L440.6081349652318,298.8333086661673L442.39744016642726,357.0139870949342L445.69500786705964,352.5614830038576L448.3836497138821,216.193705865086L450.9598744800012,363.38755902188336L452.009100566566,359.60146899610925L457.433224710504,361.8838513227606L459.9157685760369,142.3196765738047L461.0399393830707,361.26705057469235L462.3608400813353,363.6160643652006L465.311788449799,336.7600884432107L469.1152330135966,357.46176419189175L471.05442765572985,353.2648379471782L472.0942856522361,358.42440852664294L474.67987850841376,318.37628927861317L476.5909688803712,205.07815595955884L478.1554399201599,346.3317635530023L478.65194869326643,356.7994508890008L479.33581926754533,340.97762567745156L481.64973751202325,355.1368214861596L483.8137663155632,363.46766916812663L486.324414451272,355.5315210779558L491.8984280361478,349.0169324302505L494.8587444946701,216.41265642676908L495.02737011572515,357.1167189165512L496.9946690280342,345.21665334176345L504.8638646772706,201.60581871996033L505.99740357436303,286.8819814895443L506.6719060585833,360.868802159827L506.9623168504004,305.80007624950315L507.5525065240931,358.56051968330917L509.3137074551126,356.1490264910881L510.06315465980185,355.26785210043334L511.2529020972459,347.0739260703424L511.31847872765627,356.3551846002865L511.7306746902353,351.77613657157417L512.2271834633418,283.8806497962672L517.0236455733526,359.51654712039004L518.4101229020275,351.1390692853882L522.2323036459425,362.9799065446066L523.4969958038554,363.0267529214506L524.9115774027063,349.9679233665053L531.0945168413921,350.4755140103219L531.2444062823298,363.6608602974567L531.9844853969604,352.1045142001734L540.3033493690103,335.19753075136975L543.4603957187635,363.6128510693289L544.0880577526907,344.63067983586456L544.4534132649767,357.1514987734152L546.3551355468754,336.99211610497673L546.5706016182236,359.61894468969706L547.5636191644369,363.6596618797105L548.5472686205914,274.9473585837023L548.9782007632876,334.2709610955378L551.741787330579,350.08882905643804L558.7678548745401,333.91945747216636L559.5079339891707,322.07788002488354L560.6883133365561,344.9533867650801L565.6440329775633,361.22605900256985L566.1124374804941,323.5801666011693L567.133559296883,350.60976104973656L567.4146019986415,349.6785211334736L573.2602901952172,357.2808961409649L574.7591846045955,363.4331852445123L576.2112385636808,350.256143431173L577.082470939132,363.4808320623401L582.431650362601,361.6058593324186L584.3333726444998,310.15779547194137L587.0594868515568,363.51371132278655L587.6309403451322,359.9900419424097L589.1017304843348,362.5181246351475L590.7130419744165,324.76639606118584L592.8114941475462,362.90707662866697L593.1206411194805,221.43068761059732L594.5539588984485,348.05028773047474L594.6944802493279,340.7054673402893L598.0763607604877,330.71093199748486L600.305966194438,354.9825267256734L600.4090151850828,360.53162270826357L601.767388243582,351.4494733189004L602.1795842061609,357.11296935665786L604.2124597488804,362.7735486837243L610.6202333489729,361.24012981947175L611.8380850565928,315.80922041171385L612.2596491092305,351.8311913112737L615.2293336578114,259.35415175307634L617.5151476321133,327.7939820912431L617.5900923525822,336.9082572535942L619.6042317151845,348.93684724572404L624.9534111386536,357.8163331082918L626.5459864486181,350.5364879365593L626.6771397094386,363.44635047119027L627.4921635445381,101.99292626912334L629.1690516650301,359.22794366229607L629.4781986369645,348.0552352209769L634.0217223153926,363.5074783835495L635.6986104358847,340.5931103502122L644.6545045319205,332.0349494388628L647.2682016582739,356.8184314133767L647.5211400898565,287.38328021609186L647.680397620853,337.7986367952433L652.3738107402189,358.78170106623446L652.8141109729739,335.1411872163557L653.9476498700662,360.1339612052212L655.8962126022582,342.0149445743856L660.9456131438516,363.34300779014836L661.0018216842033,341.42253265505957L661.2079196654927,326.43051453257027L662.051047770768,298.1471429144545L663.7185678012015,358.16128937330853L670.5572735439903,362.53237857224684L671.222407938152,354.01094009854074L675.0071163218323,329.9925593435826L679.3070696587365,343.47704855258615L683.1292504026513,231.3820714901389L686.1926158518183,360.9747137825454L687.5978293606106,341.97083810452284L692.1788253992731,335.26831992019635L693.6589836285343,333.3831869602439L695.4763930999056,360.9743857887738L701.621860178357,362.76790446723L705.0693173199272,332.43914161082415L708.8446576135489,287.8682752183159L711.7393974416609,344.65626474083393L712.1328572241226,363.3600952805073L715.9363017879202,339.9746146972268L722.8499522511779,163.36906049001573L724.6205212722562,343.04253723905424L725.042085324894,356.2120124215214L728.9673150594534,350.9172639030049L736.8458787987485,360.0006823848764L737.7545835344341,328.59061707241403L738.2323561274234,303.5855884017706L739.7406186268604,360.72216298258735L745.1834789509156,357.39411820012714L745.3146322117362,277.54118617921705L747.8440165275622,330.6330627991466L750.3171923030366,292.9954849819061L751.0572714176672,345.5942444075578L752.1533379545251,337.57924674508604L757.2776832165873,357.8567034625289L758.3831178435038,197.05575931391476L759.0950926879586,354.1417964009302L761.5214280131398,293.5719010042787L762.2802433078875,346.52690199866663L766.3272582132092,363.0734712300552L767.5076375605947,335.4255714923788L768.8379063489181,356.7457039520286L770.8052052612271,363.4507318247399L771.2829778542164,335.4045020069645L771.4890758355059,311.84266818384305L771.7982228074402,357.80438022714327L772.0324250589056,335.7473605026294L774.4681284741455,347.5640298942807L774.4868646542626,361.5130561024751L775.4424098402415,96.88239852373309L775.4705141104172,340.6205106949123L776.9131999794439,335.48376570037686L778.4589348391154,287.2048516043537L779.8641483479075,338.0037703585262L781.1382085958792,328.44346075446464L782.7307839058437,319.5411080469738L788.4921592918918,360.14698823699695L789.7100109995116,357.9901800063275L792.1738186849274,362.9014876379791L804.3523357611266,322.682219327609L811.2004095939741,346.3541255424946L813.6735853694483,306.0749809260334L815.0225903378889,342.6984437251455L815.4628905706437,331.34919165113445L816.5589571075017,356.6599091261018L817.645655554301,346.4981646447266L817.7112321847113,360.1208875821041L820.3811378514166,358.42237473346137L823.4913437508767,359.40931981382175L826.9669051626227,349.6236713029572L829.1590382363385,362.87826602664796L829.8429088106175,362.6148647175408L835.1546158738521,360.2451406628887L835.7916459978378,363.5405781705503L836.5129889323512,363.08020541737096L836.6441421931718,361.86364041609534L837.0094977054578,357.2082683526357L837.3092765873333,362.95405976616485L842.8551859020334,348.6515645217443L846.3963239441898,347.9857292843195L846.9209369874721,355.2003544592085L847.5673352015166,147.26701872542074L848.1762610553266,158.10068777028383L850.2840813185148,346.05012561634715L850.4339707594527,336.0580844169931L851.7829757278932,342.4505277205675L852.0265460694172,348.0781609425204L852.373165401586,345.30268367417216L855.9611438940356,355.08829046144746L856.139137605149,339.7331111447314L857.0946827911279,360.7892297118537L859.5678585666021,342.74361275574955L860.6264527432256,358.0089254878169L872.2616205960251,331.6330270301603L872.5801356580181,348.4022030265941L873.3202147726486,363.48690717630564L877.2360764171495,361.43268650214816L881.8732809961639,352.43155760110534L887.9344352640876,329.7701114179239L889.7331085553417,363.60859092425494L890.5293962103241,331.84101077818906L891.7659840980612,328.1272404526016L894.3047365039457,337.9437217687808L895.054183708635,350.6663011492158L898.2299662385054,362.042551051189L898.5203770303225,157.9721865327136L898.8295240022567,351.9963100980197L899.8974862689388,206.21625679570244L902.9702198081644,353.70907549297544L910.1461767930633,311.98141302618615L910.9424644480456,361.83232315354917L912.2821013264276,357.95731618940397L915.8888159989942,345.06368539141755L916.4227971323353,358.9991263989303L918.446304584996,346.59212616786914L919.9733032645502,303.2823784422476L922.8586750026036,342.27308934868245L927.8893393640798,363.38850394528254L929.2102400623444,352.84627802543775L934.1940639735275,360.9274583406778L934.3439534144653,363.2311286220932L937.9225638168562,363.4822894180579L940.0584883502203,346.2137710967948L940.6393099338545,174.7965174054614L942.5316641256946,324.50386011091103L944.5270673081797,361.4807247249109L950.5601173059274,347.1368823306678L952.4899438580021,353.4084143811643L955.5252050369934,350.57865657749596L955.7406711083415,350.863613857479L956.5369587633238,316.23099954016794L956.5650630334995,340.163674479523L960.1717777060662,360.8325990649718L965.8769445517627,259.80205912035177L966.429661865221,338.6058343348476L969.5960763050327,339.04945066275945L970.5047810407184,263.1584752481546L972.8280673752548,339.13702013201856L976.8563461004592,296.18700948472707L982.8050832876795,360.11954014196687L985.1283696222162,355.522606137705L987.6858582082178,355.4767936366346L988.875605645662,357.4515924444117L990.1590339836922,341.7937743177508L990.6836470269745,349.93874374251857L990.9834259088503,363.3807945270159L991.6485603030119,337.55927876242964L996.0421945405022,360.7957613079636L996.2576606118505,336.478689721801L999.3397622411347,339.16365832582045L1001.5318953148505,325.0958343961446L1002.1408211686605,355.17396104379725L1007.3494792412503,358.8730914890842L1008.0052455453533,360.1581634368002L1009.7851826564903,348.1319917902667L1011.4714388670408,346.55922572690616L1013.3450568787638,363.67287458824956L1014.094504083453,341.5750982045663L1015.1249939899006,361.1102410407589L1017.2421823431475,245.22712297735018L1019.0408556344016,341.5305633725199L1019.6966219385047,345.3368450947234L1020.1556583513767,149.3144490302904L1025.1394822625598,363.08542753022004L1029.364490878995,271.76388209766515L1030.3575084252082,211.00346937466398L1030.3762446053254,229.13875913252426L1032.9056289211514,363.353991843758L1039.2946663411267,352.37895620845757L1039.5101324124748,359.2174436892467L1041.0277630019705,341.9669179415087L1042.0301486382423,361.00910375564706L1042.5828659517006,360.5784048191901L1043.3323131563895,192.3572455226965L1044.0349199107857,341.85844773557426L1044.8124713856507,353.84939099665854L1045.5525505002813,350.8012380186405L1046.4987275962014,357.94015342273605L1047.3980642418285,331.1835731085075L1048.0350943658143,351.97497636320634L1052.007164550667,355.8200369165122L1052.1945263518394,362.168413155836L1057.4968653250153,351.02482731626486L1057.796644206891,93.93277441110146L1059.1456491753315,361.66921034425854L1060.9724267367615,350.4380369552062L1061.2628375285785,221.06050850864742L1061.7780824818021,353.22568082219937L1062.1059656338537,352.86377968037004L1062.1996465344398,353.93145202493696L1064.0264240958697,362.90619029214116L1066.939900104099,243.05923203416717L1070.9681788293033,363.66995545228446L1074.0502804585876,245.072556549938L1074.5936296819873,357.49877857876146L1079.1652576305912,289.61849263423375L1079.7273430341081,337.19319784414154L1079.8584962949287,231.69777627387617L1079.999017645808,343.97265803593257L1080.12080281657,289.51222172505175L1081.704010036476,361.0588922829816L1084.8985287464634,342.90018562421244L1086.5473125967796,363.1086271787173L1088.0836793663925,354.6269008116774L1088.2148326272131,363.3164590702658L1092.1681666319485,342.37427368873125L1092.7021477652897,342.32862993639986L1093.8544228424992,363.67977697838114L1095.5032066928154,363.62586542104503L1096.440015698677,352.04775342926615L1100.5338710542915,350.2025944494523L1107.410049157315,233.12103651761328L1113.143320273187,334.2453001609168L1114.4267486112171,345.8797858177913L1120.5722156896686,320.72734492451735L1120.5815837797272,297.0836920699356L1121.124933003127,363.36545545787243L1122.99855101485,301.43536971664065L1126.005707923665,339.49129234733897L1128.2634176277913,353.81361719117797L1129.462533155294,362.7289047908514L1129.7716801272284,351.88173248580006L1131.5890895985997,362.98440058082207L1133.1629287284468,344.56055453570355L1133.6781736816706,177.94456036506853L1134.5775103272977,333.8308940542906L1138.8587274840845,358.3155794978403L1139.2428191764877,351.9867025461862L1140.0672111016459,329.2884283415007L1143.5802448736265,363.15932006485036L1145.6131204163457,345.77751481003855L1152.6298198702484,93.09201256186854L1152.9951753825344,363.20032534201295L1154.8594253041988,354.12109408310187L1158.794023128817,336.56239465949847L1161.295303174467,343.5653875902705L1162.7192528633766,349.5132475058518L1164.9582263873854,353.1919523997862L1167.8810704856733,363.2644923107964L1169.445541525462,353.38661519653226L1175.4130148927995,268.5317688871564L1179.2539318168315,350.11191518200275L1179.3663488975349,359.81223315777055L1181.6802671420128,353.50441201546545L1182.7388613186363,342.19400923906306L1184.2471238180733,360.4132155659378L1190.186492915235,355.30046974817986L1190.5424803374624,362.3248297926367L1191.2169828216827,357.9049744102009L1191.5823383339687,362.1364443099034L1193.3997478053398,318.82582850182627L1193.5309010661604,356.54792162158793L1193.6901585971568,357.310781820802L1194.7019123234872,363.5446066555357L1199.1985955516225,362.61341714078924L1200.9785326627593,329.08961636559474L1202.0652311095585,354.3689915438624L1204.1262109224538,343.2949130317349L1204.3978855341536,187.48115613534392L1208.7165750511751,346.2312059939842L1211.1241741962392,332.55371273270765L1211.395848807939,328.3475706743048L1211.9673023015143,353.3469583156725L1214.8152016793333,360.61364873508643L1216.3890408091804,335.5936396732941L1221.1573986490155,355.14302161153216L1232.5208918901153,348.82106892132293L1232.530259980174,353.443284175543L1233.8324244983214,362.94001554805124L1234.1134672000796,357.28104773667275L1234.4975588924829,277.0941318275455L1238.5445737978046,345.12242664203103L1238.9380335802664,348.0448914795897L1242.010767119492,361.2303201400278L1245.9172606739344,354.4333812412786L1246.0296777546378,334.26051350877276L1247.0133272107923,361.4975446627533L1250.0954288400765,299.237586139689L1255.1635655617872,361.49079332240626L1255.388399723194,282.2492685802521L1255.6975466951283,362.22337865341404L1259.7914020507428,332.1503105273707L1260.6720025162526,362.21284703997605L1265.9462372192527,336.206132692563L1266.4895864426524,353.99965618560753L1268.5974067058407,363.6164723871345L1270.9113249503187,349.2254493130317L1281.7221008779602,363.1722897266908L1283.9985467622034,349.23216773810265L1286.32183309674,362.88531290908594L1286.8183418698466,339.1810932230098L1287.8394636862354,363.6775806378861L1290.8091482348163,354.2281104537463L1292.008263762319,341.9581986385323L1292.8982323178875,363.50558203192764L1294.2847096465623,334.98834165520515L97.4175237579379,363.33256605627577L97.9889772515134,355.7990777668118L98.15760287256848,363.6751169151699L100.18111032522927,357.87713967657646L101.9797836164833,340.18735122567426L102.95406498257924,356.37449798618604L107.11349696860421,363.6797718773635L109.86771544583695,363.55732596135283L111.4790269359187,361.87641733813285L112.3034188610768,329.837240037181L112.41583594178016,356.53881985237604L112.4907806622491,348.31792786650936L113.20275550670381,362.8419915960449L113.60558337922424,360.69648141796944L117.16545760149786,300.5882213766696L118.53319875005563,291.90398105031204L124.45383166710016,350.3466808384189L126.54291575017126,362.28934156194515L131.83588663328862,361.9485941640008L131.93893562393336,348.4192837368698L133.6064556543668,355.4144242881323L134.112332517532,350.15703599868135L135.4426013058553,360.00490643469936L142.93707335274712,339.511321524593L145.18541496681468,291.42782032273277L147.90216108381296,355.30147204151433L148.9513871703778,360.04964617592884L150.91868608268692,348.1088064552785L151.5931885669072,359.32417587588833L154.02889198214703,310.4838885022278L155.40600122076341,356.18084211872883L158.86282645239226,323.28322074318913L158.98461162315425,349.78830516887615L159.7808992781365,353.69446760076005L163.55623957175828,298.8032157591699L164.54925711797142,363.67935637416497L170.469890035016,363.67801799705825L172.87748918008,349.3414047308896L176.03453552983314,354.22148660214447L176.69966992399483,333.18558033247376L177.43038094856675,355.8370657040989L180.3813293170304,342.9730646812684L180.4281697673235,205.5205224341729L180.5686911182027,363.6026161569705L183.6601608375456,352.7379255727443L183.95993971942127,303.8561204461404L185.80545346096838,356.42493253376193L188.7376656493148,342.14773685131934L188.91565936042846,343.3476794643582L189.8805726364658,346.01641295617884L192.49426976281933,342.0276749050817L196.9722168108372,363.42118301942446L197.2345233324784,362.74651231939157L198.04017907751927,314.2960411970437L201.6094213898515,325.2487912202L204.59784211854964,350.88651454486893L205.95621517704876,280.5334981596746L206.38714731974505,358.54908741983627L211.31476269057643,348.1382438383282L211.68948629292103,359.1191373496699L211.97052899467948,342.254458375266L212.0642098952656,361.63116955709165L212.77618473972035,270.00111422608074L213.09469980171323,330.37158384646784L214.20013442862978,154.78868779409552L218.5750324860029,342.48289780835074L220.81400601001184,346.9647549081074L222.99677099366906,363.12134099382604L228.908035820655,357.7206558184375L229.2452870627651,349.0985113192745L230.15399179845076,351.8656763214399L232.12129071075987,355.52000814887685L232.13065880081848,363.2478476989533L234.9317177283443,362.74432901668166L237.32058069329108,357.91509887094645L238.64148139155574,363.37151983670606L241.3956998687885,362.18936291772883L242.8571219179324,360.5980540799836L244.1967587963143,334.3546363631273L245.00241454135517,337.06161276972534L246.83856019284366,344.80316329972044L247.07276244430906,344.16856419564033L248.25314179169453,341.9665767352672L251.13851352974785,363.65533611596214L251.6912308432061,361.4119837207244L252.80603356018128,230.07041535748942L253.96767672744954,253.32968083717236L264.22573534163274,326.38115089045357L265.0501272667908,363.1093395510555L265.4154827790768,321.73258301722075L265.79957447148,347.8309885450231L270.6803493920183,324.363998930756L274.27769597452635,277.39934081059226L280.55431631379827,363.5947620607091L281.7253275711251,352.1994455649698L288.26425443203823,353.1427269091097L289.1916953478411,285.87868678891226L290.4657555958127,347.3792889670742L291.60866258296375,184.77860984674052L292.15201180636336,360.5586102212271L292.7984100204078,341.71228351185977L292.83588238064226,299.8340962426768L293.7820594765624,363.6796825833813L294.5877152216032,355.81481961346583L300.00247127548255,363.0854905791994L302.2601809796087,343.1454294646924L304.1619032615075,347.86593622343526L304.6396758544969,285.79078909408383L305.28607406854127,336.9445716113542L310.26052988966575,359.8367385807652L310.43852360077943,363.65471400529333L312.3308777926196,359.9853132689537L313.3145272487742,228.9187404469546L314.99141536926624,359.9553390423882L315.12256863008685,353.79855312105263L315.459819872197,350.5527499372934L315.84391156460015,318.7055125052893L316.72451203010996,347.7733525059311L317.1835484429821,298.8757962607645L318.86980465353275,343.2549232893515L319.6848284886322,363.59235204534326L319.8534541096873,361.9930426513971L321.1181462676003,363.32237086825137L328.86555674607473,358.3589947469067L331.1420026303181,328.21924003985526L338.5427937766238,343.1298916000307L339.17045581055095,324.19043621672307L339.74190930412647,318.3491114597228L347.58300068318704,363.4001576045513L348.92263756156893,356.79830627186726L353.8408848423417,209.1793511373474L357.54128041549455,285.07580625001594L358.8153406634662,361.2446403712746L358.95586201434537,354.20889998603377L364.3331457079903,356.5511704984094L365.1106971828553,342.18983873451316L367.54640059809515,342.8121692489522L369.1764482682941,313.82024392828686L369.860318842573,105.59075323033424L371.22805999113075,357.6527488224418L371.40605370224444,344.09643987195557L372.02434764611303,331.25892776519635L373.53261014555,363.2173899713219L374.38510634088397,347.08623916514534L374.8347746636975,362.27769685586327L376.6428160450101,219.21842502096166L378.3852807959125,341.6363539968293L379.490715422829,349.1451963069571L380.1277455468148,343.66163000296234L380.55867768951106,363.2689729027443L386.71351285802103,362.14222279522613L388.1749349071649,353.3393006462465L389.3927866147848,363.1760602642776L390.88231293410456,341.06700502329613L393.36485679963744,363.5998587492615L394.43281906631955,363.6288348512296L396.84041821138356,320.7949593917923L400.8031203061776,362.411100846976L401.27152480910837,360.0736096558578L402.8828362991901,354.3811572153165L403.2294556313589,350.61006424115226L405.5433738758367,363.32897220649977L407.84792403025597,156.36691501170228L409.76838249227194,362.449690647039L410.0306890139132,353.4471403623868L411.688840954288,361.0047575484265L417.1785417286362,361.37437685888636L417.3940077999844,323.774164602059L418.9772150198903,345.92624920685506L418.9865831099489,345.6400476367195L419.5767727836416,310.71696945282633L420.3449561684481,359.04712753405806L421.5534397860094,360.99162945284553L422.0874209193504,353.68721696812753L423.10854273573943,363.67472446307073L423.77367712990105,353.1813332827095L425.0383692878141,360.7734595858781L428.2141518176845,360.5985501271011L429.78799094753174,360.0209820700679L435.97093038621756,360.8121429163204L442.210078365255,196.13052666732267L444.0555921068021,242.04365390884007L444.43031570914667,342.0105979035696L445.58259078635626,317.80262515875376L450.08864210455,363.40023670552273L451.3439661724044,360.2850497396661L453.2456884543032,290.602805883299L455.0912021958503,325.4662063537963L457.91099730349333,355.45730223008735L458.1264633748415,355.7503251434809L459.9251366660955,258.445764310278L463.26954481702097,344.6857531193816L463.99088775153433,363.67165602356926L465.8832419433745,349.3736320312783L466.6795295983568,360.0588211932197L467.719387594863,314.07992042190716L468.1971601878524,359.2254110404245L470.52044652238885,348.7764098456995L474.20210591542445,301.1223871653086L475.54174279380635,341.36563095113956L477.49967361605684,110.3527165474227L478.9985680254352,363.6593611583892L480.6005114254583,332.36028588139624L482.07130156466087,358.32285052867206L483.46714698339446,362.75811478033927L486.24946973080307,355.75139234017655L488.41349853434303,357.1754736114323L490.8585700396415,339.69977306967604L491.40191926304124,336.0019634077887L492.24504736831653,310.76752360802493L494.35286763150486,262.3385195621279L497.2288712794996,343.28961691746423L503.9457918515264,340.3416728746958L507.7679725954412,350.5900471173796L508.1333281077272,352.71939844470563L508.22700900831336,255.24711156401986L513.4918756212548,355.0996550399866L515.2249722820986,309.4716964779715L520.4336303546884,353.42804579353344L521.5671692517808,338.45210979674874L522.3259845465286,345.46458974454066L523.459523443621,179.87808712548372L525.9045949489195,356.8501042536229L527.6751639699976,358.4190252564301L533.9424162192109,332.4132989467919L536.1251812028681,347.50282787908833L538.7014059689873,362.7396065438147L540.4626069000068,351.32293772598246L541.0246923035237,345.7472550086839L541.989605579561,351.0387221986984L542.9732550357155,363.22902042184404L544.5939346158559,346.91327912518034L549.5590223469218,356.83151407660483L551.4513765387619,339.38341925232714L551.5918978896411,353.1148592602092L554.2618035563464,347.1287657017593L558.964584765771,345.1534652837196L564.5854388009399,343.58050265589384L565.4473030863325,349.9386185717506L566.627682433718,237.57692300099723L569.3350604606576,356.1456862859655L573.7286946981479,216.28335409628397L573.7849032384996,342.3728550866944L574.1034183004925,363.34869477332177L575.3212700081124,352.8616990640494L578.468948267807,321.4514179479112L578.7406228795069,349.49371993886047L581.6540988877359,251.62161722713725L583.2747784678763,357.51058867251544L585.9540522246401,363.3100003745384L589.2235156550968,362.7106176314008L589.5045583568552,345.71609954094527L591.9308936820364,345.9683065848869L596.09969375812,288.406772842717L596.1371661183545,362.05282096500287L596.6524110715783,359.18501611562925L598.1419373908981,361.8890646852458L599.3972614587524,356.8264131360131L599.9780830423865,343.6240880444855L601.5987626225269,334.75288709596987L605.8237712389621,164.00328871774636L609.7115286132872,355.61205595005606L612.8311026028059,347.1727164035552L613.3369794659711,309.905080327401L613.852224419195,315.8387681304775L613.899064869488,341.22932832955786L616.4752896356072,363.4626714789311L616.9155898683621,332.4360485020694L616.9343260484793,362.6509990843725L618.9297292309642,356.13062082505394L619.9789553175291,119.89864356665122L621.9649904099555,132.44724485154188L623.0048484064616,358.58477406937476L623.0985293070478,337.4641526875497L625.1407729398259,312.00476340114983L630.7241546147602,350.06847072642387L630.8178355153464,354.04456467557605L631.4736018194494,355.33146759346994L633.6563668031066,356.9844750730192L638.8743929657551,352.10499170347333L642.5279480886148,336.74481019199357L644.6545045319205,358.6293585061329L644.7762897026824,356.0900984115135L646.7435886149915,363.27664369771605L647.5117719997979,342.4475570010081L648.9263535986487,358.6422668574768L649.18866012029,351.4716035106743L651.1465909425405,348.7815464831399L652.1677127589295,345.4715529480023L652.6923258022119,319.45832102824136L653.1607303051426,356.07234966021343L653.2637792957873,361.80147458598975L657.4700517321054,344.2453281824571L658.1632903964429,334.5799789786938L660.6833066222102,267.0403934930725L661.1142387649066,239.77492168623155L661.8730540596544,363.6135594431564L664.7396896175906,350.20497732999775L672.7494066177061,363.24264676662074L672.9461365089371,357.893776726019L673.0117131393473,340.53565974929495L673.2271792106956,350.04288489426364L673.60190281304,316.7283966475188L676.0001338680455,343.94948197285316L677.3678750166032,348.90353142324966L679.3258058388537,361.5304114930471L682.0331838657934,126.36441283328269L683.1198823125927,344.3503566558683L684.0941636786887,342.00736386180205L700.7037873526126,344.94315984974304L711.177312038144,350.69033393666257L712.7979916182843,363.4833600047952L714.9151799715313,341.20658619180733L715.2524312136414,359.6350880099994L720.9294937891619,346.47328996796654L721.7913580745545,356.824985725663L723.2434120336399,363.01672645319053L726.3910902933344,351.3532012361006L729.4357195623842,360.7406395787234L729.5762409132634,348.01006619037287L730.5411541893008,335.457795084004L731.5997483659243,362.6916910579439L732.5927659121373,344.5330002773184L735.3095120291357,275.2206202780042L740.8085808935425,361.05939180706486L742.963241607024,166.93999149836182L743.4316461099546,360.39915378914696L745.5769387333775,363.5132756010253L746.7292138105871,362.47092181136196L754.1019006867169,362.23774593959774L756.7811744434807,358.9620591621808L758.7391052657312,184.14817939282864L762.8704329815804,363.12001151801195L762.9079053418147,356.63286714067436L766.6926137254951,361.7422861975774L766.9549202471364,289.98583082334653L770.467954019117,359.3904384988694L770.4960582892927,344.6713167574778L771.6483333665024,349.9171902634681L774.0840367817423,363.6265659028846L775.6110354612964,346.4872330643255L776.1262804145202,355.2610122133579L782.1405942321509,346.7670741050674L786.759062631048,344.28154425798454L788.6982572731814,346.57807737175057L790.356409213556,349.69985023233266L791.6211013714691,215.93208968815787L795.5838034662631,214.82450455805008L796.6986061832383,346.991409791345L799.0499967879506,311.59424407866624L801.448227842956,363.35677950106935L803.9026674383132,340.8376198555202L806.3664751237287,337.17885791008865L812.3245804010078,350.9571674166371L813.1770765963417,348.6096898003146L818.1609005075248,358.32428489295364L819.6504268268445,353.6173002859132L823.2196691391769,335.86330386700604L824.5218336573241,346.9459273702257L825.8052619953544,310.464936720769L830.873398717065,212.82490246721025L834.8829412621523,343.4496945674298L839.679403372163,362.0974198891184L844.9161657149286,268.3995366335103L846.8085199067688,361.538119462578L847.5017585711063,337.2175236239044L851.7173990974829,360.6581416117458L852.5417910226411,361.00739841983255L852.6635761934031,335.59264943344095L855.5864202916908,327.0008481828113L857.3288850425931,358.30269803503177L857.647400104586,363.52838059793527L861.806832090611,341.39603724865225L862.3970217643038,361.24906585331485L867.0998029737284,354.1370936888187L867.2028519643732,330.3126070893724L869.1045742462719,359.59310897959637L870.1912726930713,363.11854899030754L872.8143379094835,256.7157967430421L875.962016169178,341.68057172959686L876.5896782031052,363.67541933241745L878.9410688078175,348.4757478066974L879.8404054534445,107.18225782125262L881.7702320055192,333.2778488050809L883.2035497844872,330.6671315006105L891.2601072348959,351.0475342207622L896.3469801367238,359.46188087366653L897.068323071237,354.743380092379L903.5416733017398,276.2286992835447L903.6728265625604,358.7853338000777L905.5839169345179,343.60402548836004L905.9118000865695,363.13123597483036L906.6987196514931,350.29689810602724L910.5021642152908,192.67573929658192L911.0829857989247,359.1749602670084L911.5982307521485,339.09067542338664L917.2471890574933,352.11445739510316L923.0835091640103,358.94447266928364L923.7392754681133,363.4924178338521L924.0109500798131,181.13572882659395L924.4887226728026,201.07866991185358L930.0158958073853,335.4921159813855L930.3344108693782,333.3558051593613L932.8544270951455,359.7097509822963L937.1262761618739,347.3840102230032L938.1005575279698,347.52024423246024L939.4589305864689,358.8773208702546L941.0140335361991,340.92432889164854L944.32096932689,362.3157171289321L944.5364353982382,357.4894566017171L945.9416489070304,356.7552211027519L949.5952040298903,312.29795969923674L954.1762000685528,238.59755987973128L956.4432778627377,353.8916282497199L957.4175592288335,300.2350432465802L959.0288707189153,363.3281643914511L959.6940051130769,81.31885438353913L962.4575916803683,337.03521749993234L963.4787134967572,345.0461967171575L967.7505625634857,352.5583611521858L968.8372610102849,320.9166884272209L972.8936440056651,346.9792672996628L973.4838336793578,351.05397077980757L977.0624440817487,279.3326376276708L979.2452090654059,357.1904259550573L980.144545711033,357.3497655610874L987.779539108804,197.32289413092323L988.4821458632002,345.1029092741393L989.0067589064826,344.0958631592321L994.1311041685448,362.0274779409527L994.1966807989551,361.7515350424416" fill="none"></path></g></g></g></g></g></g><g transform="translate(41, 376)" clip-path="url(#clip_1)"><clipPath id="clip_1"><rect width="1375" height="23"></rect></clipPath><g><g><line x1="97.17395341641392" y1="0" x2="97.17395341641392" y2="5" style="visibility: inherit;" fill="rgb(0, 0, 0)" stroke="rgb(204, 204, 204)" stroke-width="1px"></line><line x1="284.5357545887096" y1="0" x2="284.5357545887096" y2="5" style="visibility: inherit;" fill="rgb(0, 0, 0)" stroke="rgb(204, 204, 204)" stroke-width="1px"></line><line x1="471.8975557610052" y1="0" x2="471.8975557610052" y2="5" style="visibility: inherit;" fill="rgb(0, 0, 0)" stroke="rgb(204, 204, 204)" stroke-width="1px"></line><line x1="659.2593569333009" y1="0" x2="659.2593569333009" y2="5" style="visibility: inherit;" fill="rgb(0, 0, 0)" stroke="rgb(204, 204, 204)" stroke-width="1px"></line><line x1="846.6211581055966" y1="0" x2="846.6211581055966" y2="5" style="visibility: inherit;" fill="rgb(0, 0, 0)" stroke="rgb(204, 204, 204)" stroke-width="1px"></line><line x1="1033.9829592778922" y1="0" x2="1033.9829592778922" y2="5" style="visibility: inherit;" fill="rgb(0, 0, 0)" stroke="rgb(204, 204, 204)" stroke-width="1px"></line><line x1="1221.3447604501878" y1="0" x2="1221.3447604501878" y2="5" style="visibility: inherit;" fill="rgb(0, 0, 0)" stroke="rgb(204, 204, 204)" stroke-width="1px"></line></g><g transform="translate(0, 8)"><text style="text-anchor: middle; visibility: inherit; font-family: Roboto, sans-serif; font-size: 12px; font-weight: 200;" x="97.17395341641392" y="0" dx="0em" dy="0.95em" fill="rgb(33, 33, 33)" stroke="none" stroke-width="1px">0</text><text style="text-anchor: middle; visibility: inherit; font-family: Roboto, sans-serif; font-size: 12px; font-weight: 200;" x="284.5357545887096" y="0" dx="0em" dy="0.95em" fill="rgb(33, 33, 33)" stroke="none" stroke-width="1px">20k</text><text style="text-anchor: middle; visibility: inherit; font-family: Roboto, sans-serif; font-size: 12px; font-weight: 200;" x="471.8975557610052" y="0" dx="0em" dy="0.95em" fill="rgb(33, 33, 33)" stroke="none" stroke-width="1px">40k</text><text style="text-anchor: middle; visibility: inherit; font-family: Roboto, sans-serif; font-size: 12px; font-weight: 200;" x="659.2593569333009" y="0" dx="0em" dy="0.95em" fill="rgb(33, 33, 33)" stroke="none" stroke-width="1px">60k</text><text style="text-anchor: middle; visibility: inherit; font-family: Roboto, sans-serif; font-size: 12px; font-weight: 200;" x="846.6211581055966" y="0" dx="0em" dy="0.95em" fill="rgb(33, 33, 33)" stroke="none" stroke-width="1px">80k</text><text style="text-anchor: middle; visibility: inherit; font-family: Roboto, sans-serif; font-size: 12px; font-weight: 200;" x="1033.9829592778922" y="0" dx="0em" dy="0.95em" fill="rgb(33, 33, 33)" stroke="none" stroke-width="1px">100k</text><text style="text-anchor: middle; visibility: inherit; font-family: Roboto, sans-serif; font-size: 12px; font-weight: 200;" x="1221.3447604501878" y="0" dx="0em" dy="0.95em" fill="rgb(33, 33, 33)" stroke="none" stroke-width="1px">120k</text></g><line x1="0" y1="0" x2="1375.950998878479" y2="0" fill="rgb(0, 0, 0)" stroke="rgb(204, 204, 204)" stroke-width="1px"></line></g></g></g></g></svg>