<svg viewBox="0 0 1112.5999755859375 400" xmlns="http://www.w3.org/2000/svg"><g><g><g><g><g><line x1="49.98400115966797" y1="336.7305832199142" x2="44.98400115966797" y2="336.7305832199142" style="visibility: inherit;" fill="rgb(0, 0, 0)" stroke="rgb(204, 204, 204)" stroke-width="1px"></line><line x1="49.98400115966797" y1="280.09063848071406" x2="44.98400115966797" y2="280.09063848071406" style="visibility: inherit;" fill="rgb(0, 0, 0)" stroke="rgb(204, 204, 204)" stroke-width="1px"></line><line x1="49.98400115966797" y1="223.45069374151393" x2="44.98400115966797" y2="223.45069374151393" style="visibility: inherit;" fill="rgb(0, 0, 0)" stroke="rgb(204, 204, 204)" stroke-width="1px"></line><line x1="49.98400115966797" y1="166.81074900231383" x2="44.98400115966797" y2="166.81074900231383" style="visibility: inherit;" fill="rgb(0, 0, 0)" stroke="rgb(204, 204, 204)" stroke-width="1px"></line><line x1="49.98400115966797" y1="110.17080426311362" x2="44.98400115966797" y2="110.17080426311362" style="visibility: inherit;" fill="rgb(0, 0, 0)" stroke="rgb(204, 204, 204)" stroke-width="1px"></line><line x1="49.98400115966797" y1="53.53085952391352" x2="44.98400115966797" y2="53.53085952391352" style="visibility: inherit;" fill="rgb(0, 0, 0)" stroke="rgb(204, 204, 204)" stroke-width="1px"></line></g><g transform="translate(39.98400115966797, 0)"><text style="text-anchor: end; visibility: inherit; font-family: Roboto, sans-serif; font-size: 12px; font-weight: 200;" x="0" y="336.7305832199142" dx="0em" dy="0.3em" fill="rgb(33, 33, 33)" stroke="none" stroke-width="1px">0</text><text style="text-anchor: end; visibility: inherit; font-family: Roboto, sans-serif; font-size: 12px; font-weight: 200;" x="0" y="280.09063848071406" dx="0em" dy="0.3em" fill="rgb(33, 33, 33)" stroke="none" stroke-width="1px">0.05</text><text style="text-anchor: end; visibility: inherit; font-family: Roboto, sans-serif; font-size: 12px; font-weight: 200;" x="0" y="223.45069374151393" dx="0em" dy="0.3em" fill="rgb(33, 33, 33)" stroke="none" stroke-width="1px">0.1</text><text style="text-anchor: end; visibility: inherit; font-family: Roboto, sans-serif; font-size: 12px; font-weight: 200;" x="0" y="166.81074900231383" dx="0em" dy="0.3em" fill="rgb(33, 33, 33)" stroke="none" stroke-width="1px">0.15</text><text style="text-anchor: end; visibility: inherit; font-family: Roboto, sans-serif; font-size: 12px; font-weight: 200;" x="0" y="110.17080426311362" dx="0em" dy="0.3em" fill="rgb(33, 33, 33)" stroke="none" stroke-width="1px">0.2</text><text style="text-anchor: end; visibility: inherit; font-family: Roboto, sans-serif; font-size: 12px; font-weight: 200;" x="0" y="53.53085952391352" dx="0em" dy="0.3em" fill="rgb(33, 33, 33)" stroke="none" stroke-width="1px">0.25</text></g><line x1="49.98400115966797" y1="0" x2="49.98400115966797" y2="377.60799980163574" fill="rgb(0, 0, 0)" stroke="rgb(204, 204, 204)" stroke-width="1px"></line></g></g><g transform="translate(49, 0)" clip-path="url(#clip_0)"><clipPath id="clip_0"><rect width="1062" height="377"></rect></clipPath><g><g><g><line x1="70.1419033559487" y1="0" x2="70.1419033559487" y2="377.60799980163574" fill="rgb(0, 0, 0)" stroke="rgb(66, 66, 66)" stroke-width="1px" opacity="0.25"></line><line x1="176.4011483665116" y1="0" x2="176.4011483665116" y2="377.60799980163574" fill="rgb(0, 0, 0)" stroke="rgb(66, 66, 66)" stroke-width="1px" opacity="0.25"></line><line x1="282.66039337707446" y1="0" x2="282.66039337707446" y2="377.60799980163574" fill="rgb(0, 0, 0)" stroke="rgb(66, 66, 66)" stroke-width="1px" opacity="0.25"></line><line x1="388.9196383876374" y1="0" x2="388.9196383876374" y2="377.60799980163574" fill="rgb(0, 0, 0)" stroke="rgb(66, 66, 66)" stroke-width="1px" opacity="0.25"></line><line x1="495.17888339820036" y1="0" x2="495.17888339820036" y2="377.60799980163574" fill="rgb(0, 0, 0)" stroke="rgb(66, 66, 66)" stroke-width="1px" opacity="0.25"></line><line x1="601.4381284087632" y1="0" x2="601.4381284087632" y2="377.60799980163574" fill="rgb(0, 0, 0)" stroke="rgb(66, 66, 66)" stroke-width="1px" opacity="0.25"></line><line x1="707.697373419326" y1="0" x2="707.697373419326" y2="377.60799980163574" fill="rgb(0, 0, 0)" stroke="rgb(66, 66, 66)" stroke-width="1px" opacity="0.25"></line><line x1="813.9566184298891" y1="0" x2="813.9566184298891" y2="377.60799980163574" fill="rgb(0, 0, 0)" stroke="rgb(66, 66, 66)" stroke-width="1px" opacity="0.25"></line><line x1="920.2158634404519" y1="0" x2="920.2158634404519" y2="377.60799980163574" fill="rgb(0, 0, 0)" stroke="rgb(66, 66, 66)" stroke-width="1px" opacity="0.25"></line><line x1="1026.4751084510149" y1="0" x2="1026.4751084510149" y2="377.60799980163574" fill="rgb(0, 0, 0)" stroke="rgb(66, 66, 66)" stroke-width="1px" opacity="0.25"></line></g><g><line x1="0" y1="336.7305832199142" x2="1062.615998840332" y2="336.7305832199142" fill="rgb(0, 0, 0)" stroke="rgb(66, 66, 66)" stroke-width="1px" opacity="0.25"></line><line x1="0" y1="280.09063848071406" x2="1062.615998840332" y2="280.09063848071406" fill="rgb(0, 0, 0)" stroke="rgb(66, 66, 66)" stroke-width="1px" opacity="0.25"></line><line x1="0" y1="223.45069374151393" x2="1062.615998840332" y2="223.45069374151393" fill="rgb(0, 0, 0)" stroke="rgb(66, 66, 66)" stroke-width="1px" opacity="0.25"></line><line x1="0" y1="166.81074900231383" x2="1062.615998840332" y2="166.81074900231383" fill="rgb(0, 0, 0)" stroke="rgb(66, 66, 66)" stroke-width="1px" opacity="0.25"></line><line x1="0" y1="110.17080426311362" x2="1062.615998840332" y2="110.17080426311362" fill="rgb(0, 0, 0)" stroke="rgb(66, 66, 66)" stroke-width="1px" opacity="0.25"></line><line x1="0" y1="53.53085952391352" x2="1062.615998840332" y2="53.53085952391352" fill="rgb(0, 0, 0)" stroke="rgb(66, 66, 66)" stroke-width="1px" opacity="0.25"></line></g></g></g><g><g><line x1="0" y1="336.7305832199142" x2="1062.615998840332" y2="336.7305832199142" fill="rgb(0, 0, 0)" stroke="rgb(153, 153, 153)" stroke-width="1.5px"></line></g></g><g><g><line x1="176.4011483665116" y1="0" x2="176.4011483665116" y2="377.60799980163574" fill="rgb(0, 0, 0)" stroke="rgb(153, 153, 153)" stroke-width="1.5px"></line></g></g><g><g><g><g><g><path style="fill: none;" stroke="rgb(255, 112, 67)" stroke-width="2px" d="M176.62960574328432,332.8685116397485L176.90587978031178,100.91830547019087L177.29372602460032,329.894419257975L177.62312968413306,191.64731002517567L177.64969449538572,335.925911926204L177.85690002315633,325.82471421369286L178.05347962642585,260.4563693163605L178.09598332443008,276.914666294777L178.92480543551247,228.24159590663774L179.2542090950452,330.51678450097415L179.4826664718179,323.6863892855048L179.51985720757162,330.6458512357259L179.77487939559697,305.42874242406964L179.84394790485382,304.28930527616063L180.19991637563922,320.31981509980255L180.69933482718886,330.31572870548473L181.7938050507977,195.60483046363976L182.07007908782515,324.6418141820391L183.48864000871615,333.5803771168745L183.50989185771826,266.14816821986386L183.7649140457436,263.4434321464306L183.8021047814973,185.784457449831L184.03587512052053,329.5692304407671L185.39068049440522,332.2022422587597L185.61913787117794,327.36778004428214L185.6350767579295,333.8800945130155L186.37889147300345,336.70190499499694L186.59140996302457,172.5502018872624L187.22365247083744,148.70408610321118L187.54243020586912,336.1970748251641L188.08966531767354,280.6630137586481L188.4243819394568,335.3727903671135L188.66346524073057,331.5509631258329L189.09912814527385,319.6748559514637L189.3488373710487,320.98715609824313L189.60917252132458,274.02418249302275L189.6144854835751,333.4367030994903L189.67824103058143,173.05739581609387L189.8588817470994,333.55458840420175L190.6717649714302,259.3462211112998L190.96397789520924,133.52798692281345L192.54724064586665,332.26432116588285L193.56732939796805,333.38744061049107L193.6523367939765,333.89920243069554L193.96580156675765,334.0424845151402L195.62875875117297,333.8875006213217L195.639384675674,287.8779305303686L195.90503278820043,322.5526512539875L196.2822531079879,277.66797511963284L196.67009935227648,211.89247889066945L196.70729008803016,331.764279617573L197.27577704883666,157.9313796518656L197.42453999185145,323.16469542041125L197.8495769718937,330.72002045640863L198.69965093197823,295.11588008792097L199.34251936429212,186.9263569705016L199.78349523108596,335.98021877148557L200.27228775813455,333.61602085934993L200.36260811639352,263.79204673741117L201.24987281223173,63.248466982467995L201.84492458429088,321.39019398026085L202.81719667613754,325.62993778524594L203.53444657995882,330.9707446526025L203.6832095229736,333.4574887328019L204.80424455783506,216.47259350738943L204.87862602934246,241.7201222231625L205.8880888569428,250.40340652169607L206.57877394951146,206.82794993066588L206.8125442885347,286.14824343047866L207.26414607982957,245.9968353796097L207.56167196585915,332.1680475604095L207.5988627016129,315.5641240211689L207.7901293426319,297.06717651635165L208.23110520942572,335.90735162007564L209.34682728203663,329.340380639106L209.44777356479668,336.6649399748092L209.81968092233362,331.6857168444628L211.33387516373415,336.5667034901812L211.48795106899948,331.4173931185306L211.99799544505018,281.8760330190814L212.06175099205652,310.8359062283472L212.82150459388203,277.9589275659437L213.41655636594118,168.1696175343209L214.420706231291,284.89128548076695L215.62674866216088,158.2887802926999L216.0411597177021,336.61797235240715L216.05709860445367,261.85857560897205L216.31212079247902,102.70302987180663L217.78381133587533,282.43781270913223L217.8369409583806,257.1084201215467L218.02289463714908,305.5403425592321L218.86234267273255,325.76112718237835L219.26081484152215,308.2377780244775L219.86649253808235,174.2793403865371L220.084323990354,335.48981637336124L220.83876462992902,295.2811734533019L220.91314610143638,299.91228682721834L221.5560145337503,335.8930525296638L221.6091441562556,285.6702899144411L222.10324964555468,335.9812141651019L223.574940188951,331.48848173575834L223.84058830147742,336.4940612848048L223.8777790372311,319.66578188628694L224.1859308477617,238.33927387145138L225.60449176865276,259.08174497468286L226.70958791676262,334.04340553117316L227.166502670308,323.38594921355326L227.2355711795649,311.013585307619L227.93156923438409,320.16446195556983L228.70194876071065,336.7185732028655L229.04197834474445,335.24835245005306L231.00246141518934,332.4188192316565L231.03965215094306,328.36130841855055L231.65595577200432,307.27106778028633L232.08099275204657,333.6112891790432L232.30945012881926,332.1210868202417L232.76105192011417,334.00793718264447L233.5579962576934,221.0553751671006L233.68019438945555,283.28873868346824L234.32837578401995,232.64706140748416L234.34431467077155,273.93945323799664L234.66840536805375,301.26852038827025L234.71090906605798,262.5817578200401L234.9553053295823,335.6113175627531L235.39096823412558,316.99502212595905L237.075177267543,332.7259538136161L237.35676426682102,335.2751453919771L237.6755420018527,287.6153660558956L237.85618271837063,331.98248340229435L238.48842522618352,319.3988275518906L238.88158443272258,325.70219376128296L239.9973065053335,290.0212962542101L240.02387131658614,92.5478079224559L241.03333414418648,296.47094892766665L241.70276738775303,336.7140686775011L243.72700600520426,176.1717593089351L244.82147622881305,336.7272233043808L245.1508798883458,336.7081510367774L245.65561130214596,64.79062551203971L245.79906128291023,336.10818210687484L246.05408347093558,201.9683275204705L247.6107814103403,332.4106089486985L248.37584797441636,331.8506499269396L248.64680904919334,323.4488251740703L248.76900718095547,316.8751233514894L249.7784700085558,336.60369311744734L250.1716292150949,315.98519398341L251.2129698161984,282.2455408534942L251.9620974935229,256.0841321327805L252.34994373781146,278.56787846889836L252.5837140768347,242.16832048582873L253.16282696214222,303.6158305008408L254.17760275199313,316.1498564580833L254.33699161950895,336.602640457048L254.437937902269,312.24120578442796L254.9267304293176,198.82785907835185L255.08611929683343,332.970043371119L255.42614888086723,280.67677097407716L255.52709516362725,315.76482322625833L257.82229485585543,218.74796097927444L258.6139262311841,326.2246598872426L258.62455215568514,310.2549023067359L258.79456694770204,312.20629790527784L260.03248715207513,296.9350144081284L260.1599982460878,336.7147768398334L262.0301609582737,336.7260275305983L262.73678493759394,334.0982260301558L263.11931821963196,276.2773400799988L265.11699202583054,317.045902723023L265.71204379788975,104.44347798376536L265.9670659859151,304.6962129025183L266.19021040043725,334.1494397438433L267.0774750962754,316.7562795782029L267.24217692604185,303.35167930458823L268.2782045648948,334.1132223444746L268.411028621158,328.18648153497753L268.52791379066963,272.8884863793095L269.61175808977737,334.3071196931856L269.68613956128473,336.62482701654017L269.8402154665501,278.71378935254126L269.8827191645543,284.0860959177255L272.3851243845531,330.5945264831638L274.43592781325697,324.63533330977066L277.1295996742747,165.33927724001921L277.96904770985816,330.8596757105357L278.25063470913614,336.72984026887923L278.79255685869,336.19735318063255L280.17392704382735,336.6614231448493L280.7530399291349,328.7072575490417L280.8274214006423,334.4152143231666L281.236519493933,336.7222697791671L281.8475101527437,333.63017000771856L282.33630267979225,265.6940366305433L282.6391415280724,141.8040914046841L282.8516600180935,292.1288130378461L282.94729333860306,327.9610404421394L282.9951099988578,327.157834808823L283.3988951298979,252.76713245267743L283.9620691284539,205.76211177530013L284.0045728264581,299.11776543614155L284.3817931462456,275.89993661673077L285.0034097295574,336.4834219110756L285.5293929923597,247.53000529910045L285.5347059546102,218.80226400017668L285.6515911241218,312.24069938386L285.73659852013026,175.1452178376416L286.80450393248645,336.6438800576743L286.82044281923805,246.253867427878L287.0807779695139,257.6413982792958L287.2082890635266,315.51030841081325L288.40370556989546,323.8605921358779L288.74373515392926,310.49654399774346L289.0890777002135,137.11237454279924L289.21127583197574,250.78110538529538L289.67350354777165,39.72864196436051L290.05603682980967,335.09149065412845L290.7573478468794,333.1775177938071L292.48406057830107,89.93273850958619L293.3235086138845,312.087325421847L294.5933065917607,335.80092751853067L294.8430158175355,335.91772656764886L295.04490838305566,336.6341561859484L295.1936713260704,331.60181787536783L295.7993490226306,326.30404028626975L297.754519130825,324.089441937539L299.3377818814824,306.99049232561356L299.39091150398764,138.95108124495758L299.6246818430109,336.6592897840974L299.76281886152464,334.6981027360584L300.00190216279833,334.4162429493202L300.1241002945605,221.32557363013538L300.5225724633501,331.777048824394L300.873227971885,232.63196223055002L301.47359270619467,328.21025493164007L302.1642777987633,330.129349031455L302.2227203835191,333.67980807713894L302.32897962852974,300.0546402468715L303.5881516819049,336.293548320393L304.3372793592293,336.20175932713664L304.69856079226525,320.6419913611318L305.41581069608657,213.43581058155684L305.4264366205876,336.36870080217847L305.6283291861077,323.99594667768156L305.7505273178698,334.84224029458755L307.2169048990156,328.8850811634756L307.73757519956735,330.2642826277866L307.78007889757157,336.699606246325L308.7045343291635,279.0466970859061L308.8798620834309,242.53890442144845L309.27302128996996,294.3475438262115L309.4802268177406,332.2499968873178L309.937141571286,324.9338532795687L310.5746970413494,322.4367298339786L310.9944210591411,295.8119994086373L311.30788583192225,175.68396052185582L312.87520969582806,212.31680880656668L313.5446429393946,325.75856985951026L313.7305966181631,317.61634397278794L314.1237558247022,323.131255047907L314.89413535102875,250.77720610092226L315.02695940729194,296.9281780004612L315.36698899132574,336.3031367316154L315.44137046283316,315.2131673275616L316.15330740440396,326.44636100088627L316.6846036294567,333.0321655332907L317.0405721002421,304.3990422792336L318.77791075616483,336.5453333532453L318.78322371841534,332.8158749932151L318.94792554818173,290.34938896217477L320.610882732597,269.5968404876413L320.6746382796034,336.4894160981107L320.69589012860547,330.3198337150886L320.70120309085604,255.24857963568627L321.3121937496668,311.78390919155765L322.53948802953875,333.4852600564482L323.06015833009053,110.42339349039919L323.1504786883495,276.6323859581921L323.246112008859,256.9689067650787L324.23963594970775,313.73885170407755L324.7231155145058,241.02086743892968L324.90375623102375,111.8896425748364L324.9993895515333,259.4348918507464L326.8748652259697,243.82724654635828L327.49648180928153,271.2464403377113L327.5655503185384,114.01276071596972L328.054342845587,197.72029351618767L328.2084187508523,205.13231826897L328.4156242786229,276.90818014750266L330.3229777265625,334.8423203428023L330.4611147450762,336.5813887604793L330.6789461973479,334.2935782254985L330.8117702536111,173.11439964002517L331.55027200643445,258.1496640893294L331.8796756659673,320.962215870272L332.98477181407713,220.50160926603746L333.0697792100856,268.33251440966603L333.4629384166246,335.16530803191654L333.728586529151,227.17130142627408L334.45114939522284,313.343622940818L334.8868122997662,335.67686537970417L335.8218936558591,289.90708604612036L335.9600306743729,335.5700500045954L336.2841213716551,335.36043379763026L336.71978427619837,249.47718300291186L337.0863786714848,247.25039622551142L337.3042101237565,224.64268303036152L337.5326675005292,280.837532054375L338.23397851759887,328.7828990238756L338.2924211023547,303.01282980455954L339.0468617419297,335.5847014654024L339.5462801934794,332.75667017306534L339.62066166498676,336.6963893128148L343.265353768849,332.14129062040087L343.4619333721186,279.01358270876744L344.8061128215022,332.14278608457806L345.40116459356136,329.6769175765411L345.7465071398457,320.4219402693386L345.7836978755994,334.36315634478217L346.08122376162896,336.5541538225127L346.1290404218837,278.9677745573924L346.44250519466493,326.9532595293864L346.5115737039217,273.0100478356439L347.34570877725463,335.566145972717L347.5210365315221,336.73050622348546L348.7323919246425,297.7121915797532L349.300878885449,310.1362695336861L349.91186954425973,276.944062847746L350.17220469453565,324.3017092306024L350.4697305805652,309.16307736222524L351.17104159763494,309.2702844724609L351.21354529563916,255.7449197123448L351.9148563127089,284.8448696487104L352.54178585827117,259.42228247660466L352.68523583903544,322.52130083882713L352.6958617635365,336.7224560280869L353.17402836608403,336.7296590164692L353.545935723621,277.3038731112828L353.726576440139,306.3888821208917L353.87533938315374,296.6826834451325L355.6020521145754,325.29140900557695L355.6498687748301,324.4489093256912L355.7136243218365,323.6150901955409L355.8145706045965,319.8306036661389L355.90489096285546,281.26184509025336L356.19179092438407,296.6810081032536L356.25554647139035,167.6849921908007L356.3883705276536,325.19090537285945L356.58495013092306,285.11155284780267L357.137498204978,316.709395325621L357.2384444877381,331.2718957953515L357.79630552404353,214.5553862771907L358.97047018141023,336.20659888131433L359.08204238867137,335.78627816772604L359.3742553124504,335.63965858703824L359.83648302824633,291.05750575634653L360.22964223478544,292.94589035421996L361.2072272888826,194.29897531908858L364.12935652667306,293.98479221937595L364.2409287339342,314.1922954326267L364.2834324319384,303.28363383827343L364.36312686569636,192.96780014614035L364.92630086425225,332.2672846642065L365.4044674667998,325.45032910881L366.4564339924044,336.5141808167444L366.4936247281581,282.3264510042371L366.87084504794564,273.2413294150323L367.42339312200056,194.44686116494648L367.5137134802595,329.5129498201469L367.86968195104487,278.0275617229188L368.98009106140523,262.23877271537316L369.1341669666706,284.9718369311076L371.0149556033575,329.28247004165775L371.1743444708734,303.4666364535157L371.2752907536334,271.31853067856247L371.74814439393043,256.8033475393997L372.0244184309579,336.4270812378099L372.1891202607243,312.7385016921585L372.49195910900437,303.4069086165294L373.88395521864277,169.411024766592L374.0592829729102,333.1395799512588L375.4034624222938,332.5160412831936L375.58410313881177,243.3450603655737L377.045167757707,329.93689149560873L377.64021952976617,318.8968453289042L379.319115600933,311.5364903140708L379.6113285247121,134.04066685779762L380.6314172768135,311.94498888221284L380.716424672822,331.4416333532166L380.77486725757774,333.74481408504494L381.7099486136707,334.8676486793337L382.01810042420135,331.0057084468153L382.1243596692119,322.2821573906215L382.7619151392753,264.64175313037947L383.51104281659974,336.6679058345222L383.6385539106124,329.13366423476805L384.36111677668424,321.8300841086093L384.87116115273494,334.04131346382684L385.1846259255161,204.16127829992294L385.2430685102719,212.80786543729974L387.34168859923057,329.60974301370305L387.49045154224535,322.4235222741659L387.76141261702224,242.41170503879096L388.2767699553235,267.1931173518021L388.44147178508985,257.622644578263L388.46803659634253,333.6321832137264L389.0312105948985,333.62986616737777L390.49758817604425,325.11408440670266L391.58143247515204,305.09902079427803L392.36243792597963,316.4542960395204L392.4474453219881,268.7847047968096L392.4686971709902,322.81653342493837L392.64402492525767,133.8111323603686L392.7502841702682,287.74432518052663L393.13813041455677,332.1282423657669L394.4504320904372,335.2297101835203L394.91797276848365,308.8238649417895L395.53427638954497,317.5943408681109L395.6777263703092,336.26854077015884L396.0496337278462,310.72242819107856L396.4109151608821,293.5198067778825L396.8465780654254,320.3358859328264L397.1016002534507,302.33771344739864L397.1866076494592,265.26227106630677L398.86550372062607,326.1724141186475L399.6199443602011,200.7755178627028L400.26281279251504,330.85203222696333L400.8472386400731,332.9867530073593L401.3519700538733,332.03362985965646L401.94170886368187,165.93498998812683L402.0373421841914,321.5028638866231L403.15306425680234,216.62456431782874L404.67257146045336,332.3300970609023L404.7628918187123,210.41930899847034L404.97009734648293,291.2121225097533L406.3408416071192,330.1603159536852L407.61595254724597,326.94329609821216L407.80190622601447,316.9514442470853L408.08880618754296,262.36298433467977L408.25882097955986,264.103913527178L408.6413542615979,334.47299172671546L408.7848042423621,193.39052646023913L408.80605609136427,325.2889255327916L409.1407727131475,327.69006286073085L410.07054110698994,333.8671958047993L410.13960961624684,326.58448281079353L410.5646465962891,336.72767861723764L410.58589844529115,336.5446903794773L410.7771650863102,265.77820884494463L411.2393928021061,303.7968265038326L411.27658353785984,334.35543953862754L411.5103538768831,282.32285556020474L411.79194087616105,304.8877251573044L413.2848832685595,286.71107390170795L413.6036610035911,336.72265232063864L414.4377960769241,324.1786349025713L414.51217754843145,270.7429051529832L415.2984959615097,336.62120907955284L416.04231067658355,139.85615410002077L417.1367809001924,327.62326335081343L417.1845975604471,329.0646508048677L417.46618455972515,312.1375308181537L418.18343446354646,249.81275777926786L418.3747011045654,303.96958927759067L418.98569176337617,336.6161853699734L419.94733793072174,334.57917693643003L420.97805260732423,333.77497894262564L421.2808914556043,101.21625468434883L421.70061547339606,252.62090928868426L421.89188211441507,319.60370456166555L422.4922468487248,328.93635580348143L422.57725424473324,321.3938706593843L422.9969782625249,335.6830033765881L423.45389301607037,80.38026827623749L427.16765362918954,290.53109814596644L427.3961110059622,333.8658548982954L427.7148887409939,335.88520213398436L427.82114798600446,332.3298277718502L428.4374516070657,328.61399491694516L428.7137256440932,296.72127116840966L429.0325033791249,239.70161799935647L429.2237700201439,193.30288540194732L429.5053570194219,304.1556851563021L429.5956773776809,336.49772904587144L429.67005884918825,285.55986505059667L429.7975699432009,321.03815274543723L429.8613254902073,301.62650549976007L430.06853101797793,335.12098545408264L430.1429124894853,332.19631948211713L430.80171980855073,299.915135330413L431.1470623548351,322.89425008709964L431.2692604865972,308.5646617010862L431.8324344851532,327.72014832947247L432.39029552145865,334.0390792350711L432.634691784983,326.06425645234583L434.2020156488888,318.99415441803893L435.9127894935588,144.34325137241936L436.64597828413173,332.6202606300784L438.1867373367849,290.192797246553L438.4736372983134,323.23143901526595L438.6064613545766,332.75022886334125L439.2758945981431,333.2818421133096L439.70624454043593,330.38215790998686L440.0303352377182,322.8069540141948L440.1312815204782,303.2186774154231L442.08645162867253,308.6510789580055L442.35209974119897,333.7195425867023L442.84620523049813,336.42918626188947L442.9312126265066,291.2408945020219L443.0906014940224,335.7297128286615L443.47844773831093,336.6878648043481L444.0841254348711,336.0476855037138L445.39642711075163,336.6919744089767L445.4070530352526,332.3261993590309L446.40588993835195,331.78735302095043L447.25596389843645,254.43285272082687L448.0794730472683,299.17395901916416L448.5735785365674,335.9671323389963L448.86579146034643,336.07103657021514L449.1845691953782,333.85685652945347L451.35225779359365,171.22761864395022L451.607279981619,317.1956728009941L451.6497836796232,172.9885422188727L452.43610209270133,306.302606234131L452.68581131847617,332.2814501650935L453.03646682701105,303.86549864085026L453.93967040960086,285.1332563321437L454.23188333337987,88.6967835234299L454.5559740306621,334.856232379655L454.73661474718006,310.8705630172157L455.39010910399503,303.87161764771287L455.48574242450456,328.989399152971L456.3039386110858,322.2933193031398L456.94149408114924,294.42812903658995L457.49404215520417,314.81072657621365L457.6693699094716,319.6428187305332L458.0093994935054,335.3085895888606L458.0625291160107,317.66758327025417L458.4822531338024,288.55831767344085L458.5619475675603,279.77539484316L460.1239584692156,336.607633142999L460.16646216721983,215.2405631256347L460.47992694000095,335.68523002252283L460.5543084115084,311.102667497527L461.7444119556267,289.3112593578849L461.7816026913804,306.42177072777713L461.8028545403825,251.90111996142144L461.8241063893846,317.2015512675869L462.57323406670906,332.3477794082335L462.7485618209765,275.42168770036193L462.8070044057323,220.60986926745392L463.68895613932,326.2875674977951L463.7686505730779,305.22763809852574L463.880222780339,318.03283311989156L463.95991721409695,235.45214919346452L464.58684675965924,321.9981605671114L465.7822632660281,318.6142569319738L466.62702426386204,224.81866566773073L466.74390943337363,333.51647806896005L466.9776797723969,226.24144870341962L467.12644271541166,280.37268165303294L467.59398339345813,159.96709305497214L468.2846684860268,297.9764778161572L468.5237517873006,291.558238857932L469.644786822162,216.17669521553165L470.20796082071803,327.52917623529225L470.2238997074696,309.6695623302616L470.36203672598333,336.5949677136772L470.52673855574966,326.2603157622315L471.47775879859427,336.7193490748441L471.5043236098469,318.3965700978323L471.5468273078511,277.0205884135715L472.40752719243665,170.9930707808986L472.6891141917147,321.8203717677166L473.7517066418203,269.1749961545317L474.4158269231363,330.6854396276253L475.54748788249884,322.7114226020538L475.7228156367662,301.7668227671296L475.9459600512884,309.2289537461074L476.22754705056644,332.16099593250084L476.626019219356,316.09446678596237L476.70040069086343,335.26323310986714L476.73759142661714,249.7418026196898L477.1626284066594,306.7043971047501L478.1136486495039,332.72617061635924L478.2889764037713,254.17052034661415L479.23999664661585,226.6302461794663L480.8338853217743,336.2613498491253L480.8657630952775,335.28919457898365L481.816783338122,297.32071862070586L483.2831609192678,332.4653980613959L486.12559572330036,119.20924078395993L486.3965567980773,148.20047073839316L486.89597524962693,307.6087398989946L487.5122788706882,336.20984525183025L487.80449179446725,336.22605392735244L487.96388066198307,293.59243727933944L488.3782917175243,103.89258168592055L488.52174169828857,336.1771531389152L488.61206205654753,235.39320416735606L488.7448861128107,282.0569910420306L489.94561558143005,336.52540916136854L490.0306229774385,211.84545115792656L490.0625007509417,315.14272067855387L491.2738561440621,293.6431870562567L491.52356536983694,293.3541209520614L492.16643380215083,336.60066170342253L493.18652255425224,336.27737808647635L493.2715299502607,322.9857629997338L493.43091881777656,325.14915475603505L493.7868872885619,225.527643342868L493.8612687600694,336.4033045772375L495.64111111399626,336.1667051984475L496.13521660329536,336.5413908138236L496.1670943767985,336.691543552263L496.2839795463102,288.14427612908224L496.76214614885765,295.3974219236776L497.7078534294517,334.6565105012866L497.85661637246653,334.28571134542557L498.3507218617656,289.6413861081308L498.74919403055526,277.8317197432768L501.1453400055434,305.28626240427445L501.58631587233725,270.75338342473486L501.9635361921247,279.82499677878985L502.478893530426,333.4451737039903L502.5426490774323,318.3994903411074L502.8242360767103,283.92877836128974L503.334280452761,333.9947831641419L504.1099729413381,325.6674831673541L506.54862261433055,322.57774129212663L506.9736595943728,317.992135394248L508.5516093827797,332.09299213873277L508.71631121254603,330.9121857569271L508.75881491055026,109.92896085587985L510.45364986846874,306.18438491154274L511.25059420604794,226.67836267343023L512.2919348071515,318.61060240787515L513.0251235977244,275.5600911955851L513.3970309552614,309.0837813632927L513.4023439175119,330.05605387925254L513.8486327465562,307.98712451336297L514.6880807821397,279.345279300774L515.2725066296978,319.455947425952L515.7187954587421,58.87701471976836L516.3722898155571,289.94047894357135L516.9567156631152,302.30332673883305L517.3551878319048,320.85003653945995L517.6314618689322,322.7565819277012L519.1509690725833,274.15774564281736L519.2040986950885,336.6610258379975L519.2147246195897,336.14636596251154L520.0860504286762,247.94597116561718L521.1592688032829,214.40327198659048L521.6905650283358,332.3175135342895L521.7490076130915,333.517466868819L522.0359075746201,272.51499064042406L523.050683364471,323.65831886902305L523.2047592697363,302.4585279628953L523.3003925902458,332.0143101504889L523.7413684570396,323.39054374370613L524.1398406258293,245.6621214842192L524.3045424555955,329.63503086456404L524.5489387191199,254.7716431407893L524.9420979256589,275.0416636141548L525.1652423401812,329.71186871073974L525.515897848716,331.76176713225516L526.5678643743206,284.4192441913602L526.7856958265922,217.20068780396647L527.3223050138955,296.90073530968345L528.6452326142771,329.38543499213563L529.8990917054017,266.7034702026498L530.4994564397115,334.0254826435721L531.2432711547854,309.3023375184092L532.0986580771204,322.05863639993674L532.2474210201352,267.0180757754883L532.486504321409,294.24688405331887L534.7126355043803,336.70314124002596L534.8932762208982,333.1511920855321L535.1004817486688,335.8525904649095L539.0852034365648,319.18253964931796L539.0905163988155,292.1271376959671L539.1808367570744,216.87434639796595L539.6961940953756,300.6889280582421L539.9671551701526,315.6100440026693L540.4081310369464,336.72284621316567L540.8225420924875,296.6152435494969L542.6236362954166,336.3138862705463L542.9371010681978,322.29009521952395L543.9093731600445,329.2302575056L543.9146861222949,202.7311693360178L543.9837546315518,318.051947631329L544.7328823088762,336.56932581101285L544.9985304214027,322.0418724311355L545.4182544391945,171.8264541955602L545.5298266464555,189.2636150317985L546.5180376250537,336.42962774691586L546.661487605818,297.1086718228898L546.8208764733338,310.83075149256604L547.2406004911256,324.77130608226776L547.8622170744374,75.00069064289852L550.7471555764743,332.99732702046833L550.7684074254763,124.15306072858509L550.9331092552427,305.5918245069705L551.1243758962617,317.4549203517471L551.3953369710385,304.58538924822665L551.7991221020787,273.19755530593847L553.1751793249656,286.31278985502183L553.6055292672582,315.3822460371879L555.0719068484041,327.03486809091254L555.2950512629262,314.97759400335985L555.9007289594864,335.96228507012245L556.570162203053,255.89133699655568L556.7082992215668,311.2754914613537L557.3246028426281,259.2031376308279L558.1427990292094,250.15439248242026L558.4403249152389,214.98773420208036L558.7112859900159,284.849203593571L558.8281711595274,220.04329143202187L559.0034989137949,331.85330852992126L559.1363229700581,311.75291747679967L559.9863969301426,336.3418916066425L560.4008079856839,325.37082527464435L560.5123801929449,336.7143919127611L560.5176931551955,320.08977314680436L560.5283190796964,320.0400203460053L561.0702412292503,336.60400163935583L561.0861801160019,290.4236568254682L561.2986986060231,303.642665510937L561.9043763025833,261.0889733458427L562.7810150739205,335.53328532336286L563.5779594114997,324.871434134564L563.9764315802892,335.5548269968974L564.3005222775714,333.9273021234601L565.2037258601613,333.4265223380723L565.9422276129847,49.17763768165977L568.2268013807118,190.9697291852508L568.4446328329834,286.2945256745381L568.4711976442361,302.65692937540774L568.7209068700108,287.2572226942283L569.0396846050426,268.2793803300748L569.1618827368047,286.8279722528126L569.6241104526007,309.597130169027L570.5591918086936,336.7302876056721L570.5963825444474,270.4014308100107L574.1613802145516,250.01064224120051L574.3526468555707,330.7630027871145L575.6224448334469,329.8849326873356L575.7871466632133,332.64819125890335L577.3704094138708,335.8459084171029L577.4660427343803,309.9011477499908L577.8910797144225,319.0504883162189L578.2204833739553,334.0952598943292L578.581764806991,308.6817183023683L579.8090590868632,324.0636165635751L579.8196850113642,315.99065677953666L580.4891182549308,336.48658132641583L580.7175756317034,250.33285648257237L581.3498181395163,319.5279797417382L582.4814790988788,212.2004885961105L582.7524401736557,332.9529652757155L583.5175067377318,237.13473260052643L583.7672159635066,330.05259611287454L583.9372307555235,183.6697624381445L584.3888325468184,336.5959455596567L585.0051361678798,313.5929176104086L585.0423269036334,255.41409666131798L585.1007694883891,336.69866852954095L585.8924008637179,326.1158618352227L586.5565211450338,169.80895433288057L587.2259543886004,321.9430378102898L587.9485172546722,330.49094330199256L588.3204246122093,298.4984544215678L588.9207893465189,334.4051145330894L589.765550344353,330.3255871640412L590.2915336071552,245.94255767873585L591.3116223592566,300.2558711725573L591.5347667737788,280.38415584590155L591.9226130180673,272.5753451481133L592.2254518663474,336.72821050164765L594.9350626141168,272.12004461748165L595.2963440471526,307.02659446610306L595.7054421404433,327.5083768869652L595.7798236119507,324.1852508149912L595.9870291397214,317.8492038339465L596.1570439317383,332.80901722177396L596.7467827415469,219.51767296252683L597.7721844558988,313.505882122796L598.1387788511852,330.5690070595431L598.3512973412064,187.2278341086162L599.3023175840509,335.4355492224992L599.4245157158131,159.18129441367813L599.8283008468532,335.19784083965294L600.4446044679145,116.80680896956893L600.5774285241777,252.0293405852243L601.2734265789968,236.28343104576916L601.3106173147506,327.03731041865166L601.4328154465127,316.8894776975881L601.6081432007801,276.8219865508342L601.6293950497823,316.24860245882957L601.9747375960666,247.0329393816278L602.3200801423509,273.7121469030666L603.3082911209491,281.93313390312153L603.5154966487197,309.16726993692737L603.6005040447282,336.654003750122L604.3655706088042,250.74044985969917L604.503707627318,254.73400913858177L604.7002872305875,331.1718368456327L605.83194818995,306.0955643619281L606.0391537177205,280.71821986056324L606.0497796422217,307.98138108692154L606.4695036600133,253.80317737462929L606.7351517725398,113.32071369982064L606.8360980552999,321.16496810766404L607.3780202048537,308.90939810771727L608.7806422389931,301.82384347107984L609.3810069733028,334.48454557217343L609.5669606520713,318.33924766354363L611.8143436840447,334.7060972712745L612.4944028521123,258.7051095522762L613.3976064347021,231.93276652638352L614.3592526020476,333.1572696835983L614.6567784880773,328.5085264486595L614.8639840158478,333.6059793580881L615.5121654104122,311.5857862993576L615.729996862684,333.1821484577505L615.9797060884588,231.50656292838485L616.1603468049767,280.91104453682124L616.4844375022589,278.8384693923732L616.5800708227684,170.92673230649822L616.978542991558,321.2264050465672L617.7808002913878,336.42926116697356L618.0570743284153,296.5014806619088L618.8008890434892,324.78178013401464L620.0919388703676,299.2227000738285L621.4308053575006,296.271026203448L622.2861922798356,287.5220322112192L622.541214467861,333.5900936777719L623.5719291444634,231.90315053316837L623.7419439364803,321.1877466382108L623.7844476344846,322.73804555691214L624.050095747011,330.9843235728316L624.7885974998344,334.97913184124L624.8682919335923,261.8179876034515L625.2189474421272,311.41726674035846L625.8883806856937,277.8901330487888L626.3399824769886,137.38191468509564L626.6268824385172,326.2557254520834L627.0412934940583,326.5279094273449L627.7957341336333,265.8411966355871L628.114511868665,302.73483910278554L628.1995192646734,333.34372980146827L628.2845266606819,190.3020906764765L628.4811062639516,335.5204977858963L628.9061432439938,135.5632614454278L629.2993024505328,317.54018132736957L629.7084005438235,333.49823551600053L630.7072374469228,161.30964536068018L630.8719392766891,335.9356145083357L631.0472670309566,305.06140367208945L631.3872966149904,312.32131624427393L631.5945021427609,333.6529118769742L631.6529447275168,251.85664111153724L631.9876613493,333.9720299536236L633.2415204404248,150.5303184713792L633.3955963456899,203.5799979680016L633.7515648164755,326.1854992983229L635.7226738114214,331.6362430914766L636.5461829602532,335.672887168055L636.7321366390216,330.2831792814797L636.7693273747753,214.58041934526597L637.4653254295945,233.39424700547264L637.5343939388514,327.84633069098936L637.7787902023757,278.98549013726085L637.9169272208895,302.7963731017976L638.203827182418,135.35210928861508L638.676680822715,334.9253878390897L640.7221712891684,336.4575754041193L641.0250101374485,300.29687273854165L641.5881841360044,147.9274701922158L641.9335266822887,290.3266093766269L642.1726099835624,304.8534945889139L642.9748672833922,152.53801104305964L643.0386228303986,260.24581640021984L644.1012152805042,335.61533804038714L644.441244864538,268.8235752604038L644.6059466943044,261.3358351827047L644.6750152035612,241.05165659346054L645.9341872569364,291.9819315531146L646.2901557277218,70.93652224482587L647.5280759320948,332.19179458204235L648.0168684591436,335.0238205044845L648.2772036094193,328.2404617255178L648.8456905702259,229.92762283756167L650.1048626236011,294.2865985178597L650.6520977354055,336.1182166187538L651.1036995267003,325.1170721700536L651.1887069227088,305.6342946346019L653.2182585024105,260.93955141826206L653.3085788606694,177.2903812834993L653.8983176704781,315.7792872924802L653.9992639532381,317.71590232444527L654.4296138955309,328.60285779695454L654.7271397815605,303.030568594454L654.7590175550637,303.2842140889242L655.8322359296703,336.34128353033555L656.1988303249568,336.4876009356062L656.2678988342136,282.5186384597804L656.9638968890329,331.3909052038237L659.460989146781,242.4131904804569L660.2791853333624,329.61316332753904L660.3854445783729,336.2219088277036L661.4799148019819,293.0508840719732L662.0005851025335,333.5077793204541L662.2502943283083,320.47996005940934L662.4043702335737,242.54815467182283L663.2013145711528,330.6695613323174L663.3075738161634,288.3673624592795L663.323512702915,334.0929895317829L663.6529163624477,317.0439362008174L663.77511449421,186.90496998651554L663.7910533809616,296.7149242812915L664.8589587933177,328.7697726991541L665.2468050376062,307.3948173090747L665.6984068289012,314.22719698176974L665.8365438474148,316.28734210227714L666.5059770909813,279.9179972430923L666.8406937127646,335.45049120425705L668.6311619911927,333.49877303910336L669.0721378579865,220.83523440020693L669.3856026307677,327.70135031839004L669.3962285552687,334.6398848695155L669.560930385035,317.06406562339316L669.9381507048225,322.255654705898L671.1813838714462,149.70486866561532L671.6967412097474,334.39992023476384L673.0143558478784,328.505275990014L674.087574222485,334.73294454575944L675.2989296156055,328.39525466412215L676.14900357569,220.46693770715243L677.8438385336084,323.95769655478307L678.0351051746275,207.84162038752422L678.0776088726318,278.5052409386486L678.672660644691,311.6947742515905L678.8745532102109,336.0995839791068L679.9902752828218,336.51495469308105L680.5587622436284,332.9929767230894L681.2972639964518,117.24943682598783L681.4407139772161,263.9877452368922L682.1154601830331,289.03790433130996L682.8433360113554,304.0582199269923L683.1408618973851,264.9176317197846L683.310876689402,335.7357007516271L683.6880970091895,328.73180373407087L683.884676612459,265.1984730347556L685.7070226643901,277.27903416342525L686.1798763046871,330.1442108331229L686.3020744364493,336.26673902595064L686.6208521714809,286.2356523885101L686.6633558694853,266.5194315762456L687.1096446985296,332.5651618745337L688.050039016873,192.6959305612314L688.4750759969153,322.6045741922204L688.9213648259597,333.1687507339746L689.1338833159807,319.7932650642627L689.2932721834966,309.2421243808786L689.638614729781,330.52385828390754L689.8086295217979,336.1923652339447L691.8594329505017,190.6403662558615L692.5926217410746,275.11712995879236L692.9645290986116,285.73116770271713L693.3364364561485,310.216500263667L693.5383290216686,257.52049514369975L693.973991926212,200.424396588911L694.2077622652351,335.75677037806975L694.5265400002668,318.3947069657427L694.930325131307,333.6060574281757L695.2331639795871,318.90512919819474L695.7060176198842,299.7616157782368L695.976978694661,291.07230953294936L695.9929175814126,330.7725405253113L696.4179545614548,336.46255969127185L697.0023804090129,303.72795602659255L697.0555100315182,333.0914399835185L697.8152636333438,202.59082885862225L698.2031098776323,312.8794393002238L699.2231986297337,336.3769847044378L699.5951059872707,255.24881595595127L699.8554411375466,226.85223530843302L699.951074458056,330.0406308169551L700.2911040420898,336.1240707543819L701.0827354174185,336.21372205149066L702.3365945085433,333.416976159866L702.6819370548275,166.27579757035156L703.824223938691,301.7511137995116L705.0780830298157,332.9492601115601L705.1896552370769,336.5262606462298L705.6412570283717,318.64534148683595L705.6518829528728,336.72927173393157L707.0863827605153,326.2964210677246L707.6017400988165,309.6181521226037L707.697373419326,246.1211229590015" fill="none"></path></g></g></g></g></g></g><g transform="translate(49, 377)" clip-path="url(#clip_1)"><clipPath id="clip_1"><rect width="1062" height="22"></rect></clipPath><g><g><line x1="70.1419033559487" y1="0" x2="70.1419033559487" y2="5" style="visibility: inherit;" fill="rgb(0, 0, 0)" stroke="rgb(204, 204, 204)" stroke-width="1px"></line><line x1="176.4011483665116" y1="0" x2="176.4011483665116" y2="5" style="visibility: inherit;" fill="rgb(0, 0, 0)" stroke="rgb(204, 204, 204)" stroke-width="1px"></line><line x1="282.66039337707446" y1="0" x2="282.66039337707446" y2="5" style="visibility: inherit;" fill="rgb(0, 0, 0)" stroke="rgb(204, 204, 204)" stroke-width="1px"></line><line x1="388.9196383876374" y1="0" x2="388.9196383876374" y2="5" style="visibility: inherit;" fill="rgb(0, 0, 0)" stroke="rgb(204, 204, 204)" stroke-width="1px"></line><line x1="495.17888339820036" y1="0" x2="495.17888339820036" y2="5" style="visibility: inherit;" fill="rgb(0, 0, 0)" stroke="rgb(204, 204, 204)" stroke-width="1px"></line><line x1="601.4381284087632" y1="0" x2="601.4381284087632" y2="5" style="visibility: inherit;" fill="rgb(0, 0, 0)" stroke="rgb(204, 204, 204)" stroke-width="1px"></line><line x1="707.697373419326" y1="0" x2="707.697373419326" y2="5" style="visibility: inherit;" fill="rgb(0, 0, 0)" stroke="rgb(204, 204, 204)" stroke-width="1px"></line><line x1="813.9566184298891" y1="0" x2="813.9566184298891" y2="5" style="visibility: inherit;" fill="rgb(0, 0, 0)" stroke="rgb(204, 204, 204)" stroke-width="1px"></line><line x1="920.2158634404519" y1="0" x2="920.2158634404519" y2="5" style="visibility: inherit;" fill="rgb(0, 0, 0)" stroke="rgb(204, 204, 204)" stroke-width="1px"></line><line x1="1026.4751084510149" y1="0" x2="1026.4751084510149" y2="5" style="visibility: inherit;" fill="rgb(0, 0, 0)" stroke="rgb(204, 204, 204)" stroke-width="1px"></line></g><g transform="translate(0, 8)"><text style="text-anchor: middle; visibility: inherit; font-family: Roboto, sans-serif; font-size: 12px; font-weight: 200;" x="70.1419033559487" y="0" dx="0em" dy="0.95em" fill="rgb(33, 33, 33)" stroke="none" stroke-width="1px">-20k</text><text style="text-anchor: middle; visibility: inherit; font-family: Roboto, sans-serif; font-size: 12px; font-weight: 200;" x="176.4011483665116" y="0" dx="0em" dy="0.95em" fill="rgb(33, 33, 33)" stroke="none" stroke-width="1px">0</text><text style="text-anchor: middle; visibility: inherit; font-family: Roboto, sans-serif; font-size: 12px; font-weight: 200;" x="282.66039337707446" y="0" dx="0em" dy="0.95em" fill="rgb(33, 33, 33)" stroke="none" stroke-width="1px">20k</text><text style="text-anchor: middle; visibility: inherit; font-family: Roboto, sans-serif; font-size: 12px; font-weight: 200;" x="388.9196383876374" y="0" dx="0em" dy="0.95em" fill="rgb(33, 33, 33)" stroke="none" stroke-width="1px">40k</text><text style="text-anchor: middle; visibility: inherit; font-family: Roboto, sans-serif; font-size: 12px; font-weight: 200;" x="495.17888339820036" y="0" dx="0em" dy="0.95em" fill="rgb(33, 33, 33)" stroke="none" stroke-width="1px">60k</text><text style="text-anchor: middle; visibility: inherit; font-family: Roboto, sans-serif; font-size: 12px; font-weight: 200;" x="601.4381284087632" y="0" dx="0em" dy="0.95em" fill="rgb(33, 33, 33)" stroke="none" stroke-width="1px">80k</text><text style="text-anchor: middle; visibility: inherit; font-family: Roboto, sans-serif; font-size: 12px; font-weight: 200;" x="707.697373419326" y="0" dx="0em" dy="0.95em" fill="rgb(33, 33, 33)" stroke="none" stroke-width="1px">100k</text><text style="text-anchor: middle; visibility: inherit; font-family: Roboto, sans-serif; font-size: 12px; font-weight: 200;" x="813.9566184298891" y="0" dx="0em" dy="0.95em" fill="rgb(33, 33, 33)" stroke="none" stroke-width="1px">120k</text><text style="text-anchor: middle; visibility: inherit; font-family: Roboto, sans-serif; font-size: 12px; font-weight: 200;" x="920.2158634404519" y="0" dx="0em" dy="0.95em" fill="rgb(33, 33, 33)" stroke="none" stroke-width="1px">140k</text><text style="text-anchor: middle; visibility: inherit; font-family: Roboto, sans-serif; font-size: 12px; font-weight: 200;" x="1026.4751084510149" y="0" dx="0em" dy="0.95em" fill="rgb(33, 33, 33)" stroke="none" stroke-width="1px">160k</text></g><line x1="0" y1="0" x2="1062.615998840332" y2="0" fill="rgb(0, 0, 0)" stroke="rgb(204, 204, 204)" stroke-width="1px"></line></g></g></g></g></svg>