<svg viewBox="0 0 1112.5999755859375 400" xmlns="http://www.w3.org/2000/svg"><g><g><g><g><g><line x1="59.98000144958496" y1="377.60799980163574" x2="54.98000144958496" y2="377.60799980163574" style="visibility: inherit;" fill="rgb(0, 0, 0)" stroke="rgb(204, 204, 204)" stroke-width="1px"></line><line x1="59.98000144958496" y1="323.6639998299735" x2="54.98000144958496" y2="323.6639998299735" style="visibility: inherit;" fill="rgb(0, 0, 0)" stroke="rgb(204, 204, 204)" stroke-width="1px"></line><line x1="59.98000144958496" y1="269.7199998583112" x2="54.98000144958496" y2="269.7199998583112" style="visibility: inherit;" fill="rgb(0, 0, 0)" stroke="rgb(204, 204, 204)" stroke-width="1px"></line><line x1="59.98000144958496" y1="215.77599988664898" x2="54.98000144958496" y2="215.77599988664898" style="visibility: inherit;" fill="rgb(0, 0, 0)" stroke="rgb(204, 204, 204)" stroke-width="1px"></line><line x1="59.98000144958496" y1="161.8319999149867" x2="54.98000144958496" y2="161.8319999149867" style="visibility: inherit;" fill="rgb(0, 0, 0)" stroke="rgb(204, 204, 204)" stroke-width="1px"></line><line x1="59.98000144958496" y1="107.88799994332449" x2="54.98000144958496" y2="107.88799994332449" style="visibility: inherit;" fill="rgb(0, 0, 0)" stroke="rgb(204, 204, 204)" stroke-width="1px"></line><line x1="59.98000144958496" y1="53.94399997166222" x2="54.98000144958496" y2="53.94399997166222" style="visibility: inherit;" fill="rgb(0, 0, 0)" stroke="rgb(204, 204, 204)" stroke-width="1px"></line><line x1="59.98000144958496" y1="0" x2="54.98000144958496" y2="0" style="visibility: inherit;" fill="rgb(0, 0, 0)" stroke="rgb(204, 204, 204)" stroke-width="1px"></line></g><g transform="translate(49.98000144958496, 0)"><text style="text-anchor: end; visibility: hidden; font-family: Roboto, sans-serif; font-size: 12px; font-weight: 200;" x="0" y="377.60799980163574" dx="0em" dy="0.3em" fill="rgb(33, 33, 33)" stroke="none" stroke-width="1px">-0.05</text><text style="text-anchor: end; visibility: inherit; font-family: Roboto, sans-serif; font-size: 12px; font-weight: 200;" x="0" y="323.6639998299735" dx="0em" dy="0.3em" fill="rgb(33, 33, 33)" stroke="none" stroke-width="1px">0</text><text style="text-anchor: end; visibility: inherit; font-family: Roboto, sans-serif; font-size: 12px; font-weight: 200;" x="0" y="269.7199998583112" dx="0em" dy="0.3em" fill="rgb(33, 33, 33)" stroke="none" stroke-width="1px">0.05</text><text style="text-anchor: end; visibility: inherit; font-family: Roboto, sans-serif; font-size: 12px; font-weight: 200;" x="0" y="215.77599988664898" dx="0em" dy="0.3em" fill="rgb(33, 33, 33)" stroke="none" stroke-width="1px">0.1</text><text style="text-anchor: end; visibility: inherit; font-family: Roboto, sans-serif; font-size: 12px; font-weight: 200;" x="0" y="161.8319999149867" dx="0em" dy="0.3em" fill="rgb(33, 33, 33)" stroke="none" stroke-width="1px">0.15</text><text style="text-anchor: end; visibility: inherit; font-family: Roboto, sans-serif; font-size: 12px; font-weight: 200;" x="0" y="107.88799994332449" dx="0em" dy="0.3em" fill="rgb(33, 33, 33)" stroke="none" stroke-width="1px">0.2</text><text style="text-anchor: end; visibility: inherit; font-family: Roboto, sans-serif; font-size: 12px; font-weight: 200;" x="0" y="53.94399997166222" dx="0em" dy="0.3em" fill="rgb(33, 33, 33)" stroke="none" stroke-width="1px">0.25</text><text style="text-anchor: end; visibility: hidden; font-family: Roboto, sans-serif; font-size: 12px; font-weight: 200;" x="0" y="0" dx="0em" dy="0.3em" fill="rgb(33, 33, 33)" stroke="none" stroke-width="1px">0.3</text></g><line x1="59.98000144958496" y1="0" x2="59.98000144958496" y2="377.60799980163574" fill="rgb(0, 0, 0)" stroke="rgb(204, 204, 204)" stroke-width="1px"></line></g></g><g transform="translate(59, 0)" clip-path="url(#clip_0)"><clipPath id="clip_0"><rect width="1052" height="377"></rect></clipPath><g><g><g><line x1="0" y1="0" x2="0" y2="377.60799980163574" fill="rgb(0, 0, 0)" stroke="rgb(66, 66, 66)" stroke-width="1px" opacity="0.25"></line><line x1="131.57749981880187" y1="0" x2="131.57749981880187" y2="377.60799980163574" fill="rgb(0, 0, 0)" stroke="rgb(66, 66, 66)" stroke-width="1px" opacity="0.25"></line><line x1="263.15499963760374" y1="0" x2="263.15499963760374" y2="377.60799980163574" fill="rgb(0, 0, 0)" stroke="rgb(66, 66, 66)" stroke-width="1px" opacity="0.25"></line><line x1="394.7324994564056" y1="0" x2="394.7324994564056" y2="377.60799980163574" fill="rgb(0, 0, 0)" stroke="rgb(66, 66, 66)" stroke-width="1px" opacity="0.25"></line><line x1="526.3099992752075" y1="0" x2="526.3099992752075" y2="377.60799980163574" fill="rgb(0, 0, 0)" stroke="rgb(66, 66, 66)" stroke-width="1px" opacity="0.25"></line><line x1="657.8874990940094" y1="0" x2="657.8874990940094" y2="377.60799980163574" fill="rgb(0, 0, 0)" stroke="rgb(66, 66, 66)" stroke-width="1px" opacity="0.25"></line><line x1="789.4649989128112" y1="0" x2="789.4649989128112" y2="377.60799980163574" fill="rgb(0, 0, 0)" stroke="rgb(66, 66, 66)" stroke-width="1px" opacity="0.25"></line><line x1="921.042498731613" y1="0" x2="921.042498731613" y2="377.60799980163574" fill="rgb(0, 0, 0)" stroke="rgb(66, 66, 66)" stroke-width="1px" opacity="0.25"></line><line x1="1052.619998550415" y1="0" x2="1052.619998550415" y2="377.60799980163574" fill="rgb(0, 0, 0)" stroke="rgb(66, 66, 66)" stroke-width="1px" opacity="0.25"></line></g><g><line x1="0" y1="377.60799980163574" x2="1052.619998550415" y2="377.60799980163574" fill="rgb(0, 0, 0)" stroke="rgb(66, 66, 66)" stroke-width="1px" opacity="0.25"></line><line x1="0" y1="323.6639998299735" x2="1052.619998550415" y2="323.6639998299735" fill="rgb(0, 0, 0)" stroke="rgb(66, 66, 66)" stroke-width="1px" opacity="0.25"></line><line x1="0" y1="269.7199998583112" x2="1052.619998550415" y2="269.7199998583112" fill="rgb(0, 0, 0)" stroke="rgb(66, 66, 66)" stroke-width="1px" opacity="0.25"></line><line x1="0" y1="215.77599988664898" x2="1052.619998550415" y2="215.77599988664898" fill="rgb(0, 0, 0)" stroke="rgb(66, 66, 66)" stroke-width="1px" opacity="0.25"></line><line x1="0" y1="161.8319999149867" x2="1052.619998550415" y2="161.8319999149867" fill="rgb(0, 0, 0)" stroke="rgb(66, 66, 66)" stroke-width="1px" opacity="0.25"></line><line x1="0" y1="107.88799994332449" x2="1052.619998550415" y2="107.88799994332449" fill="rgb(0, 0, 0)" stroke="rgb(66, 66, 66)" stroke-width="1px" opacity="0.25"></line><line x1="0" y1="53.94399997166222" x2="1052.619998550415" y2="53.94399997166222" fill="rgb(0, 0, 0)" stroke="rgb(66, 66, 66)" stroke-width="1px" opacity="0.25"></line><line x1="0" y1="0" x2="1052.619998550415" y2="0" fill="rgb(0, 0, 0)" stroke="rgb(66, 66, 66)" stroke-width="1px" opacity="0.25"></line></g></g></g><g><g><line x1="0" y1="323.6639998299735" x2="1052.619998550415" y2="323.6639998299735" fill="rgb(0, 0, 0)" stroke="rgb(153, 153, 153)" stroke-width="1.5px"></line></g></g><g><g><line x1="131.57749981880187" y1="0" x2="131.57749981880187" y2="377.60799980163574" fill="rgb(0, 0, 0)" stroke="rgb(153, 153, 153)" stroke-width="1.5px"></line></g></g><g><g><g><g><g><path style="fill: none;" stroke="rgb(255, 112, 67)" stroke-width="2px" d="M132.14328306802273,143.04545040865466L132.18275631796834,246.97518467708323L132.82748606708049,321.8025157457417L133.78800181575772,229.05220231683717L134.6037823146343,296.1411922180055L134.66957106454373,273.3098879316579L134.9458838141632,312.8869399882204L135.18272331383704,299.03249205878467L135.64324456320284,323.66371776051045L135.66956006316659,255.56203964898802L135.77482206302165,274.170522712328L137.82743106019498,322.92409584326555L138.64321155907155,322.6894026147119L139.20899480829237,304.055166590169L139.30109905816553,192.31086939746692L139.93267105729578,314.09119727407676L140.10372180706023,323.24658127671285L140.98529105584618,321.5386885162538L141.09055305570124,277.1229999108083L142.14317305425166,322.0893388683718L142.22211955414295,322.77198648360985L142.5905365536356,313.7964455162522L144.93261605041025,256.44230391525497L145.61681904946803,320.01306145402674L146.11681354877948,290.33343271256587L147.1168025474024,323.54682888827637L148.18258029593468,323.1585167122041L148.90625654493806,318.8113806888727L148.9457297948837,321.5303917528455L149.12993829463002,255.53713705014323L149.18256929455754,274.491591806698L149.8141412936878,320.69240156725755L149.90624554356097,320.41419435296626L150.4851865427637,276.4170538364549L152.0114855406618,257.46277190297155L152.43253354008198,320.4219578265772L153.84041278814314,292.70162926938L154.406196037364,298.50762638140566L154.4456692873096,316.60810305989475L155.85354853537083,252.85217388960834L156.28775428477286,251.22110993325083L156.81406428404807,244.56042837909447L157.20879678350448,270.30465146670963L158.3798365318918,314.44999706120103L159.16930153080463,272.0907296798207L160.52454977893828,272.49936380340824L161.35348802779671,46.377532604650085L161.94558677698132,313.02084270106144L163.02452227549554,25.775543451120296L163.6429365246439,323.53262978837637L163.86661827433585,293.39703514594925L163.89293377429962,323.6525031815771L163.958722524209,264.64506563970946L164.287666273756,237.10836184705946L164.30082402373787,309.7891266249843L164.45871702352045,323.6294372919903L164.52450577342984,311.60202155293433L164.9060805229044,295.0255650337833L166.91921627013204,316.491462056094L167.64289251913547,249.18467539595616L170.62970176502225,321.401378074072L171.56390201373577,188.63149836072446L171.60337526368141,323.62273215166965L173.18230526150703,174.33925542876023L174.09019001025675,267.89058244186526L174.30071400996684,229.16186056520408L174.3138717599487,304.70119731715647L175.07702125889776,238.39914119499323L177.3796275057268,322.7841595831026L179.19539700322628,279.5760345095391L179.22171250319005,309.81333491718766L179.87960000228404,321.64128789670053L180.81380025099753,323.3936461745751L181.77431599967477,207.89987215946323L181.86642024954796,291.60188975030206L183.27429949760912,319.0502096137161L183.64271649710176,305.73851555433345L184.69533649565219,311.9889673858479L185.51111699452875,261.5582526659244L186.800576492753,249.62793844008064L187.2742554921007,321.7870526023862L188.39266424056052,321.2797694117541L189.48475748905656,295.1105035542298L190.69527048738956,321.57403171354L190.91895223708153,123.3752911029248L192.95840348427294,296.72836262219084L193.01103448420048,312.65390616258765L193.1162964840555,212.32353991584264L194.5899644820261,247.74225385073154L194.7741729817724,251.3116370695291L195.27416748108385,322.5989406010808L195.98468598010538,307.9766346159391L196.99783272871016,176.72326529660654L198.77412897626397,184.91237801756253L199.14254597575663,301.4182723583274L201.91883122193335,294.3977912556745L202.10303972167966,306.85621962976825L202.90566247057436,315.10600430142006L204.6030122182369,323.60402704107304L206.31351971588134,277.28734661341684L206.89246071508407,296.8500541792959L208.01086946354388,313.28130314620944L208.74770346252916,283.23995998666885L208.83980771240232,322.99411493480136L209.31348671175002,293.59042818197474L210.40557996024606,312.83461780335733L213.16870745644093,232.08930655232135L213.41870470609663,315.4221735602806L214.33974720482826,320.80000703925907L215.4844714532518,316.2528968873915L217.37918745064255,317.46336927271346L218.0897059496641,207.28180862648176L218.47128069913865,322.4663459931007L219.7344246973991,322.8109025090212L219.89231769718168,322.41493502290547L221.77387594459054,323.4262078906578L223.24754394256115,323.64898708947806L225.1948909398794,286.20937384614524L225.73435868913649,316.3183084103417L227.7869676863098,232.5968597790025L228.7211679350233,298.95872675086054L229.74747243360994,316.11124928946754L229.7869456835556,291.70538062650513L229.98431193328378,320.84771952036766L230.41851768268583,322.9628221526527L234.06321442766662,298.51136820185826L234.19479192748545,321.0724465347391L234.65531317685125,315.916376204697L236.7342376739883,253.9503801063204L237.72106892262934,296.36313120436915L239.2210524205637,270.1120984311939L239.76052016982078,319.3600698256857L241.62892066724777,259.7942194422684L241.69470941715716,309.5204048351098L241.8131291669941,142.4165995007056L243.03679991530893,260.46695535292673L243.4052169148016,208.56829553161919L243.53679441462037,281.53619780437447L244.76046516293525,256.84719219924864L245.20782866231914,252.0214977874065L248.40516190791604,67.24988134809148L248.78673665739058,313.4851158057832L249.06304940701006,307.279016202142L249.15515365688321,133.77454564362733L249.91830315583226,305.3669379125647L253.43142240099428,320.75233173520655L254.16825639997955,314.5947735605454L254.58930439939974,285.126572997634L255.73402864782332,300.2443877224823L256.1682343972254,314.8618555408123L257.29980089566703,282.1793046061426L257.4708516454315,308.4477985382399L258.65504914380074,242.82272053026634L258.95767739338396,284.59765401635974L259.1945168930578,288.87409661162167L261.10239064043043,315.724207499558L261.94448663927074,314.0506913643273L264.2734083860636,323.22126891386336L266.7996963825845,317.2139463940725L266.8918006324577,322.7192083146184L268.4180996303558,323.6048036184358L269.47071962890624,323.107486430039L270.03650287812707,106.37646203079608L271.1549116265869,309.8508335045379L271.56280187602516,322.18985495209967L271.7733258757353,227.89757539602837L272.52331762470243,170.45118646632136L273.12857412386893,323.66136652884404L273.1417318738508,249.66878095290517L273.43120237345215,301.864196073923L274.23382512234684,301.3308057980692L274.3522448721838,296.6455703231425L275.03644787124153,320.008256570728L275.07592112118715,295.8242869539136L275.5759156204986,259.3890739332382L275.87854387008184,158.36884420563197L275.98380586993693,288.9088702212416L276.58906236910343,281.66401051351966L277.6679978676176,306.9764411859812L277.91799511727334,282.38276559086177L278.9311418658781,323.1520248885874L281.8390046118736,185.4240307682627L282.53636536091324,322.0495045319964L282.7995203605509,318.6998882049429L283.20741060998915,240.82342285761436L283.3258303598261,283.9142874772404L283.77319385921,245.602567576135L284.85212935772415,297.56933375456396L285.33896610705375,306.4650336028939L286.3126396057129,266.7354410709835L287.8126231036472,287.13357536395694L289.07576710190773,270.872797266048L289.1415558518171,284.3129501115229L289.61523485116476,295.6084389760311L291.2994268488455,261.98098995596547L291.6415283483743,185.1695226712246L291.904683348012,314.8686730090645L293.29940484609125,307.29941635806296L294.8125460940075,322.37469274369874L295.5099068430471,323.5736809825477L298.3125075891876,301.5027386296835L301.0230040854549,245.66538675301427L301.8387845843315,322.47044112118397L302.86508908291813,321.11417627298243L303.0887708326101,323.4771248518809L303.4440300821209,295.74831111833214L303.72034283174037,310.20514592051785L303.8782358315229,296.4629003558255L304.07560208125113,275.24237943936504L305.78610957889555,320.9651487782353L307.930822825942,323.23415751468747L307.98345382586956,228.1026641329316L309.2729133240938,323.56291048483314L309.82553882333275,318.95798137592703L310.4965840724086,323.58274147698165L310.7992123219919,311.82291556258724L311.57551957092284,312.10329085235696L313.2991848185491,316.5579753261242L314.27285831720826,323.17065445581426L316.8517773136568,319.08484205100154L318.7070200611019,322.5711989813743L319.57543155990595,318.2018663716059L319.6675358097791,292.8916201023839L320.00963730930806,289.1551069257002L320.24647680898187,323.5607971544537L321.0227840579128,323.65262356839696L321.6806715570068,322.5149730800274L324.1148553036546,323.6498349820661L324.19380180354597,322.716319242889L324.5885343030023,320.25216368047137L324.70695405283925,323.06330350848873L324.838531552658,323.47708591645056L326.0490445509911,322.81094043966624L326.16746430082793,321.31947626599475L326.4437770504474,322.42079216760834L327.2858730492878,318.193810505473L327.5358702989435,320.0114769076106L330.1411047953558,322.77942999590226L331.325302293725,316.07997233268736L332.4568687921667,322.1401550056701L333.22001829111576,323.3383745680657L335.1805230384159,321.2947972318789L335.20683853837966,322.5196816295356L335.62788653779984,323.3925650255937L336.0357767872381,322.19178928939795L338.6936422835779,322.3797240804842L339.009428283143,323.08161465297445L339.85152428198336,322.92280023542185L342.02255302899357,310.84395525556306L343.36464352714535,323.01778717404784L343.6409562767648,323.6618587831215L345.3909370243549,322.53345409602775L346.3382950230503,323.139514055636L346.6277655226516,316.5643411433846L346.8514472723436,323.0907654210876L347.4567037715101,323.21635862230687L348.7593210197162,317.03224353260555L351.28560901623723,320.64173250540733L352.75927701420784,323.6544763875818L353.390849013338,322.53630617909835L353.94347451257704,322.81787716337357L356.14081875955105,322.1377567087601L356.5487090089893,320.95503059027664L358.4171095064163,310.35891424350086L358.85131525581835,322.33862195625807L359.1144702554559,321.98243988603343L359.4434140050029,322.92355514317666L359.7328845046043,322.32690967642293L361.1144482527017,323.53929420741787L362.4170655009079,318.7833506957855L362.60127400065414,323.66191663603905L362.9828487501287,321.80966215558107L363.08811074998374,321.9732267584327L363.46968549945825,322.42507569293514L364.7723027476644,323.4619272544402L367.81174299347873,323.3656433106909L368.18015999297137,323.56676838153743L368.6669967423009,322.8355228259962L369.12751799166676,323.27781694309715L369.28541099144934,322.7432056647081L371.9038032378435,322.51835983447506L372.614321736865,322.43550925787946L374.3643024844551,323.6119123880759L374.37746023443697,323.35812798764925L376.2195452319002,319.67246611574933L377.9037372295809,323.66346495315014L379.5484559773158,322.93228949058255L381.03528172526836,323.4589345485271L382.21947922363756,316.19414307183104L383.1142062224054,318.85745612353327L383.811566971445,323.4160662472423L385.15365746959685,322.0660716831989L388.4957259649944,323.44105657640347L388.5746724648857,323.43053570503656L390.0088672129106,319.0565784453324L390.19307571265693,319.2222494549647L391.2062224612617,323.4034662395957L391.28516896115303,323.12398726541176L392.4167354595947,322.79717890021425L392.71936370917797,323.60992372957236L393.9298767075109,323.00223347441727L394.36408245691297,323.6636187928995L394.6798684564781,323.6553046956876L395.2061784557533,323.59852247003664L395.44301795542714,323.5877715106862L395.52196445531837,322.89369418007874L395.56143770526404,323.29631353326965L396.561426703887,323.5616855024061L396.5745844538688,323.62515265982967L397.19299870301717,322.1825460182382L397.6008889524555,323.66189172074894L397.9561482019663,323.5735826941358L397.99562145191186,323.5068403723068L398.06141020182133,321.1755455446756L398.9956104505348,322.3612395477353L399.7850754494476,323.6289866889582L400.53506719841477,323.6396464660052L401.1271659475994,323.35429605051513L401.6666336968565,323.3320544371369L401.83768444662087,323.663525271729L401.8508421966028,323.59902447804166L402.14031269620415,323.65119588034827L402.35083669591427,323.2254886039242L404.0876596935224,322.9352473901049L404.99554444227215,323.5376335799149L405.0350176922178,322.5167897318476L405.04817544219964,320.7087810748055L405.67974744132994,322.77895856319986L405.99553344089503,323.6000929965579L407.73235643850325,323.5569297436886L408.95602718681806,323.65145924399496L409.7981231856584,323.09689304143313L410.6533769344806,323.66347594409325L410.9560051840639,323.42426016145544L412.0612561825418,323.6501141357568L412.10072943248747,321.5867234078451L412.1665181823968,323.4707268814909L413.04808743118286,322.8061255713136L413.28492693085667,322.1874889339174L414.2717581794977,323.5229865498687L414.784910428791,323.4536776217423L416.8638349259281,322.08595902182304L417.4296181751489,323.56639562974124L418.3638184238624,322.8642937226431L418.7059199233913,323.6588355774609L418.9822326730108,323.63186379157514L419.06117917290203,323.4885348640386L421.14010367003914,322.4842099453294L424.28480591570855,320.3077237859597L424.90322016485686,323.65265757998685L425.40321466416833,323.32988064694206L425.77163166366097,321.5472764162024L427.2716151615953,323.6073823724305L427.7321364109611,323.15744576807333L428.2189731602907,323.64647327562074L429.41632840864173,322.24785517868605L431.1268359062862,322.88257648194417L432.1136671549272,321.7745299632076L433.2978646532964,323.6639743756132L433.3373379032421,323.5076310284386L436.0346766495275,323.6624246631888L436.16625414934634,323.63050052360893L436.6136176487302,323.5033220851836L436.74519514854904,323.5859346454118L437.0872966480779,321.72717970719924L437.6793953972625,323.56866253527363L437.9820236468458,323.2549215912839L438.9688548954868,323.53328606232435L439.8372663942909,323.3327128541034L441.32409214224333,323.55142837148037L441.96882189135545,323.62100608752405L443.0345996398878,323.09715547879335L443.17933488968845,323.63591638113087L443.44248988932605,323.47022734619975L444.4030056380033,323.135512341186L446.56087663503166,323.56979320918055L448.4161193824768,323.50370482988365L448.9292716317701,320.30496163117334L449.31084638124463,318.6150200194673L450.4555706296682,323.625824625698L451.08714262879846,323.58330750080006L451.1134581287622,323.58730756677426L451.6134526280737,323.62377544065504L451.9160808776569,323.6597569076869L452.85028112637036,323.6580288501612L454.7055238738155,323.6055443728477L455.54761987265584,323.4632754722141L456.8370793708801,322.51162852656233L456.9423413707351,323.61080334845246L459.2317898675823,323.64412870332467L459.66599561698433,323.5652577260901L460.63966911564347,323.49758370924303L461.15282136493676,323.6367837718524L462.28438786337847,322.9402376562913L463.57384736160276,321.49328427817284L463.7448981113672,323.428846959245L463.8633178612041,323.36447653516234L464.90278010977266,323.4943914592495L465.6790873587036,323.6617840392135L467.17907085663796,323.3860308125971L467.3764371063661,322.2453285204541L468.41589935493465,320.77070976071377L469.56062360335824,323.4454533598732L471.21850010107516,323.65985982704046L471.67902135044096,322.73875817098036L472.6526948491001,323.54402479155374L474.2842558468532,323.56282331970846L474.5605685964727,323.20330354111854L474.88951234601967,323.5748094663366L475.73160834486004,323.663875428428L475.91581684460635,323.659056304947L477.53422009237767,323.0822255624361L477.67895534217826,322.68444845799723L478.99473034036635,320.82887351610754L479.87629958915227,322.62787264017004L482.50784958552833,323.6378409217725L484.17888383322713,323.43669536861324L484.192041583209,323.5756901685009L484.5736163326835,322.7887281534589L484.59993183264726,323.4116443127406L485.9025490808534,323.43511540653L488.7183075769758,322.36219585214343L488.7972540768671,323.58035117125473L488.8762005767583,323.38123534916053L488.92883157668587,323.6149493948158L488.9419893266678,323.63682299969093L490.45513057458396,323.560193427637L493.4945708203983,323.6633631746057L494.78403031862257,323.6063495826665L494.91560781844134,323.5756284841034L495.00771206831456,322.8892218807139L495.24455156798837,323.59535191712564L496.5734843161583,323.56046385618026L497.70505081459993,323.41958067222197L498.90240606295106,323.5438725037818L498.9287215629148,322.95160686474594L499.349769562335,323.0180578380877L499.5866090620088,321.9141710048899L503.31025230688095,323.1902925762847L503.6523538064098,322.04761578683105L504.2312948056125,323.62023604126574L505.7707515534925,323.64371062629164L505.94180230325696,322.57775457745805L507.1523153015899,323.6332420155351L507.5338900510644,323.13839051727473L508.0470423003578,323.1410767793715L512.7706745438528,323.11268387039416L513.1127760433817,323.3906327920646L513.402246542983,322.2140719105762L513.6522437926387,323.6122367217805L513.9811875421857,323.6596466560501L514.1917115418959,323.6232214742603L515.8101147896671,323.5320195383051L516.6258952885437,323.6312293049835L519.3627072847747,323.39475360497204L519.4548115346479,323.49548783700817L519.5732312844848,322.85259456781586L520.2311187835788,323.3858129939841L520.2705920335245,322.79503399759676L520.546904783144,323.05713475474505L520.9547950325822,323.5985740594818L521.2047922822379,323.65723463901264L522.9942462797737,323.1550546302586L524.060024028306,323.3037697937755L524.0731817782879,323.4415804149391L526.3231570251893,323.6605315201253L526.3889457750988,323.64726805686706L526.7310472746276,323.5961365366957L527.336303773794,323.66270890753003L527.5336700235223,323.65317122348415L528.6126055220365,323.36935847293364L529.5204902707862,322.34364789232256L530.0599580200434,323.1850431696899L530.6257412692642,323.4295584571349L532.3625642668724,323.60167867728245L532.5072995166731,323.6600538855231L533.8493900148247,322.86914306769125L534.3757000141001,323.6630096201329L535.6125285123968,323.59594156909833L535.796737012143,323.45797593625275L536.0335765118169,323.6364531700145L540.8624707551669,323.61416406483113L544.8229534997129,323.416901946015L545.3097902490425,323.6388909381095L548.6387009944581,323.51493186121854L548.980802493987,323.5105828521498L550.1123689924287,323.6638376135841L550.9676227412509,323.6515518127843L551.0597269911242,322.75158689288054L551.1649889909792,321.8493681306345L551.7965609901094,323.3606736740028L551.9149807399464,323.6619123448503L552.6912879888772,323.4551153282069L552.8623387386417,323.5615000567194L554.9281054857969,323.1624967609712L555.3623112351988,322.90015852909744L555.9149367344379,323.5631673958742L558.3622782310675,322.8423941130609L559.5991067293644,323.659843687186L559.7701574791288,323.52308063859203L560.6780422278784,323.52501202433353L561.283298727045,323.66239342923177L561.9280284761571,323.57043867383663L562.6648624751424,323.0290003267858L564.4016854727506,323.6635951637026L564.5069474726057,323.5435302644892L565.8227224707937,321.9264226032342L565.9806154705763,323.30202391651983L566.2437704702138,323.6176109925734L567.7963849680757,323.5908780948831L568.1516442175864,323.5484064561446L568.1779597175503,322.3590621779929L569.3621572159195,323.2516952570891L570.2831997146511,323.5815472818042L570.6384589641618,323.2157086832163L570.730563214035,323.2935291476086L571.0989802135276,323.02841516494743L572.8884342110633,323.62365048225837L574.0989472093963,323.41991352305195L575.3752489576386,323.65014364936246L575.4936687074756,323.18119019486363L575.6515617072582,323.5298578055339L575.9015589569138,322.23932229073256L576.1252407066058,323.65160461699924L576.8357592056275,322.73901056048754L576.99365220541,323.6625246574789L577.3225959549569,323.2803258291891L577.8094327042866,323.4583081590919L579.177838702402,323.11424549514567L579.4278359520578,323.588202791226L580.1251967010974,323.66340322882866L580.8093997001553,323.62389471965986L583.7172624461507,322.6218495174956L583.9935751957702,323.655345176564L584.7172514447736,323.5383299667759L585.8619756931972,323.3764209204015L585.875133443179,320.95074317140677L586.3751279424905,323.6531936221502L586.8356491918563,323.66155007951943L589.2566751885222,323.66312217055963L590.5066614368009,323.6158600246672L593.6250481825065,323.6396562410747L594.4408286813831,323.50626629450625L595.4539754299878,322.9585372457461L596.4934376785565,323.65086321987803L596.7697504281758,323.50177512401757L596.8750124280309,323.55394832591037L597.0460631777954,323.6221161986568L597.072378677759,323.09688569394064L598.4407846758746,323.6639897459221L598.4671001758384,323.5936097764153L599.6512976742076,323.58583889251275L602.25653217062,323.4012280018438L602.348636420493,323.6492398116242L603.2170479192972,323.14381692307984L603.2828366692065,323.4886390006149L604.6512426673221,323.63574979479324L604.8749244170141,323.6422620300739L605.7564936658,323.4730814231412L606.0196486654377,323.66374965229403L607.4275279134988,323.10707302368763L608.3090971622847,323.657013538657L608.506463412013,323.34084721908783L608.716987411723,323.6558398606262L608.8880381614875,323.4232544969695L609.3485594108533,323.30607976377786L609.6906609103822,323.46397963831134L612.7564166561604,323.36264151461086L613.5458816550731,323.45988739898576L613.9406141545296,323.2329501081533L614.1906114041853,321.31354903751725L615.3616511525726,323.66275671136805L615.9274344017934,323.65595476086696L616.0458541516304,323.17596728948104L616.4537444010687,323.6471579681153L617.2037361500359,323.5361426433791L619.1247676473903,323.5752981844861L620.6510666452883,323.16654391055647L621.0852723946905,323.4143905950591L624.414183140106,321.93437748844457L624.86154663949,323.64735253340615L628.4799278845072,323.40519117335776L629.9535958824778,323.6622626537022L634.1114448767519,323.5955630947359L634.8351211257552,323.6639227808517L635.0324873754835,323.04334005737815L636.3877356236171,323.4412839247771L637.3614091222763,323.26212351551106L637.5719331219864,323.4765641502847L637.716668371787,323.4036151205174L638.164031871171,323.53731741794076L639.2166518697214,323.6409222842884L640.0192746186161,323.4264484268384L640.0324323685979,323.6392408879518L640.795581867547,323.66300246079237L641.0587368671845,323.1019667047993L641.6245201164055,323.5255621756842L642.6376668650103,323.4700756393194L644.4929096124554,323.6427625250135L644.8086956120204,323.65221804431155L646.5981496095561,323.5868976771714L647.8612936078166,323.5718204577194L648.6376008567477,322.82070218004014L648.7823361065482,323.66356622924064L652.5191371014022,323.29250272802636L653.9796473493909,322.77859571010885L654.3480643488836,323.6616187782799L655.0191095979595,323.54220428543994L656.2954113462018,323.6396611276282L656.70330159564,323.3541892606776L656.7690903455496,323.65026552177306L656.9927720952414,323.27355856880234L658.1638118436289,323.66014011160524L660.8479928399324,323.59169532287603L661.7953508386278,323.63733950447136L664.3216388351487,323.4467866628654L664.4795318349312,322.9738865971665L666.4137210822677,323.59696734499L666.5452985820865,323.62712878991647L666.6242450819777,323.4160174994555L666.6768760819052,323.6638251393654L667.0847663313435,322.4617543754816L667.1110818313074,323.04216420738226L667.2952903310537,322.83142989588066L667.3742368309449,323.4985640185999L668.3347525796222,323.6639742371401L671.5847168251466,323.5959313563977L672.742598823552,323.6617746291637L673.0847003230809,323.5125069217984L674.2688978214502,323.641317327796L674.624157070961,323.47637339807557L675.5451995696925,323.55875661605927L676.4399265684605,323.5548828782867L677.5188620669746,323.3409479174145L678.1504340661048,323.6618160856337L678.3609580658149,323.6484405510371L681.3214518117379,323.60625411628826L682.518807060089,323.2793380624413L684.2951033076429,322.8639733217309L684.387207557516,323.5523565811495L685.9792953053235,323.5057931819285L686.2950813048888,323.594749414891L686.6108673044538,323.6300045639404L687.4266478033303,323.5882243470106L688.676634051609,323.06596053761314L690.1371442995977,323.6639978649878L690.3739837992715,323.5209553292879L690.7818740487098,323.6304861897187L693.1371112954664,323.6579575359171L694.4265707936906,323.52451963243783L696.466022040882,323.1551412301915L696.9002277902841,323.4662357738013L697.123909539976,323.6592732890191L697.6370617892694,322.67152057634786L701.0317612845944,323.64664804938855L703.610680281043,323.60243102204976L704.1896212802457,323.6486038629914L704.6501425296116,323.48487311241445L705.0448750290678,323.25313781478275L705.3606610286331,323.062120876192L705.7817090280532,323.51336069100665L706.7290670267486,323.63083009318694L707.0843262762594,323.6621282014827L707.1369572761869,323.51493402778686L707.3343235259151,323.62491847028116L707.676425025444,323.6639325543496L707.9658955250454,323.6534814892133L710.2158707719469,323.6358710872936L710.2685017718744,323.6631575350895L710.4395525216388,323.6605683176885L711.4921725201892,323.60754809135585L711.5448035201167,323.2661643223891L712.0184825194644,323.52411428006866L713.1632067678879,323.5115712468884L713.2553110177612,322.21074129850706L713.8342520169639,323.12095457218373L714.5316127660036,323.220948387353L715.0447650152969,323.32433190852686L715.8473877641916,323.64925978369445L717.1236895124339,323.6234534108917L717.6236840117454,323.5872696125796L718.2289405109118,323.6617114797814L718.2420982608938,323.51723506461985L719.0184055098247,323.662386516672L720.1236565083026,323.63725632512586L721.0841722569799,323.51694391237976L721.2683807567262,323.59682026954187L723.2157277540445,322.98763852835907L723.610460253501,323.5285042027387L724.3867675024318,323.3445719895899L725.0578127515078,323.6479847415687L727.768309247775,323.60626305730744L727.886728997612,323.49717934595935L728.5840897466516,323.61021561970165L730.3603859942053,323.64337882145884L730.8340649935532,323.26701590932936L732.3472062414693,323.63827450036626L733.8340319894219,323.6634384619956L734.7287589881896,323.6034305675502L735.1892802375555,323.48494437367185L737.1629427348374,323.5442576191471L737.2813624846743,323.6465646502463L737.6366217341852,323.3003281215313L738.0313542336415,323.52580644841015L738.4787177330255,323.1882287158815L739.0708164822101,323.6404951720376L739.5444954815578,323.3778438533822L741.0313212295102,323.60947847231205L741.2418452292203,323.58759681934214L742.0576257280969,323.63251188005535L742.2813074777888,323.5376335799149L743.4128739762306,323.62046693386253L743.5312937260675,323.6187037790096L746.004950722661,322.63490337410184L746.6891537217188,322.9404025666784L750.7548984661197,323.51753268516535L752.6101412135648,323.25107464516935L753.1759244627856,323.22505029773714L753.8732852118253,323.11350923871805L753.9653894616985,323.60135421797975L754.228544461336,323.6639822273381L754.5706459608649,323.38499767351317L755.7548434592342,323.35919032830594L756.439046458292,323.47239303531313L757.2285114572047,323.46204164296654L757.3206157070779,323.64808838556473L757.7021904565524,323.6455926480304L758.399551205592,323.4943694795711L758.4521822055196,323.6302966856413L758.623232955284,323.62931707884917L758.8074414550305,323.578582058339L759.1232274545955,323.195835976778L759.2811204543781,323.4596801463181L759.7021684537982,322.2808086197373L759.7942727036714,323.6244331786066L759.9784812034177,323.50500648213887L761.4653069513702,323.25481577483214L761.6100422011708,323.6492331509966L761.6889887010622,323.6631016357507L762.2284564503193,323.66184071759204L762.2810874502468,323.4458979459684L762.4652959499931,323.59203894374843L762.7679241995763,323.2495081220895L764.1626456976555,323.28469353668424L765.544209445753,323.6386351280148L765.7547334454631,323.3588032661691L766.1494659449195,323.6414833234298L768.7020694414043,323.43407149740364L769.9257401897191,323.46003949836035L770.0310021895741,323.5957575756404L771.4520391876173,323.5372031079132L771.7151941872548,323.63253480368246L774.2677976837396,323.6417773094784L776.083567181239,323.57900409956403L779.8993146759843,323.663219861767L780.6098331750057,323.2052376272205L780.9387769245528,323.6577685911441L782.5966534222697,323.17802216961564L783.662431170802,323.5835653381276L784.4650539196967,323.5657474333251L784.7150511693525,323.08481684092254L785.4913584182834,323.65486402766635L787.0176574161815,323.4333367795535L788.0571196647501,323.3852002947486L789.5571031626844,323.62251950220593L790.2149906617784,323.5418415500972L791.4386614100932,323.66363646832644L791.6491854098034,323.43602748468516L792.0439179092597,323.6040256045441L793.004433657937,323.66376453570695L794.5044171558712,323.4357881259873L795.6622991542769,323.661968847097L796.5570261530446,323.64037691351785L797.7543814013957,323.2603641678524L797.7806969013595,323.64948897286615L797.8596434012508,323.3888806035012L800.2543538979529,323.36053347505407L802.3595938950538,323.6639987205486L802.8332728944015,323.66398051180096L804.3464141423177,323.6639932094961L804.3990451422452,323.6618467176027L805.62271589056,323.6502274086182L806.3463921395635,323.6586850814253L807.1358571384762,323.6579921077925L808.3858433867549,323.48930245720777L812.5042191310833,323.18678402301913L813.0831601302862,322.39344856847833L813.1357911302136,323.5912138815701L813.2410531300687,323.6459615867449L815.188400127387,323.2047282638731L815.8068143765353,323.63856578212943L816.6752258753395,323.46936717148515L816.7015413753031,322.7404334620688L818.9120433722591,323.66253434166146L819.6357196212625,323.4396645719702L820.0041366207552,323.6334942068327L820.4383423701572,323.6470322227676L820.7541283697223,323.65633267837825L820.8857058695412,323.66399924548574L822.5041091173124,323.5577239165689L822.7409486169862,323.6325278584966L824.2277743649387,323.6040927092873L824.7672421141957,323.65915028377196L826.3461721120215,323.662066291401L827.7145781101369,323.58748530387373L828.1487838595389,323.60839151441553L828.9908798583792,323.63847726486205L829.1224573581981,323.6382905121694L830.1619196067667,323.5659130580519L830.3592858564949,323.0109671938324L830.8461226058243,323.5721233612376L834.2276643511676,323.56167109786685L834.3329263510227,323.6577497224732L835.1092335999535,323.630975944053L835.2934420996999,323.5542481758232L837.4776285966919,323.587647678748L838.2407780956411,323.6101856488402L838.3328823455142,323.61733439009544L838.3855133454418,323.6422903092851L838.4381443453693,323.1046391824977L839.793392593503,323.00282899810406L840.2933870928144,323.4087030078754L840.7275928422164,323.4973663930226L840.872328092017,323.4955039135729L842.4117848398971,323.5900935381121L843.0565145890092,323.6603633844166L843.2538808387375,323.6619914591818L843.5301935883568,323.57688806882413L843.7275598380851,323.57688112952565L845.280174335947,323.55069806526564L846.9512085836457,323.6423531495782L848.24066808187,323.63829428011434L849.8590713296412,323.3436263296261L850.3327503289889,323.6120476886963L850.6222208285903,323.6088857863587L851.201161827793,323.13834649511887L851.5695788272858,323.56973791458955L852.7274608256912,323.46935767312414L853.4642948246764,322.527471729957L854.4379683233356,323.570414723837L855.0300670725202,323.6630359339905L857.8063523186969,323.65943369111915L859.2010738167762,323.5143302303211L859.2405470667219,323.6593058056965L859.5826485662507,323.30125199021404L859.990538815689,323.61023695568946L862.3457760624456,323.0834120882758L862.411564812355,323.66399617130986L862.5168268122101,323.6477547438588L864.6483823092746,323.5922732471203L865.3457430583143,323.49155121380574L865.7273178077888,323.6582359443592L866.7141490564298,323.23100182945905L867.9378198047447,323.6619146698882L867.9772930546903,323.23396236654276L869.6220118024254,323.54644659101984L872.4246125485657,323.279551736315L872.8588182979678,323.62320012257265L873.4114437972067,323.61609170225245L873.832491796627,323.2815644782662L874.1088045462465,323.6453062685204L874.937742795105,323.56971086388535L875.0956357948875,323.5062172955232L875.2798442946338,323.4219679792928L875.371948544507,323.04956790505724L876.4245685430574,323.66045174076135L878.7798057898138,323.55645258842L879.214011539216,322.5080592779847L879.6876905385636,323.6481138113427L881.5692487859725,323.6624002486968L882.0560855353021,323.6561356570546L884.70079328166,323.6607549403673L885.0165792812252,323.6224596664564L885.5165737805366,323.3971942598623L885.5955202804279,323.65957623276796L887.7533912774562,323.5968537571519L887.9507575271844,323.6604571032141L888.3981210265683,323.42058627390884L889.1481127755355,323.6253045472574L890.6086230235242,322.56753653896027L891.5822965221832,323.6607393083023L893.0296490201902,323.20023611999864L895.9243540162038,323.5653321508512L898.6216927624893,323.5078113716999L899.2927380115651,323.51157889267654L900.5295665098619,323.42797270183644L902.0558655077599,323.60754437051025L902.7795417567634,323.6256089618784L903.1742742562199,323.4864118312011L903.2269052561473,322.69623257998126L903.7795307553863,323.65045347451684L904.2005787548064,323.48600732661953L904.5558380043171,323.6304675501664L904.7795197540092,323.6413114305698L904.9768860037374,323.6624633512251L905.1084635035561,323.6567035113681L906.2137145020341,323.53418909741185L908.0821149994612,323.63950020498265L908.2926389991712,323.3086776047683L908.3321122491169,323.65676092591866L908.3715854990625,323.6622420297235L911.3715524949312,323.66117676400336L911.9899667440794,323.6309209516826L913.582054491887,323.66240970915766L915.4767704892778,323.1546103895584L916.1083424884081,322.8891270541013L916.3188664881181,323.6376848994178L916.7135989875745,323.1874397396252L917.3583287366866,323.5164419750237L917.5951682363605,323.53794239439657L917.7793767361068,323.594859109186L918.6609459848928,323.61941390316963L919.2398869840955,322.87874536119807L919.5951462336062,323.6628817550096L921.1609184814499,323.6626022627927L922.1872229800367,323.65662663449916L923.4108937283515,323.3527480531642L923.4898402282428,323.60043058479357L923.7793107278442,323.640210821723L924.9635082262133,323.6249734077023L926.2924409743833,323.57878391813557L927.3055877229881,323.2893910335542L927.6740047224806,323.5607980964399L928.8976754707955,323.3713397525451L929.4503009700345,323.6634430910361L929.8845067194366,323.428231355552L930.5029209685849,323.5696778001691L930.7397604682587,323.5899849192513L932.5160567158126,323.65735854258105L933.4370992145442,323.64414636360374L934.5028769630765,323.484114970507L935.8186519612645,323.636987030891L936.9107452097605,323.52294612296015L937.8449454584741,323.2719543662738L939.1212472067165,323.5266040595401L939.279140206499,323.6605669412602L939.6475572059917,322.836027919006L939.9765009555388,323.6228664710544L941.2396449537991,323.6569535179446L943.1606764511537,323.66394856942236L944.0422456999397,323.6231506761461L944.6343444491242,323.57326451474114L946.9895816958807,323.5642422021485L948.4895651938151,323.43430426219805L949.2000836928368,323.65408069253374L949.5421851923655,323.6029589072011L949.9763909417676,323.65921767209227L950.2527036913872,323.5899881141546L952.4237324383973,323.63606906335946L952.8447804378175,323.61982962916204L954.1605554360054,323.6634835343189L954.5684456854439,323.66289367027673L954.6737076852988,323.6630848948281L958.8710299295186,323.60316762779735L959.6473371784496,323.3331296516052L960.0157541779422,323.6159463263045L960.0552274278879,323.5787859198563L960.2131204276703,323.5414402325689L960.8446924268006,323.6346950312382L963.344664923358,323.28938023211225L963.4236114232491,323.55447506890346L965.2393809207485,323.4937793409055L966.1604234194803,323.5900450964709L966.1735811694621,323.61913815632914L967.2788321679401,323.58947912760163L968.60776491611,323.6194170038743L969.3182834151315,323.6336112113333L969.3577566650772,323.66378442762255L970.8051091630839,323.6275314340753L971.4893121621417,323.55326531525367L971.9103601615618,323.66309458097305L972.1471996612357,323.6511918926067L973.5287634093331,323.6552688776429L974.7524341576479,323.1098397628069L974.97611590734,323.6322849634254L975.3840061567782,323.59280967687175L975.9629471559809,323.56214088994324L976.3050486555098,323.6556572222547L976.6471501550387,323.52650353391095L980.4102666498565,323.64995031846615L980.5418441496753,323.6598351003929L980.568159649639,323.5057238674426L982.7260306466674,323.6496449118158L984.2523296445655,323.6592595497577L985.3575806430434,323.6082196372553L985.3838961430072,323.64593422989515L986.6996711411952,323.6635979943528L986.8444063909959,323.6327476729429L987.2128233904886,323.6628875409882L987.5549248900173,323.6506970966836L990.0680551365566,322.1515987566342L990.4496298860311,323.65758018899436L990.6864693857049,323.6635831025381L991.449618884654,323.61045734906486L991.7522471342372,323.6625011034079L991.778562634201,323.3575104842841L992.6469741330051,323.4862864057362L992.765393882842,323.6537979259335L993.1732841322802,323.57624751819617L993.3443348820447,323.52002974933026" fill="none"></path></g></g></g></g></g></g><g transform="translate(59, 377)" clip-path="url(#clip_1)"><clipPath id="clip_1"><rect width="1052" height="22"></rect></clipPath><g><g><line x1="0" y1="0" x2="0" y2="5" style="visibility: inherit;" fill="rgb(0, 0, 0)" stroke="rgb(204, 204, 204)" stroke-width="1px"></line><line x1="131.57749981880187" y1="0" x2="131.57749981880187" y2="5" style="visibility: inherit;" fill="rgb(0, 0, 0)" stroke="rgb(204, 204, 204)" stroke-width="1px"></line><line x1="263.15499963760374" y1="0" x2="263.15499963760374" y2="5" style="visibility: inherit;" fill="rgb(0, 0, 0)" stroke="rgb(204, 204, 204)" stroke-width="1px"></line><line x1="394.7324994564056" y1="0" x2="394.7324994564056" y2="5" style="visibility: inherit;" fill="rgb(0, 0, 0)" stroke="rgb(204, 204, 204)" stroke-width="1px"></line><line x1="526.3099992752075" y1="0" x2="526.3099992752075" y2="5" style="visibility: inherit;" fill="rgb(0, 0, 0)" stroke="rgb(204, 204, 204)" stroke-width="1px"></line><line x1="657.8874990940094" y1="0" x2="657.8874990940094" y2="5" style="visibility: inherit;" fill="rgb(0, 0, 0)" stroke="rgb(204, 204, 204)" stroke-width="1px"></line><line x1="789.4649989128112" y1="0" x2="789.4649989128112" y2="5" style="visibility: inherit;" fill="rgb(0, 0, 0)" stroke="rgb(204, 204, 204)" stroke-width="1px"></line><line x1="921.042498731613" y1="0" x2="921.042498731613" y2="5" style="visibility: inherit;" fill="rgb(0, 0, 0)" stroke="rgb(204, 204, 204)" stroke-width="1px"></line><line x1="1052.619998550415" y1="0" x2="1052.619998550415" y2="5" style="visibility: inherit;" fill="rgb(0, 0, 0)" stroke="rgb(204, 204, 204)" stroke-width="1px"></line></g><g transform="translate(0, 8)"><text style="text-anchor: middle; visibility: hidden; font-family: Roboto, sans-serif; font-size: 12px; font-weight: 200;" x="0" y="0" dx="0em" dy="0.95em" fill="rgb(33, 33, 33)" stroke="none" stroke-width="1px">-10k</text><text style="text-anchor: middle; visibility: inherit; font-family: Roboto, sans-serif; font-size: 12px; font-weight: 200;" x="131.57749981880187" y="0" dx="0em" dy="0.95em" fill="rgb(33, 33, 33)" stroke="none" stroke-width="1px">0</text><text style="text-anchor: middle; visibility: inherit; font-family: Roboto, sans-serif; font-size: 12px; font-weight: 200;" x="263.15499963760374" y="0" dx="0em" dy="0.95em" fill="rgb(33, 33, 33)" stroke="none" stroke-width="1px">10k</text><text style="text-anchor: middle; visibility: inherit; font-family: Roboto, sans-serif; font-size: 12px; font-weight: 200;" x="394.7324994564056" y="0" dx="0em" dy="0.95em" fill="rgb(33, 33, 33)" stroke="none" stroke-width="1px">20k</text><text style="text-anchor: middle; visibility: inherit; font-family: Roboto, sans-serif; font-size: 12px; font-weight: 200;" x="526.3099992752075" y="0" dx="0em" dy="0.95em" fill="rgb(33, 33, 33)" stroke="none" stroke-width="1px">30k</text><text style="text-anchor: middle; visibility: inherit; font-family: Roboto, sans-serif; font-size: 12px; font-weight: 200;" x="657.8874990940094" y="0" dx="0em" dy="0.95em" fill="rgb(33, 33, 33)" stroke="none" stroke-width="1px">40k</text><text style="text-anchor: middle; visibility: inherit; font-family: Roboto, sans-serif; font-size: 12px; font-weight: 200;" x="789.4649989128112" y="0" dx="0em" dy="0.95em" fill="rgb(33, 33, 33)" stroke="none" stroke-width="1px">50k</text><text style="text-anchor: middle; visibility: inherit; font-family: Roboto, sans-serif; font-size: 12px; font-weight: 200;" x="921.042498731613" y="0" dx="0em" dy="0.95em" fill="rgb(33, 33, 33)" stroke="none" stroke-width="1px">60k</text><text style="text-anchor: middle; visibility: hidden; font-family: Roboto, sans-serif; font-size: 12px; font-weight: 200;" x="1052.619998550415" y="0" dx="0em" dy="0.95em" fill="rgb(33, 33, 33)" stroke="none" stroke-width="1px">70k</text></g><line x1="0" y1="0" x2="1052.619998550415" y2="0" fill="rgb(0, 0, 0)" stroke="rgb(204, 204, 204)" stroke-width="1px"></line></g></g></g></g></svg>