<svg viewBox="0 0 1193.3333740234375 400" xmlns="http://www.w3.org/2000/svg"><g><g><g><g><g><line x1="51.53200149536133" y1="351.38123129817876" x2="46.53200149536133" y2="351.38123129817876" style="visibility: inherit;" fill="rgb(0, 0, 0)" stroke="rgb(204, 204, 204)" stroke-width="1px"></line><line x1="51.53200149536133" y1="323.6086915318915" x2="46.53200149536133" y2="323.6086915318915" style="visibility: inherit;" fill="rgb(0, 0, 0)" stroke="rgb(204, 204, 204)" stroke-width="1px"></line><line x1="51.53200149536133" y1="295.8361517656043" x2="46.53200149536133" y2="295.8361517656043" style="visibility: inherit;" fill="rgb(0, 0, 0)" stroke="rgb(204, 204, 204)" stroke-width="1px"></line><line x1="51.53200149536133" y1="268.0636119993171" x2="46.53200149536133" y2="268.0636119993171" style="visibility: inherit;" fill="rgb(0, 0, 0)" stroke="rgb(204, 204, 204)" stroke-width="1px"></line><line x1="51.53200149536133" y1="240.2910722330298" x2="46.53200149536133" y2="240.2910722330298" style="visibility: inherit;" fill="rgb(0, 0, 0)" stroke="rgb(204, 204, 204)" stroke-width="1px"></line><line x1="51.53200149536133" y1="212.51853246674258" x2="46.53200149536133" y2="212.51853246674258" style="visibility: inherit;" fill="rgb(0, 0, 0)" stroke="rgb(204, 204, 204)" stroke-width="1px"></line><line x1="51.53200149536133" y1="184.74599270045545" x2="46.53200149536133" y2="184.74599270045545" style="visibility: inherit;" fill="rgb(0, 0, 0)" stroke="rgb(204, 204, 204)" stroke-width="1px"></line><line x1="51.53200149536133" y1="156.97345293416817" x2="46.53200149536133" y2="156.97345293416817" style="visibility: inherit;" fill="rgb(0, 0, 0)" stroke="rgb(204, 204, 204)" stroke-width="1px"></line><line x1="51.53200149536133" y1="129.20091316788094" x2="46.53200149536133" y2="129.20091316788094" style="visibility: inherit;" fill="rgb(0, 0, 0)" stroke="rgb(204, 204, 204)" stroke-width="1px"></line><line x1="51.53200149536133" y1="101.42837340159373" x2="46.53200149536133" y2="101.42837340159373" style="visibility: inherit;" fill="rgb(0, 0, 0)" stroke="rgb(204, 204, 204)" stroke-width="1px"></line><line x1="51.53200149536133" y1="73.65583363530646" x2="46.53200149536133" y2="73.65583363530646" style="visibility: inherit;" fill="rgb(0, 0, 0)" stroke="rgb(204, 204, 204)" stroke-width="1px"></line><line x1="51.53200149536133" y1="45.88329386901923" x2="46.53200149536133" y2="45.88329386901923" style="visibility: inherit;" fill="rgb(0, 0, 0)" stroke="rgb(204, 204, 204)" stroke-width="1px"></line><line x1="51.53200149536133" y1="18.110754102732034" x2="46.53200149536133" y2="18.110754102732034" style="visibility: inherit;" fill="rgb(0, 0, 0)" stroke="rgb(204, 204, 204)" stroke-width="1px"></line></g><g transform="translate(41.53200149536133, 0)"><text style="text-anchor: end; visibility: inherit; font-family: Roboto, sans-serif; font-size: 12px; font-weight: 200;" x="0" y="351.38123129817876" dx="0em" dy="0.3em" fill="rgb(33, 33, 33)" stroke="none" stroke-width="1px">0</text><text style="text-anchor: end; visibility: inherit; font-family: Roboto, sans-serif; font-size: 12px; font-weight: 200;" x="0" y="323.6086915318915" dx="0em" dy="0.3em" fill="rgb(33, 33, 33)" stroke="none" stroke-width="1px">0.05</text><text style="text-anchor: end; visibility: inherit; font-family: Roboto, sans-serif; font-size: 12px; font-weight: 200;" x="0" y="295.8361517656043" dx="0em" dy="0.3em" fill="rgb(33, 33, 33)" stroke="none" stroke-width="1px">0.1</text><text style="text-anchor: end; visibility: inherit; font-family: Roboto, sans-serif; font-size: 12px; font-weight: 200;" x="0" y="268.0636119993171" dx="0em" dy="0.3em" fill="rgb(33, 33, 33)" stroke="none" stroke-width="1px">0.15</text><text style="text-anchor: end; visibility: inherit; font-family: Roboto, sans-serif; font-size: 12px; font-weight: 200;" x="0" y="240.2910722330298" dx="0em" dy="0.3em" fill="rgb(33, 33, 33)" stroke="none" stroke-width="1px">0.2</text><text style="text-anchor: end; visibility: inherit; font-family: Roboto, sans-serif; font-size: 12px; font-weight: 200;" x="0" y="212.51853246674258" dx="0em" dy="0.3em" fill="rgb(33, 33, 33)" stroke="none" stroke-width="1px">0.25</text><text style="text-anchor: end; visibility: inherit; font-family: Roboto, sans-serif; font-size: 12px; font-weight: 200;" x="0" y="184.74599270045545" dx="0em" dy="0.3em" fill="rgb(33, 33, 33)" stroke="none" stroke-width="1px">0.3</text><text style="text-anchor: end; visibility: inherit; font-family: Roboto, sans-serif; font-size: 12px; font-weight: 200;" x="0" y="156.97345293416817" dx="0em" dy="0.3em" fill="rgb(33, 33, 33)" stroke="none" stroke-width="1px">0.35</text><text style="text-anchor: end; visibility: inherit; font-family: Roboto, sans-serif; font-size: 12px; font-weight: 200;" x="0" y="129.20091316788094" dx="0em" dy="0.3em" fill="rgb(33, 33, 33)" stroke="none" stroke-width="1px">0.4</text><text style="text-anchor: end; visibility: inherit; font-family: Roboto, sans-serif; font-size: 12px; font-weight: 200;" x="0" y="101.42837340159373" dx="0em" dy="0.3em" fill="rgb(33, 33, 33)" stroke="none" stroke-width="1px">0.45</text><text style="text-anchor: end; visibility: inherit; font-family: Roboto, sans-serif; font-size: 12px; font-weight: 200;" x="0" y="73.65583363530646" dx="0em" dy="0.3em" fill="rgb(33, 33, 33)" stroke="none" stroke-width="1px">0.5</text><text style="text-anchor: end; visibility: inherit; font-family: Roboto, sans-serif; font-size: 12px; font-weight: 200;" x="0" y="45.88329386901923" dx="0em" dy="0.3em" fill="rgb(33, 33, 33)" stroke="none" stroke-width="1px">0.55</text><text style="text-anchor: end; visibility: inherit; font-family: Roboto, sans-serif; font-size: 12px; font-weight: 200;" x="0" y="18.110754102732034" dx="0em" dy="0.3em" fill="rgb(33, 33, 33)" stroke="none" stroke-width="1px">0.6</text></g><line x1="51.53200149536133" y1="0" x2="51.53200149536133" y2="376.5999994277954" fill="rgb(0, 0, 0)" stroke="rgb(204, 204, 204)" stroke-width="1px"></line></g></g><g transform="translate(51, 0)" clip-path="url(#clip_0)"><clipPath id="clip_0"><rect width="1141" height="376"></rect></clipPath><g><g><g><line x1="12.590061769538536" y1="0" x2="12.590061769538536" y2="376.5999994277954" fill="rgb(0, 0, 0)" stroke="rgb(66, 66, 66)" stroke-width="1px" opacity="0.25"></line><line x1="107.23775843315626" y1="0" x2="107.23775843315626" y2="376.5999994277954" fill="rgb(0, 0, 0)" stroke="rgb(66, 66, 66)" stroke-width="1px" opacity="0.25"></line><line x1="201.885455096774" y1="0" x2="201.885455096774" y2="376.5999994277954" fill="rgb(0, 0, 0)" stroke="rgb(66, 66, 66)" stroke-width="1px" opacity="0.25"></line><line x1="296.5331517603917" y1="0" x2="296.5331517603917" y2="376.5999994277954" fill="rgb(0, 0, 0)" stroke="rgb(66, 66, 66)" stroke-width="1px" opacity="0.25"></line><line x1="391.1808484240094" y1="0" x2="391.1808484240094" y2="376.5999994277954" fill="rgb(0, 0, 0)" stroke="rgb(66, 66, 66)" stroke-width="1px" opacity="0.25"></line><line x1="485.8285450876271" y1="0" x2="485.8285450876271" y2="376.5999994277954" fill="rgb(0, 0, 0)" stroke="rgb(66, 66, 66)" stroke-width="1px" opacity="0.25"></line><line x1="580.4762417512449" y1="0" x2="580.4762417512449" y2="376.5999994277954" fill="rgb(0, 0, 0)" stroke="rgb(66, 66, 66)" stroke-width="1px" opacity="0.25"></line><line x1="675.1239384148627" y1="0" x2="675.1239384148627" y2="376.5999994277954" fill="rgb(0, 0, 0)" stroke="rgb(66, 66, 66)" stroke-width="1px" opacity="0.25"></line><line x1="769.7716350784802" y1="0" x2="769.7716350784802" y2="376.5999994277954" fill="rgb(0, 0, 0)" stroke="rgb(66, 66, 66)" stroke-width="1px" opacity="0.25"></line><line x1="864.419331742098" y1="0" x2="864.419331742098" y2="376.5999994277954" fill="rgb(0, 0, 0)" stroke="rgb(66, 66, 66)" stroke-width="1px" opacity="0.25"></line><line x1="959.0670284057156" y1="0" x2="959.0670284057156" y2="376.5999994277954" fill="rgb(0, 0, 0)" stroke="rgb(66, 66, 66)" stroke-width="1px" opacity="0.25"></line><line x1="1053.7147250693336" y1="0" x2="1053.7147250693336" y2="376.5999994277954" fill="rgb(0, 0, 0)" stroke="rgb(66, 66, 66)" stroke-width="1px" opacity="0.25"></line></g><g><line x1="0" y1="351.38123129817876" x2="1141.7979985046386" y2="351.38123129817876" fill="rgb(0, 0, 0)" stroke="rgb(66, 66, 66)" stroke-width="1px" opacity="0.25"></line><line x1="0" y1="323.6086915318915" x2="1141.7979985046386" y2="323.6086915318915" fill="rgb(0, 0, 0)" stroke="rgb(66, 66, 66)" stroke-width="1px" opacity="0.25"></line><line x1="0" y1="295.8361517656043" x2="1141.7979985046386" y2="295.8361517656043" fill="rgb(0, 0, 0)" stroke="rgb(66, 66, 66)" stroke-width="1px" opacity="0.25"></line><line x1="0" y1="268.0636119993171" x2="1141.7979985046386" y2="268.0636119993171" fill="rgb(0, 0, 0)" stroke="rgb(66, 66, 66)" stroke-width="1px" opacity="0.25"></line><line x1="0" y1="240.2910722330298" x2="1141.7979985046386" y2="240.2910722330298" fill="rgb(0, 0, 0)" stroke="rgb(66, 66, 66)" stroke-width="1px" opacity="0.25"></line><line x1="0" y1="212.51853246674258" x2="1141.7979985046386" y2="212.51853246674258" fill="rgb(0, 0, 0)" stroke="rgb(66, 66, 66)" stroke-width="1px" opacity="0.25"></line><line x1="0" y1="184.74599270045545" x2="1141.7979985046386" y2="184.74599270045545" fill="rgb(0, 0, 0)" stroke="rgb(66, 66, 66)" stroke-width="1px" opacity="0.25"></line><line x1="0" y1="156.97345293416817" x2="1141.7979985046386" y2="156.97345293416817" fill="rgb(0, 0, 0)" stroke="rgb(66, 66, 66)" stroke-width="1px" opacity="0.25"></line><line x1="0" y1="129.20091316788094" x2="1141.7979985046386" y2="129.20091316788094" fill="rgb(0, 0, 0)" stroke="rgb(66, 66, 66)" stroke-width="1px" opacity="0.25"></line><line x1="0" y1="101.42837340159373" x2="1141.7979985046386" y2="101.42837340159373" fill="rgb(0, 0, 0)" stroke="rgb(66, 66, 66)" stroke-width="1px" opacity="0.25"></line><line x1="0" y1="73.65583363530646" x2="1141.7979985046386" y2="73.65583363530646" fill="rgb(0, 0, 0)" stroke="rgb(66, 66, 66)" stroke-width="1px" opacity="0.25"></line><line x1="0" y1="45.88329386901923" x2="1141.7979985046386" y2="45.88329386901923" fill="rgb(0, 0, 0)" stroke="rgb(66, 66, 66)" stroke-width="1px" opacity="0.25"></line><line x1="0" y1="18.110754102732034" x2="1141.7979985046386" y2="18.110754102732034" fill="rgb(0, 0, 0)" stroke="rgb(66, 66, 66)" stroke-width="1px" opacity="0.25"></line></g></g></g><g><g><line x1="0" y1="351.38123129817876" x2="1141.7979985046386" y2="351.38123129817876" fill="rgb(0, 0, 0)" stroke="rgb(153, 153, 153)" stroke-width="1.5px"></line></g></g><g><g><line x1="12.590061769538536" y1="0" x2="12.590061769538536" y2="376.5999994277954" fill="rgb(0, 0, 0)" stroke="rgb(153, 153, 153)" stroke-width="1.5px"></line></g></g><g><g><g><g><g><path style="fill: none;" stroke="rgb(255, 112, 67)" stroke-width="2px" d="M12.793554317365313,322.27316566114337L13.385102421512926,340.42139912330015L13.67851028117014,239.79085300088408L14.837944565299457,287.6563711345974L15.131352424956674,313.7870462471235L15.367971666615716,327.6207900325366L15.65664714143975,337.2539915312908L17.393432375217138,338.4278046473927L18.903063137001837,340.67150492476543L19.149147148327245,294.6287790861304L19.39049877481947,311.0403429883547L20.814946609606917,313.79698799088266L21.47748048625224,321.08531869640615L23.51240596452002,331.0179290749761L23.900461520840853,338.90147937405806L24.3595028496594,342.9736849352099L25.301247431462397,344.52999678485793L27.956115322876872,346.911491768698L28.235326028034546,348.68423236126245L33.0244994792136,344.4299800919398L33.417287420367614,338.89422772952645L33.85266682502026,341.04391516429365L33.93311736718433,337.56864031409515L36.1194791601139,278.41870654253137L36.89085788792239,300.0808994066742L37.88939108772355,305.8153718367593L39.678232554665925,323.5218400488832L40.54899136397121,306.2433522464741L40.94177930512522,317.38742269609264L41.93558012009321,311.1072168085159L44.297040151850474,260.87890721932376L44.35382876984865,266.6962091870078L45.03055980099351,288.7063681093241L45.560586902309765,313.02853080822894L46.45500763578096,320.7885445191723L47.91258216440067,317.62649954244233L49.497931083516264,329.6512885540182L49.6635645526776,334.54824340463045L50.766210218808745,276.37542018609764L51.30570208979137,304.031114665236L51.499729867951785,313.78870899953665L52.81060046674289,328.79202970505213L54.60890670335162,337.3835752319019L54.87865263884294,338.85309112396254L56.416677709626725,335.45906074095666L57.40101375492834,332.5406733570161L57.8079988505819,335.9692803720265L58.48946226655995,336.4831421644301L61.80686403461975,267.25139200145964L62.18545482127423,296.18532155353705L62.388947369101004,302.34230905680784L64.20145076020927,313.92261854168083L64.49012623503332,318.18677437172255L64.74567501602507,323.47223808980874L67.16865605061369,307.48427047688006L67.32955713494185,324.8344684851311L69.23670822271374,334.20362374539053L69.26037014687965,290.73954068546567L70.15952326518402,314.49363822374943L70.7558037541648,291.0781525357846L73.53371365124198,313.58888509375214L74.2766980700514,327.2731566262143L74.40447246054727,336.18767745652804L77.04987558229539,341.7553435746778L80.2395029598593,332.7562729185527L82.00941488746896,324.4668417171435L82.53470960395202,333.4446373048342L82.97955377827103,309.7137542183576L85.81898467817956,326.2923114243663L87.1961086646352,284.11530941176176L88.86190812591487,300.31693051232406L92.36860528730192,303.9558076848718L93.35767371743671,289.44917316977364L93.50437764726531,314.17452613544543L94.54550231056513,324.5188426291487L95.615021282864,326.5902544138726L105.0230023312276,325.79565262133497L105.53883227804432,332.11086367660755L105.96947929786378,326.42743563107507L107.21882889382354,336.24751237574014L107.49330721414802,340.1261688316815L107.53589867764666,341.41201409249527L108.39719271728558,331.50043310779716L108.77105111910687,326.2248745801307L109.79324624307394,329.6240054930287L109.97780925156799,328.3424635822377L110.92901860303735,335.0352951254358L110.94321575753689,330.5496477889927L111.2886798503591,336.26834890239L112.3534664378248,334.27244367959383L112.65633906714838,271.93089561211366L113.48450641295503,292.34400913269565L115.98793798970772,315.3024451365623L117.86669476848053,329.0710675472952L118.2689474793009,320.71827154380935L118.40145425462997,330.2421557015183L122.09271442451106,312.58008385590057L122.79310737982182,194.63017313736387L123.1480362423104,241.11554867225675L123.46037364130034,277.5564734754812L124.6103431557633,278.92732394423683L124.7570470855919,305.9032377256172L126.86769072119057,319.39286807693406L127.50656267366999,326.60195114897056L127.51602744333636,323.8688530753307L127.69585806699723,332.7091788290017L129.1108411321183,339.86339334963895L129.61247392443548,343.2497791429214L130.59207758490393,341.5623903374118L132.10170834668864,345.37512750159914L132.7547774536676,329.91313143925333L134.74711146843674,318.1756184118799L134.9127449375981,330.08520955574716L135.26294141525347,321.6743071435081L139.40851052911992,318.2389478981L139.4132429139531,322.55172213122586L142.759038991012,300.56799605642595L143.2228127046637,289.18218912826535L147.17435404036974,306.019765351619L147.67125444785376,297.62434594597187L149.69198277162198,318.60805611533937L149.8150247772847,326.6166691113276L150.12736217627463,334.821412028532L150.78516366808677,289.5371993740934L151.078571527744,312.35181365661396L152.06290757304563,325.4423443094134L153.75710134332436,334.5471248831507L154.5900010739642,340.75812930212453L154.7130430796269,337.92326778660777L155.38977411077178,325.4928802369879L156.7905600213933,333.7229064951311L157.462558667705,258.68124359141575L157.90740284202403,283.14574435773625L157.97365622968854,306.7302922846773L161.22007222525062,324.42461928554695L161.3951704640783,287.75489615079937L163.46322263617836,303.77521581777927L163.72823618683648,322.65369804997636L166.08969621859376,326.08361736869824L166.59606139574413,331.33636727545615L167.1402856515599,335.5520856110813L167.6371860590439,331.8048296198344L168.26186085702378,322.98362884529274L168.29971993568924,333.3936585051076L168.9243947336691,327.03730536289646L169.6200553041467,336.4377554556902L170.5381379617838,323.63470294615644L170.67064473711287,296.43075886921577L172.25126127139526,313.5200293394895L172.30804988939343,325.7974045620717L172.47841574338796,303.0792683829106L172.73396452437973,316.36436601170175L172.9090627632074,328.37251671467465L173.0841610020351,329.18942925266265L173.66624433651637,271.50584538151406L175.20900179213334,297.8341598549579L175.9803805199418,312.4316545479296L176.33057699759718,326.75497423188074L179.90352754664877,307.28971309197124L180.5140051901291,323.434312671131L181.87693202208519,329.520582375201L182.73822606172413,335.7665926620222L183.1357463877113,326.8327613110289L185.9373182089544,329.61769988610695L186.07928975394984,309.6029117333175L186.98317525708737,316.2603876308167L188.64897471836701,321.6928289298777L190.00716916548996,327.2522626964528L191.3085749946147,245.989362862913L191.83860209593095,213.92796027577458L194.57865291434268,219.6746010460224L195.83273489513562,266.94210221975527L196.40062107511733,293.40618764788445L197.06788733659582,301.40059693111766L198.5585885590478,279.5465999046194L200.47993680131924,296.7465933487905L201.4595404617877,309.04639159134683L201.98483517827077,321.99786036036465L203.2909733922287,318.26169250553994L204.2563798981976,322.64438230183873L205.0466881653388,324.36860930011636L205.29750456149742,328.48112873892273L205.64296865431962,329.1800409788478L206.8118677081153,335.4737858950422L207.90504860458006,332.831543344411L209.17332773987255,311.0798739108715L211.98909671561518,322.58078120187594L213.48453032290033,332.54960409235434L213.56971324989757,340.0352436959462L218.53871732473752,340.5963905983552L219.1113358895524,329.77947355766344L219.45206759754143,309.5609875615498L219.59877152737002,324.12903145229L219.89691177186046,316.20267447803815L220.78660012049846,316.3443688321926L221.1651909071529,330.217925531605L221.76620378096686,337.32744510443797L221.79933047479915,332.2573208217063L222.0075554074591,336.3016416705775L222.2583718036177,342.12569567351574L224.6813528382063,333.61011302443194L225.3817457935171,339.3679886802756L227.3125588054549,319.9477454399677L227.9514307579343,329.2420583905689L228.6660208677446,337.0849930868379L231.789394857644,331.2023160238647L231.8651130149749,257.8337596877397L232.2389714167962,281.6813683465928L236.4413291486608,303.9878241639517L238.03614283744278,322.88141545903176L238.3532126212659,323.7794145015561L238.53777562975992,321.1674683809841L239.60729460205883,331.25964615188144L240.108927394376,325.846847574654L240.60582780186,335.9164787976846L242.21957102997465,342.074669255665L245.76885965486034,338.7009643507412L246.14271805668164,331.93917660258023L246.7389985456624,334.5417795525719L249.2424301224151,244.4807867273287L249.47904936407414,282.45981586524704L249.99487931089087,271.00091257508035L250.1368508558863,260.23793190716805L253.08985899179115,296.42561028307273L253.84704056510012,315.1614042719479L254.58056021424315,329.5789441617725L255.02067200372898,330.3657378901496L257.7228637434752,337.02658263799924L258.68353786461097,302.37120166597845L260.06066185106664,310.9756903966678L260.34933732589064,326.0164413292287L261.90629193600716,333.3781505279316L262.96634613863966,337.7271743849132L263.12251483813463,341.7755373727016L263.8465697176113,338.26073262104154L263.917555490109,334.99566735541157L265.6259464148873,341.0781451222125L266.7522540051844,345.00314775600935L266.8043102383494,347.54340935270244L267.4905060391606,348.58823949361397L267.69873097182057,310.96900770022614L268.72565848062084,314.0161512591832L271.9626097065165,323.3070505325086L272.57781973483003,326.991293904349L272.7907770523232,336.47340801481266L274.2909430444415,341.34293761086025L275.44564494373765,340.6519958551048L275.4835040224031,342.1402262967087L276.50096676153703,345.40182622555227L279.20315850128327,342.2893923647786L280.00766392292405,345.4666962534365L280.07391731058857,334.3514515408006L280.4856347910753,332.1754479945935L281.3327316762147,339.8392477591814L281.4889003757097,334.0645263908573L283.7841070198024,339.4047685887811L284.63120390494174,336.3199626748873L289.1553638054627,335.8138200414247L290.4756991739202,330.17828435479754L290.60347356441605,326.27848293597935L290.6839241065801,336.17237675411974L293.05484890800375,242.994626667851L293.27727099516324,274.14259572334123L293.8498895599781,303.37476697529615L294.83422560527976,318.70006877863733L297.38498103036426,331.7435925427778L297.41337533936337,323.51545237993133L297.5174878056933,303.41869959474855L297.9434024406796,271.50742280539794L298.78576694098575,292.2589248967004L302.24040786920784,315.46328712063337L302.57640719236366,269.43044958691314L304.48829066496876,295.7438899613637L306.6604553033988,248.5616567911283L308.5912683153366,286.490819880123L310.1387581557867,236.1586125606013L313.1627520641893,279.00744784074055L313.91046886783187,299.70623606162303L314.828551525469,300.9560362401888L317.9329959760356,312.9491003497484L319.6745135946462,291.946883099129L321.5816646824181,314.96890697511634L323.043971595871,301.8684707112289L323.2427317588646,321.6349137114384L325.164080001136,333.52090635063144L328.6565800080235,339.36935672023344L329.5510007414947,344.1551351822616L329.76395805898784,346.815856260231L331.7468273040907,348.5928608078476L335.72676294879574,346.89323960271554L336.1858042776143,348.6837507942752L337.1890698622487,349.63502888382254L339.93858545032674,345.6402266690262L340.00483883799126,347.86019910553966L341.2825827429501,349.11388618971955L342.5319323389099,346.51744754075077L342.9057907407312,348.1892007346599L343.45947976621335,349.15753077589335L346.0480942699633,349.0022967931122L346.6065156802786,349.6010731356805L346.9661769276004,349.86028714900493L348.5751877708818,349.2068979852599L350.619578018816,349.76555626995713L351.2158585077968,350.33426110606416L352.88165796907646,347.7087813259177L353.1230095955687,349.1756559335587L353.2271220618987,347.8910795908446L353.38329076139365,348.9691170147178L353.50160038222316,349.90856406858705L354.73202043885016,350.46636715818704L354.7414852085165,350.83165044088656L355.22418846150106,351.03950894604276L355.2383856160006,351.16938272775224L355.9671728803104,347.4611335156407L356.74801637778523,348.9422696660743L358.10147844007497,349.8566653545861L358.90598386171575,350.4664771828551L361.816400534122,346.6089213645117L362.4316105624355,348.5178059522986L363.67622777356206,348.1076775113274L369.8283280566972,349.3756205837483L373.2877013697525,349.95366599529166L374.53705096571224,349.80841094121286L375.2185143816902,350.43222393308866L375.44093646884977,350.3063580473592L375.9946254943319,350.40841152542373L376.5435821349809,350.23866508290786L376.57670882881314,350.53818358662977L377.9254385062697,350.6404143127173L381.25230504399593,350.9148756748141L382.35968309496025,351.09748514941396L382.7051471877824,351.0644303118258L385.388409388196,351.082904290696L385.71021155685224,351.0453783968684L386.07460518900723,350.927558184866L386.14085857667175,349.55722157277614L386.32542158516577,350.2776986417526L386.47685789982756,350.71298756493456L389.27842972107067,350.97684949252067L391.0672711880131,351.137979972597L391.33228473867115,351.1893379803427L391.6588192921607,351.1131638606519L391.9664243063174,350.8055061266458L393.0312108937831,349.5457271398993L393.10692905111404,349.8607538087265L393.788392467092,350.4688557338625L393.91143447275476,350.2547053889711L394.08653271158244,350.702339185408L395.89903610269073,348.9405133824431L395.9889514145212,349.8459783130398L396.4716546675056,350.39684371363103L397.7210042634654,350.7582369839261L398.2557637496148,351.0063676369377L404.1333857124255,351.0288160630543L404.29428679675357,351.11449676147333L404.6681451985749,351.17778421992745L406.6462820588445,347.13782178350476L408.98881255126906,348.80548122227003L412.0506655383371,349.6809612457914L412.9592834263078,349.7747077673521L413.3615361371282,349.57975028530404L415.26868722490013,350.2760218610228L415.64727801155453,350.71395996998746L417.2515564700029,350.9769716851987L417.3982603998315,350.6645200844374L417.55442909932646,350.9094602140289L418.09392097030906,351.097746489089L419.64614319559246,350.64147593017395L423.271149977809,350.89909760108196L423.6734026886293,351.04849084326196L424.3501337197742,350.6359522900739L426.17210188054884,350.92734303906957L426.4418478160402,351.0910918287065L427.46404294000723,351.17991755580726L428.23542166781573,351.1929004718305L429.6929961964354,351.2653094026449L432.23428685185354,351.3092529162683L432.90155311333206,351.2546180475293L435.4191818445843,351.2190186867068L435.4949000019152,351.2831149511113L437.3026710081903,350.9006112792192L438.3816547501555,349.54265779559427L438.67506260981276,349.9768458957056L439.6310043461153,350.2581241347254L440.63900231558284,349.20129773620965L443.6866581481513,350.072436795178L444.6615294237866,341.9975184685383L446.1948221097372,345.7475901829671L446.3036669609004,347.70679834523406L446.7059196717207,348.97990278791065L446.72011682622025,349.8376211158331L448.5420849869949,350.43122173866266L451.42410735040204,349.7233022204784L451.70331805555975,350.259452357689L453.30286412917485,350.692033830347L453.76190545799346,350.9006139410118L454.9355368966223,351.0919517817453L456.97046237489,351.1907096719098L459.97552674395996,351.1937801043846L461.1491581825888,351.2634624042165L462.4410992420472,351.19707033831617L463.69044883800694,350.9304679143193L463.95546238866507,349.7844152631281L464.10689870332686,350.37537660908384L464.4428980264827,350.77529925237457L466.66238651324454,350.48788695692394L466.7712313644077,350.06891785386074L468.3281859745242,350.3922555023669L469.4355640254885,350.78740181832984L469.7431690396453,350.56683424167096L472.7056419452165,350.3662097924469L473.6047950635209,350.7600104640475L474.45662433349344,350.9477284679889L475.40310130012966,351.12002419182477L475.78169208678406,351.1980966626674L476.30225441843396,351.2654539010599L477.3717733907328,349.6715713260885L478.2803912787036,350.35485801214696L478.6116582170262,350.74754647301506L478.8435450738521,350.993733432096L481.36117380510433,350.92094092549866L483.49547936486897,350.9573078744021L483.9971121571861,350.93989358476114L484.00657692685246,351.0790589202208L485.2843208318113,351.19613684034175L488.51180728804064,351.2167867081213L488.6206521392038,350.9482558869257L489.8936636593295,351.0535637247221L490.1728743644872,351.1832275991979L490.5514651511416,349.7456753174093L490.90639401363023,350.2466968769043L491.6730403566055,350.68675812216907L492.1510112247568,350.96411983916056L492.60532016874214,351.09452250907236L492.92712233739843,351.15153166164L494.93365350666716,351.24212465651124L495.0283012033307,351.29746417197686L497.70683101891115,351.3243839324831L497.8582673335729,351.12807826504996L498.5397307495509,351.22449354907394L499.4625457920213,351.26937902280304L499.6092497218499,351.25084637630687L499.8695308876748,351.2309443655057L500.03516435683616,351.2816549519906L500.082488205168,351.3198562517443L501.0053032476382,351.15359096730526L502.47707493075745,351.00117894098L504.5120004090253,351.13974336754393L506.06895501914175,351.1332835464607L506.3434333394663,350.9385891758455L508.9367802280494,351.1146658426697L509.0030336157139,351.20334971375235L509.0740193882116,351.13088354712994L509.135540391043,351.2303864152736L509.93531342785053,351.1832244933708L511.5490566559652,351.25996201383L512.3819563866051,351.28488359733575L513.1580674992467,351.2938646913966L513.2243208869113,351.3244635769907L515.2213872865136,351.28215806901835L515.4911332220049,351.3193632535546L516.0732165564862,351.34391490423616L516.906116287126,351.3388203861271L517.3793547704441,351.3455955306918L519.4474069425441,351.35610668390535L522.9209774100989,351.33501702256405L525.8171969280056,351.34746514886575L526.4655336501513,351.23056820190766L529.569978100718,351.262621501428L529.5747104855512,351.2578605463803L529.8491888058758,351.293946208998L530.7956657725118,351.30697989159916L532.314761303963,351.2686909227665L534.0610113074067,351.21379558645566L534.2171800069017,351.27627354678094L535.1352626645388,351.05882187901403L535.9303033165131,351.185048016835L536.1905844823381,351.2397628270247L536.6448934263235,351.2802155984722L538.8075932950871,351.2071108741846L539.4180709385674,350.93588636955394L541.1927152510103,351.0288930406983L542.2196427598105,350.8833284958113L545.7641989998631,350.86660813512367L545.9487620083571,350.9141458769335L546.89050659016,351.08926091273645L548.878108220096,351.1981782239479L550.1416549705554,349.2929385430471L550.8609774651989,349.9449438346455L551.992017440329,350.512629644404L553.4685215082816,350.78863009255315L554.2588297754227,351.0104891596728L557.273358914159,351.1563127343756L559.2136366957631,350.08500892368437L559.2704253137613,350.25252628974494L560.439324367557,349.7095852450881L560.9740838537064,350.2130433108057L561.7359978118485,350.64203420464554L564.7363297960852,350.9337659000063L564.9161604197461,351.09858053283233L565.2568921277351,351.1895893310664L565.4414551362291,351.23577028908716L566.3595377938663,350.29255135326366L566.5062417236949,350.7097005221007L567.0173392856784,350.8390872998736L569.2888840056053,350.97761464453066L570.1880371239096,351.1255715828076L570.7369937645586,350.9943958664648L571.9153575880206,351.13676047686573L574.0969869961169,351.23454527234236L575.3132098982445,351.1578183059063L575.4504490584068,350.8844547403002L575.7391245332308,350.5277844682933L577.1777695225178,350.58938129314305L577.9728101744921,350.8896042370125L580.3815940545812,351.0256265700213L586.1219768572296,351.1672146419905L586.1267092420627,351.1954321245452L586.784510733875,351.16850022539484L586.9264822788704,351.2353119733129L587.1205100570309,351.21179170419686L589.1649003049649,351.2377037468885L590.9158826932419,351.2951132542918L592.8892871686783,351.26661723958296L592.9460757866765,351.18461198879794L593.4429761941606,350.31018703856836L594.9999308042769,350.73858109648415L597.5601509990278,350.90129972771865L597.6737282350242,350.95720897244377L597.8298969345192,351.08893515228715L600.3427932809382,351.1443165590095L603.007125942019,350.49600209407697L603.2816042623435,350.5823833612193L604.3463908498093,350.84415468318724L605.515289903605,351.0525584312422L612.1264315155586,351.0537309299186L613.3000629541874,351.1769896459018L613.550879350346,351.25849344807625L614.0667092971628,350.9689742815062L615.5668752892811,351.00888416261364L616.1726205479282,351.1495240540039L616.6221971070804,351.2310800114691L617.3225900623912,351.2868738604564L617.474026377053,351.2535754893295L617.7627018518771,351.27502808004067L618.8700799028413,351.29260396671526L619.7786977908121,351.2023900606817L620.2708658134629,350.87868527112954L622.3720446793952,351.0746626786467L623.7633658203504,351.1611551388464L624.5773360116575,351.23717206659677L624.9937858769774,351.2702741657851L625.0505744949756,351.17321357162916L625.088433573641,351.2563465431445L625.4480948209629,351.2596402605533L625.6515873687896,351.30052167556386L627.4498936053983,351.2012059174022L628.1408217910426,351.266662251268L631.131689005613,351.2628379037895L632.1870108234124,351.12788581785713L634.8608082541596,351.17817236497666L634.9128644873246,351.2213447892331L635.7552289876307,351.27150043992793L636.0107777686225,351.3017339226977L636.6827764149342,350.91678307651915L640.468684281479,351.0981188502691L641.6044566414424,351.2068747663179L642.9768482430649,351.2617978729486L643.506875344381,351.281723456875L646.0718279239651,351.21103465217664L646.7674884944427,351.2748816396791L648.5137384978864,351.204242220012L648.5752595007178,351.1473022711542L648.9775122115382,351.17895810570406L650.8846632993101,350.47459649483847L651.3862960916273,350.8365379813011L654.3771633061975,350.9231335711369L655.593386208325,351.1007821683823L657.188199897107,351.2031198855283L657.8933252372509,351.21585550178963L659.3840264597029,351.2803164534353L659.4076883838688,351.31965010379184L659.4786741563665,351.2669825569272L661.0403611513162,351.1945777659837L661.1917974659781,351.2565989009569L663.6053137309003,351.3064358614374L663.6952290427307,351.3363510640703L664.1826646805483,351.215721668367L665.5030000490058,351.04250368658217L667.7650799992664,351.1393636037353L670.1076104916908,351.1527760809903L671.6172412534754,351.0867830937746L672.3034370542867,351.17770917556334L672.5211267566131,351.1591894024432L675.0103611788662,351.24049731085074L675.1996565721934,351.2898777191712L675.3416281171889,351.3008349149639L675.3889519655206,351.2468107607717L675.7486132128424,351.25396834883986L675.9095142971706,351.3001363596564L676.4679357074858,350.30578999878395L678.6779594245814,350.70568394474213L679.8089993997116,350.9540373230864L680.9116450658428,351.0837440920132L683.8977798955799,351.19655692171085L684.0681457495743,351.13287022055937L684.527187078393,351.23219306904195L685.5209878933609,351.0334418248514L685.5257202781942,351.1693375485718L686.9407033433152,351.25022975353284L688.1474614757764,351.26875125217106L688.8147277372549,351.2866267112036L690.20604887821,351.3147247187073L690.9443009121862,351.2858629935932L692.0280170389847,351.27780271027433L692.9555644662881,351.2944548756357L693.0738740871176,351.3038536129749L693.6701545760985,351.3339336781897L695.1277291047181,351.29432615025723L695.4069398098758,351.10023354868366L695.9700936050244,351.2043352432156L696.5569093243388,351.27501366963304L701.7388707166718,351.12522104719073L702.1553205819918,351.15899286606947L702.3398835904859,351.24150223020473L702.5339113686462,351.2943421998549L704.9994838667334,351.32494567789007L706.8167196426749,351.3141163229794L709.9874174809061,351.2310319051845L710.5789655850538,351.01700038851305L713.882170198614,351.1102148488846L714.350676297099,351.0638262135479L714.9942806344114,350.38901650432695L715.5716315840596,350.7357050039636L715.8461099043841,350.99113416144166L716.1726444578735,351.12756426881185L716.1915739972062,351.1644367501509L716.6695448653576,350.3498193171902L717.0765299610111,350.75742860852904L719.8118483945896,351.00637984478044L720.9523531393863,351.1431957594451L721.913027260522,351.2341148256021L722.1543788870142,351.29248975323566L722.4809134405036,351.27795178763284L724.9938097869227,351.31918771370516L725.0837250987531,351.2763321607313L726.0396668350556,351.3173072843083L726.5365672425397,351.3364555642474L727.383664127679,351.3284706027604L727.4499175153436,351.28540616227474L727.6202833693382,351.31842958022406L727.8143111474985,351.2801455742298L728.2591553218176,351.31769691158865L728.4910421786434,351.3353009540268L729.3428714486159,350.90837787315894L729.7545889291026,351.0754111987996L729.8397718560999,351.16718744042146L730.4786438085794,350.59715301104126L734.39232606562,350.8008218581146L735.542295580083,351.019070565938L739.2808795982959,351.1497043371188L739.597949382119,351.2412525715237L739.886624856943,351.2519089029332L743.8476309623154,351.30277430255273L744.5243619934603,351.2703719823648L747.0088640308803,351.1526581681392L748.8781560399866,350.98724457697824L749.5217603772992,351.105369216596L749.5927461497969,351.1752908130323L752.3091350440428,351.25725272418975L752.7019229851968,351.2386333197275L753.9323430418239,351.2929641873353L754.7557780027973,351.2116087287516L755.1012420956196,350.9114707554131L755.7921702812639,351.0981671674145L755.8820855930943,351.187032623465L756.1944229920842,351.25689578956974L756.9563369502264,351.30650364292103L757.3869839700459,351.2523208449474L757.6141384420386,351.27607611869286L758.5274887148424,351.25654090528417L759.4077122938141,351.284856711925L759.9661337041294,351.3082116636131L760.5056255751122,351.3366964743509L764.3530544444882,351.1899585146231L764.9682644728017,351.2564188994362L765.7207136612774,351.3012370392216L766.9747956420704,351.04179231514934L767.514287513053,351.12614220092735L768.7305104151804,351.2258875246556L770.732309199616,351.28276138156235L770.968928441275,351.3163859349089L771.7828986325823,351.2271826506582L771.9579968714098,351.17532612696783L773.1268959252054,351.1432218215719L775.2612014849701,351.23176699689793L775.3937082602993,350.8897741345942L776.2313403757722,351.01363781752457L779.0045178880163,351.16039135818414L779.1133627391794,351.228397935693L779.9131357759869,351.21395956181385L779.9178681608201,351.2723868824819L780.2160084053105,351.3122911326838L782.0001174874196,351.3288606449858L782.3361168105755,351.3465190058431L782.9749887630549,351.3297124041068L784.5792672215032,351.33907892208055L785.3743078734777,351.2780220706925L788.497681863377,350.59426854604703L791.6494501622755,350.3766099533751L792.5817299744122,350.77607654241297L792.7710253677394,350.9174076523825L795.6293858069806,351.0837525234471L796.2635253746269,351.1676932337985L797.2241994957626,351.198401241517L798.1564793078992,351.25119464798445L799.5809271426866,351.27427547153076L799.6897719938498,351.30352248271345L800.5983898818205,351.32371836457145L802.2878512672662,350.9782329933231L802.6522448994211,351.1216219780597L803.6081866357237,351.2245079705404L804.0104393465439,351.2598040412377L804.535734063027,351.30835883079595L804.7770856895193,351.14015863067664L805.9507171281482,351.2361150734586L807.8105443675881,351.2919454071186L808.4872753987331,351.3119785181019L809.4763438288679,351.3391587028675L810.2335254021768,351.35138200524415L811.0427632086509,351.3631166334993L811.7857476274602,351.1167766530573L813.896391263059,351.2095719047299L814.9895721595237,351.11349829354975L816.2247246009839,351.1183194867276L816.4992029213083,351.14049721958384L816.9251175562946,351.18622694272847L817.9899041437603,351.2114314723702L819.4427462875468,351.2686574062175L822.8358662129375,351.30629933680973L824.7666792248754,351.3236381602177L824.9512422333695,350.38572658315746L824.9985660817013,350.7798432041525L827.6581663579489,351.0195946946745L828.5336575520873,351.15927209330397L831.164863519336,351.197036975807L831.7374820841508,351.26943993557484L832.1208052556385,351.0681548262641L832.6934238204533,351.1212066792729L833.9285762619135,351.16214629000655L834.8229969953848,351.2455409177826L837.9889624487828,351.2937377630153L839.0916081149139,350.62829162177985L841.2827022926766,350.91744528828394L841.5666453826675,351.0588303973965L842.0540810204851,351.15231920906973L842.5509814279691,351.1206232594125L843.3696840041094,351.2242930002405L845.8778479656953,351.1344709474265L846.8337897019978,350.6172324462425L846.9047754744955,350.8746662800419L848.2535051519521,351.0520458573763L850.6291623382089,351.1818356931421L853.4685932381175,351.25455152280745L853.90397264277,351.2580304221372L854.5002531317509,351.2583081131895L855.8679123485401,351.22964363430333L858.087400835302,351.23518355565164L858.115795144301,350.8960892660767L858.2766962286292,351.0900276764615L858.8919062569427,351.0951289990579L860.6192267210538,351.2095698451572L862.0909984041731,350.80057926457613L862.9097009803133,351.0097698290626L864.2631630426031,351.1548615264547L865.9147653493832,351.24504319812786L866.0567368943786,351.2616758789747L867.2824245661724,351.30949564498064L869.3883358169379,351.3348149469396L869.4072653562707,351.28669615014314L869.6675465220956,351.31915040178654L870.4199957105714,351.34127115270155L871.0541352782176,351.3509217036766L871.3475431378748,351.3625369052309L872.1662457140151,351.3634092627077L874.3005512737797,351.32052316379554L876.2644909795497,351.34137147664336L877.840375128999,351.2870774966066L878.0959239099908,351.3022329851399L878.3562050758156,351.3132278274535L878.3798669999816,351.2709398328525L879.6812728291063,351.2951938031701L879.9036949162659,351.2901793380325L879.9131596859322,351.25085114904823L880.9211576553997,351.2813414650094L881.451184756716,351.3165382968867L882.4544503413504,351.27796953621055L882.9797450578335,351.2784062140055L884.0587287997987,351.292726708148L886.8792301603745,351.32687561571026L888.36046661316,351.2481994250355L890.9964049652418,351.2621059329323L892.8420350501824,351.3047914483694L893.9162864073145,351.3273456461736L893.9778074101458,351.34642502990874L894.9716082251138,351.35295853693606L895.3596637814346,351.3535612838196L896.0742538912449,351.2915584503588L896.206760666574,351.2946135439607L897.1958290967087,351.3290545376937L897.7116590435255,351.2784052344058L897.9766725941837,351.3184573552653L898.2132918358426,351.33666423173094L900.3901888591059,351.3130397065472L900.7403853367613,351.2898789157014L902.0133968568869,351.23756909540236L902.2310865592133,351.291868292067L902.6144097307009,351.2844167886074L904.0625194896543,351.32313372510686L908.1087085220239,351.25987116135633L908.2080886035207,351.28754121463663L908.2412152973529,351.03031285741827L908.3500601485161,351.14883754037265L908.5393555418434,351.19445881063507L910.4417742447822,351.2646537700976L911.4308426749169,351.3111765572443L913.3474585323552,351.27671777507146L913.839626555006,351.3062162756106L922.2301448642357,351.3345317032763L927.520951107732,351.34288550380853L928.3396536838723,351.3132386797984L929.4091726561711,351.3383274896019L929.5795385101655,351.3200092230958L932.8827431237258,351.34148984709344L933.6162627728689,351.31193807248997L935.2063440768178,351.33864523452166L936.7443691476014,351.34602360784794L936.8153549200991,351.34508755838806L937.3027905579169,351.3327943257607L937.8375500440662,351.351687095887L938.3391828363834,351.33821301166586L942.4894843350831,351.27393958760877L943.5779328467147,351.3116878323437L943.8145520883737,351.31819039835733L944.8982682151722,351.3109402213304L945.4803515496534,351.33132576970627L949.2047384133667,351.3316275066173L950.5582004756565,351.34848769174835L951.5472689057913,351.35760358954013L953.6342506172241,351.3615920957375L953.6531801565568,351.324737497898L955.5650636291618,351.34726871900324L955.6975704044909,351.296655649161L957.4722147169338,351.2618451305356L957.4864118714333,351.30606617213516L959.2989152625415,351.298562870949L960.07029399035,351.2716680118958L960.330575156175,351.2055456276527L963.3687662190772,351.27050704412574L965.7018319418353,351.3000615294484L967.5190677177767,351.3293421960788L968.1579396702562,351.3382756508275L970.1597384546917,351.3340718518557L970.7228922498402,351.3399394546957L971.9107208429687,351.3346519295666L973.122211360263,351.3525641280479L974.3620961865563,351.18324759881324L978.616510151586,351.26053613071986L979.0471571714054,351.29269382432784L981.5647859026576,351.3273374529317L982.3172350911335,351.33087667342267L984.1202737125753,351.3368491873407L984.7780752043875,351.3537251460554L985.4264119265332,351.3176168764988L987.9866321212841,351.3328556935166L990.0120928298855,351.3200428488731L992.4350738644741,351.32370131001164L995.0804769862223,351.3449556692117L996.0364187225248,350.45666742291473L996.3866152001801,350.80746931414905L998.5161883751115,350.6752177471857L998.9326382404315,350.94894414159774L998.9941592432629,351.1161820368515L1000.4706633112153,351.2210580874127L1001.3508868901869,351.285081301096L1001.5117879745151,351.32084294819873L1003.6129668404474,351.34430557542606L1003.9111070849377,351.3586639854724L1006.2867642711946,351.3674181523423L1006.3388205043595,351.3728657303533L1007.2994946254953,351.3761064382301L1007.8484512661443,351.3765366507651L1009.1735190194349,351.28272684164216L1010.7636003233838,351.3131170090678L1011.0806701072067,351.3115771022043L1012.2684987003352,351.22602986634155L1012.7228076443206,351.28774629464L1013.6976789199558,351.3226922244219L1014.4217337994326,351.30971069994604L1018.491584755968,351.33570629081623L1021.0612697203853,351.3462036019032L1021.4256633525403,351.3433391064417L1024.6957412722682,350.7171843980104L1025.7274011659017,350.9711490480535L1025.893034635063,351.125924172254L1028.2119032033215,351.2252610394168L1028.5053110629788,351.2499216030293L1028.7655922288038,351.29933526333764L1031.619220283212,351.3277653186461L1034.5674960342835,351.1213956737998L1034.8987629726062,351.22467728501374L1035.0360021327685,351.25655180994096L1035.2773537592607,351.27844145585783L1038.0694608108374,351.3163319872256L1038.2303618951655,351.3034517356186L1039.5033734152912,351.32989411528655L1041.6613408992218,351.2457128418683L1042.1535089218726,351.2975817829867L1042.8397047226838,351.3299430526799L1043.6252806049918,351.3503508626256L1045.2958124511047,351.36253315161815L1045.4046573022679,351.36285495517154L1046.114515027245,351.35730379415327L1047.9601451121855,351.35796421971867L1050.274281295611,351.3599269455229L1051.4195184252408,351.3539430448921L1051.9116864478915,351.24399228982196L1052.7256566391986,351.26996974387293L1053.0616559623545,351.3122206708889L1054.4577094881429,351.32599900284083L1054.9735394349595,351.3417623020261L1057.13150691889,351.35559807238894L1057.680463559539,351.2849149958321L1059.7295861923064,351.3171864607067L1060.0277264367967,351.3210928275595L1061.8354974430717,351.3239038021593L1062.9381431092029,351.31538377959544L1063.3924520531884,351.33959287505434L1067.2493456922307,351.3399315638113L1067.8692881053773,350.87062330854826L1070.4579026091274,351.0685636640084L1071.2292813369359,351.1925123781533L1072.3508565423997,351.25976098976776L1072.9518694162136,351.3015486332927L1075.417441914301,351.30789498600996L1076.2408768752746,351.32708217364393L1076.647861970928,351.3470643764616L1076.780368746257,351.2294004324898L1078.3467881260399,351.2877906410618L1083.2826655070476,351.32506224078935L1083.7464392206994,351.09856915369073L1083.8032278386975,351.20084856457777L1084.2670015523493,351.272814261359L1084.9295354289945,351.2767786032749L1085.3696472184804,351.317513057306L1085.7529703899681,351.32889903342954L1088.7911614528703,351.3497109806773L1089.2123437030232,351.34522817849063L1090.357580832653,351.21941158850154L1090.6131296136448,351.2051370136667L1091.4129026504522,351.14339603738506L1091.4223674201187,351.227713624231L1092.3877739260877,351.262050640057L1093.4620252832196,351.19237928532954L1093.7128416793782,351.26302791346785L1094.3375164773581,351.2989898496954L1094.3517136318576,351.32557912654676L1094.80129019101,351.3378800197678L1096.0695693263024,351.2974182970082L1096.3061885679613,351.32270006478575L1096.4623572674564,351.34594477394336L1097.3047217677627,351.360052099639L1097.683312554417,351.3683662983586L1098.412099818727,351.36674445587545L1099.0225774622072,351.3660677198319L1099.098295619538,351.3715189278504L1100.006913507509,351.34355977843524L1100.745165541485,351.3546496196358L1102.1932753004385,351.3520857692349L1102.7990205590856,351.34574983422766L1103.7171032167228,351.35984094061456L1105.061100509346,351.36558384114636L1105.8845354703196,351.3671996293495L1108.723966370228,351.2503636657155L1110.7920185423282,351.27151672662063L1111.3315104133108,351.31524534688987L1111.416693340308,351.30966485867503L1111.7006364302988,351.33517333653026L1112.5666628547708,351.336166572065L1114.7293627235347,351.34589078787087L1117.464681157113,351.3166374772399L1117.4741459267796,351.26181189157666L1117.535666929611,351.30312195042654L1118.2313275000886,351.3316032501125L1119.0689596155614,351.2110049957366L1119.6747048742086,351.268245870779L1119.9349860400334,351.30825132716757L1120.701632383009,351.3297842899485L1120.9997726274994,351.34555621722166L1121.7806161249741,351.2848181979547" fill="none"></path></g></g></g></g><g opacity="0.2"><g><g><g><path style="fill: none;" stroke="rgb(255, 112, 67)" stroke-width="2px" d="M12.793554317365313,322.27316566114337L13.385102421512926,351.31033920059417L13.67851028117014,143.18552872336465L14.837944565299457,343.9462204598442L15.131352424956674,347.9032556740376L15.367971666615716,346.7578378355257L15.65664714143975,351.0296238057332L17.393432375217138,340.13923543927524L18.903063137001837,343.98052701754835L19.149147148327245,226.26069721919743L19.39049877481947,335.5088371649893L20.814946609606917,317.9169539543042L21.47748048625224,331.99401709038335L23.51240596452002,345.8973856250909L23.900461520840853,350.71753800524147L24.3595028496594,349.0791212420743L25.301247431462397,346.8638059803133L27.956115322876872,350.48312958313966L28.235326028034546,351.3430731909224L33.0244994792136,338.04899054346447L33.417287420367614,330.5909027797223L33.85266682502026,344.2683755800638L33.93311736718433,332.35579665203693L36.1194791601139,189.6945065725416L36.89085788792239,332.5740347372927L37.88939108772355,314.4170560269815L39.678232554665925,350.0814970610698L40.54899136397121,280.3256470694093L40.94177930512522,334.1035181052565L41.93558012009321,301.68691144812516L44.297040151850474,185.53645949178946L44.35382876984865,275.4221609810854L45.03055980099351,321.72160386522756L45.560586902309765,349.51177311443956L46.45500763578096,332.4285647520871L47.91258216440067,312.8834321588841L49.497931083516264,347.6884718853388L49.6635645526776,341.8936756350905L50.766210218808745,189.1161856823087L51.30570208979137,345.5146562915217L51.499729867951785,328.4251004814225L52.81060046674289,351.2970107452752L54.60890670335162,350.2708935159749L54.87865263884294,341.05736496141697L56.416677709626725,330.3680151673299L57.40101375492834,328.1630922815603L57.8079988505819,341.11219089422127L58.48946226655995,337.25393485300674L61.80686403461975,163.40376675933558L62.18545482127423,339.5862158810684L62.388947369101004,311.5777903116394L64.20145076020927,331.293082768906L64.49012623503332,324.5830081167667L64.74567501602507,331.40043366692413L67.16865605061369,283.5023190575123L67.32955713494185,350.85976549749125L69.23670822271374,348.2573566357744L69.26037014687965,225.54341609559316L70.15952326518402,350.1247845311703L70.7558037541648,255.95492400384023L73.53371365124198,347.35498393070174L74.2766980700514,347.799563924907L74.40447246054727,349.5594587019984L77.04987558229539,350.1068427519023L80.2395029598593,319.25766693436515L82.00941488746896,312.03269491502977L82.53470960395202,346.9113306863702L82.97955377827103,274.1174295886427L85.81898467817956,351.1601472333794L87.1961086646352,220.8498063928549L88.86190812591487,324.6193621631675L92.36860528730192,309.41412344369337L93.35767371743671,267.68922139712646L93.50437764726531,351.26255558395303L94.54550231056513,340.03531736970376L95.615021282864,329.69737209095825L105.0230023312276,324.6037499325287L105.53883227804432,341.58368025951637L105.96947929786378,317.90229356277644L107.21882889382354,350.97762749273767L107.49330721414802,345.94415351559365L107.53589867764666,343.3407819837159L108.39719271728558,316.63306163075003L108.77105111910687,318.3115367886308L109.79324624307394,334.72270186237574L109.97780925156799,326.4201507160512L110.92901860303735,345.07454244023296L110.94321575753689,323.821176784328L111.2886798503591,344.846400572486L112.3534664378248,331.27858584539956L112.65633906714838,178.41857351089337L113.48450641295503,322.96367941356874L115.98793798970772,349.7400991423624L117.86669476848053,349.72400116339446L118.2689474793009,308.18907753858053L118.40145425462997,344.5279819380818L122.09271442451106,286.086976087474L122.79310737982182,17.70530705955888L123.1480362423104,310.8436119745961L123.46037364130034,332.21786068031787L124.6103431557633,280.98359964737017L124.7570470855919,346.36710839768773L126.86769072119057,339.6273136039094L127.50656267366999,337.41557575702524L127.51602744333636,319.7692059648711L127.69585806699723,345.9696674595082L129.1108411321183,350.5947151305948L129.61247392443548,348.329357832845L130.59207758490393,339.0313071291475L132.10170834668864,351.09423324788L132.7547774536676,306.7201373457346L134.74711146843674,300.5693488708199L134.9127449375981,347.949596271548L135.26294141525347,309.0579535251494L139.40851052911992,313.08590902998793L139.4132429139531,329.02088348091473L142.759038991012,267.5924069442261L143.2228127046637,272.1034787360244L147.17435404036974,331.2761296866496L147.67125444785376,285.0312168375011L149.69198277162198,350.08362136939047L149.8150247772847,338.62958860531006L150.12736217627463,347.1285264043385L150.78516366808677,221.61088039243552L151.078571527744,346.57373508039484L152.06290757304563,345.0781402886125L153.75710134332436,348.20429574375663L154.5900010739642,350.0746359305853L154.7130430796269,333.6709755133327L155.38977411077178,306.8472989125581L156.7905600213933,346.0679458823459L157.462558667705,146.1187492358427L157.90740284202403,319.842495507217L157.97365622968854,342.1071141750889L161.22007222525062,350.96610978685146L161.3951704640783,232.7503114486779L163.46322263617836,327.8056953182491L163.72823618683648,350.971421398272L166.08969621859376,331.2284963467811L166.59606139574413,339.2154921355929L167.1402856515599,341.875663114519L167.6371860590439,326.183945632964L168.26186085702378,309.7518276834803L168.29971993568924,349.00870299482983L168.9243947336691,317.5027756495798L169.6200553041467,350.53843059488077L170.5381379617838,304.4301241818559L170.67064473711287,255.62484275380461L172.25126127139526,339.15393504490015L172.30804988939343,344.2134673959449L172.47841574338796,269.0020641141689L172.73396452437973,336.29201245488855L172.9090627632074,346.3847427691341L173.0841610020351,330.4147980596446L173.66624433651637,184.98046957479113L175.20900179213334,337.32663156512353L175.9803805199418,334.3278965873872L176.33057699759718,348.23995375780754L179.90352754664877,278.091821382107L180.5140051901291,347.65121203987064L181.87693202208519,338.6499869313059L182.73822606172413,345.1356080922542L183.1357463877113,313.4320142845388L185.9373182089544,333.79510774872404L186.07928975394984,279.5807295041333L186.98317525708737,326.2466014770656L188.64897471836701,329.8414908784691L190.00716916548996,335.59141334631556L191.3085749946147,124.09501311260318L191.83860209593095,165.83585639506694L194.57865291434268,228.2945622013941L195.83273489513562,337.84335398035455L196.40062107511733,333.10231579007825L197.06788733659582,313.39221085596756L198.5585885590478,246.76560436487205L200.47993680131924,322.546583515047L201.4595404617877,327.4960889551813L201.98483517827077,341.4250635138913L203.2909733922287,312.657440723303L204.2563798981976,329.21841699628675L205.0466881653388,326.9549497975329L205.29750456149742,334.6499078971323L205.64296865431962,330.22840933873533L206.8118677081153,344.9144032693339L207.90504860458006,328.86817951846405L209.17332773987255,278.4523697605624L211.98909671561518,339.83214213838244L213.48453032290033,347.50283842807204L213.56971324989757,351.26370310133393L218.53871732473752,341.43811095196867L219.1113358895524,313.5540979966257L219.45206759754143,279.2332585673794L219.59877152737002,345.9810972884004L219.89691177186046,304.3131390166602L220.78660012049846,316.5569103634242L221.1651909071529,351.02826058072355L221.76620378096686,347.99172446368755L221.79933047479915,324.6521343976088L222.0075554074591,342.3681229438843L222.2583718036177,350.861776677923L224.6813528382063,320.8367390508063L225.3817457935171,348.00480216404094L227.3125588054549,290.817380579506L227.9514307579343,343.1835278164707L228.6660208677446,348.84939513124147L231.789394857644,322.3783004294048L231.8651130149749,147.7809251835522L232.2389714167962,317.45278133487244L236.4413291486608,337.4475078899901L238.03614283744278,351.22180240165176L238.3532126212659,325.1264130653427L238.53777562975992,317.24954920012607L239.60729460205883,346.3979128082274L240.108927394376,317.727649708813L240.60582780186,351.02092563223044L242.21957102997465,351.31195494263574L245.76885965486034,333.6404069933553L246.14271805668164,321.79649498033876L246.7389985456624,338.4456839775594L249.2424301224151,109.38929748946391L249.47904936407414,339.4283595721246L249.99487931089087,253.81255763983017L250.1368508558863,244.09346090529957L253.08985899179115,350.7071278469297L253.84704056510012,343.2650952552607L254.58056021424315,351.2052539965093L255.02067200372898,331.5459284827152L257.7228637434752,347.01784975977375L258.68353786461097,250.3881302079473L260.06066185106664,323.8824234927019L260.34933732589064,348.5775677280701L261.90629193600716,344.4207143259859L262.96634613863966,344.25071017038556L263.12251483813463,347.84808185438425L263.8465697176113,332.9885254935514L263.917555490109,330.0980694569666L265.6259464148873,350.201861772414L266.7522540051844,350.8906517067045L266.8043102383494,351.3538017477422L267.4905060391606,350.1554847049811L267.69873097182057,254.5401600101444L268.72565848062084,318.58686659761867L271.9626097065165,337.2433994424967L272.57781973483003,332.5176589621096L272.7907770523232,350.6965791805082L274.2909430444415,348.6472320049316L275.44564494373765,339.6155832214717L275.4835040224031,344.37257195911445L276.50096676153703,350.2942261188177L279.20315850128327,337.62074157361815L280.00766392292405,350.23265208642334L280.07391731058857,317.67858447184676L280.4856347910753,328.91144267528296L281.3327316762147,351.3349474060631L281.4889003757097,325.4024443383712L283.7841070198024,347.4151318856668L284.63120390494174,331.6927538040466L289.1553638054627,335.0546060912308L290.4756991739202,321.7249808248568L290.60347356441605,320.42878080775193L290.6839241065801,351.01321748133034L293.05484890800375,103.22800153844791L293.27727099516324,320.8645493065766L293.8498895599781,347.2230238532285L294.83422560527976,341.6880214836492L297.38498103036426,351.3088781889884L297.41337533936337,311.17324213566167L297.5174878056933,273.27357041697445L297.9434024406796,223.640507621372L298.78576694098575,323.3861780336541L302.24040786920784,350.26983045653276L302.57640719236366,200.38119328633292L304.48829066496876,335.21405052303953L306.6604553033988,177.78830703577518L308.5912683153366,343.38456451361503L310.1387581557867,160.6603015813188L313.1627520641893,343.28070076094934L313.91046886783187,330.7544183929467L314.828551525469,302.8307365080374L317.9329959760356,330.9386965140878L319.6745135946462,260.44355722320006L321.5816646824181,349.50194278909726L323.043971595871,282.2178163153977L323.2427317588646,351.2845782117527L325.164080001136,351.3498953094209L328.6565800080235,348.14203227463656L329.5510007414947,351.3338028753037L329.76395805898784,350.806937877185L331.7468273040907,351.25836762927264L335.72676294879574,344.34380779501754L336.1858042776143,351.3695175816147L337.1890698622487,351.06194601814354L339.93858545032674,339.6480233468318L340.00483883799126,351.1901577603098L341.2825827429501,350.9944168159894L342.5319323389099,342.6227895672976L342.9057907407312,350.69683052552347L343.45947976621335,350.61002583774354L346.0480942699633,348.7694458189405L346.6065156802786,350.499237649533L346.9661769276004,350.24910816899165L348.5751877708818,348.2268142396423L350.619578018816,350.603543697003L351.2158585077968,351.18731836022477L352.88165796907646,343.77056165569803L353.1230095955687,351.3759678450201L353.2271220618987,345.9642150767735L353.38329076139365,350.5861731505277L353.50160038222316,351.3177346493909L354.73202043885016,351.30307179258693L354.7414852085165,351.3795753649359L355.22418846150106,351.351296703777L355.2383856160006,351.3641934003165L355.9671728803104,341.8987596974735L356.74801637778523,351.1639738917246L358.10147844007497,351.2282588873538L358.90598386171575,351.3811949252586L361.816400534122,340.82258763699656L362.4316105624355,351.38113283397894L363.67622777356206,347.4924848498705L369.8283280566972,351.2775351923797L373.2877013697525,350.82073411260666L374.53705096571224,349.5905283600947L375.2185143816902,351.36794342090235L375.44093646884977,350.11755921876505L375.9946254943319,350.5614917425205L376.5435821349809,349.98404541913396L376.57670882881314,350.9874613422126L377.9254385062697,350.79376040184866L381.25230504399593,351.3265677179593L382.35968309496025,351.37139936131365L382.7051471877824,351.0148480554436L385.388409388196,351.11061525900124L385.71021155685224,350.989089556127L386.07460518900723,350.7508278668624L386.14085857667175,347.50171665464126L386.32542158516577,351.3584142452174L386.47685789982756,351.3659209497075L389.27842972107067,351.3726423838999L391.0672711880131,351.37967569271154L391.33228473867115,351.26637499196124L391.6588192921607,350.9989026811158L391.9664243063174,350.3440195256365L393.0312108937831,347.6560586597797L393.10692905111404,350.3332938119672L393.788392467092,351.3810086215665L393.91143447275476,349.933479871634L394.08653271158244,351.37378988006327L395.89903610269073,346.29777467799585L395.9889514145212,351.2041757089347L396.4716546675056,351.2231418145179L397.7210042634654,351.3003268893688L398.2557637496148,351.3785636164549L404.1333857124255,351.0624887022292L404.29428679675357,351.24301780910196L404.6681451985749,351.2727154076086L406.6462820588445,341.0778781288708L408.98881255126906,351.30697038041797L412.0506655383371,350.9941812810735L412.9592834263078,349.9153275496931L413.3615361371282,349.2873140622319L415.26868722490013,351.32042922460096L415.64727801155453,351.3708671334345L417.2515564700029,351.3714892580156L417.3982603998315,350.19584268329544L417.55442909932646,351.2768704084162L418.09392097030906,351.380175901679L419.64614319559246,349.9570700918014L423.271149977809,351.28553010744406L423.6734026886293,351.27258070653187L424.3501337197742,350.0171444602917L426.17210188054884,351.36442916256317L426.4418478160402,351.3367150131619L427.46404294000723,351.3131561464583L428.23542166781573,351.21237484586544L429.6929961964354,351.3739227988665L432.23428685185354,351.3751681867034L432.90155311333206,351.1726657444208L435.4191818445843,351.16561964547316L435.4949000019152,351.37925934771795L437.3026710081903,350.32685577138113L438.3816547501555,347.5057275701568L438.67506260981276,350.62812804587253L439.6310043461153,350.6800414932552L440.63900231558284,347.616058138436L443.6866581481513,351.37914538363054L444.6615294237866,329.8851409785788L446.1948221097372,351.3726977546103L446.3036669609004,350.64561058863455L446.7059196717207,350.8895594519255L446.72011682622025,351.1241986077168L448.5420849869949,351.32162267290704L451.42410735040204,348.66142294320207L451.70331805555975,351.0636775635049L453.30286412917485,351.3409060393339L453.76190545799346,351.213484107009L454.9355368966223,351.3789585428457L456.97046237489,351.3388465071566L459.97552674395996,351.1983857530967L461.1491581825888,351.3679858539643L462.4410992420472,351.09748223946576L463.69044883800694,350.53056427832405L463.95546238866507,348.0653362863411L464.10689870332686,351.2618186280175L464.4428980264827,351.3751832173107L466.66238651324454,350.0567685137479L466.7712313644077,349.440464199266L468.3281859745242,350.8772619751261L469.4355640254885,351.3801212922743L469.7431690396453,350.23598287668267L472.7056419452165,350.0652731186108L473.6047950635209,351.35071147144845L474.45662433349344,351.229305473901L475.40310130012966,351.3784677775785L475.78169208678406,351.31520536893134L476.30225441843396,351.3664897586487L477.3717733907328,347.28074746363137L478.2803912787036,351.3797880412347L478.6116582170262,351.33657916431724L478.8435450738521,351.36301387071745L481.36117380510433,350.81175216560257L483.49547936486897,351.01185829775716L483.9971121571861,350.9137721502997L484.00657692685246,351.28780692341036L485.2843208318113,351.37175372052315L488.51180728804064,351.2477615097906L488.6206521392038,350.5454596551324L489.8936636593295,351.2115254814167L490.1728743644872,351.3777234109115L490.5514651511416,347.5893468947264L490.90639401363023,350.99822921614685L491.6730403566055,351.3468499900662L492.1510112247568,351.3801624146478L492.60532016874214,351.29012651394004L492.92712233739843,351.23704539049146L494.93365350666716,351.3780141488182L495.0283012033307,351.38047344517526L497.70683101891115,351.36476357324244L497.8582673335729,350.8336197639003L498.5397307495509,351.3691164751098L499.4625457920213,351.33670723339674L499.6092497218499,351.2230474065626L499.8695308876748,351.20109134930397L500.03516435683616,351.3577208317181L500.082488205168,351.3771582013747L501.0053032476382,350.9041930406467L502.47707493075745,350.7725609014923L504.5120004090253,351.3475900073898L506.06895501914175,351.12359381483583L506.3434333394663,350.6465476199226L508.9367802280494,351.378780842906L509.0030336157139,351.3363755203763L509.0740193882116,351.02218429719636L509.135540391043,351.37964071748905L509.93531342785053,351.1124816105166L511.5490566559652,351.37506829451877L512.3819563866051,351.3222659725944L513.1580674992467,351.3073363324879L513.2243208869113,351.3703619053818L515.2213872865136,351.2186998070598L515.4911332220049,351.37517103035907L516.0732165564862,351.3807423802585L516.906116287126,351.33117860896346L517.3793547704441,351.35575824753886L519.4474069425441,351.3718734137256L522.9209774100989,351.3033825305522L525.8171969280056,351.36613733831825L526.4655336501513,351.05522278147055L529.569978100718,351.3107014507084L529.5747104855512,351.2507191138087L529.8491888058758,351.3480747029246L530.7956657725118,351.3265304155009L532.314761303963,351.21125746951753L534.0610113074067,351.1314525819893L534.2171800069017,351.36999048726904L535.1352626645388,350.7326443773636L535.9303033165131,351.37438722356643L536.1905844823381,351.3218350423093L536.6448934263235,351.3408947556434L538.8075932950871,351.0974537877532L539.4180709385674,350.529049612608L541.1927152510103,351.1684030474148L542.2196427598105,350.6649816784809L545.7641989998631,350.84152759409216L545.9487620083571,350.9854524896482L546.89050659016,351.3519334664409L548.878108220096,351.36155419076493L550.1416549705554,346.435079021696L550.8609774651989,350.9229517720431L551.992017440329,351.36415835904177L553.4685215082816,351.2026307647768L554.2588297754227,351.3432777603523L557.273358914159,351.3750480964298L559.2136366957631,348.4780532076475L559.2704253137613,350.5038023388357L560.439324367557,348.89517367810276L560.9740838537064,350.9682304093821L561.7359978118485,351.2855205454054L564.7363297960852,351.3713634430473L564.9161604197461,351.34580248207146L565.2568921277351,351.32610252841744L565.4414551362291,351.30504172611836L566.3595377938663,348.8777229495285L566.5062417236949,351.3354242753563L567.0173392856784,351.03316746653286L569.2888840056053,351.18540566151626L570.1880371239096,351.34750699022305L570.7369937645586,350.7976322919506L571.9153575880206,351.35030739246713L574.0969869961169,351.38122246555724L575.3132098982445,351.04272785625227L575.4504490584068,350.47440939189113L575.7391245332308,349.992779060283L577.1777695225178,350.68177653041766L577.9728101744921,351.3399386528167L580.3815940545812,351.2296600695345L586.1219768572296,351.3795967499442L586.1267092420627,351.2377583483774L586.784510733875,351.1281023766693L586.9264822788704,351.33552959519L587.1205100570309,351.1765113005228L589.1649003049649,351.276571810926L590.9158826932419,351.38122751539674L592.8892871686783,351.2238732175197L592.9460757866765,351.0616041126204L593.4429761941606,348.99854961322393L594.9999308042769,351.38117218335776L597.5601509990278,351.14537767457045L597.6737282350242,351.04107283953135L597.8298969345192,351.2865244220522L600.3427932809382,351.227388669093L603.007125942019,349.52353039667815L603.2816042623435,350.7119552619328L604.3463908498093,351.23681166613903L605.515289903605,351.36516405332463L612.1264315155586,351.0554896779332L613.3000629541874,351.36187771987653L613.550879350346,351.38074915133797L614.0667092971628,350.53469553165115L615.5668752892811,351.0687489842747L616.1726205479282,351.3604838910894L616.6221971070804,351.3534139476668L617.3225900623912,351.37056463393736L617.474026377053,351.2036279326391L617.7627018518771,351.30720696610734L618.8700799028413,351.3189677967272L619.7786977908121,351.06706920163134L620.2708658134629,350.39312808680137L622.3720446793952,351.36862878992235L623.7633658203504,351.29089382914606L624.5773360116575,351.35119745822226L624.9937858769774,351.31992731456756L625.0505744949756,351.02762268039527L625.088433573641,351.3810460004175L625.4480948209629,351.2645808366665L625.6515873687896,351.36184379807975L627.4498936053983,351.0522322801597L628.1408217910426,351.36484675206657L631.131689005613,351.2571013825719L632.1870108234124,350.9254576889586L634.8608082541596,351.25360218565595L634.9128644873246,351.28610342561785L635.7552289876307,351.34673391597005L636.0107777686225,351.34708414685224L636.6827764149342,350.3393568072513L640.468684281479,351.3701225108941L641.6044566414424,351.3700086403912L642.9768482430649,351.34418253289465L643.506875344381,351.3116118327645L646.0718279239651,351.10500144512923L646.7674884944427,351.3706521209328L648.5137384978864,351.0982830905114L648.5752595007178,351.06189234786757L648.9775122115382,351.22644185752876L650.8846632993101,349.41805407854L651.3862960916273,351.37945021099506L654.3771633061975,351.0530269558905L655.593386208325,351.36725506425046L657.188199897107,351.3566264612471L657.8933252372509,351.2349589261816L659.3840264597029,351.37700788090393L659.4076883838688,351.3786505793265L659.4786741563665,351.18798123663026L661.0403611513162,351.0859705795684L661.1917974659781,351.3496306034167L663.6053137309003,351.38119130215824L663.6952290427307,351.38122386801956L664.1826646805483,351.034777574812L665.5030000490058,350.78267671390495L667.7650799992664,351.2846534794651L670.1076104916908,351.17289479687264L671.6172412534754,350.98779361295124L672.3034370542867,351.3140982982464L672.5211267566131,351.13140974276297L675.0103611788662,351.362459173462L675.1996565721934,351.36394833165195L675.3416281171889,351.3172707086529L675.3889519655206,351.1657745294834L675.7486132128424,351.26470473094207L675.9095142971706,351.3693883758812L676.4679357074858,348.8142704574752L678.6779594245814,351.30552486367947L679.8089993997116,351.3265673906029L680.9116450658428,351.2783042454034L683.8977798955799,351.3657761662573L684.0681457495743,351.0373401688321L684.527187078393,351.3811773417659L685.5209878933609,350.73531495856554L685.5257202781942,351.37318113415233L686.9407033433152,351.3715680609744L688.1474614757764,351.2965335001284L688.8147277372549,351.3134398997525L690.20604887821,351.35687172996273L690.9443009121862,351.242570405922L692.0280170389847,351.2657122852961L692.9555644662881,351.3194331236778L693.0738740871176,351.3179517189837L693.6701545760985,351.37905377601186L695.1277291047181,351.23491485835865L695.4069398098758,350.8090946463233L695.9700936050244,351.36048778501345L696.5569093243388,351.38103130925924L701.7388707166718,350.9005321135272L702.1553205819918,351.20965059438754L702.3398835904859,351.3652662764077L702.5339113686462,351.37360215433006L704.9994838667334,351.37085089494286L706.8167196426749,351.2978722906133L709.9874174809061,351.1064052784922L710.5789655850538,350.6959531135059L713.882170198614,351.250036539442L714.350676297099,350.99424326054276L714.9942806344114,349.3768019404955L715.5716315840596,351.2557377534186L715.8461099043841,351.3742778976589L716.1726444578735,351.3322094298671L716.1915739972062,351.21974547215945L716.6695448653576,349.1278931677491L717.0765299610111,351.3688425455373L719.8118483945896,351.3798066991575L720.9523531393863,351.34841963144214L721.913027260522,351.3704934248376L722.1543788870142,351.380052144686L722.4809134405036,351.2561448392287L724.9938097869227,351.3810416028137L725.0837250987531,351.21204883127035L726.0396668350556,351.37876996967384L726.5365672425397,351.36517798415605L727.383664127679,351.31649316052983L727.4499175153436,351.22080950154634L727.6202833693382,351.36796470714813L727.8143111474985,351.22271956523826L728.2591553218176,351.37402391762697L728.4910421786434,351.361707017684L729.3428714486159,350.26799325185704L729.7545889291026,351.3259611872607L729.8397718560999,351.3048518028541L730.4786438085794,349.742101366971L734.39232606562,351.1063251287247L735.542295580083,351.3464436276732L739.2808795982959,351.3456549938899L739.597949382119,351.37857492313117L739.886624856943,351.26789340004746L743.8476309623154,351.37907240198206L744.5243619934603,351.2217685020829L747.0088640308803,350.97608744680076L748.8781560399866,350.7391241902368L749.5217603772992,351.2825561760227L749.5927461497969,351.2801732076867L752.3091350440428,351.3801955909259L752.7019229851968,351.21070421303415L753.9323430418239,351.374460488747L754.7557780027973,351.08957554087607L755.1012420956196,350.46126379540544L755.7921702812639,351.37821178541645L755.8820855930943,351.3203308075407L756.1944229920842,351.3616905387269L756.9563369502264,351.3809154229479L757.3869839700459,351.171046647987L757.6141384420386,351.311709029311L758.5274887148424,351.2272380851711L759.4077122938141,351.3273304218863L759.9661337041294,351.34324409114527L760.5056255751122,351.3794236904576L764.3530544444882,350.9698515750314L764.9682644728017,351.3561094766559L765.7207136612774,351.3684642488997L766.9747956420704,350.6526252290409L767.514287513053,351.2526670295944L768.7305104151804,351.37550551024793L770.732309199616,351.3680721669224L770.968928441275,351.36682276492877L771.7828986325823,351.09337772428216L771.9579968714098,351.0975413414323L773.1268959252054,351.095065363478L775.2612014849701,351.36458475988695L775.3937082602993,350.37678484113854L776.2313403757722,351.1994333419201L779.0045178880163,351.38052166917356L779.1133627391794,351.3304078019563L779.9131357759869,351.192302000995L779.9178681608201,351.360027863484L780.2160084053105,351.37214750798665L782.0001174874196,351.3537149134387L782.3361168105755,351.373006547129L782.9749887630549,351.3045025015023L784.5792672215032,351.3531286990412L785.3743078734777,351.1864367936104L788.497681863377,349.56863825907885L791.6494501622755,350.0501220643673L792.5817299744122,351.37527642596973L792.7710253677394,351.1294043173367L795.6293858069806,351.333269830044L796.2635253746269,351.29360429932564L797.2241994957626,351.24446325309464L798.1564793078992,351.33038475768575L799.5809271426866,351.30889670685013L799.6897719938498,351.34739299948745L800.5983898818205,351.3540121873585L802.2878512672662,350.4600049364505L802.6522448994211,351.3367054551647L803.6081866357237,351.3788369592614L804.0104393465439,351.3127481472836L804.535734063027,351.3811910151334L804.7770856895193,350.88785833049764L805.9507171281482,351.3800497376317L807.8105443675881,351.3756909076085L808.4872753987331,351.3420281845768L809.4763438288679,351.37992898001596L810.2335254021768,351.3697169588091L811.0427632086509,351.3807185758821L811.7857476274602,350.7472666823943L813.896391263059,351.3487647822388L814.9895721595237,350.9693878767796L816.2247246009839,351.12555127649443L816.4992029213083,351.1737638188683L816.9251175562946,351.2548215274453L817.9899041437603,351.24923826683283L819.4427462875468,351.35449630698866L822.8358662129375,351.362762232698L824.7666792248754,351.34964639532956L824.9512422333695,348.9788592175671L824.9985660817013,351.37101813564504L827.6581663579489,351.3792219304575L828.5336575520873,351.3687881912482L831.164863519336,351.2536842995616L831.7374820841508,351.3780443752266L832.1208052556385,350.766227162298L832.6934238204533,351.2007844587862L833.9285762619135,351.223555706107L834.8229969953848,351.37063285944674L837.9889624487828,351.36603303086446L839.0916081149139,349.6301224099267L841.2827022926766,351.35117578804005L841.5666453826675,351.27090806106526L842.0540810204851,351.2925524265796L842.5509814279691,351.0730793349268L843.3696840041094,351.3797976114825L845.8778479656953,350.99973786820544L846.8337897019978,349.8413746944666L846.9047754744955,351.26081703074084L848.2535051519521,351.3181152233779L850.6291623382089,351.3765204467908L853.4685932381175,351.3636252673055L853.90397264277,351.2632487711318L854.5002531317509,351.25872464976806L855.8679123485401,351.18664691597405L858.087400835302,351.2434934376742L858.115795144301,350.3874478317142L858.2766962286292,351.38093529203866L858.8919062569427,351.10278098295265L860.6192267210538,351.3812311143061L862.0909984041731,350.1870933937045L862.9097009803133,351.32355567579225L864.2631630426031,351.3724990725429L865.9147653493832,351.38031570563754L866.0567368943786,351.2866249002451L867.2824245661724,351.38122529398953L869.3883358169379,351.37279389987805L869.4072653562707,351.21451795494846L869.6675465220956,351.3678317792517L870.4199957105714,351.37445227907403L871.0541352782176,351.36539753013903L871.3475431378748,351.3799597075624L872.1662457140151,351.36471779892287L874.3005512737797,351.25619401542735L876.2644909795497,351.37264394591506L877.840375128999,351.2056365265516L878.0959239099908,351.3249662179398L878.3562050758156,351.3297200909239L878.3798669999816,351.20750784095094L879.6812728291063,351.3315747586465L879.9036949162659,351.282657640326L879.9131596859322,351.1918588655719L880.9211576553997,351.32707693895117L881.451184756716,351.3693335447026L882.4544503413504,351.22011639519627L882.9797450578335,351.2790612306979L884.0587287997987,351.31420744936185L886.8792301603745,351.37809897705364L888.36046661316,351.13018513902335L890.9964049652418,351.2829656947775L892.8420350501824,351.36881972152497L893.9162864073145,351.3611769428801L893.9778074101458,351.37504410551134L894.9716082251138,351.36275879747706L895.3596637814346,351.35446540414483L896.0742538912449,351.1985542001677L896.206760666574,351.29919618436355L897.1958290967087,351.3807160282932L897.7116590435255,351.20243127947396L897.9766725941837,351.3785355365545L898.2132918358426,351.36397454642946L900.3901888591059,351.27760291877155L900.7403853367613,351.2551377294327L902.0133968568869,351.15910436495375L902.2310865592133,351.3733170870639L902.6144097307009,351.27323953341806L904.0625194896543,351.38120912985596L908.1087085220239,351.16497731573054L908.2080886035207,351.32904629455714L908.2412152973529,350.64447032159063L908.3500601485161,351.32662456480426L908.5393555418434,351.26289071602866L910.4417742447822,351.36994620929136L911.4308426749169,351.3809607379645L913.3474585323552,351.2250296018122L913.839626555006,351.3504640264194L922.2301448642357,351.37700484477483L927.520951107732,351.3554162046069L928.3396536838723,351.26876844378336L929.4091726561711,351.3759607043071L929.5795385101655,351.2925318233366L932.8827431237258,351.3737107830899L933.6162627728689,351.2676104105848L935.2063440768178,351.37870597756915L936.7443691476014,351.3570911678373L936.8153549200991,351.34368348419827L937.3027905579169,351.31435447681963L937.8375500440662,351.3800262510764L938.3391828363834,351.3180018853343L942.4894843350831,351.1775294515231L943.5779328467147,351.36831019944606L943.8145520883737,351.3279442473777L944.8982682151722,351.30006495579005L945.4803515496534,351.36190409227004L949.2047384133667,351.33208011198377L950.5582004756565,351.37377796944486L951.5472689057913,351.37127743622796L953.6342506172241,351.36757485503335L953.6531801565568,351.26945560113893L955.5650636291618,351.38106555066105L955.6975704044909,351.22073604439754L957.4722147169338,351.20962935259763L957.4864118714333,351.3723977345344L959.2989152625415,351.2873079191698L960.07029399035,351.2313257233161L960.330575156175,351.10636205128804L963.3687662190772,351.36794916883537L965.7018319418353,351.3443932574322L967.5190677177767,351.3732631960245L968.1579396702562,351.3516758329505L970.1597384546917,351.32776615339793L970.7228922498402,351.3487408589557L971.9107208429687,351.3267206418729L973.122211360263,351.3794324257699L974.3620961865563,350.9292728049613L978.616510151586,351.3764689285797L979.0471571714054,351.3409303647399L981.5647859026576,351.3793028958375L982.3172350911335,351.336185504159L984.1202737125753,351.34580795821785L984.7780752043875,351.37903908412744L985.4264119265332,351.2634544721639L987.9866321212841,351.35571391904324L990.0120928298855,351.3008235819077L992.4350738644741,351.32918900171944L995.0804769862223,351.37683720801186L996.0364187225248,349.12423505346936L996.3866152001801,351.3336721510005L998.5161883751115,350.47684039674067L998.9326382404315,351.3595337332158L998.9941592432629,351.3670388797322L1000.4706633112153,351.3783721632544L1001.3508868901869,351.38111612162095L1001.5117879745151,351.3744854188529L1003.6129668404474,351.37949951626706L1003.9111070849377,351.3802016005419L1006.2867642711946,351.3805494026471L1006.3388205043595,351.3810370973698L1007.2994946254953,351.3809675000454L1007.8484512661443,351.3771819695676L1009.1735190194349,351.14201212795774L1010.7636003233838,351.3587022602062L1011.0806701072067,351.309267241909L1012.2684987003352,351.09770901254745L1012.7228076443206,351.38032093708756L1013.6976789199558,351.37511111909487L1014.4217337994326,351.29023841323226L1018.491584755968,351.3746996771215L1021.0612697203853,351.36194956853365L1021.4256633525403,351.3390423632495L1024.6957412722682,349.7779523353634L1025.7274011659017,351.35209602311824L1025.893034635063,351.35808685855466L1028.2119032033215,351.374266340161L1028.5053110629788,351.28691244844805L1028.7655922288038,351.3734557538001L1031.619220283212,351.37041040160875L1034.5674960342835,350.8118412065303L1034.8987629726062,351.37959970183465L1035.0360021327685,351.30436359733176L1035.2773537592607,351.3112759247331L1038.0694608108374,351.37316778427737L1038.2303618951655,351.284131358208L1039.5033734152912,351.3695576847885L1041.6613408992218,351.11944093174094L1042.1535089218726,351.3753851946643L1042.8397047226838,351.37848495721965L1043.6252806049918,351.3809625775442L1045.2958124511047,351.3808065851069L1045.4046573022679,351.3633376605017L1046.114515027245,351.3489770526258L1047.9601451121855,351.3589548580668L1050.274281295611,351.3628710342292L1051.4195184252408,351.3449671939459L1051.9116864478915,351.0790661572168L1052.7256566391986,351.3089359249494L1053.0616559623545,351.37559706141286L1054.4577094881429,351.3466665007688L1054.9735394349595,351.3654072508041L1057.13150691889,351.3763517279332L1057.680463559539,351.1788903809969L1059.7295861923064,351.36559365801855L1060.0277264367967,351.32695237783855L1061.8354974430717,351.3281202640591L1062.9381431092029,351.30260374574954L1063.3924520531884,351.3759065182428L1067.2493456922307,351.3404395969468L1067.8692881053773,350.1666609256536L1070.4579026091274,351.36547419719875L1071.2292813369359,351.37843544937067L1072.3508565423997,351.3606339071895L1072.9518694162136,351.3642300985801L1075.417441914301,351.3174145150859L1076.2408768752746,351.35586295509495L1076.647861970928,351.37703768068815L1076.780368746257,351.052904516532L1078.3467881260399,351.37537595391984L1083.2826655070476,351.38096964038067L1083.7464392206994,350.7588295230427L1083.8032278386975,351.3542676809083L1084.2670015523493,351.38076280653075L1084.9295354289945,351.28272511614887L1085.3696472184804,351.3786147383526L1085.7529703899681,351.3459779976148L1088.7911614528703,351.3809289015489L1089.2123437030232,351.3385039752108L1090.357580832653,351.03068670351786L1090.6131296136448,351.1837251514143L1091.4129026504522,351.0507845729627L1091.4223674201187,351.35419000449986L1092.3877739260877,351.3135561637961L1093.4620252832196,351.08787225323834L1093.7128416793782,351.3690008556753L1094.3375164773581,351.35293275403666L1094.3517136318576,351.3654630418238L1094.80129019101,351.35633135959944L1096.0695693263024,351.2367257128688L1096.3061885679613,351.360622716452L1096.4623572674564,351.38081183767974L1097.3047217677627,351.3812130881825L1097.683312554417,351.3808375964379L1098.412099818727,351.3643116921508L1099.0225774622072,351.36505261576644L1099.098295619538,351.3796957398781L1100.006913507509,351.30162105431253L1100.745165541485,351.3712843814365L1102.1932753004385,351.3482399936337L1102.7990205590856,351.33624593171675L1103.7171032167228,351.38097760019497L1105.061100509346,351.3741981919441L1105.8845354703196,351.3696233116542L1108.723966370228,351.0751097202645L1110.7920185423282,351.3032463179783L1111.3315104133108,351.38083827729366L1111.416693340308,351.3012941263529L1111.7006364302988,351.373436053313L1112.5666628547708,351.337656425367L1114.7293627235347,351.36047711157977L1117.464681157113,351.27275751129343L1117.4741459267796,351.17957351308183L1117.535666929611,351.3650870387014L1118.2313275000886,351.37432519964136L1119.0689596155614,351.0301076141727L1119.6747048742086,351.3541071833428L1119.9349860400334,351.36825951175024L1120.701632383009,351.36208373411995L1120.9997726274994,351.3692141081314L1121.7806161249741,351.1937111690542" fill="none"></path></g></g></g></g></g></g><g transform="translate(51, 376)" clip-path="url(#clip_1)"><clipPath id="clip_1"><rect width="1141" height="23"></rect></clipPath><g><g><line x1="12.590061769538536" y1="0" x2="12.590061769538536" y2="5" style="visibility: inherit;" fill="rgb(0, 0, 0)" stroke="rgb(204, 204, 204)" stroke-width="1px"></line><line x1="107.23775843315626" y1="0" x2="107.23775843315626" y2="5" style="visibility: inherit;" fill="rgb(0, 0, 0)" stroke="rgb(204, 204, 204)" stroke-width="1px"></line><line x1="201.885455096774" y1="0" x2="201.885455096774" y2="5" style="visibility: inherit;" fill="rgb(0, 0, 0)" stroke="rgb(204, 204, 204)" stroke-width="1px"></line><line x1="296.5331517603917" y1="0" x2="296.5331517603917" y2="5" style="visibility: inherit;" fill="rgb(0, 0, 0)" stroke="rgb(204, 204, 204)" stroke-width="1px"></line><line x1="391.1808484240094" y1="0" x2="391.1808484240094" y2="5" style="visibility: inherit;" fill="rgb(0, 0, 0)" stroke="rgb(204, 204, 204)" stroke-width="1px"></line><line x1="485.8285450876271" y1="0" x2="485.8285450876271" y2="5" style="visibility: inherit;" fill="rgb(0, 0, 0)" stroke="rgb(204, 204, 204)" stroke-width="1px"></line><line x1="580.4762417512449" y1="0" x2="580.4762417512449" y2="5" style="visibility: inherit;" fill="rgb(0, 0, 0)" stroke="rgb(204, 204, 204)" stroke-width="1px"></line><line x1="675.1239384148627" y1="0" x2="675.1239384148627" y2="5" style="visibility: inherit;" fill="rgb(0, 0, 0)" stroke="rgb(204, 204, 204)" stroke-width="1px"></line><line x1="769.7716350784802" y1="0" x2="769.7716350784802" y2="5" style="visibility: inherit;" fill="rgb(0, 0, 0)" stroke="rgb(204, 204, 204)" stroke-width="1px"></line><line x1="864.419331742098" y1="0" x2="864.419331742098" y2="5" style="visibility: inherit;" fill="rgb(0, 0, 0)" stroke="rgb(204, 204, 204)" stroke-width="1px"></line><line x1="959.0670284057156" y1="0" x2="959.0670284057156" y2="5" style="visibility: inherit;" fill="rgb(0, 0, 0)" stroke="rgb(204, 204, 204)" stroke-width="1px"></line><line x1="1053.7147250693336" y1="0" x2="1053.7147250693336" y2="5" style="visibility: inherit;" fill="rgb(0, 0, 0)" stroke="rgb(204, 204, 204)" stroke-width="1px"></line></g><g transform="translate(0, 8)"><text style="text-anchor: middle; visibility: inherit; font-family: Roboto, sans-serif; font-size: 12px; font-weight: 200;" x="12.590061769538536" y="0" dx="0em" dy="0.95em" fill="rgb(33, 33, 33)" stroke="none" stroke-width="1px">0</text><text style="text-anchor: middle; visibility: inherit; font-family: Roboto, sans-serif; font-size: 12px; font-weight: 200;" x="107.23775843315626" y="0" dx="0em" dy="0.95em" fill="rgb(33, 33, 33)" stroke="none" stroke-width="1px">20k</text><text style="text-anchor: middle; visibility: inherit; font-family: Roboto, sans-serif; font-size: 12px; font-weight: 200;" x="201.885455096774" y="0" dx="0em" dy="0.95em" fill="rgb(33, 33, 33)" stroke="none" stroke-width="1px">40k</text><text style="text-anchor: middle; visibility: inherit; font-family: Roboto, sans-serif; font-size: 12px; font-weight: 200;" x="296.5331517603917" y="0" dx="0em" dy="0.95em" fill="rgb(33, 33, 33)" stroke="none" stroke-width="1px">60k</text><text style="text-anchor: middle; visibility: inherit; font-family: Roboto, sans-serif; font-size: 12px; font-weight: 200;" x="391.1808484240094" y="0" dx="0em" dy="0.95em" fill="rgb(33, 33, 33)" stroke="none" stroke-width="1px">80k</text><text style="text-anchor: middle; visibility: inherit; font-family: Roboto, sans-serif; font-size: 12px; font-weight: 200;" x="485.8285450876271" y="0" dx="0em" dy="0.95em" fill="rgb(33, 33, 33)" stroke="none" stroke-width="1px">100k</text><text style="text-anchor: middle; visibility: inherit; font-family: Roboto, sans-serif; font-size: 12px; font-weight: 200;" x="580.4762417512449" y="0" dx="0em" dy="0.95em" fill="rgb(33, 33, 33)" stroke="none" stroke-width="1px">120k</text><text style="text-anchor: middle; visibility: inherit; font-family: Roboto, sans-serif; font-size: 12px; font-weight: 200;" x="675.1239384148627" y="0" dx="0em" dy="0.95em" fill="rgb(33, 33, 33)" stroke="none" stroke-width="1px">140k</text><text style="text-anchor: middle; visibility: inherit; font-family: Roboto, sans-serif; font-size: 12px; font-weight: 200;" x="769.7716350784802" y="0" dx="0em" dy="0.95em" fill="rgb(33, 33, 33)" stroke="none" stroke-width="1px">160k</text><text style="text-anchor: middle; visibility: inherit; font-family: Roboto, sans-serif; font-size: 12px; font-weight: 200;" x="864.419331742098" y="0" dx="0em" dy="0.95em" fill="rgb(33, 33, 33)" stroke="none" stroke-width="1px">180k</text><text style="text-anchor: middle; visibility: inherit; font-family: Roboto, sans-serif; font-size: 12px; font-weight: 200;" x="959.0670284057156" y="0" dx="0em" dy="0.95em" fill="rgb(33, 33, 33)" stroke="none" stroke-width="1px">200k</text><text style="text-anchor: middle; visibility: inherit; font-family: Roboto, sans-serif; font-size: 12px; font-weight: 200;" x="1053.7147250693336" y="0" dx="0em" dy="0.95em" fill="rgb(33, 33, 33)" stroke="none" stroke-width="1px">220k</text></g><line x1="0" y1="0" x2="1141.7979985046386" y2="0" fill="rgb(0, 0, 0)" stroke="rgb(204, 204, 204)" stroke-width="1px"></line></g></g></g></g></svg>