<svg viewBox="0 0 1417.0999755859375 400" xmlns="http://www.w3.org/2000/svg"><g><g><g><g><g><line x1="51.53200149536133" y1="359.78923393365477" x2="46.53200149536133" y2="359.78923393365477" style="visibility: inherit;" fill="rgb(0, 0, 0)" stroke="rgb(204, 204, 204)" stroke-width="1px"></line><line x1="51.53200149536133" y1="327.70867189782126" x2="46.53200149536133" y2="327.70867189782126" style="visibility: inherit;" fill="rgb(0, 0, 0)" stroke="rgb(204, 204, 204)" stroke-width="1px"></line><line x1="51.53200149536133" y1="295.6281098619878" x2="46.53200149536133" y2="295.6281098619878" style="visibility: inherit;" fill="rgb(0, 0, 0)" stroke="rgb(204, 204, 204)" stroke-width="1px"></line><line x1="51.53200149536133" y1="263.54754782615436" x2="46.53200149536133" y2="263.54754782615436" style="visibility: inherit;" fill="rgb(0, 0, 0)" stroke="rgb(204, 204, 204)" stroke-width="1px"></line><line x1="51.53200149536133" y1="231.46698579032088" x2="46.53200149536133" y2="231.46698579032088" style="visibility: inherit;" fill="rgb(0, 0, 0)" stroke="rgb(204, 204, 204)" stroke-width="1px"></line><line x1="51.53200149536133" y1="199.38642375448737" x2="46.53200149536133" y2="199.38642375448737" style="visibility: inherit;" fill="rgb(0, 0, 0)" stroke="rgb(204, 204, 204)" stroke-width="1px"></line><line x1="51.53200149536133" y1="167.30586171865392" x2="46.53200149536133" y2="167.30586171865392" style="visibility: inherit;" fill="rgb(0, 0, 0)" stroke="rgb(204, 204, 204)" stroke-width="1px"></line><line x1="51.53200149536133" y1="135.2252996828204" x2="46.53200149536133" y2="135.2252996828204" style="visibility: inherit;" fill="rgb(0, 0, 0)" stroke="rgb(204, 204, 204)" stroke-width="1px"></line><line x1="51.53200149536133" y1="103.14473764698691" x2="46.53200149536133" y2="103.14473764698691" style="visibility: inherit;" fill="rgb(0, 0, 0)" stroke="rgb(204, 204, 204)" stroke-width="1px"></line><line x1="51.53200149536133" y1="71.06417561115346" x2="46.53200149536133" y2="71.06417561115346" style="visibility: inherit;" fill="rgb(0, 0, 0)" stroke="rgb(204, 204, 204)" stroke-width="1px"></line><line x1="51.53200149536133" y1="38.98361357531999" x2="46.53200149536133" y2="38.98361357531999" style="visibility: inherit;" fill="rgb(0, 0, 0)" stroke="rgb(204, 204, 204)" stroke-width="1px"></line><line x1="51.53200149536133" y1="6.903051539486496" x2="46.53200149536133" y2="6.903051539486496" style="visibility: inherit;" fill="rgb(0, 0, 0)" stroke="rgb(204, 204, 204)" stroke-width="1px"></line></g><g transform="translate(41.53200149536133, 0)"><text style="text-anchor: end; visibility: inherit; font-family: Roboto, sans-serif; font-size: 12px; font-weight: 200;" x="0" y="359.78923393365477" dx="0em" dy="0.3em" fill="rgb(33, 33, 33)" stroke="none" stroke-width="1px">0</text><text style="text-anchor: end; visibility: inherit; font-family: Roboto, sans-serif; font-size: 12px; font-weight: 200;" x="0" y="327.70867189782126" dx="0em" dy="0.3em" fill="rgb(33, 33, 33)" stroke="none" stroke-width="1px">0.05</text><text style="text-anchor: end; visibility: inherit; font-family: Roboto, sans-serif; font-size: 12px; font-weight: 200;" x="0" y="295.6281098619878" dx="0em" dy="0.3em" fill="rgb(33, 33, 33)" stroke="none" stroke-width="1px">0.1</text><text style="text-anchor: end; visibility: inherit; font-family: Roboto, sans-serif; font-size: 12px; font-weight: 200;" x="0" y="263.54754782615436" dx="0em" dy="0.3em" fill="rgb(33, 33, 33)" stroke="none" stroke-width="1px">0.15</text><text style="text-anchor: end; visibility: inherit; font-family: Roboto, sans-serif; font-size: 12px; font-weight: 200;" x="0" y="231.46698579032088" dx="0em" dy="0.3em" fill="rgb(33, 33, 33)" stroke="none" stroke-width="1px">0.2</text><text style="text-anchor: end; visibility: inherit; font-family: Roboto, sans-serif; font-size: 12px; font-weight: 200;" x="0" y="199.38642375448737" dx="0em" dy="0.3em" fill="rgb(33, 33, 33)" stroke="none" stroke-width="1px">0.25</text><text style="text-anchor: end; visibility: inherit; font-family: Roboto, sans-serif; font-size: 12px; font-weight: 200;" x="0" y="167.30586171865392" dx="0em" dy="0.3em" fill="rgb(33, 33, 33)" stroke="none" stroke-width="1px">0.3</text><text style="text-anchor: end; visibility: inherit; font-family: Roboto, sans-serif; font-size: 12px; font-weight: 200;" x="0" y="135.2252996828204" dx="0em" dy="0.3em" fill="rgb(33, 33, 33)" stroke="none" stroke-width="1px">0.35</text><text style="text-anchor: end; visibility: inherit; font-family: Roboto, sans-serif; font-size: 12px; font-weight: 200;" x="0" y="103.14473764698691" dx="0em" dy="0.3em" fill="rgb(33, 33, 33)" stroke="none" stroke-width="1px">0.4</text><text style="text-anchor: end; visibility: inherit; font-family: Roboto, sans-serif; font-size: 12px; font-weight: 200;" x="0" y="71.06417561115346" dx="0em" dy="0.3em" fill="rgb(33, 33, 33)" stroke="none" stroke-width="1px">0.45</text><text style="text-anchor: end; visibility: inherit; font-family: Roboto, sans-serif; font-size: 12px; font-weight: 200;" x="0" y="38.98361357531999" dx="0em" dy="0.3em" fill="rgb(33, 33, 33)" stroke="none" stroke-width="1px">0.5</text><text style="text-anchor: end; visibility: hidden; font-family: Roboto, sans-serif; font-size: 12px; font-weight: 200;" x="0" y="6.903051539486496" dx="0em" dy="0.3em" fill="rgb(33, 33, 33)" stroke="none" stroke-width="1px">0.55</text></g><line x1="51.53200149536133" y1="0" x2="51.53200149536133" y2="376.51999950408936" fill="rgb(0, 0, 0)" stroke="rgb(204, 204, 204)" stroke-width="1px"></line></g></g><g transform="translate(51, 0)" clip-path="url(#clip_0)"><clipPath id="clip_0"><rect width="1365" height="376"></rect></clipPath><g><g><g><line x1="15.215699859636386" y1="0" x2="15.215699859636386" y2="376.51999950408936" fill="rgb(0, 0, 0)" stroke="rgb(66, 66, 66)" stroke-width="1px" opacity="0.25"></line><line x1="122.66698511357346" y1="0" x2="122.66698511357346" y2="376.51999950408936" fill="rgb(0, 0, 0)" stroke="rgb(66, 66, 66)" stroke-width="1px" opacity="0.25"></line><line x1="230.11827036751055" y1="0" x2="230.11827036751055" y2="376.51999950408936" fill="rgb(0, 0, 0)" stroke="rgb(66, 66, 66)" stroke-width="1px" opacity="0.25"></line><line x1="337.5695556214476" y1="0" x2="337.5695556214476" y2="376.51999950408936" fill="rgb(0, 0, 0)" stroke="rgb(66, 66, 66)" stroke-width="1px" opacity="0.25"></line><line x1="445.0208408753847" y1="0" x2="445.0208408753847" y2="376.51999950408936" fill="rgb(0, 0, 0)" stroke="rgb(66, 66, 66)" stroke-width="1px" opacity="0.25"></line><line x1="552.4721261293219" y1="0" x2="552.4721261293219" y2="376.51999950408936" fill="rgb(0, 0, 0)" stroke="rgb(66, 66, 66)" stroke-width="1px" opacity="0.25"></line><line x1="659.9234113832588" y1="0" x2="659.9234113832588" y2="376.51999950408936" fill="rgb(0, 0, 0)" stroke="rgb(66, 66, 66)" stroke-width="1px" opacity="0.25"></line><line x1="767.3746966371959" y1="0" x2="767.3746966371959" y2="376.51999950408936" fill="rgb(0, 0, 0)" stroke="rgb(66, 66, 66)" stroke-width="1px" opacity="0.25"></line><line x1="874.8259818911331" y1="0" x2="874.8259818911331" y2="376.51999950408936" fill="rgb(0, 0, 0)" stroke="rgb(66, 66, 66)" stroke-width="1px" opacity="0.25"></line><line x1="982.27726714507" y1="0" x2="982.27726714507" y2="376.51999950408936" fill="rgb(0, 0, 0)" stroke="rgb(66, 66, 66)" stroke-width="1px" opacity="0.25"></line><line x1="1089.7285523990072" y1="0" x2="1089.7285523990072" y2="376.51999950408936" fill="rgb(0, 0, 0)" stroke="rgb(66, 66, 66)" stroke-width="1px" opacity="0.25"></line><line x1="1197.1798376529441" y1="0" x2="1197.1798376529441" y2="376.51999950408936" fill="rgb(0, 0, 0)" stroke="rgb(66, 66, 66)" stroke-width="1px" opacity="0.25"></line><line x1="1304.6311229068813" y1="0" x2="1304.6311229068813" y2="376.51999950408936" fill="rgb(0, 0, 0)" stroke="rgb(66, 66, 66)" stroke-width="1px" opacity="0.25"></line></g><g><line x1="0" y1="359.78923393365477" x2="1365.5679985046386" y2="359.78923393365477" fill="rgb(0, 0, 0)" stroke="rgb(66, 66, 66)" stroke-width="1px" opacity="0.25"></line><line x1="0" y1="327.70867189782126" x2="1365.5679985046386" y2="327.70867189782126" fill="rgb(0, 0, 0)" stroke="rgb(66, 66, 66)" stroke-width="1px" opacity="0.25"></line><line x1="0" y1="295.6281098619878" x2="1365.5679985046386" y2="295.6281098619878" fill="rgb(0, 0, 0)" stroke="rgb(66, 66, 66)" stroke-width="1px" opacity="0.25"></line><line x1="0" y1="263.54754782615436" x2="1365.5679985046386" y2="263.54754782615436" fill="rgb(0, 0, 0)" stroke="rgb(66, 66, 66)" stroke-width="1px" opacity="0.25"></line><line x1="0" y1="231.46698579032088" x2="1365.5679985046386" y2="231.46698579032088" fill="rgb(0, 0, 0)" stroke="rgb(66, 66, 66)" stroke-width="1px" opacity="0.25"></line><line x1="0" y1="199.38642375448737" x2="1365.5679985046386" y2="199.38642375448737" fill="rgb(0, 0, 0)" stroke="rgb(66, 66, 66)" stroke-width="1px" opacity="0.25"></line><line x1="0" y1="167.30586171865392" x2="1365.5679985046386" y2="167.30586171865392" fill="rgb(0, 0, 0)" stroke="rgb(66, 66, 66)" stroke-width="1px" opacity="0.25"></line><line x1="0" y1="135.2252996828204" x2="1365.5679985046386" y2="135.2252996828204" fill="rgb(0, 0, 0)" stroke="rgb(66, 66, 66)" stroke-width="1px" opacity="0.25"></line><line x1="0" y1="103.14473764698691" x2="1365.5679985046386" y2="103.14473764698691" fill="rgb(0, 0, 0)" stroke="rgb(66, 66, 66)" stroke-width="1px" opacity="0.25"></line><line x1="0" y1="71.06417561115346" x2="1365.5679985046386" y2="71.06417561115346" fill="rgb(0, 0, 0)" stroke="rgb(66, 66, 66)" stroke-width="1px" opacity="0.25"></line><line x1="0" y1="38.98361357531999" x2="1365.5679985046386" y2="38.98361357531999" fill="rgb(0, 0, 0)" stroke="rgb(66, 66, 66)" stroke-width="1px" opacity="0.25"></line><line x1="0" y1="6.903051539486496" x2="1365.5679985046386" y2="6.903051539486496" fill="rgb(0, 0, 0)" stroke="rgb(66, 66, 66)" stroke-width="1px" opacity="0.25"></line></g></g></g><g><g><line x1="0" y1="359.78923393365477" x2="1365.5679985046386" y2="359.78923393365477" fill="rgb(0, 0, 0)" stroke="rgb(153, 153, 153)" stroke-width="1.5px"></line></g></g><g><g><line x1="15.215699859636386" y1="0" x2="15.215699859636386" y2="376.51999950408936" fill="rgb(0, 0, 0)" stroke="rgb(153, 153, 153)" stroke-width="1.5px"></line></g></g><g><g><g><g><g><path style="fill: none;" stroke="rgb(255, 112, 67)" stroke-width="2px" d="M15.677740386228315,359.3980870034084L17.02088145190253,231.41344224020625L17.687079420476937,210.53635449732124L17.740805063103906,198.6223960861154L18.15986507559426,235.0536896893132L20.319635909198396,260.7093996063279L20.98583387777281,255.31179097811523L21.447874404364736,290.21615297926144L21.523090304042494,316.7201315061611L22.038856473261394,321.8870925620784L22.178543144091506,334.57627540591767L22.898466755292887,330.2000541081767L23.908508836679896,328.61627429698035L26.122005312910996,334.58920089631687L29.54970131251159,335.98827076072223L29.592681826613166,329.2881117758422L30.108447995832062,330.88707343908777L30.18366389550982,312.4525430047377L30.656449550627144,328.92696384277554L33.39645732460254,326.2350310918731L33.85849785119447,337.2910024230433L33.89073323677065,310.6537614705349L35.39505123032577,309.62947451156384L35.82485637134152,328.90730286908854L37.10352666586337,337.9015311215416L38.85498261550254,344.7510359265807L40.015456496245065,335.7762410838281L40.89655703532735,344.6082708494409L41.92808937376514,347.07751029218934L41.93883450229054,349.66331408243366L42.06777604459526,344.2280715147085L44.07711507884389,335.83215370364917L47.87014544830786,330.1275984692111L49.93321012518346,338.70047027116607L50.10513218158976,332.6774207315187L50.73909476458798,331.364063038637L54.10231999303622,340.9862941958594L54.123810250087,329.8567421968642L54.66106667635669,337.90280226642915L55.42397080165964,346.2637442129071L56.20836518401338,350.4546294897829L56.28358108369114,344.734884261816L57.734173434619294,309.63598432091095L61.613164832286415,325.99965428737835L62.50501049989409,334.7465545847524L63.49356232423031,343.58157420167566L63.676229509162006,348.7748605509629L65.47066597290275,336.981689231416L66.67412036774685,337.01276895873576L68.64047888789389,339.8294967445222L70.39193483753307,307.590663278642L72.65915695639114,328.4642500647019L72.80958875574666,340.7444815907947L76.72081553898997,347.30887902474984L77.63415146364844,345.6767149727368L78.23587866107047,340.05214805493654L78.69791918766241,328.05225341497146L79.58976485527009,339.2917500604131L81.84624184560278,347.47620866374683L82.05039928758525,350.035248207694L82.8025582843628,348.87476153240016L85.86491991410001,333.49724852419183L87.20806097977422,343.93321109664095L87.33700252207895,334.9147635746568L88.87355590121025,333.7912757186405L90.07701029605434,242.11617080816308L92.10783958735375,281.46317481246683L94.54698376261813,307.1887621792841L95.38510378759884,328.22775083806397L95.41733917317502,331.91571556706293L95.93310534239392,342.65527412822155L99.0169572291819,330.4253627347128L99.39303672757067,339.85380380300785L101.0907670345829,347.7250842242528L101.89665167398742,352.1657877575557L103.1215963258823,355.2097037345239L103.56214659542344,341.29165986346084L105.08795484602936,339.08135018159464L105.23838664538485,341.8256829628103L106.5385471969575,347.3805424640751L106.64599848221143,334.60118025858077L107.64529543507304,270.829088062155L110.62169603660712,305.70871004544637L111.23416836255454,321.5754789299865L111.85738581702739,336.3335911191345L114.72633513330751,318.76412512927L116.9613218665894,326.6289028537357L117.88540291977327,328.0282073754615L118.02508959060337,326.1333173476139L119.43270142742996,321.4960684990022L120.99074506361202,336.64866685938546L121.67843328923723,336.4695266124106L125.64338571510751,334.9660463941237L125.71860161478526,333.54980871871663L126.96503652373093,338.40347088540335L127.82464680576243,346.7779536469747L128.28668733235438,348.3968544371023L129.20002325701282,343.85146311517775L131.05893049190593,327.9955941742699L132.36983617200397,340.52747540847867L132.40207155758014,338.5454499973184L133.05752439762918,340.1732019666012L133.14348542583232,346.26203341313794L133.63776133800042,336.0641198815602L134.5188618770827,329.64250241993L137.92506761963253,339.8737107211104L138.4945594314784,343.8039635361588L139.139267143002,280.0850273430369L139.5046015128654,293.35920628864756L140.78327180738725,319.4014852694727L141.57841131826638,278.67543448231373L143.83488830859906,262.9229215175407L143.88861395122603,297.47484127686L145.93018837105083,316.4671341357925L147.28407456525045,289.3682470123678L151.37796853342545,255.32960167411656L153.59146500965656,156.97159227910643L154.25766297823097,228.01965487270795L155.27845018814335,268.2782107412683L155.56856865832899,286.07371716356613L159.23265748548823,270.86406743671137L160.77995599314494,296.3962282573081L161.32795754794,310.6589889342988L161.5750955040241,317.67592815947006L163.61666992384886,333.83040829882725L166.51785462570518,342.46536523399004L168.0329177477857,343.8154004754399L168.8173121301394,343.2845729268282L169.29009778525676,349.885170472896L170.46131679452466,346.2536705843814L172.5136363428749,340.7120431747963L172.83599019863667,325.96392072734955L173.04014764061915,337.561489752405L174.02869946495537,315.99335883535747L174.3510533207172,333.4235261327663L175.0387415463424,336.65304709269594L175.24289898832487,344.0304045511852L181.4858186615786,336.47332711905733L181.851153031442,341.5668511884357L184.35476797785873,344.5494678230897L184.6126510624682,321.5014872395973L188.39493630340678,334.3846297272528L189.82403839728414,343.39209419940244L190.59768765111247,332.80283408608875L195.8413103715046,293.9238426945292L196.3570765407235,319.0764309015595L198.6028084025308,325.91327228535926L198.935907386818,338.3625345599251L201.03120744926977,345.62578295569625L201.2998356624046,351.1116610399119L201.53622848996326,351.2709961057431L203.7282347091436,341.7277949422896L203.8786665084991,344.19580915644013L204.1902752357355,317.14566763315264L213.48481141020105,329.3683219910294L220.63032187958788,336.26798455535396L221.19981369143375,342.2763879119105L225.08955021762625,347.9491604048015L226.26076922689418,345.98567939947077L226.4112010262497,255.67721583825875L227.23857592270502,277.15579165915716L228.4742657031253,309.9371075561798L230.07528985340895,322.3114557058236L230.69850730788178,336.8667793520943L230.79521346461036,296.6839521222939L231.61184323254028,315.1920840928244L232.750826856232,308.74736115337134L232.83678788443513,327.316097830417L233.5996920097381,319.15821059153143L234.85687204720915,331.56589380604953L235.9206397712231,232.5387851808923L235.9313848997485,271.19238452824106L236.33969978371348,282.412376701772L238.49947061731766,229.69663009000544L238.5317060028938,216.24855924938865L239.0582173006381,268.93831670783766L239.31610038524752,303.89223800277523L241.73375430346113,231.55404663384917L242.42144252908633,282.2228332806668L243.11987588323692,305.7196192493655L243.36701383932098,324.78606231944025L244.30184002103022,233.1030785342942L245.07548927485857,274.40838660894497L246.49384624021053,305.1046339677148L249.9860130109635,316.6613301452345L254.2518290355448,324.85438901020075L254.7568500762383,256.6353865453197L255.16516496020327,229.1522848868578L255.4660285589143,263.1605805666111L256.69097321080915,301.8069985889302L260.64518050815406,324.88364341739924L263.8472288087214,320.7349633313927L263.9546800939753,332.37585052800796L264.4274657490927,286.1291062767456L264.7068390907529,315.5374426442668L265.43750783047966,319.4591729874098L266.24339246988416,320.20744748720494L266.95257095256017,289.052493819616L268.16677047592964,240.24002672177204L269.56363718423086,197.62608887273544L269.68183359801014,261.64236372534305L269.89673616851803,289.4008497332072L272.4433316290364,308.91195418916556L273.9583947511168,309.47320976572513L274.68906349084364,325.2767772863099L276.13965584177174,315.6073341497825L276.16114609882254,329.9431323368635L276.5694609827875,316.12520397758897L276.8165989388716,331.64530631699466L279.7822544118803,342.37892039928704L280.83527700736886,349.3428229101346L280.921238035572,337.4815002046298L282.7908903989905,346.0544499279866L283.14547964032846,350.949578141177L283.9406191512076,354.40201765641035L286.5731756399291,272.1138291541595L287.4220407934352,296.89212971106974L288.0560033764334,321.72734037540437L292.5797024856242,328.4022763028397L292.9557819840129,322.8926675965782L293.75092149489205,333.9468361995116L295.30896513107416,339.41428509263244L296.2652815698342,347.5621539969879L297.85556059159245,346.40100237727154L299.64999705533324,239.6133335674712L303.1636540831369,219.94620571659104L303.1743992116623,238.83536713127944L303.50749819594955,286.72728473990975L306.8707234243978,314.98129464713975L306.99966496670254,329.6934077317282L307.0426454808041,288.68937159626836L307.0533906093295,315.4784529081325L308.28908038974976,317.729468475445L310.7712050791157,299.07248892124045L311.8242276746043,264.3774934527439L312.006894859536,274.08251022300345L312.20030717299306,300.9987077706342L314.2096462072417,324.4534966751344L315.18745290305253,338.0617226439388L315.746199586373,340.12284101104194L320.79640999330803,346.9304604646674L320.9360966641382,331.83885703738446L321.92464848847436,342.95909566513154L322.2362572157108,316.46886299207057L326.5128183688175,280.31475070464916L326.7921917104777,311.4330750775429L327.5013701931537,323.55284087932193L328.9949430581834,328.60274179722245L329.66114102675783,319.3008680854755L331.89612776003975,310.86284376935345L332.06804981644603,288.9675289106111L332.8631893273252,303.14958513049936L333.40044575359485,312.1458130014798L335.7428837721307,329.08563865769815L337.6340263926,336.1551482159796L337.9133997342602,339.60271872499067L338.56885257430923,344.40855730051874L339.44995311339153,345.1632085540449L340.1913669816437,338.52302807019845L341.0939577777767,345.7400774175012L342.5123147431287,338.2107108789303L342.630511156908,343.6394252804283L344.15631940751393,322.90279961192203L345.166361488901,329.3885777361475L345.31679328825646,341.54184595607745L352.68795145667656,348.826571891268L353.08552121211613,352.1248890343961L355.8040387290407,354.9802274422262L357.00749312388484,356.24690828308854L357.78114237771314,355.88792039675013L358.3828695751352,356.8664870480998L358.47957573186375,351.63546939459167L359.113538314862,354.5117122284992L360.94021016417895,352.87100370091184L361.2947994055169,353.14544980043775L363.7446887093067,332.00411837939174L364.8944174615238,328.4158812602598L366.1301072419441,268.0713604448408L367.25834573711046,294.02783862698993L368.67670270246236,316.7719930661913L368.76266373066557,333.46215482052406L370.1810206960175,342.24805913998233L371.44894586201394,347.2899064449644L371.73906433219963,260.36218354384374L371.7605545892504,286.47183659263146L372.7276161565358,315.04566105248006L373.47977515331337,332.63083178500716L373.84510952317675,319.2466920486979L374.14597312188783,325.0208822093998L377.6381398926407,333.2713135007968L377.73484604936925,340.62079699032563L377.863787591674,348.00457248020945L378.0679450336565,352.696531237595L378.2506122185882,348.09621688261296L378.83084915895944,352.76208321455874L378.9597907012642,355.3732676040643L379.228418914399,353.9771696894457L379.6259886698386,352.57443198461294L380.7434820364795,353.70646055981484L380.947639478462,338.9118854955496L382.0758779736284,342.77886922504746L384.4505513777404,349.36502285512455L384.6761990767736,310.14786319530594L385.2671811456703,319.1100229071626L386.2020073273796,334.4766881571867L386.9971468382587,326.55434432157796L388.97425048693106,335.1517965631287L394.88407117589765,340.48775419590976L395.10971887493093,346.0321087195313L395.1956799031341,351.34137089548017L395.35685683101497,353.9200839341627L396.4958404547067,349.9806284504715L397.4629020219921,297.0724336160724L399.5904374700201,321.9563452494701L399.66565336969785,315.62355383797654L400.42855749500086,317.95779297616065L401.54605086164173,334.42215000613186L401.7287180465734,338.3179207353371L402.44864165777483,237.7940519166402L404.6943735195821,265.7452384762094L405.0059822468185,298.71304259039005L408.80975774480794,265.6271792474291L409.1321116005697,294.4599968836023L410.29258548131224,319.8328896727224L410.8513321646327,335.29163181017714L411.18443114891994,329.37625172592396L411.7969034748674,340.5011915917592L414.9667163898585,348.20880568413094L417.6852339067831,352.2700318489051L418.05056827664646,338.9348357597268L421.0054786211297,345.86247786739455L422.20893301597386,351.1454694048289L425.60439362999824,350.99903138787323L428.2584403757705,354.46965125575997L428.4303624321768,340.03551702335335L431.27782149140614,347.2116550089106L432.56723691445336,352.0466566736496L434.08230003653387,355.1322994628149L434.34018312114335,339.96373227543626L437.4670155220329,345.3106936153419L441.8295377033428,350.9833769008L442.13040130205377,354.41622036677757L442.67840285684883,352.6667543201876L443.720680323812,354.3708699529817L444.05377930809925,355.95326193586607L444.10750495072625,354.0962037140053L445.246488574418,356.3476886440584L448.2121440474266,357.551723435081L450.4041502666069,356.3341204173294L451.9836841598398,351.2922460105761L452.1556062162461,353.91998782136125L452.19858673034764,345.70960671349917L452.5531759716857,348.52021123177263L452.7680785421935,343.52270563404664L453.5524729245473,348.8435593220426L456.2065196703195,352.00637727162064L458.3985258894998,352.3960984693912L458.6886443596855,354.04333535683764L459.440803356463,356.13761956891346L461.568338804491,357.59152162027914L461.74026086089725,357.65887290225965L466.6615297255276,357.85717298608125L467.9616902771003,355.4954578031828L469.1436544148936,350.3755028721381L471.3571508911246,351.04187139136417L471.55056320458175,354.2186736939751L473.8070401949144,348.86384429177286L477.06281413810876,353.172857989606L480.25411731015066,354.47831503798875L482.8329481562451,356.1452031874212L483.2090276546339,357.5644231637631L483.7892645950052,358.44071154366975L484.13310870781777,355.8991512682278L484.9067579616461,356.7282969917357L485.19687643183175,357.6952446228008L485.2398569459333,356.65743587806236L485.91680004303316,357.69323096225423L487.93688420580713,358.50661227208354L488.79649448783863,358.9544907020416L490.1611258105637,358.1084491563337L490.2363417102414,358.3893837733828L490.70912736535877,357.98024351194886L491.27861917720463,358.1355057663736L494.29800029284024,355.9805979650258L496.62969318285064,356.49055402556763L496.7801249822062,357.7796780427413L498.37040400396444,358.4234395985569L499.87472199751954,358.8688316537275L502.0882184737507,358.5850859624793L502.1849246304792,358.87424603169706L502.75441644232507,359.1395767985209L504.2050087932532,359.39795710512465L505.8275232005877,359.4544320396478L509.85694639761033,359.43321939940904L510.4694187235578,358.24958050833976L511.31828387706383,358.7817594873384L511.70510850397807,357.10096461029224L512.9193080273475,357.7307671757897L513.0912300837539,358.2727482463993L513.9400952372599,357.8271241027541L514.8641762904438,358.41282226577016L522.837061656286,358.45672417477005L523.4817693678095,358.0792619777754L523.6966719383174,358.75841046343714L525.5018535305836,359.0459131951413L526.5333858690213,357.5577419163327L527.1028776808672,357.3230312299933L527.4359766651545,358.26713245712165L527.8228012920686,358.21893285820397L528.2418613045589,358.5081204286607L529.7246890410634,358.9293465265233L530.4231223952139,359.10689553108966L530.670260351298,357.92763743574756L531.8092439749897,358.53656771094353L532.937482470156,359.0213410400787L533.4317583823241,359.325318557549L536.6015712973152,359.49315113851185L540.061502682492,359.60962916682513L541.5443304189964,359.68129366505246L544.6604176913605,359.63113076736164L545.2406546317318,359.6906648392507L545.5092828448667,359.64187010279534L546.8631690390662,359.60285302021043L547.7335244496231,359.3591120692669L548.3889772896722,357.60462974379465L552.5473420289995,358.45106268988883L553.0845984552692,358.95187804466934L554.0838954081308,359.2623490939839L554.2558174645371,359.33734422809977L554.5781713202989,359.4996478019348L555.3625657026527,357.8400252948577L559.2415571003198,358.39697210801984L561.2831315201446,358.87392953438314L563.0023520842076,359.2351052801277L564.6678470056436,358.5320508561842L565.6671439585052,357.77759968134274L566.2581260274019,358.53717235765174L566.9028337389256,358.3130893187091L571.2868461772862,358.6224739774425L571.802612346505,359.04908460063814L571.8885733747081,358.5405626113989L573.4788523964664,359.021952261463L573.98387343716,359.2602012863299L574.693051919836,359.27811372325027L576.5197237691528,359.0694863277126L577.1107058380495,359.12682531333104L577.7661586780986,359.3715652172309L579.4531438565854,359.4072308116655L579.6465561700425,359.4767858114436L581.301305962953,359.59759731496086L582.5907213860003,359.66135742966514L583.7082147526412,359.5787312631383L584.0628039939793,359.5551398361804L584.7504922196044,359.62015998983605L585.7068086583645,359.6109148204372L585.8679855862455,359.5738905843745L589.7469769839125,359.64587584704753L592.3043175729562,359.6998982373984L592.379533472634,359.7356301568664L592.4225139867356,359.75287526983436L592.4654945008372,359.079291818762L593.9805576229177,358.8382297816902L594.453343278035,359.0970067418673L596.2370346132503,359.32993619169883L596.3982115411312,359.4274728950175L596.6238592401645,359.36563940629725L596.7850361680454,359.4959320754596L598.0529613340418,359.6130680331387L602.4154835153518,359.6704205309335L602.888269170469,359.67771207183335L604.1347040794146,359.5326901770235L605.5315707877159,359.62971848662664L606.0151015713586,359.4020408046496L608.2823236902167,359.5568155653377L609.4213073139084,358.9688101876665L609.4535426994846,359.29545158977254L609.7329160411449,359.4514850605926L610.0660150254321,359.5797508121966L611.9893930314776,359.11252204013215L612.0431186741044,359.35348658023975L612.1290797023076,359.48275488887816L613.8697905234213,359.48453258040195L614.4392823352673,359.60618194611794L616.5883080403461,359.56393477674237L617.9314491060202,359.62945622544197L620.220161481929,359.3310382119982L620.5747507232671,359.38379814156826L622.401422572584,359.4699352109894L622.5518543719395,359.59745996118454L623.4866805536489,359.3058943525543L625.4100585596942,358.83173919663676L625.7646478010323,358.8837486493962L627.6880258070777,359.0106658045139L630.9115643646958,359.3219799650258L630.9760351358482,359.48560700405795L632.8994131418937,359.59120829835376L635.8650686149024,359.4430410461501L641.613712375988,359.57855477401546L643.17175601217,359.58041640364036L644.4181909211158,359.6374509830894L645.3315268457742,359.62164864672656L646.169646870755,359.6882274320303L646.4597653409405,359.72530489141803L646.6424325258722,359.74379043287036L649.5113818421523,359.67027338952613L652.0257419170945,358.6818391667218L652.530762957788,359.05663440544794L653.8309235093606,359.2473510471476L656.0659102426425,359.46350155537755L656.3882640984043,359.0557907054478L657.1081877096058,359.1248752522689L660.8582375649681,358.92172446465753L661.8575345178297,359.22113907252196L661.9220052889821,359.40830583415004L662.1583981165408,359.23836038382814L663.1254596838262,359.4531745911477L665.0380925613463,359.5873422865121L671.9901907172759,359.6675239225919L672.8820363848837,359.7138288114798L673.6449405101866,359.1051725688047L674.6872179771498,359.2417442053837L675.3856513313003,359.07784686699637L676.4171836697382,359.34869184997547L677.9859724344457,359.2908976880047L682.9179864276014,359.4810673245245L683.7775967096328,359.5454180006043L686.9688998816748,359.5803483194851L687.301998865962,359.6067301128431L687.3879598941651,357.5879231240412L690.8156558937658,358.46815137494445L692.4274251725748,358.73061433194226L694.533470363552,359.04716099355534L696.0162981000562,359.25761126532035L696.7684570968339,359.4528308828696L696.7792022253592,359.4024281864605L697.6817930214924,359.43816844395053L699.3795233285045,359.57512464219883L701.4640782624309,359.5869101189075L702.7857290710543,359.56628315047425L703.9676932088477,359.39643844740135L705.3323245315726,359.4316682213805L708.4054312898353,358.5750679349689L708.5128825750892,359.06067197486675L710.2965739103046,359.00407906247074L712.467089872434,359.01974149932886L713.6597991387528,359.327538471777L714.240036079124,359.51183314261465L716.2923556274742,359.5973431148868L716.7973766681678,359.57017409236045L717.6892223357754,359.56467244513846L718.4951069751799,359.5845470869154L718.8282059594671,359.66631271380015L720.1176213825145,359.67276039453833L720.5689167805809,359.71371447716797L721.278095263257,359.67461356373116L723.4056307112847,359.7195845114313L724.9314389618908,359.72750452424816L727.6069759647139,359.74153014350384L731.3570258200763,359.6818020030609L732.8613438136313,359.70745074214716L734.5913095062197,359.7091940710441L734.8921731049307,359.6832349684816L735.3757038885734,359.6905779528114L739.8779127407134,359.7300355678352L740.2432471105768,359.6984331193376L740.6623071230671,359.6819166633097L748.7211535171124,359.55132653457736L748.9145658305695,358.7741040502179L749.9568432975327,359.1713431558756L750.5048448523278,359.293678883176L751.3966905199355,359.4891966743941L752.2348105449162,359.0958636430077L755.8774091150246,359.3390947255425L756.5113716980229,359.517473290337L758.47773021817,359.5959775915949L758.6281620175255,359.6490070490306L761.5293467193817,359.6232069847354L761.754994418415,359.49276200432934L763.7535883241383,359.5869304536131L764.3660606500857,359.64602487357024L765.2149258035918,359.6966076075145L766.4721058410629,359.7230098171712L772.3067106303516,359.74896345438964L772.3496911444532,359.7626827415243L772.6827901287404,359.7550658644632L773.6176163104496,359.6552316625032L774.4342460783796,359.67192483947605L777.2172343664565,359.7025888097094L778.0875897770135,359.69551067888017L781.5045406480887,359.72231800315404L782.7294852999835,359.6051579123546L784.0833714941832,359.5176330830573L784.3627448358433,359.5281710346474L785.609179744789,359.3745824963805L787.2639295376997,359.51181722589973L787.8656567351217,359.5960337394712L788.4136582899167,359.5590757763422L788.6500511174754,359.27066154283756L789.0046403588134,359.4582962850084L789.2732685719483,359.554137210588L790.9924891360113,359.60586610786805L791.8306091609919,359.6228441318381L792.0670019885506,359.6875855540835L792.0884922456014,358.9534155282572L793.1844953551915,359.28691438772086L793.2167307407678,359.46291918226814L794.8714805336784,359.58553682701273L796.6444267403683,359.6164905994465L798.2561960191774,359.26960667184284L799.717533498631,359.3196730119291L801.5442053479479,359.30129023366544L803.0377782129776,359.46454928701957L808.098733748438,359.59428792190346L808.1524593910651,359.6219588755409L808.6574804317586,359.6865855497313L809.3021881432821,359.65754309056206L809.5493260993663,359.0361302653527L810.4841522810755,359.3170104314449L812.3752949015447,358.51518011781144L812.4505108012225,358.99877382495055L819.6604920417617,359.31470297047787L820.0473166686759,359.3952711872925L822.615402386245,359.54811908608434L822.9485013705322,359.4786743913872L826.1505496710995,359.60182143355996L826.3439619845566,359.63317726442483L827.203572266588,359.69500467035147L827.8697702351625,359.4401418599887L828.6004389748892,358.6844228802296L831.0825636642553,359.06202027301623L831.1040539213061,359.2000942428734L832.4579401155056,359.4240332946602L832.9199806420975,359.53641626344705L834.1986509366194,359.6353327151528L836.4873633125283,359.50253263466254L837.0353648673233,359.6170437284931L838.58266337498,359.608114182456L839.0876844156735,359.6779729214468L839.4315285284862,359.65155296769296L840.3448644531445,359.3540300296138L841.5912993620902,359.5076771502448L841.666515261768,359.52695443484635L841.7847116755473,359.5860371592972L844.7288768915051,359.602334899923L846.0827630857048,359.6765526518728L847.5441005651584,359.5769864852777L848.2962595619359,359.54608939463196L849.5104590853055,359.525397558331L851.218934520843,359.16285382864515L852.282702244857,359.3778856508403L854.7970623197991,359.2289300698261L855.5814567021529,359.348073021455L856.1939290281003,359.524166937869L861.6739445760511,359.57378755951464L862.4046133157779,359.59067400253866L863.2319882122332,359.66309057314527L863.3824200115887,359.67344643142013L863.8014800240791,359.62682282851006L864.1453241368916,359.49365618090116L867.4118432086113,359.61027932752046L868.5830622178792,359.6440479269172L870.5064402239246,359.62114498908545L870.7535781800088,359.4204451383593L872.8166428568844,359.5500203002454L873.0852710700192,359.542599147581L874.5680988065236,359.6412343513738L874.8152367626076,359.63962001519803L875.1698260039456,359.68285523532984L875.2128065180472,359.7230833623984L875.9112398721977,359.74774297651834L876.6096732263484,359.6937294075765L878.6082671320715,359.5896934677383L879.0273271445619,359.6576860759344L879.1992492009682,359.69017238429984L880.7465477086249,359.71356386955927L881.0259210502851,359.72994383124336L881.4234908057248,359.7366988339403L883.7122031816335,359.72374664976905L884.1527534511747,359.7451098493694L885.0016186046809,359.67943745763284L885.5388750309504,359.61702480932934L885.743032472933,359.4376549898496L886.8390355825231,359.4966815559725L889.6757495132271,359.6033346337417L890.8899490365966,359.5973774819153L891.2660285349854,359.66514966881795L895.811217901227,359.6591964014537L897.1865943524773,359.70881891491047L904.2353986651356,359.6843821789085L904.6007330349989,359.70597207026344L905.256185875048,359.6661331374265L905.449598188505,359.67069177571864L906.2554828279095,359.14394971665223L907.8779972352442,359.38389877848317L908.4367439185645,359.54027980570817L909.9410619121197,359.62409642207626L912.5521281437904,359.53142263318693L915.2599005321895,359.63447325626L916.9898662247779,359.6192696249087L917.5056323939968,359.6799169834725L919.5901873279232,359.7235690200984L919.9340314407358,359.73863901286614L920.019992468939,359.7440555991806L922.0508217602383,359.6757028765479L922.2119986881193,359.71927303668014L922.9211771707952,359.6503369772596L924.2750633649948,359.6948394861898L925.1883992896534,359.7248983655706L925.7686362300245,359.75059810903025L926.6067562550054,359.74948676387186L928.7772722171349,359.717827640271L929.1211163299474,359.74384661138237L929.5186860853869,359.7382248731004L930.3782963674186,359.5521363652497L932.000810774753,359.64480570097027L934.0208949375269,359.67323760280317L934.3539939218141,359.6788083980208L934.7085831631521,359.7067126276437L935.8153314012677,359.52967600331976L935.933527815047,359.56006442463143L936.6104709121468,359.5934328358394L939.1463212441397,359.6433074424859L939.4579299713762,359.668430208347L944.1642962654986,359.7049187733569L946.2058706853234,359.6144119038247L946.2810865850012,359.56901969565115L947.6886984218278,359.6570123474913L947.8283850926579,359.7098052249863L948.3226610048259,359.7228614158831L948.6020343464862,359.6520790343404L949.1822712868575,359.5817982128949L950.1385877256175,359.65326127953574L954.275462207894,359.70752343714685L954.8879345338414,359.7108444415966L956.0269181575331,359.73348941812395L956.7253515116839,359.6815745270322L957.2088822953265,359.7244088530221L958.9603382449657,359.6801379320146L961.7970521756697,359.7127790677459L962.1301511599569,359.69410431215647L962.2698378307871,359.73078141604253L964.8164332913053,359.72843051664915L965.5363569025067,359.73460849567635L968.0399718489234,359.51748887162046L969.0285236732597,359.6243591035818L969.5550349710039,359.6887750734406L970.704763723221,359.71467898567L973.2513591837394,359.7444282872724L974.3581074218548,359.6907409202514L975.2714433465134,359.72676952003997L975.4433654029197,359.7396467642119L979.54800449962,359.7448954192911L979.7306716845518,359.76136250660096L980.9233809508704,359.76481163302253L981.127538392853,359.7692569712826L981.9978938034099,359.6594661943016L982.6640917719843,359.6770509055464L984.8346077341138,359.719866383521L985.715708273196,359.7447676133749L987.1233201100226,359.5838144240421L992.1735305169577,359.63036018979875L993.8282803098683,359.61280312726853L994.0431828803762,359.68088942425186L996.2566793566073,359.718877732086L998.1263317200259,359.65868724001007L999.7381009988349,359.7108622900901L999.9530035693427,359.66138695996574L999.9852389549188,359.7108935312819L1000.6514369234933,359.59268570451644L1000.8985748795774,359.6668369974257L1000.9308102651536,359.7156096013397L1003.8749754811114,359.62811063338995L1004.78831140577,359.67894910188056L1005.0676847474302,359.6815645098418L1006.4215709416297,359.72413494108844L1007.0985140387295,359.74037772743907L1011.6114680193949,359.58790264263985L1012.2454306023931,359.28729889689004L1012.2669208594439,359.4877011709054L1012.600019843731,359.60731041881485L1013.362923969034,359.6565912984737L1015.8772840439763,359.7090080670707L1016.9195615109393,359.7388209523548L1019.584353385237,359.75890989141067L1024.2047586511565,359.69410729976545L1025.9239792152193,359.6690720299245L1029.35167521482,359.60214596086246L1029.8244608699372,359.66379252323L1031.0279152647813,359.6527292892951L1031.4362301487463,359.689113340383L1033.692707139079,359.50104106644864L1034.842435891296,359.60547715186897L1036.3360087563258,359.6774868940226L1036.6261272265115,359.41258102618184L1037.9907585492365,359.4579260782964L1039.4628411572153,359.58250696233625L1040.0645683546375,359.6242695287377L1040.40841246745,359.503172875548L1041.1713165927529,359.3080914194989L1041.5688863481926,359.50030418500387L1045.2544654324026,359.5639355971157L1046.2107818711627,359.5763717708939L1046.4579198272465,359.64929088533313L1047.1026275387703,359.6577666074851L1049.9930671121012,359.7046204415731L1050.8526773941328,359.72679187667563L1051.7552681902657,359.7117730540565L1052.1850733312815,359.7205467376826L1052.5074271870433,359.669276546933L1053.205860541194,359.71705686913396L1053.5497046540065,359.74397522203424L1057.6973242648085,359.72533712688175L1059.1801520013128,359.7501153342405L1059.9323109980905,359.7648779638821L1060.6844699948679,359.76345567846323L1061.9738854179152,359.6379976171435L1062.4466710730326,359.69349211666736L1063.908008552486,359.7267124405342L1064.5204808784335,359.75111665554704L1065.4767973171936,359.10140952411405L1066.0570342575647,359.33302006452436L1066.9166445395963,359.36489867792295L1068.0986086773896,359.53320464385814L1068.2060599626436,359.61954775426767L1069.7426133417748,359.67728263715964L1070.5270077241285,359.59252266744534L1072.5900724010041,359.6385864651988L1073.3422313977817,359.6951649428629L1073.868742695526,359.7263420889877L1074.0621550089832,359.6844993961465L1074.7498432346083,359.67336024350027L1076.350867384892,359.6836352412686L1078.886717716885,359.72036203827025L1079.5851510710354,359.72471580018805L1081.8953537039952,359.7195946820708L1084.431204035988,359.7473723723703L1084.6568517350213,359.7418742982826L1085.5701876596797,359.75933981173614L1085.5916779167305,359.5280511515921L1088.492862618587,359.4754125974921L1092.7909140287443,359.5965509786508L1093.2099740412348,359.65126110487455L1094.99366537645,359.6337888085259L1095.8210402729053,359.65576501462436L1096.0681782289896,359.69950573905976L1097.8088890501033,359.60275862068823L1098.9586178023205,359.66842768519126L1099.3024619151329,359.6737478206805L1099.5925803853186,359.70441893043136L1099.689286542047,359.72748027555383L1100.4521906673501,359.6891420954152L1101.2580753067546,359.7091076628421L1102.1499209743622,359.7396462875426L1102.9987861278685,359.71130539374036L1104.084044108933,359.6810345402587L1104.298946679441,359.7020662210923L1105.1155764473708,359.67777575774903L1105.7280487733183,359.71051270020496L1105.8462451870978,359.7328219748435L1107.9093098639732,359.6859351963103L1110.4021796818647,359.7128022842694L1110.6170822523725,359.6787296917679L1114.4530931359382,359.5507470458604L1114.5283090356158,359.64086181284233L1116.333490627882,359.67984404550475L1116.6988249977453,359.6764368347179L1117.0426691105579,359.7196564602147L1117.6229060509293,359.5354769407948L1118.5899676182146,359.6344510026934L1120.6852676806664,359.62374199858795L1121.0183666649536,359.68854021576885L1121.6093487338503,359.60212649812644L1121.9854282322392,359.6375832651455L1122.092879517493,359.63406382171735L1124.1881795799447,359.4955791278438L1125.3808888462636,359.61094633410676L1126.9389324824456,359.0462005826722L1127.5299145513422,359.33959616379605L1129.8078817987257,359.48342181114566L1132.1503198172616,359.5679442551016L1135.685467102116,359.56339856247837L1136.308684556589,359.61574956286256L1140.2843821109846,359.67896068156756L1141.4018754776255,359.7173550187741L1141.552307276981,359.6758192037568L1141.7564647189636,359.7191265935723L1142.1970149885046,359.74664866565496L1142.34744678786,359.76280247310217L1142.508623715741,359.75852461399575L1142.6483103865712,359.770716642957L1143.0673703990615,359.71221139523124L1143.4971755400773,359.6632994052406L1143.5938816968057,359.6957503778389L1144.2063540227532,359.7147280429834L1144.4642371073628,359.7304009748474L1146.2909089566797,359.7539319685149L1146.3123992137305,359.74188677876407L1148.1283259345219,359.7311821465906L1150.0194685549911,359.74565517340216L1151.0080203793275,359.6347524275082L1151.7816696331558,359.69285794232945L1151.9321014325114,359.73110507352857L1154.0059112379122,359.7163889160835L1156.4665456702276,359.6440617713131L1157.079017996175,359.63847189679825L1158.4006688047984,359.6147425967608L1160.2918114252675,359.67350925453064L1161.366324277807,359.71237160816196L1162.4730725159225,359.74210795039363L1166.061945443404,359.75296549950355L1173.1644753986893,359.7674724196629L1173.594280539705,359.77085751825746L1173.948869781043,359.77170865170694L1175.9259734297154,359.77860745348033L1180.524888438584,359.76287093387526L1181.996971046563,359.7476223289455L1184.9411362625208,359.7596553101057L1187.4984768515646,359.71341805762523L1189.0457753592211,359.7372866318251L1189.0565204877464,359.7218719233852L1189.6797379422194,359.72759924780473L1191.7857831331967,359.6756167367297L1191.828763647298,359.7134160731947L1192.6776288008043,359.74370802125304L1195.2779499039495,359.7278930050005L1197.8675258785695,359.7512870551367L1199.2429023298198,359.7547246795936L1199.597491571158,359.7524541083488L1200.47859211024,359.51006482479755L1201.6820465050841,359.60401396451556L1202.3267542166077,359.67646042348207L1203.4872280973502,359.67750472999217L1203.8740527242644,359.72075229900287L1204.078210166247,359.7480432578426L1205.1097425046846,359.7539509808306L1205.4750768745482,359.74353617274255L1205.582528159802,359.76003909317853L1207.462925651746,359.76905657935214L1210.0202662407899,359.7584806158931L1210.460816510331,359.7435305192716L1211.4063878205654,359.4591555678585L1213.791806353203,359.35106510400556L1214.178630980117,359.49881685733186L1215.435811017588,359.52356390669655L1217.4666403088877,359.091626384361L1217.7675039075984,359.3551205384427L1222.31269327384,359.3419452219099L1223.7310502391922,359.46631387222453L1225.8156051731185,359.5954399923156L1226.2346651856087,359.6323886368174L1228.3729457621623,359.6315840821426L1232.8858997428276,359.68423113267795L1234.400962864908,359.67674725827186L1235.7548490591078,359.6015711941947L1237.3881085949674,359.6309584577948L1239.9561943125366,359.6884196528437L1243.3086744124596,359.62240229502464L1243.3731451836118,359.68629061189625L1245.1031108762002,359.72040363127473L1245.1890719044034,359.74767434649505L1247.7249222363962,359.49873047316703L1248.9821022738672,359.6080533879654L1251.947757746876,359.665554234333L1252.517249558722,359.7142075309972L1256.3532604422874,359.7301074465048L1256.4822019845922,359.74070787840054L1259.0825230877374,359.75397990851087L1259.1362487303643,359.75744560340564L1259.211464630042,359.76832317832276L1260.3504482537337,359.73425886254677L1262.080413946322,359.7426852325189L1263.0474755136077,359.74607590566575L1265.046069419331,359.7594382551391L1265.8197186731593,359.689866079851L1266.5288971558352,359.6946930321513L1268.3663141336774,359.7270358890104L1268.892825431422,359.6595557651576L1269.3011403153869,359.5706207510196L1269.6664746852503,359.6529360739289L1270.074789569215,359.7028791046085L1270.4938495817055,359.6846006048529L1271.1707926788054,359.7079803403737L1271.7402844906512,359.503517271587L1272.1593445031415,359.61673213789277L1272.578404515632,359.63718911748657L1272.7288363149873,359.59554392885576L1272.911503499919,359.6470115748044L1274.0719773806616,359.7017081059109L1274.2868799511696,359.7294818170605L1274.6522143210327,359.7296135685486L1275.2754317755057,359.5744788851361L1279.2296390728507,359.6454447963133L1279.7776406276457,359.6988755567125L1281.2712134926755,359.7348243917502L1282.2597653170117,359.73809660207104L1282.517648401621,359.723121936638L1284.8815766772077,359.74594409955705L1285.1931854044442,359.76316987309406L1290.1466896546506,359.7692549950352L1291.3823794350708,359.77341907376484" fill="none"></path></g></g></g></g><g opacity="0.2"><g><g><g><path style="fill: none;" stroke="rgb(255, 112, 67)" stroke-width="2px" d="M15.677740386228315,359.3980870034084L17.02088145190253,154.622655382285L17.687079420476937,190.49435026415168L17.740805063103906,184.6115809945373L18.15986507559426,282.6183866176482L20.319635909198396,296.2004824771294L20.98583387777281,247.59312427803297L21.447874404364736,341.10704785880785L21.523090304042494,355.8083517005491L22.038856473261394,329.5594275518063L22.178543144091506,353.4949597172067L22.898466755292887,323.6595373646137L23.908508836679896,326.24577589606156L26.122005312910996,343.5368892103175L29.54970131251159,338.08523100322367L29.592681826613166,319.2425987697456L30.108447995832062,333.2848393069676L30.18366389550982,284.80542787849294L30.656449550627144,353.6360853876326L33.39645732460254,322.1973780188357L33.85849785119447,353.8743530840552L33.89073323677065,270.6987765515322L35.39505123032577,308.0930642958665L35.82485637134152,357.8238170411202L37.10352666586337,351.39280957309626L38.85498261550254,355.0252639241302L40.015456496245065,322.31407178373934L40.89655703532735,357.856301938614L41.92808937376514,350.78136718179354L41.93883450229054,353.54201833866557L42.06777604459526,336.07520946550636L44.07711507884389,323.23827865756675L47.87014544830786,321.5707662985633L49.93321012518346,351.5597773600412L50.10513218158976,323.6428466808989L50.73909476458798,329.3940265331808L54.10231999303622,355.4196407828212L54.123810250087,313.16241430168685L54.66106667635669,349.97189232596173L55.42397080165964,358.80515710468285L56.20836518401338,356.7409573966933L56.28358108369114,336.1552664267469L57.734173434619294,256.98763443488934L61.613164832286415,350.54515922999235L62.50501049989409,347.86690502854043L63.49356232423031,356.83410362568304L63.676229509162006,356.5647900744079L65.47066597290275,319.2919322527576L66.67412036774685,337.0593885497143L68.64047888789389,344.05458842314493L70.39193483753307,259.2324130802126L72.65915695639114,359.77463024363976L72.80958875574666,359.16482887988036L76.72081553898997,357.1554751756654L77.63415146364844,343.22846889471987L78.23587866107047,331.6152976782414L78.69791918766241,310.05241145503066L79.58976485527009,356.1509950285717L81.84624184560278,359.7528965687458L82.05039928758525,353.8738075236144L82.8025582843628,347.1340315194596L85.86491991410001,310.43097901188L87.20806097977422,359.5871549553143L87.33700252207895,321.3870922916807L88.87355590121025,332.1060439346161L90.07701029605434,104.6035134424475L92.10783958735375,340.48368081892244L94.54698376261813,345.77714322950993L95.38510378759884,359.7862338262338L95.41733917317502,337.4476626605614L95.93310534239392,358.7646119699595L99.0169572291819,312.08049564444957L99.39303672757067,353.9964654054505L101.0907670345829,359.5320048561202L101.89665167398742,358.82684305751L103.1215963258823,359.7755776999762L103.56214659542344,320.4145940568662L105.08795484602936,335.76588565879547L105.23838664538485,345.94218213463364L106.5385471969575,355.71283171597236L106.64599848221143,315.4321369503393L107.64529543507304,175.1709497675163L110.62169603660712,358.0281430203835L111.23416836255454,345.3756322567966L111.85738581702739,358.4707594028565L114.72633513330751,292.4099261444733L116.9613218665894,338.4260694404343L117.88540291977327,330.1271641580501L118.02508959060337,323.2909823058427L119.43270142742996,314.54019522608456L120.99074506361202,359.3775643999603L121.67843328923723,336.20081624194836L125.64338571510751,332.71082606669336L125.71860161478526,331.42545220560606L126.96503652373093,345.6839641354334L127.82464680576243,359.3396777893318L128.28668733235438,350.8252056222937L129.20002325701282,337.03337613229087L131.05893049190593,304.2117907629082L132.36983617200397,359.32529725979174L132.40207155758014,335.57241188057816L133.05752439762918,342.61482992052527L133.14348542583232,355.395280582943L133.63776133800042,320.76724958419356L134.5188618770827,320.0100762274848L137.92506761963253,355.2205231728809L138.4945594314784,349.69934275873146L139.139267143002,184.506623053354L139.5046015128654,313.27047470706344L140.78327180738725,358.4649037407105L141.57841131826638,217.58635830157522L143.83488830859906,239.29415207038116L143.88861395122603,349.3027209158389L145.93018837105083,344.9555734241912L147.28407456525045,248.71991632723092L151.37796853342545,204.27163366673972L153.59146500965656,9.434578186591295L154.25766297823097,334.5917487631101L155.27845018814335,328.66604454410884L155.56856865832899,312.76697679701294L159.23265748548823,248.0495928464292L160.77995599314494,334.69446948820325L161.32795754794,332.0531299497847L161.5750955040241,328.2013369972271L163.61666992384886,358.06212850786295L166.51785462570518,355.41780063673434L168.0329177477857,345.84045333761463L168.8173121301394,342.48833160391064L169.29009778525676,359.7860667919977L170.46131679452466,340.80642075160944L172.5136363428749,332.3996020604187L172.83599019863667,303.8417370561794L173.04014764061915,354.9578432899882L174.02869946495537,283.64116245978624L174.3510533207172,359.5687770788796L175.0387415463424,341.49732853259036L175.24289898832487,355.0964407389191L181.4858186615786,325.1377109708655L181.851153031442,349.2071372925032L184.35476797785873,349.02339277507076L184.6126510624682,286.92951636435856L188.39493630340678,353.70934345873604L189.82403839728414,356.9032909076269L190.59768765111247,316.9189439161182L195.8413103715046,235.6053556071898L196.3570765407235,356.80531321210503L198.6028084025308,336.16853436105885L198.935907386818,357.0364279717738L201.03120744926977,356.520655549353L201.2998356624046,359.34047816623524L201.53622848996326,351.50999870448993L203.7282347091436,327.41299319710936L203.8786665084991,347.89783047766593L204.1902752357355,276.5704553482214L213.48481141020105,347.7023035278446L220.63032187958788,346.6174784018407L221.19981369143375,351.2889929467453L225.08955021762625,356.458319144138L226.26076922689418,343.04045789147466L226.4112010262497,120.21452049644073L227.23857592270502,309.37365539050484L228.4742657031253,359.10908140171375L230.07528985340895,340.87297793028927L230.69850730788178,358.6997648215002L230.79521346461036,236.40971127759326L231.61184323254028,342.95428204862026L232.750826856232,299.08027674419174L232.83678788443513,355.1692028459855L233.5996920097381,306.92137973320297L234.85687204720915,350.17741862782674L235.9206397712231,83.99812224315656L235.9313848997485,329.17278354926424L236.33969978371348,299.24236496206845L238.49947061731766,150.62301017235546L238.5317060028938,196.0764529884635L239.0582173006381,347.9729528955112L239.31610038524752,356.3231199451816L241.73375430346113,123.04675958046013L242.42144252908633,358.2260132508932L243.11987588323692,340.96479820241365L243.36701383932098,353.3857269245522L244.30184002103022,95.5786028565752L245.07548927485857,336.36634872092105L246.49384624021053,351.14900500586947L249.9860130109635,333.9963744115142L254.2518290355448,337.1439773076501L254.7568500762383,154.30688284799814L255.16516496020327,187.92763239916496L255.4660285589143,314.173024086241L256.69097321080915,359.77662562240886L260.64518050815406,359.49861066010277L263.8472288087214,314.5119432023829L263.9546800939753,349.837181322931L264.4274657490927,216.75898989985203L264.7068390907529,359.6499471955484L265.43750783047966,325.34176850212435L266.24339246988416,321.3298592368976L266.95257095256017,242.32006331823274L268.16677047592964,167.021326075006L269.56363718423086,133.70518209918063L269.68183359801014,357.6667760042544L269.89673616851803,331.03857874500346L272.4433316290364,338.1786108731032L273.9583947511168,310.3150931305645L274.68906349084364,348.9821285671871L276.13965584177174,301.1031694449914L276.16114609882254,351.446829617485L276.5694609827875,295.3983114386772L276.8165989388716,354.9254598261031L279.7822544118803,358.47934152272563L280.83527700736886,359.7886766764059L280.921238035572,319.6895161463727L282.7908903989905,358.9138745130217L283.14547964032846,358.29227046096264L283.9406191512076,359.58067692926045L286.5731756399291,148.6815464007832L287.4220407934352,334.05958054643514L288.0560033764334,358.9801563719063L292.5797024856242,338.4146801939928L292.9557819840129,314.6282545371857L293.75092149489205,350.5280891039119L295.30896513107416,347.6154584323137L296.2652815698342,359.7839573535211L297.85556059159245,344.659274947697L299.64999705533324,79.43183035277072L303.1636540831369,190.44551394027079L303.1743992116623,267.16910925331206L303.50749819594955,358.5651611528551L306.8707234243978,357.3623095079848L306.99966496670254,351.7615773586109L307.0426454808041,227.1833173930786L307.0533906093295,355.6620748759287L308.28908038974976,321.1059918264138L310.7712050791157,271.08701958993356L311.8242276746043,212.33500024999918L312.006894859536,288.64003537839284L312.20030717299306,341.37300409208035L314.2096462072417,359.6356800318845L315.18745290305253,358.47406159714546L315.746199586373,343.21451856169665L320.79640999330803,357.14188964510555L320.9360966641382,309.2014518964602L321.92464848847436,359.6394536067521L322.2362572157108,276.73351398247905L326.5128183688175,226.0835822735171L326.7921917104777,358.1105616368836L327.5013701931537,341.7324895819905L328.9949430581834,336.1775931740732L329.66114102675783,305.3480575178551L331.89612776003975,298.2058072951704L332.06804981644603,256.12455662249755L332.8631893273252,324.4226694603317L333.40044575359485,325.64015480795047L335.7428837721307,354.4953771420257L337.6340263926,346.75941255340166L337.9133997342602,344.77407448850727L338.56885257430923,351.61731516381093L339.44995311339153,346.2951854343341L340.1913669816437,328.56275734442875L341.0939577777767,356.56565143845535L342.5123147431287,326.91666107107386L342.630511156908,351.7824968826754L344.15631940751393,291.7978611091626L345.166361488901,339.11724492248584L345.31679328825646,359.7717482859723L352.68795145667656,359.7536607940538L353.08552121211613,357.0723647490883L355.8040387290407,359.2632350539713L357.00749312388484,358.14692954438203L357.78114237771314,355.3494385672425L358.3828695751352,358.33433702512434L358.47957573186375,343.78894291432937L359.113538314862,358.8260764793606L360.94021016417895,350.40994090953086L361.2947994055169,353.5571189497266L363.7446887093067,300.29212124782276L364.8944174615238,323.033525581562L366.1301072419441,177.55457922171232L367.25834573711046,332.96255590021354L368.67670270246236,350.88822472499345L368.76266373066557,358.4973974520231L370.1810206960175,355.4269156191697L371.44894586201394,354.8526774024376L371.73906433219963,129.97059919216284L371.7605545892504,325.636316165813L372.7276161565358,357.9063977422529L373.47977515331337,359.0085878837979L373.84510952317675,299.17048244423404L374.14597312188783,333.6821674504527L377.6381398926407,345.64696043789223L377.73484604936925,351.6450222246188L377.863787591674,359.0802357150352L378.0679450336565,359.73446937367345L378.2506122185882,341.1957453501398L378.83084915895944,359.76088271247744L378.9597907012642,359.2900441883226L379.228418914399,351.8830228175178L379.6259886698386,350.47032542736383L380.7434820364795,355.4045034226177L380.947639478462,316.7200228991517L382.0758779736284,348.5793448192943L384.4505513777404,359.24425330024013L384.6761990767736,251.32212370557815L385.2671811456703,332.55326247494753L386.2020073273796,357.5266860322228L386.9971468382587,314.67082856816484L388.97425048693106,348.0479749254549L394.88407117589765,348.49169064508123L395.10971887493093,354.3486405049637L395.1956799031341,359.3052641594034L395.35685683101497,357.7881534921864L396.4958404547067,344.07144522493473L397.4629020219921,217.71014136447369L399.5904374700201,359.2822126995666L399.66565336969785,306.1243667207362L400.42855749500086,321.45915168343674L401.54605086164173,359.1186855510887L401.7287180465734,344.161576829145L402.44864165777483,87.00824868859479L404.6943735195821,307.6720183155632L405.0059822468185,348.1647487616609L408.80975774480794,215.9983842329879L409.1321116005697,337.709223337862L410.29258548131224,357.8922288564025L410.8513321646327,358.47974501635935L411.18443114891994,320.5031815995441L411.7969034748674,357.188601390512L414.9667163898585,359.7702268226885L417.6852339067831,358.3618710960663L418.05056827664646,318.93204162595936L421.0054786211297,356.2539410288962L422.20893301597386,359.0699567109803L425.60439362999824,350.7793743624398L428.2584403757705,359.6755810575901L428.4303624321768,318.3843156747435L431.27782149140614,357.97586198724633L432.56723691445336,359.299159170758L434.08230003653387,359.76076364656285L434.34018312114335,317.21088149436844L437.4670155220329,353.3311356252003L441.8295377033428,359.4924018289871L442.13040130205377,359.56548556574387L442.67840285684883,350.0425552503026L443.720680323812,356.927043402173L444.05377930809925,358.32684991019255L444.10750495072625,351.31061638121423L445.246488574418,359.72491603913795L448.2121440474266,359.3577756216149L450.4041502666069,354.507715890702L451.9836841598398,343.72943440044617L452.1556062162461,357.86160053753895L452.19858673034764,333.39403505170617L452.5531759716857,352.73611800918286L452.7680785421935,336.0264472374576L453.5524729245473,356.8248398540365L456.2065196703195,356.7506041959877L458.3985258894998,352.98068026604693L458.6886443596855,356.51419068800726L459.440803356463,359.2790458870272L461.568338804491,359.7723746973276L461.74026086089725,357.7598998252304L466.6615297255276,358.15462311181363L467.9616902771003,351.952885028835L469.1436544148936,342.6955704755711L471.3571508911246,352.04142417020336L471.55056320458175,358.9838771478916L473.8070401949144,340.83160018846945L477.06281413810876,359.6363785363556L480.25411731015066,356.4365006105629L482.8329481562451,358.64553541156994L483.2090276546339,359.6932531282758L483.7892645950052,359.75514411352975L484.13310870781777,352.0868108550649L484.9067579616461,357.9720155769975L485.19687643183175,359.1456660693983L485.2398569459333,355.1007227609548L485.91680004303316,359.24692358854213L487.93688420580713,359.7266842368275L488.79649448783863,359.6263083469786L490.1611258105637,356.8393868377718L490.2363417102414,358.81078569895647L490.70912736535877,357.36653311979796L491.27861917720463,358.3683991480108L494.29800029284024,352.7482362630041L496.62969318285064,357.2554881163803L496.7801249822062,359.71336406850185L498.37040400396444,359.38908193228036L499.87472199751954,359.53691973648336L502.0882184737507,358.159467425607L502.1849246304792,359.3079861355237L502.75441644232507,359.53757294875675L504.2050087932532,359.7855275650303L505.8275232005877,359.5391444414325L509.85694639761033,359.4014004390509L510.4694187235578,356.47412217173587L511.31828387706383,359.58002795583633L511.70510850397807,354.57977229472294L512.9193080273475,358.67547102403597L513.0912300837539,359.08571985231373L513.9400952372599,357.1586878872862L514.8641762904438,359.29136951029426L522.837061656286,358.52257703826984L523.4817693678095,357.5130686822835L523.6966719383174,359.77713319192964L525.5018535305836,359.47716729269746L526.5333858690213,355.3254849981199L527.1028776808672,356.9709652004842L527.4359766651545,359.68328429781417L527.8228012920686,358.1466334598274L528.2418613045589,358.9419017843457L529.7246890410634,359.56118567331725L530.4231223952139,359.3732190379392L530.670260351298,356.1587502927344L531.8092439749897,359.4499631237376L532.937482470156,359.74850103378145L533.4317583823241,359.7812848337544L536.6015712973152,359.7449000099562L540.061502682492,359.784346209295L541.5443304189964,359.78879041239355L544.6604176913605,359.55588642082535L545.2406546317318,359.77996594708424L545.5092828448667,359.56867799811226L546.8631690390662,359.5443273963332L547.7335244496231,358.9935006428517L548.3889772896722,354.97290625558617L552.5473420289995,359.7207121090301L553.0845984552692,359.7031010768401L554.0838954081308,359.7280556679557L554.2558174645371,359.4498369292736L554.5781713202989,359.7431031626875L555.3625657026527,355.3505915342419L559.2415571003198,359.2323923277631L561.2831315201446,359.5893656739281L563.0023520842076,359.77686889874445L564.6678470056436,357.477469220269L565.6671439585052,356.64592291908053L566.2581260274019,359.67653137211533L566.9028337389256,357.97696476029506L571.2868461772862,359.0865509655427L571.802612346505,359.6890005354315L571.8885733747081,357.77777962754004L573.4788523964664,359.74403673655917L573.98387343716,359.6175748236302L574.693051919836,359.3049823786308L576.5197237691528,358.7565452344061L577.1107058380495,359.2128337917587L577.7661586780986,359.7386750730807L579.4531438565854,359.4607292033174L579.6465561700425,359.58111831111074L581.301305962953,359.7788145702369L582.5907213860003,359.7569976017215L583.7082147526412,359.4547920133481L584.0628039939793,359.5197526957436L584.7504922196044,359.71769022031947L585.7068086583645,359.5970470663389L585.8679855862455,359.51835423028047L589.7469769839125,359.753853741057L592.3043175729562,359.78093182292474L592.379533472634,359.7892280360685L592.4225139867356,359.77874293928636L592.4654945008372,358.06891664215334L593.9805576229177,358.4766367260825L594.453343278035,359.485172182133L596.2370346132503,359.67933036644615L596.3982115411312,359.5737779499955L596.6238592401645,359.27288917321687L596.7850361680454,359.69137107920324L598.0529613340418,359.78877196965726L602.4154835153518,359.7564492776257L602.888269170469,359.68864938318313L604.1347040794146,359.3151573348087L605.5315707877159,359.77526095103144L606.0151015713586,359.06052428168385L608.2823236902167,359.7889777063698L609.4213073139084,358.0868021211598L609.4535426994846,359.7854136929315L609.7329160411449,359.6855352668227L610.0660150254321,359.77214943960263L611.9893930314776,358.4116788820354L612.0431186741044,359.7149333904012L612.1290797023076,359.67665735183584L613.8697905234213,359.4871991176877L614.4392823352673,359.78865599469185L616.5883080403461,359.50056402267904L617.9314491060202,359.7277383984914L620.220161481929,358.8834111918326L620.5747507232671,359.4629380359234L622.401422572584,359.59914081512113L622.5518543719395,359.7887470864771L623.4866805536489,358.868545939609L625.4100585596942,358.1205064627605L625.7646478010323,358.96176282853537L627.6880258070777,359.20104153719046L630.9115643646958,359.7889512057935L630.9760351358482,359.73104756260625L632.8994131418937,359.74961023979745L635.8650686149024,359.2207901678446L641.613712375988,359.7818253658136L643.17175601217,359.5832088480777L644.4181909211158,359.72300285226294L645.3315268457742,359.59794514218225L646.169646870755,359.788095609986L646.4597653409405,359.7809210804996L646.6424325258722,359.77151874504887L649.5113818421523,359.5599978245098L652.0257419170945,357.1991878325152L652.530762957788,359.6188272635371L653.8309235093606,359.5334260096971L656.0659102426425,359.78772731772244L656.3882640984043,358.4442244305531L657.1081877096058,359.2285020725007L660.8582375649681,358.6169982832404L661.8575345178297,359.6702609843187L661.9220052889821,359.68905597659216L662.1583981165408,358.98344220834525L663.1254596838262,359.775395902127L665.0380925613463,359.78859382955886L671.9901907172759,359.7877963767115L672.8820363848837,359.7832861448117L673.6449405101866,358.19218820479193L674.6872179771498,359.4466016602523L675.3856513313003,358.83200085941536L676.4171836697382,359.7549593244441L677.9859724344457,359.2042064450486L682.9179864276014,359.7663217793041L683.7775967096328,359.64194401472395L686.9688998816748,359.63274379780637L687.301998865962,359.64630280288L687.3879598941651,354.5597126408383L690.8156558937658,359.78849375129937L692.4274251725748,359.12430876743906L694.533470363552,359.52198098597484L696.0162981000562,359.5732866729679L696.7684570968339,359.74566030919345L696.7792022253592,359.32682414184677L697.6817930214924,359.4917788301856L699.3795233285045,359.78055893957134L701.4640782624309,359.6045883339705L702.7857290710543,359.53534269782426L703.9676932088477,359.141671392792L705.3323245315726,359.4845128823493L708.4054312898353,357.29016750535146L708.5128825750892,359.7890780347135L710.2965739103046,358.9191896938768L712.467089872434,359.04323515461596L713.6597991387528,359.78923393044926L714.240036079124,359.7882751488711L716.2923556274742,359.72560807329506L716.7973766681678,359.5294205585709L717.6892223357754,359.5564199743054L718.4951069751799,359.6143590495808L718.8282059594671,359.7889611541273L720.1176213825145,359.68243191564557L720.5689167805809,359.77514560111246L721.278095263257,359.6159621935759L723.4056307112847,359.7870409329815L724.9314389618908,359.73938454347353L727.6069759647139,359.76256857238735L731.3570258200763,359.59220979239655L732.8613438136313,359.74592385077653L734.5913095062197,359.7118090643895L734.8921731049307,359.6442963146378L735.3757038885734,359.7015924293062L739.8779127407134,359.78922199037083L740.2432471105768,359.6510294465912L740.6623071230671,359.6571419792679L748.7211535171124,359.35544134147875L748.9145658305695,357.60827032367865L749.9568432975327,359.76720181436224L750.5048448523278,359.4771824741268L751.3966905199355,359.78247336122126L752.2348105449162,358.50586409592813L755.8774091150246,359.70394134934463L756.5113716980229,359.78504113752876L758.47773021817,359.71373404348174L758.6281620175255,359.72855123518417L761.5293467193817,359.5845068882926L761.754994418415,359.29709453372027L763.7535883241383,359.7281831275387L764.3660606500857,359.7346665035058L765.2149258035918,359.7724817084311L766.4721058410629,359.7626131316563L772.3067106303516,359.7878939102172L772.3496911444532,359.7832616722263L772.6827901287404,359.7436405488716L773.6176163104496,359.50548035956314L774.4342460783796,359.69696460493543L777.2172343664565,359.74858476505943L778.0875897770135,359.6848934826363L781.5045406480887,359.76252898956477L782.7294852999835,359.4294177761555L784.0833714941832,359.3863458391114L784.3627448358433,359.5439779620325L785.609179744789,359.14419968898034L787.2639295376997,359.71766932017835L787.8656567351217,359.7223585098284L788.4136582899167,359.5036388316487L788.6500511174754,358.83804019258054L789.0046403588134,359.7397483982647L789.2732685719483,359.6978985989574L790.9924891360113,359.68345945378815L791.8306091609919,359.6483111677932L792.0670019885506,359.78469768745157L792.0884922456014,357.8521604895178L793.1844953551915,359.78716267691635L793.2167307407678,359.7269263740891L794.8714805336784,359.7694632941297L796.6444267403683,359.6629212580972L798.2561960191774,358.7492807804373L799.717533498631,359.39477252205864L801.5442053479479,359.2737160662699L803.0377782129776,359.7094378670507L808.098733748438,359.78889587422935L808.1524593910651,359.663465305997L808.6574804317586,359.7835255610169L809.3021881432821,359.6139794018083L809.5493260993663,358.1040110275386L810.4841522810755,359.73833068058315L812.3752949015447,357.3124346473612L812.4505108012225,359.7241643856593L819.6604920417617,359.78859668876885L820.0473166686759,359.51612351251435L822.615402386245,359.7773909342721L822.9485013705322,359.3745073493415L826.1505496710995,359.78654199681904L826.3439619845566,359.68021101072213L827.203572266588,359.78774577924145L827.8697702351625,359.0578476444447L828.6004389748892,357.55084441059086L831.0825636642553,359.6284163621962L831.1040539213061,359.4072051976591L832.4579401155056,359.7599418723404L832.9199806420975,359.70499071662726L834.1986509366194,359.78370739271156L836.4873633125283,359.3033325139271L837.0353648673233,359.788810369239L838.58266337498,359.59471986340037L839.0876844156735,359.78276102993283L839.4315285284862,359.61192303706235L840.3448644531445,358.90774562249504L841.5912993620902,359.73814783119116L841.666515261768,359.5558703617488L841.7847116755473,359.6746612459734L844.7288768915051,359.6267815108617L846.0827630857048,359.78787927979744L847.5441005651584,359.4276372353851L848.2962595619359,359.4997437586634L849.5104590853055,359.49435980387955L851.218934520843,358.6190382341164L852.282702244857,359.700433384133L854.7970623197991,359.0054966983048L855.5814567021529,359.52678744889835L856.1939290281003,359.78830781249L861.6739445760511,359.64821849198313L862.4046133157779,359.6160036670746L863.2319882122332,359.7717154290551L863.3824200115887,359.6889802188324L863.8014800240791,359.556887424145L864.1453241368916,359.2939062094877L867.4118432086113,359.7852140474495L868.5830622178792,359.69470082601237L870.5064402239246,359.5867905823378L870.7535781800088,359.11939536227004L872.8166428568844,359.7443830430746L873.0852710700192,359.5314674185844L874.5680988065236,359.7891871570629L874.8152367626076,359.6371985109344L875.1698260039456,359.74770806552755L875.2128065180472,359.7834255530012L875.9112398721977,359.78473239769824L876.6096732263484,359.6127090541637L878.6082671320715,359.43363955798094L879.0273271445619,359.7596749882286L879.1992492009682,359.7389018468479L880.7465477086249,359.7486510974484L881.0259210502851,359.75451377376953L881.4234908057248,359.74683133798567L883.7122031816335,359.7043183735122L884.1527534511747,359.7771546487699L885.0016186046809,359.58092887002806L885.5388750309504,359.52340583687413L885.743032472933,359.16860026062994L886.8390355825231,359.58522140515686L889.6757495132271,359.7633142503957L890.8899490365966,359.5884417541757L891.2660285349854,359.76680794917183L895.811217901227,359.6502665004073L897.1865943524773,359.7832526850956L904.2353986651356,359.6477270749055L904.6007330349989,359.73835690729584L905.256185875048,359.6063747381712L905.449598188505,359.67752973315675L906.2554828279095,358.35383662805265L907.8779972352442,359.7438223712296L908.4367439185645,359.7748513465456L909.9410619121197,359.7498213466284L912.5521281437904,359.392411949853L915.2599005321895,359.78904919086955L916.9898662247779,359.5964641778819L917.5056323939968,359.770888021318L919.5901873279232,359.78904707503733L919.9340314407358,359.76124400201786L920.019992468939,359.7521804786523L922.0508217602383,359.5731737925988L922.2119986881193,359.78462827687844L922.9211771707952,359.5469328881288L924.2750633649948,359.761593249585L925.1883992896534,359.7699866846419L925.7686362300245,359.78914772421973L926.6067562550054,359.74781974613427L928.7772722171349,359.67033895486975L929.1211163299474,359.78287506804935L929.5186860853869,359.7297922656775L930.3782963674186,359.2730036034736L932.000810774753,359.78380970455106L934.0208949375269,359.7158854555526L934.3539939218141,359.6871645908472L934.7085831631521,359.7485689720781L935.8153314012677,359.26412106683387L935.933527815047,359.6056470565989L936.6104709121468,359.64348545265125L939.1463212441397,359.71811935245563L939.4579299713762,359.70611435713874L944.1642962654986,359.7596516208718L946.2058706853234,359.4786515995265L946.2810865850012,359.50093138339065L947.6886984218278,359.7890013252515L947.8283850926579,359.788994541229L948.3226610048259,359.74244570222817L948.6020343464862,359.54590546202627L949.1822712868575,359.4763769807268L950.1385877256175,359.7604558794968L954.275462207894,359.7889166735636L954.8879345338414,359.7158259482712L956.0269181575331,359.7674568829151L956.7253515116839,359.60370219039453L957.2088822953265,359.788660342007L958.9603382449657,359.6137315505032L961.7970521756697,359.7617407713429L962.1301511599569,359.6660921787724L962.2698378307871,359.78579707187174L964.8164332913053,359.72490416755903L965.5363569025067,359.74387546421707L968.0399718489234,359.1918094355367L969.0285236732597,359.78466445152384L969.5550349710039,359.78539902822865L970.704763723221,359.7535348540142L973.2513591837394,359.78905223967604L974.3581074218548,359.6102098697199L975.2714433465134,359.78081241972285L975.4433654029197,359.75896263046985L979.54800449962,359.75276840190986L979.7306716845518,359.7860631375658L980.9233809508704,359.7699853226548L981.127538392853,359.77592497867266L981.9978938034099,359.49478002883023L982.6640917719843,359.7034279724136L984.8346077341138,359.78408960048296L985.715708273196,359.78211945815576L987.1233201100226,359.3423846400428L992.1735305169577,359.7001788384338L993.8282803098683,359.5864675334733L994.0431828803762,359.7830188697268L996.2566793566073,359.77586019383716L998.1263317200259,359.5684015018963L999.7381009988349,359.7891248652101L999.9530035693427,359.58717396477925L999.9852389549188,359.78515338825605L1000.6514369234933,359.41537396436837L1000.8985748795774,359.77806393678964L1000.9308102651536,359.78876850721065L1003.8749754811114,359.4968621814653L1004.78831140577,359.7552068046165L1005.0676847474302,359.6854876217835L1006.4215709416297,359.78799058795846L1007.0985140387295,359.76474190696496L1011.6114680193949,359.35919001544113L1012.2454306023931,358.8363932782653L1012.2669208594439,359.78830458192846L1012.600019843731,359.786724290679L1013.362923969034,359.730512617962L1015.8772840439763,359.7876332199663L1016.9195615109393,359.7835402802809L1019.584353385237,359.78904329999455L1024.2047586511565,359.5969034122976L1025.9239792152193,359.63151912516304L1029.35167521482,359.5017568572695L1029.8244608699372,359.7562623667812L1031.0279152647813,359.6361344383928L1031.4362301487463,359.7436894170149L1033.692707139079,359.218932655547L1034.842435891296,359.7621312799995L1036.3360087563258,359.785501507253L1036.6261272265115,359.01522222442077L1037.9907585492365,359.52594365646826L1039.4628411572153,359.76937828839596L1040.0645683546375,359.68691337833997L1040.40841246745,359.3215278957634L1041.1713165927529,359.0154692354253L1041.5688863481926,359.7886233332612L1045.2544654324026,359.65938271528347L1046.2107818711627,359.59502603156125L1046.4579198272465,359.75866955699206L1047.1026275387703,359.6704801907129L1049.9930671121012,359.7749011927053L1050.8526773941328,359.76004902932937L1051.7552681902657,359.6892448201278L1052.1850733312815,359.73370726312174L1052.5074271870433,359.59237126080876L1053.205860541194,359.78872735243533L1053.5497046540065,359.78435275138463L1057.6973242648085,359.69737998415314L1059.1801520013128,359.78728264527865L1059.9323109980905,359.78702190834446L1060.6844699948679,359.7613222503349L1061.9738854179152,359.4498105251641L1062.4466710730326,359.776733865953L1063.908008552486,359.7765429263344L1064.5204808784335,359.78772297806626L1065.4767973171936,358.12684882696453L1066.0570342575647,359.68043587513984L1066.9166445395963,359.41271659802095L1068.0986086773896,359.7856635927609L1068.2060599626436,359.74906241988197L1069.7426133417748,359.76388496149764L1070.5270077241285,359.46538271287386L1072.5900724010041,359.70768216182887L1073.3422313977817,359.78003265935905L1073.868742695526,359.7731078081749L1074.0621550089832,359.62173535688476L1074.7498432346083,359.65665151453084L1076.350867384892,359.6990477379211L1078.886717716885,359.77545223377274L1079.5851510710354,359.7312464430647L1081.8953537039952,359.7119130048949L1084.431204035988,359.78903890781964L1084.6568517350213,359.73362718715106L1085.5701876596797,359.78553808191646L1085.5916779167305,359.18111816137593L1088.492862618587,359.3964547663422L1092.7909140287443,359.77825855038884L1093.2099740412348,359.7333262942101L1094.99366537645,359.60758036400284L1095.8210402729053,359.68872932377207L1096.0681782289896,359.7651168257129L1097.8088890501033,359.4576379431309L1098.9586178023205,359.76693128194574L1099.3024619151329,359.68172802391445L1099.5925803853186,359.7504255950576L1099.689286542047,359.76207229323757L1100.4521906673501,359.63163482520724L1101.2580753067546,359.73905601398235L1102.1499209743622,359.7854542245934L1102.9987861278685,359.668794053037L1104.084044108933,359.6356282600362L1104.298946679441,359.7336137423428L1105.1155764473708,359.6413400627341L1105.7280487733183,359.7596181138888L1105.8462451870978,359.7662858868013L1107.9093098639732,359.6156050285105L1110.4021796818647,359.75310291620804L1110.6170822523725,359.6276208030157L1114.4530931359382,359.3587730769991L1114.5283090356158,359.77603396331523L1116.333490627882,359.7383173944983L1116.6988249977453,359.67132601853757L1117.0426691105579,359.78448589846L1117.6229060509293,359.2592076616649L1118.5899676182146,359.7829120955414L1120.6852676806664,359.6076784924296L1121.0183666649536,359.78573754154036L1121.6093487338503,359.4725059216628L1121.9854282322392,359.6907684156742L1122.092879517493,359.62878465657514L1124.1881795799447,359.2878520870335L1125.3808888462636,359.7839971435011L1126.9389324824456,358.19908195552034L1127.5299145513422,359.77968953548185L1129.8078817987257,359.69916028217006L1132.1503198172616,359.6947279210357L1135.685467102116,359.5565800235434L1136.308684556589,359.6942760634389L1140.2843821109846,359.77377735962494L1141.4018754776255,359.77494652458387L1141.552307276981,359.6135154812309L1141.7564647189636,359.7840876782955L1142.1970149885046,359.78793177377906L1142.34744678786,359.7870331842729L1142.508623715741,359.75210782533617L1142.6483103865712,359.7890046863988L1143.0673703990615,359.6244535236427L1143.4971755400773,359.5899314202546L1143.5938816968057,359.7444268367364L1144.2063540227532,359.7431945407001L1144.4642371073628,359.75391037264336L1146.2909089566797,359.7892284590163L1146.3123992137305,359.7238189941378L1148.1283259345219,359.7151251983303L1150.0194685549911,359.7673647136195L1151.0080203793275,359.4683983086673L1151.7816696331558,359.7800162145613L1151.9321014325114,359.7884757703272L1154.0059112379122,359.6943146799159L1156.4665456702276,359.53557105415746L1157.079017996175,359.63008708502605L1158.4006688047984,359.57914864670454L1160.2918114252675,359.76165924118544L1161.366324277807,359.770665138609L1162.4730725159225,359.786712463741L1166.061945443404,359.76925182316853L1173.1644753986893,359.78923279990204L1173.594280539705,359.77593516614934L1173.948869781043,359.7729853518812L1175.9259734297154,359.78895565614033L1180.524888438584,359.7392661544677L1181.996971046563,359.72474942155094L1184.9411362625208,359.77770478184596L1187.4984768515646,359.64406217890445L1189.0457753592211,359.7730894931249L1189.0565204877464,359.6987498607254L1189.6797379422194,359.736190234434L1191.7857831331967,359.59764297011714L1191.828763647298,359.77011507789217L1192.6776288008043,359.78914594334066L1195.2779499039495,359.70417048062166L1197.8675258785695,359.78637813034084L1199.2429023298198,359.759881116279L1199.597491571158,359.7490482514816L1200.47859211024,359.14648089947065L1201.6820465050841,359.7449376740926L1202.3267542166077,359.7851301119318L1203.4872280973502,359.6790711897574L1203.8740527242644,359.78562365251884L1204.078210166247,359.7889796961022L1205.1097425046846,359.7628125653126L1205.4750768745482,359.7279139606105L1205.582528159802,359.7847934738324L1207.462925651746,359.7825828086127L1210.0202662407899,359.74261667070454L1210.460816510331,359.7211053743393L1211.4063878205654,359.03259314073875L1213.791806353203,359.1889294082263L1214.178630980117,359.72044448732123L1215.435811017588,359.56068448074365L1217.4666403088877,358.4437201008576L1217.7675039075984,359.7503617695652L1222.31269327384,359.3221822471108L1223.7310502391922,359.6528668476965L1225.8156051731185,359.7891291724523L1226.2346651856087,359.6878116035701L1228.3729457621623,359.6303772501304L1232.8858997428276,359.7632017084809L1234.400962864908,359.66552144666286L1235.7548490591078,359.48880709807906L1237.3881085949674,359.67503935319496L1239.9561943125366,359.774611445417L1243.3086744124596,359.52337625829597L1243.3731451836118,359.7821230872036L1245.1031108762002,359.7715731603426L1245.1890719044034,359.78858041932546L1247.7249222363962,359.12531466317506L1248.9821022738672,359.77203776016296L1251.947757746876,359.7518055038843L1252.517249558722,359.7871874759935L1256.3532604422874,359.75395731976624L1256.4822019845922,359.75660852624407L1259.0825230877374,359.7738879536764L1259.1362487303643,359.76264414574774L1259.211464630042,359.7846395406983L1260.3504482537337,359.68316238888286L1262.080413946322,359.75532478747704L1263.0474755136077,359.75116191538604L1265.046069419331,359.7794817793492L1265.8197186731593,359.5855078169189L1266.5288971558352,359.7019334606017L1268.3663141336774,359.775550174299L1268.892825431422,359.55833557937854L1269.3011403153869,359.4372182298125L1269.6664746852503,359.77640905829287L1270.074789569215,359.77779365062787L1270.4938495817055,359.6571828552196L1271.1707926788054,359.74304994365485L1271.7402844906512,359.1968226684068L1272.1593445031415,359.78655443735147L1272.578404515632,359.66787458687725L1272.7288363149873,359.53307614590955L1272.911503499919,359.72421304372745L1274.0719773806616,359.7837529025705L1274.2868799511696,359.77114238378505L1274.6522143210327,359.72981119578077L1275.2754317755057,359.3417768600172L1279.2296390728507,359.75189366307916L1279.7776406276457,359.7790216973112L1281.2712134926755,359.78874764430685L1282.2597653170117,359.74300491755235L1282.517648401621,359.7006599384884L1284.8815766772077,359.7801773439356L1285.1931854044442,359.7890085333996L1290.1466896546506,359.7783826779469L1291.3823794350708,359.77966519185924" fill="none"></path></g></g></g></g></g></g><g transform="translate(51, 376)" clip-path="url(#clip_1)"><clipPath id="clip_1"><rect width="1365" height="23"></rect></clipPath><g><g><line x1="15.215699859636386" y1="0" x2="15.215699859636386" y2="5" style="visibility: inherit;" fill="rgb(0, 0, 0)" stroke="rgb(204, 204, 204)" stroke-width="1px"></line><line x1="122.66698511357346" y1="0" x2="122.66698511357346" y2="5" style="visibility: inherit;" fill="rgb(0, 0, 0)" stroke="rgb(204, 204, 204)" stroke-width="1px"></line><line x1="230.11827036751055" y1="0" x2="230.11827036751055" y2="5" style="visibility: inherit;" fill="rgb(0, 0, 0)" stroke="rgb(204, 204, 204)" stroke-width="1px"></line><line x1="337.5695556214476" y1="0" x2="337.5695556214476" y2="5" style="visibility: inherit;" fill="rgb(0, 0, 0)" stroke="rgb(204, 204, 204)" stroke-width="1px"></line><line x1="445.0208408753847" y1="0" x2="445.0208408753847" y2="5" style="visibility: inherit;" fill="rgb(0, 0, 0)" stroke="rgb(204, 204, 204)" stroke-width="1px"></line><line x1="552.4721261293219" y1="0" x2="552.4721261293219" y2="5" style="visibility: inherit;" fill="rgb(0, 0, 0)" stroke="rgb(204, 204, 204)" stroke-width="1px"></line><line x1="659.9234113832588" y1="0" x2="659.9234113832588" y2="5" style="visibility: inherit;" fill="rgb(0, 0, 0)" stroke="rgb(204, 204, 204)" stroke-width="1px"></line><line x1="767.3746966371959" y1="0" x2="767.3746966371959" y2="5" style="visibility: inherit;" fill="rgb(0, 0, 0)" stroke="rgb(204, 204, 204)" stroke-width="1px"></line><line x1="874.8259818911331" y1="0" x2="874.8259818911331" y2="5" style="visibility: inherit;" fill="rgb(0, 0, 0)" stroke="rgb(204, 204, 204)" stroke-width="1px"></line><line x1="982.27726714507" y1="0" x2="982.27726714507" y2="5" style="visibility: inherit;" fill="rgb(0, 0, 0)" stroke="rgb(204, 204, 204)" stroke-width="1px"></line><line x1="1089.7285523990072" y1="0" x2="1089.7285523990072" y2="5" style="visibility: inherit;" fill="rgb(0, 0, 0)" stroke="rgb(204, 204, 204)" stroke-width="1px"></line><line x1="1197.1798376529441" y1="0" x2="1197.1798376529441" y2="5" style="visibility: inherit;" fill="rgb(0, 0, 0)" stroke="rgb(204, 204, 204)" stroke-width="1px"></line><line x1="1304.6311229068813" y1="0" x2="1304.6311229068813" y2="5" style="visibility: inherit;" fill="rgb(0, 0, 0)" stroke="rgb(204, 204, 204)" stroke-width="1px"></line></g><g transform="translate(0, 8)"><text style="text-anchor: middle; visibility: inherit; font-family: Roboto, sans-serif; font-size: 12px; font-weight: 200;" x="15.215699859636386" y="0" dx="0em" dy="0.95em" fill="rgb(33, 33, 33)" stroke="none" stroke-width="1px">0</text><text style="text-anchor: middle; visibility: inherit; font-family: Roboto, sans-serif; font-size: 12px; font-weight: 200;" x="122.66698511357346" y="0" dx="0em" dy="0.95em" fill="rgb(33, 33, 33)" stroke="none" stroke-width="1px">10k</text><text style="text-anchor: middle; visibility: inherit; font-family: Roboto, sans-serif; font-size: 12px; font-weight: 200;" x="230.11827036751055" y="0" dx="0em" dy="0.95em" fill="rgb(33, 33, 33)" stroke="none" stroke-width="1px">20k</text><text style="text-anchor: middle; visibility: inherit; font-family: Roboto, sans-serif; font-size: 12px; font-weight: 200;" x="337.5695556214476" y="0" dx="0em" dy="0.95em" fill="rgb(33, 33, 33)" stroke="none" stroke-width="1px">30k</text><text style="text-anchor: middle; visibility: inherit; font-family: Roboto, sans-serif; font-size: 12px; font-weight: 200;" x="445.0208408753847" y="0" dx="0em" dy="0.95em" fill="rgb(33, 33, 33)" stroke="none" stroke-width="1px">40k</text><text style="text-anchor: middle; visibility: inherit; font-family: Roboto, sans-serif; font-size: 12px; font-weight: 200;" x="552.4721261293219" y="0" dx="0em" dy="0.95em" fill="rgb(33, 33, 33)" stroke="none" stroke-width="1px">50k</text><text style="text-anchor: middle; visibility: inherit; font-family: Roboto, sans-serif; font-size: 12px; font-weight: 200;" x="659.9234113832588" y="0" dx="0em" dy="0.95em" fill="rgb(33, 33, 33)" stroke="none" stroke-width="1px">60k</text><text style="text-anchor: middle; visibility: inherit; font-family: Roboto, sans-serif; font-size: 12px; font-weight: 200;" x="767.3746966371959" y="0" dx="0em" dy="0.95em" fill="rgb(33, 33, 33)" stroke="none" stroke-width="1px">70k</text><text style="text-anchor: middle; visibility: inherit; font-family: Roboto, sans-serif; font-size: 12px; font-weight: 200;" x="874.8259818911331" y="0" dx="0em" dy="0.95em" fill="rgb(33, 33, 33)" stroke="none" stroke-width="1px">80k</text><text style="text-anchor: middle; visibility: inherit; font-family: Roboto, sans-serif; font-size: 12px; font-weight: 200;" x="982.27726714507" y="0" dx="0em" dy="0.95em" fill="rgb(33, 33, 33)" stroke="none" stroke-width="1px">90k</text><text style="text-anchor: middle; visibility: inherit; font-family: Roboto, sans-serif; font-size: 12px; font-weight: 200;" x="1089.7285523990072" y="0" dx="0em" dy="0.95em" fill="rgb(33, 33, 33)" stroke="none" stroke-width="1px">100k</text><text style="text-anchor: middle; visibility: inherit; font-family: Roboto, sans-serif; font-size: 12px; font-weight: 200;" x="1197.1798376529441" y="0" dx="0em" dy="0.95em" fill="rgb(33, 33, 33)" stroke="none" stroke-width="1px">110k</text><text style="text-anchor: middle; visibility: inherit; font-family: Roboto, sans-serif; font-size: 12px; font-weight: 200;" x="1304.6311229068813" y="0" dx="0em" dy="0.95em" fill="rgb(33, 33, 33)" stroke="none" stroke-width="1px">120k</text></g><line x1="0" y1="0" x2="1365.5679985046386" y2="0" fill="rgb(0, 0, 0)" stroke="rgb(204, 204, 204)" stroke-width="1px"></line></g></g></g></g></svg>