<svg viewBox="0 0 1112.5999755859375 400" xmlns="http://www.w3.org/2000/svg"><g><g><g><g><g><line x1="49.98400115966797" y1="354.0074998140335" x2="44.98400115966797" y2="354.0074998140335" style="visibility: inherit;" fill="rgb(0, 0, 0)" stroke="rgb(204, 204, 204)" stroke-width="1px"></line><line x1="49.98400115966797" y1="295.0062498450279" x2="44.98400115966797" y2="295.0062498450279" style="visibility: inherit;" fill="rgb(0, 0, 0)" stroke="rgb(204, 204, 204)" stroke-width="1px"></line><line x1="49.98400115966797" y1="236.00499987602234" x2="44.98400115966797" y2="236.00499987602234" style="visibility: inherit;" fill="rgb(0, 0, 0)" stroke="rgb(204, 204, 204)" stroke-width="1px"></line><line x1="49.98400115966797" y1="177.00374990701678" x2="44.98400115966797" y2="177.00374990701678" style="visibility: inherit;" fill="rgb(0, 0, 0)" stroke="rgb(204, 204, 204)" stroke-width="1px"></line><line x1="49.98400115966797" y1="118.00249993801117" x2="44.98400115966797" y2="118.00249993801117" style="visibility: inherit;" fill="rgb(0, 0, 0)" stroke="rgb(204, 204, 204)" stroke-width="1px"></line><line x1="49.98400115966797" y1="59.001249969005585" x2="44.98400115966797" y2="59.001249969005585" style="visibility: inherit;" fill="rgb(0, 0, 0)" stroke="rgb(204, 204, 204)" stroke-width="1px"></line><line x1="49.98400115966797" y1="0" x2="44.98400115966797" y2="0" style="visibility: inherit;" fill="rgb(0, 0, 0)" stroke="rgb(204, 204, 204)" stroke-width="1px"></line></g><g transform="translate(39.98400115966797, 0)"><text style="text-anchor: end; visibility: inherit; font-family: Roboto, sans-serif; font-size: 12px; font-weight: 200;" x="0" y="354.0074998140335" dx="0em" dy="0.3em" fill="rgb(33, 33, 33)" stroke="none" stroke-width="1px">0</text><text style="text-anchor: end; visibility: inherit; font-family: Roboto, sans-serif; font-size: 12px; font-weight: 200;" x="0" y="295.0062498450279" dx="0em" dy="0.3em" fill="rgb(33, 33, 33)" stroke="none" stroke-width="1px">0.05</text><text style="text-anchor: end; visibility: inherit; font-family: Roboto, sans-serif; font-size: 12px; font-weight: 200;" x="0" y="236.00499987602234" dx="0em" dy="0.3em" fill="rgb(33, 33, 33)" stroke="none" stroke-width="1px">0.1</text><text style="text-anchor: end; visibility: inherit; font-family: Roboto, sans-serif; font-size: 12px; font-weight: 200;" x="0" y="177.00374990701678" dx="0em" dy="0.3em" fill="rgb(33, 33, 33)" stroke="none" stroke-width="1px">0.15</text><text style="text-anchor: end; visibility: inherit; font-family: Roboto, sans-serif; font-size: 12px; font-weight: 200;" x="0" y="118.00249993801117" dx="0em" dy="0.3em" fill="rgb(33, 33, 33)" stroke="none" stroke-width="1px">0.2</text><text style="text-anchor: end; visibility: inherit; font-family: Roboto, sans-serif; font-size: 12px; font-weight: 200;" x="0" y="59.001249969005585" dx="0em" dy="0.3em" fill="rgb(33, 33, 33)" stroke="none" stroke-width="1px">0.25</text><text style="text-anchor: end; visibility: hidden; font-family: Roboto, sans-serif; font-size: 12px; font-weight: 200;" x="0" y="0" dx="0em" dy="0.3em" fill="rgb(33, 33, 33)" stroke="none" stroke-width="1px">0.3</text></g><line x1="49.98400115966797" y1="0" x2="49.98400115966797" y2="377.60799980163574" fill="rgb(0, 0, 0)" stroke="rgb(204, 204, 204)" stroke-width="1px"></line></g></g><g transform="translate(49, 0)" clip-path="url(#clip_0)"><clipPath id="clip_0"><rect width="1062" height="377"></rect></clipPath><g><g><g><line x1="0" y1="0" x2="0" y2="377.60799980163574" fill="rgb(0, 0, 0)" stroke="rgb(66, 66, 66)" stroke-width="1px" opacity="0.25"></line><line x1="118.06844431559243" y1="0" x2="118.06844431559243" y2="377.60799980163574" fill="rgb(0, 0, 0)" stroke="rgb(66, 66, 66)" stroke-width="1px" opacity="0.25"></line><line x1="236.13688863118486" y1="0" x2="236.13688863118486" y2="377.60799980163574" fill="rgb(0, 0, 0)" stroke="rgb(66, 66, 66)" stroke-width="1px" opacity="0.25"></line><line x1="354.2053329467773" y1="0" x2="354.2053329467773" y2="377.60799980163574" fill="rgb(0, 0, 0)" stroke="rgb(66, 66, 66)" stroke-width="1px" opacity="0.25"></line><line x1="472.2737772623697" y1="0" x2="472.2737772623697" y2="377.60799980163574" fill="rgb(0, 0, 0)" stroke="rgb(66, 66, 66)" stroke-width="1px" opacity="0.25"></line><line x1="590.3422215779622" y1="0" x2="590.3422215779622" y2="377.60799980163574" fill="rgb(0, 0, 0)" stroke="rgb(66, 66, 66)" stroke-width="1px" opacity="0.25"></line><line x1="708.4106658935546" y1="0" x2="708.4106658935546" y2="377.60799980163574" fill="rgb(0, 0, 0)" stroke="rgb(66, 66, 66)" stroke-width="1px" opacity="0.25"></line><line x1="826.479110209147" y1="0" x2="826.479110209147" y2="377.60799980163574" fill="rgb(0, 0, 0)" stroke="rgb(66, 66, 66)" stroke-width="1px" opacity="0.25"></line><line x1="944.5475545247394" y1="0" x2="944.5475545247394" y2="377.60799980163574" fill="rgb(0, 0, 0)" stroke="rgb(66, 66, 66)" stroke-width="1px" opacity="0.25"></line><line x1="1062.615998840332" y1="0" x2="1062.615998840332" y2="377.60799980163574" fill="rgb(0, 0, 0)" stroke="rgb(66, 66, 66)" stroke-width="1px" opacity="0.25"></line></g><g><line x1="0" y1="354.0074998140335" x2="1062.615998840332" y2="354.0074998140335" fill="rgb(0, 0, 0)" stroke="rgb(66, 66, 66)" stroke-width="1px" opacity="0.25"></line><line x1="0" y1="295.0062498450279" x2="1062.615998840332" y2="295.0062498450279" fill="rgb(0, 0, 0)" stroke="rgb(66, 66, 66)" stroke-width="1px" opacity="0.25"></line><line x1="0" y1="236.00499987602234" x2="1062.615998840332" y2="236.00499987602234" fill="rgb(0, 0, 0)" stroke="rgb(66, 66, 66)" stroke-width="1px" opacity="0.25"></line><line x1="0" y1="177.00374990701678" x2="1062.615998840332" y2="177.00374990701678" fill="rgb(0, 0, 0)" stroke="rgb(66, 66, 66)" stroke-width="1px" opacity="0.25"></line><line x1="0" y1="118.00249993801117" x2="1062.615998840332" y2="118.00249993801117" fill="rgb(0, 0, 0)" stroke="rgb(66, 66, 66)" stroke-width="1px" opacity="0.25"></line><line x1="0" y1="59.001249969005585" x2="1062.615998840332" y2="59.001249969005585" fill="rgb(0, 0, 0)" stroke="rgb(66, 66, 66)" stroke-width="1px" opacity="0.25"></line><line x1="0" y1="0" x2="1062.615998840332" y2="0" fill="rgb(0, 0, 0)" stroke="rgb(66, 66, 66)" stroke-width="1px" opacity="0.25"></line></g></g></g><g><g><line x1="0" y1="354.0074998140335" x2="1062.615998840332" y2="354.0074998140335" fill="rgb(0, 0, 0)" stroke="rgb(153, 153, 153)" stroke-width="1.5px"></line></g></g><g><g><line x1="118.06844431559243" y1="0" x2="118.06844431559243" y2="377.60799980163574" fill="rgb(0, 0, 0)" stroke="rgb(153, 153, 153)" stroke-width="1.5px"></line></g></g><g><g><g><g><g><path style="fill: none;" stroke="rgb(255, 112, 67)" stroke-width="2px" d="M118.57613862614949,336.95884686148855L119.19009453659056,333.0753662825161L120.05199418009438,262.4453819267882L120.78401853485106,291.2236298341431L120.84305275700886,351.4543914726028L121.0909964900716,342.15037327016523L121.30351968983966,248.73917976913714L121.71675924494424,334.4507534509349L121.74037293380736,257.2522784761855L121.83482768925984,340.4379288323028L123.67669542058307,343.412235399593L124.40871977533976,173.36285310414962L124.91641408589679,288.72492724119036L124.99906199691772,353.97311076550335L125.56579052963257,262.51658729296736L125.71927950724283,176.91130513799575L126.5103380841573,322.44439368252955L126.60479283960977,279.0936079990637L127.54934039413452,336.3435433481247L127.62018146072387,322.3080603312517L127.95077310480752,326.0324508989039L130.0523914136251,325.76324379773L130.66634732406615,351.96216531638106L131.11500741246542,236.6208774985863L132.01232758926392,248.30063243361616L132.96868198822023,333.3210573257583L133.61805843195594,222.53856787584334L133.65347896525063,208.47798296724145L133.81877478729248,352.7618276409771L133.8660021650187,325.5472912593774L134.43273069773355,228.32094650463597L134.51537860875447,316.2258129499024L135.03487976374308,342.4340781672188L136.40447371780394,353.9534056103254L138.04562509379068,351.56135392911244L138.55331940434772,243.67993256005542L138.5887399376424,353.4554007891614L139.85207229181927,351.0143011636574L140.2416981580607,353.0408553311513L140.71397193532306,351.07272095090514L141.06817726826984,318.08406288145375L142.1189864226786,218.6572468002747L142.82739708857218,342.9256470809698L144.04350206502278,260.87370304235503L144.787333264211,349.3134383678415L145.31864126363115,312.4222867481004L146.28680250701902,243.23221530270152L146.8417241953023,68.32418553115926L147.04244055063882,348.4588695702187L147.06605423950194,347.6624557047188L147.4202595724487,353.95060978235284L147.43206641688028,330.61957461572445L147.57374855005898,348.859920673355L147.63278277221679,284.2814011593623L147.975181260732,320.23196101510086L149.78162845876057,347.3236977576581L150.43100490249634,309.36452224290105L153.11115858846026,340.3566128140547L153.94944454310098,337.57998488048656L155.40168640818277,307.82824822445184L156.21635867396037,239.70310538585676L156.40526818486532,172.84898580665097L156.41707502929685,333.762734567485L157.1018720063273,338.3803946515215L159.16806978185016,330.7063130206365L160.79741431340534,329.24476990878355L160.82102800226846,353.81322413250655L161.41137022384643,288.9460032425805L162.24965617848713,267.22575097619534L163.11155582199095,214.3420644566222L163.19420373301188,349.31063870630396L164.4575360871887,353.5036699144568L164.78812773127237,339.4178552542155L165.73267528579711,313.1135476341159L166.46469964055376,344.04532267075894L167.62177039484658,336.4233966187746L168.04681679438272,342.7652756543981L169.05039857106524,296.85528941213806L170.03036665888467,353.45452108687624L171.11659634658812,351.44621255952023L171.3173127019246,245.61833798283482L173.14737358881632,354.00514345620815L173.19460096654254,349.2513825922927L173.289055721995,350.63187371678447L174.61142229832967,349.29473970592556L174.7767181203715,345.0444204922469L175.86294780807495,349.95972828233676L176.772074829305,284.9386462950694L178.3659988275655,315.6426393304392L178.69659047164916,302.894311557925L181.18783464670815,286.7157736295427L181.35313046874998,250.57799087310212L182.0733479790751,319.7978865441365L183.59643091074625,299.5372893352287L185.13132068684894,354.0055335219839L185.65082184183757,261.5781077760601L186.6544036185201,327.2994189076264L187.3155869066874,354.0068967779319L187.3982348177083,282.6038945193175L187.82328121724444,354.00492803711484L188.80324930506384,352.46915118868833L191.2826866356913,353.6705321804659L191.50701667989094,203.2225803161516L192.33349579010007,342.28382728357127L193.36069125564575,338.83093190161554L195.06087685379026,333.9679390430948L195.69844645309448,260.2565400481976L196.0408449416097,353.4422779938825L197.17430200703936,288.5921480039115L197.31598414021806,334.1453612051935L199.00436289393105,337.56853896295416L200.3267294702657,353.2361298001742L202.07414244613648,229.18941634986956L202.5582230678304,270.9286410224262L205.23837675379434,186.6525227721758L206.15931061945594,273.42902286280946L206.19473115275062,353.4251902706779L206.37183381922404,316.08597383991804L206.76145968546547,349.2721588833104L210.03195559300738,331.7439758363719L210.150024037323,352.01500817235103L210.56326359242755,353.6554240020481L212.42874501261392,306.5968279496229L213.31425834498086,351.69425240614663L214.66023861017862,304.5076243492036L215.14431923187252,353.4363065960638L216.82089114115396,333.26985346693283L216.87992536331174,314.8352114480877L216.98618696319576,337.9979306634332L218.41481513941446,326.002272800446L218.53288358373004,317.11130825403285L219.63092011586505,340.69146991768946L222.90141602340697,332.75447396755953L223.24381451192218,294.10660754068516L223.4917582449849,341.64227783621726L223.57440615600584,327.69856327366057L224.2592031330363,317.4298883068206L227.4116305962626,153.4960548034866L229.47782837178548,276.2498947900344L229.8674542380269,342.70239289344914L230.882842859141,336.23090848610923L231.03633183675126,348.8894135553384L232.09894783559162,335.8540636028066L232.37050525751746,289.75689512224955L232.58302845728554,302.9583339651996L234.29502089986164,313.96271052983354L235.05065894348144,182.89712767015752L237.1404704078674,244.37471898648795L239.40738453872677,242.87907220561303L239.4900324497477,220.54276032492663L240.85962640380856,352.17647322529666L241.80417395833334,260.9458139712848L242.31186826889038,353.9138110913756L243.3154500455729,299.33616648589975L243.68146222295124,351.1886791402963L243.8703717338562,342.8432320788012L244.54336186645506,348.71884136001637L245.08647671030678,126.81712114861986L245.09828355473834,224.1293954561078L245.35803413223263,350.1855950293825L246.07825164255775,281.7548107504421L246.1845132424418,203.22168354527244L246.79846915288286,331.598252766477L246.83388968617754,352.3704888082385L247.2825497745768,317.4474083084817L247.55410719650266,311.0896676379331L247.64856195195512,309.36680373352004L248.19167679580687,281.3423269175805L249.15983803919474,346.79647560755717L249.38416808339434,353.39362497976634L250.2932951046244,345.21492619904177L252.90260772399898,331.70465638966306L253.52837047887164,269.4240704921165L253.76450736750283,297.309451111202L254.13051954488117,269.1306242015914L254.2367811447652,137.2993528688657L254.6382138554382,352.2046682072699L255.60637509882608,346.4416972223949L256.0432283427938,350.69414351945176L256.91693483072913,290.9006692314481L258.2629150959269,348.75492374958725L259.39637216135657,353.8863989036288L259.4554063835144,350.3517704647845L259.8804527830505,352.1202313494334L261.3917288702901,223.79159417454994L261.69870682551067,352.7676845384086L261.93484371414183,344.58681402808406L263.1863692238871,353.5007954876694L264.5441563335164,353.6717410627785L265.16991908838907,319.1142284288832L267.68477695231115,352.0758971017222L270.11698690521234,122.1697555292113L270.8490112599691,192.8496491407063L271.76994512563067,315.51105139173023L271.9706614809672,353.43614099292427L272.2894462806193,202.92404353210657L272.53739001368206,324.06435532652733L272.67907214686073,268.371059266947L272.8561748133341,274.52597586105765L276.315580231781,255.53841744804947L276.36280760950723,287.6693619773895L277.5198783638,239.18715441484477L278.0157658299255,352.65157798618816L278.61791489593503,330.7270046898923L278.8894723178609,319.9244367405537L279.5860761393229,266.96978443329607L281.1327727598572,230.348501503049L282.0064792477925,325.338332654695L284.32062075637816,342.79209635697873L285.985385821228,112.40545044082873L286.7646375537109,354.0063998608553L286.84728546473184,304.48219386128244L287.1542634199524,332.6588975339586L287.3667866197205,298.82718307294397L288.06339044118243,336.85771176721755L288.65373266276043,354.00044363215386L290.83799888259887,282.5817302116082L290.9088399491882,353.9976262945761L291.263045282135,344.1336183358863L291.36930688201903,114.55096597733615L291.48737532633464,339.4160716033125L292.57360501403804,331.8704600937539L292.67986661392206,268.01679081032387L292.92781034698487,267.42326036639355L293.6834483906046,319.0823754789305L293.90777843480424,324.6588528763077L296.24553363225294,349.2937440264936L297.3081496310933,333.7175685263189L298.3235382522074,351.2226976380644L299.00833522923784,332.9451322919972L300.76755504954014,296.44439251205773L300.7911687384033,320.9161774141857L301.1689877602132,354.00601398951693L301.5349999375915,349.7436707910197L303.91998251276647,345.79923506889486L304.20334677912393,341.97588649411824L304.95898482274373,296.9741511170473L306.90711415395094,339.5700227658204L308.11141228597006,297.07162219892723L308.35935601903276,353.9374814921544L309.9296663284302,330.8042171021811L310.7797591275024,221.39984469674351L311.0395097049967,320.4576593428608L311.78334090418497,353.48802574097505L312.9522185029093,347.32635510077796L315.21913263376865,269.0623025692197L316.5414992101033,236.32953246531724L317.10822774281814,332.7214231251334L317.60411520894365,250.26590581528475L319.57585822901405,343.08880443178003L319.9418704063924,224.54241119718694L321.61844231567375,331.9061968528818L322.24420507054646,259.64286742697186L322.5393761813354,352.5721945311643L322.7991267588297,351.4210636862287L324.03884542414346,352.2047204090061L325.2077230228678,353.3841914391655L325.37301884490967,333.3392784791608L325.71541733342485,280.8832593542954L325.80987208887734,335.1199577296652L326.1522705773925,351.0861153669286L327.32114817611694,337.35241498310995L330.04852923980707,332.1768084555061L330.81597412785845,115.47435864298234L331.37089581614174,334.4611564327266L333.720457858022,340.5657340683573L334.3580274573263,266.4044758964451L335.9283377667236,199.54534495056168L335.9401446111552,319.25986577803235L337.59310283157345,210.4283277513335L339.10437891881304,207.82818454657988L340.580234472758,297.5195328774511L341.9144078935241,342.2244283016504L343.7798893137105,186.768645809155L344.40565206858315,297.61962393699764L345.6099502006022,222.6409052585234L348.6797297528076,352.9545541844667L349.96667579584755,353.3577735828782L350.1319716178894,332.9918544943947L351.04109863911947,301.24305304983824L352.39888574874874,303.9071351390885L353.4851154364522,115.65540085811531L354.1581055690511,262.96278355657523L354.6303793463134,333.9726668719209L354.8429025460815,345.84412581458884L354.9137436126709,351.86711254861825L354.94916414596554,203.83577817632374L355.84648432276407,345.26881157863335L355.8582911671956,252.57736792379268L356.4132128554789,323.3892802756935L357.0980098325093,327.82276164448785L357.133430365804,204.9796006408148L357.1924645879618,321.7610608665168L358.0307505426025,344.3203115263387L358.73916120849606,353.88523398925884L359.41215134109495,336.85936573801797L359.9434593405151,316.5996169446969L360.42753996220904,353.49071399301766L360.5810289398193,325.14611377309024L360.5928357842509,321.20353093785536L360.8525863617452,81.03097171147726L361.0414958726501,325.4141911187938L362.59999933761594,353.59906268037L363.4146716033936,329.23955193312884L363.4500921366882,342.0734696723581L363.46189898111976,303.727732607965L364.0286275138346,302.2737636932924L364.31199178019205,350.0861831418989L366.96853177729287,276.80123304328754L367.72416982091266,353.90487102889824L368.491614708964,344.2989571697788L368.76317213088987,301.4475959371279L369.75494706314083,183.54020030922544L369.7903675964355,187.95626937678287L369.8494018185933,282.7173140558523L370.6404603955078,351.1203281101047L370.8529835952758,212.93535624646822L372.1989638604736,296.8860126066205L374.06444528066,347.0110247434433L375.4104255458577,350.91023343079445L375.71740350107825,340.9496421213172L375.965347234141,351.15958381574615L376.0361883007304,241.80574296572064L377.90166972091674,299.5318163953045L380.72350554005936,223.55143541636366L381.2784272283427,335.05498799825114L381.7270873167419,353.96463426818104L382.05767896082557,341.12195730513724L383.40365922602336,313.4224808060492L384.2537520250956,251.63426388254783L386.86306464447017,300.8975852564508L387.7485779768371,343.2672508468927L388.81119397567744,353.9414649225048L391.26701761744175,295.05820452966793L391.38508606175736,352.15469287509455L391.78651877243044,352.48539925383443L391.90458721674594,192.34385278112006L392.2115651719665,353.9169566581021L392.7428731713867,353.1662104512415L393.01443059331257,272.52989576212866L393.8999439256795,353.5368092594318L394.67919565816237,297.1568066405756L396.0133690789286,312.4938086216487L397.54825885503135,280.9020915427576L397.67813414377844,351.32659640214956L397.91427103240966,353.6163795073789L400.71249316268916,230.50671122824897L402.377258227539,322.81988132069034L402.8377251603698,216.2145572197837L403.18012364888506,350.8608478408655L404.20731911443073,339.7914845105667L404.77404764714555,267.67019765740173L404.7976613360087,164.00508414765073L405.24632142440794,340.5391760229337L405.51787884633376,243.70537623578363L408.0209298658243,347.78225154596043L408.77656790944417,346.03264276885733L409.93363866373693,263.3468388733805L410.0280934191894,130.83586796548335L412.0824843502807,353.58262219000807L412.4721102165222,239.14614033493046L413.34581670445755,328.27691674964825L413.8062836372884,214.4549696686821L414.8216722584025,337.68331574463076L415.9787430126953,321.92623155586944L416.13223199030557,346.289322002829L416.2384935901896,349.1249027308464L417.1712343002827,334.9045744649834L417.86783812174474,217.91106309384665L419.2138183869425,179.6708273868408L419.3909210534159,255.48259785675774L420.32366176350905,354.007308576326L421.3508572290547,334.4103042487557L422.8385196274312,353.43934020380345L423.25175918253575,346.82645369094143L424.12546567047116,191.08476888304347L425.83745811304726,344.6278577805642L426.1326292238362,351.973963733006L426.888267267456,334.5292692581534L427.05356308949786,251.90332152190848L428.5058049545796,68.72658948350173L428.63568024332676,307.854162265298L429.8163646864827,264.8890122375151L430.6074232633972,354.00188276125687L432.96879214970903,353.1257159846621L434.46826139251704,323.9518281649361L434.4800682369486,205.13671138209423L434.8224667254638,347.66876222394677L434.84608041432693,318.946453147639L436.0149580130513,353.7014549092164L438.541622721405,352.6157167671313L438.61246378799433,268.96382481806853L438.6833048545837,141.93936848381372L438.73053223230994,287.10005753500343L438.74233907674153,328.2008340928297L440.1001261863708,115.79420692321435L442.827507250061,278.89552713722674L443.9845780043538,335.3152251926656L444.10264644866936,346.4435391194457L444.1852943596903,224.22509497590784L444.39781755945836,327.43938769771336L445.5903088470459,351.7069032221749L446.6056974681599,288.63880646524166L447.68012031143184,320.69216492775985L448.08155302210486,339.3750366427037L448.29407622187296,284.02698638175883L451.6354131960042,250.10184070375618L452.4618923062134,47.32480077760869L453.84329310470577,349.51001966611886L453.99678208231603,175.7057461527848L455.08301177001954,286.50734473511005L455.4254102585347,335.4568490525369L455.8858771913655,231.42941812792876L460.1245343422953,353.93132774457007L460.43151229751584,353.76781749972L460.6912628750101,239.90298858132337L460.91559291920976,330.9000924594084L461.21076402999876,352.77734131011835L461.3996735409037,191.43035976263005L462.8519154059855,352.7522020529361L463.58393976074217,335.82218977215933L466.0397634025065,323.7826088188202L466.2286729134114,297.13069917855944L466.81901513498934,353.72870692864257L467.1023794013468,320.973054228009L467.69272162292475,338.6144408611418L469.29845246561683,350.4467765257307L470.25480686457314,281.4692112051096L470.2666137090047,350.8949940955144L472.2855841068013,352.2411421098625L472.34461832895914,327.46028377797836L472.6515962841796,260.0042924668855L473.37181379450476,336.33700219582965L474.3399750378926,352.5330088857478L475.1546473036702,350.8069904853639L475.63872792536415,352.97257037736796L476.14642223592114,351.1134495697461L477.704925700887,345.5168868674912L477.8348009896342,346.5718262599494L479.51137289891557,330.91698823820275L480.62121627548214,261.8891026418283L480.78651209752394,328.36068350203914L480.999035297292,353.9424221847215L485.33214720367425,353.9540745137573L488.8860073775736,344.44294054812747L489.3228606215413,351.8401735678932L492.30999226272576,353.7093783772239L493.63235883906043,341.8705686670457L494.39980372711176,353.57308816106496L494.4824516381327,351.2035854834484L494.57690639358515,353.88687937424737L495.14363492629997,352.97414034458495L495.24989652618405,352.5033769822985L495.946500347646,351.8518412054315L496.0999893252563,343.2982026300306L497.9536639010111,347.84009711410965L498.34328976725254,353.83996409411225L498.83917723337805,353.91499930763894L501.0352502976481,353.85024371495894L502.2985826518249,353.37872220831196L503.1132549176025,353.8077276331145L503.65636976145424,353.75361914261543L504.23490513860065,353.559130481439L504.8960884267679,350.18076197284597L506.45459189173374,348.3777656558673L506.54904664718623,351.12149715425016L507.72973109034217,352.999233238383L507.8714132235209,343.76383112732134L508.10755011215207,352.4684375360049L509.50075775507605,353.5641875589791L509.8195425547282,352.0876815063021L509.8431562435913,353.9705339315415L510.9057722424316,353.9924286887601L511.73225135264073,352.1872846169879L512.1336840633138,353.9806470112487L512.4642757073974,353.95279050988364L514.0700065500895,353.9591850594408L515.1562362377929,353.70536265563504L516.3015001476542,353.85909409004535L516.4077617475382,353.1667023839189L516.5494438807169,353.04837959324976L516.7737739249166,353.8517680915148L516.974490280253,353.94994956346966L517.6120598795573,353.8859988477243L517.753742012736,354.0057735743081L518.0489131235249,353.8804455961157L518.4857663674926,352.8753121549361L519.7136781883748,354.0033590078978L519.9380082325745,351.60474978192855L520.563770987447,353.9623458917409L521.1777268978881,352.74799129604463L523.7870395172628,353.6183068504295L524.0349832503255,353.1247178325163L524.6843596940613,353.41155572666776L525.7115551596069,353.78443174974274L525.7233620040384,353.61179863330887L526.1720220924377,353.74924319470335L526.5852616475423,353.9855406106377L528.7577210229491,353.713371088837L529.8793712439473,350.34967168024224L532.6775933742268,353.5479620230033L533.4096177289834,352.6026811693579L534.3187447502136,353.9663156577717L535.2514854603068,350.4915532518429L535.4994291933695,353.9442354266252L535.5938839488219,353.65662089856727L535.7709866152953,353.98954649932557L536.9988984361776,353.2536558462469L537.0225121250406,353.25052916830646L538.085128123881,351.69589318914L540.4228833213298,353.2971732054727L540.5055312323506,353.6226707438617L541.2847829648335,353.91411917606325L541.3438171869914,353.8618161701868L542.5717290078735,352.91526255578833L542.77244536321,353.4486956822027L543.5635039401244,351.96403015472123L546.0311344263202,353.17249938672677L546.2200439372253,353.0387041388134L546.3735329148356,352.01868001500253L546.78677246994,353.8401073741409L547.0937504251606,353.45327645324295L549.844745177714,353.9354427353159L550.5531558436076,353.8782926866154L550.9073611765543,350.8630375663272L551.131691220754,354.0074645325471L552.1825003751627,353.5696116284621L552.6901946857198,351.9587129957677L552.7964562856039,353.44281048593524L553.1624684629821,353.8209459197931L553.835458595581,353.9429062613811L555.5592578825887,353.18163269865784L556.9288518366495,354.0021030667503L557.3184777028911,349.058153194973L560.3056093440755,353.90545529339664L560.7070420547484,353.9466519591864L563.9539242734272,353.13068868084304L565.276290849762,353.87875704166504L569.0072536901347,354.0067155453951L569.6566301338703,353.8943448321202L569.8337328003438,352.68044321097994L571.0498377767943,352.9643660502822L571.9235442647298,353.60056220958637L572.1124537756347,353.9409831425499L572.2423290643819,353.9517245770459L572.6437617750549,351.558221000701L573.5883093295796,353.95697993961846L574.3085268399047,353.39282904066187L574.3203336843362,353.8124182853752L575.0051306613667,353.81937289602706L575.2412675499979,353.8279537109637L575.7489618605549,353.9914454115334L576.658088881785,353.69141167294237L578.3228539466348,353.85512004398737L578.6062182129922,353.6320778058187L580.2119490556843,353.41722607157874L581.345406121114,353.632945453624L582.0420099425761,353.94170253055563L582.1718852313231,353.4272157667299L585.525029049886,353.95801511807804L586.8355887817892,353.91377599257663L587.1661804258728,353.9858399635547L587.7683294918824,353.97139375337923L588.9135934017435,354.0054092293441L589.2796055791218,353.8958714324014L589.3386398012797,353.50511641769896L589.5393561566161,354.0065959959468L590.590165311025,353.52694323431496L593.8488543741353,352.14163777035657L596.1157685049947,353.9505013134985L596.2574506381733,353.5391186367678L597.9930567696126,353.8196063785953L598.1111252139282,353.92875611361023L598.1819662805175,353.6216615675334L598.2291936582437,353.69145425856925L598.5952058356221,353.984195932978L598.6188195244852,353.90572851110227L598.7841153465271,352.6175423167963L598.8549564131164,353.62856442291127L599.7168560566203,352.9398824743816L602.6331466312154,353.1884048436356L603.6721489411926,352.74792810446917L603.9791268964132,353.56542996030123L605.0417428952535,354.0069226894426L605.3605276949056,353.9388616056062L606.1870068051147,354.00736785031455L606.9898722264606,353.5609452473243L607.9580334698486,352.7599026332673L608.5247620025634,352.663501274861L608.7136715134684,353.99874329850593L611.3702115105692,353.841010034887L612.444634353841,351.81500669874004L614.0385583521016,353.9477970575025L614.1212062631224,353.1904150912858L615.5498344393412,353.52483885182335L615.8331987056986,353.7512350515444L616.116562972056,351.13709365930436L616.8485873268127,353.37481628208536L617.9702375478108,353.8777146554164L619.280797279714,353.77156575609723L619.493320479482,354.0010146433784L621.9727578101093,352.8639308713956L623.1298285644021,353.8911103936549L624.9598894512939,351.4292761183209L625.3495153175354,351.67223948347237L625.5502316728719,353.9694821610005L626.0106986057026,353.57108588104825L629.056864469045,352.2634020291729L631.3710059776305,353.63285770662657L631.8905071326192,351.42698253887875L632.3037466877238,352.5197897576597L632.6579520206706,353.9898766516962L632.9413162870279,353.7789922601416L633.3191353088378,353.5836918791385L634.16922810791,353.55885487687766L634.4880129075622,353.9443651367782L634.5352402852885,353.85411852620325L634.7123429517618,353.9197450550545L635.0193209069824,353.18836033478686L635.2790714844766,353.68676235278L637.2980418822733,353.63127070515884L637.3452692599996,353.9926630438615L637.4987582376098,353.99991429807005L638.4433057921345,353.77137873994286L638.4905331698608,353.6581401408077L638.9155795693969,353.9093342515881L639.9427750349425,354.00395047213607L640.0254229459636,353.22969662304934L640.5449241009521,353.99274025714095L641.1706868558247,354.0020560352827L641.6311537886556,354.00098625224496L644.4884101410929,353.9375843931098L644.5002169855244,353.930863089017L645.1968208069865,352.6862532642218L646.1885957392375,353.8785762502243L647.0504953827412,352.94045992174534L647.2157912047832,353.58363857841834L648.9632041806539,353.9864521126236L649.3174095136006,352.63689459939894L650.0140133350626,353.8233884287281L650.6161624010722,353.23689792124816L653.0483723539734,353.88038063586305L653.1546339538573,353.4294930674727L653.78039670873,353.6229628331818L655.3743207069905,353.14094172001614L655.7993671065267,353.0940254782701L657.1571542161558,353.6147875261402L658.491327636922,353.6182404305888L659.2941930582682,353.71764452215524L659.7074326133728,353.76931275320203L661.4784592781067,353.90303281516077L661.5847208779907,354.0055754240997L661.9035056776428,353.9281655127827L662.2577110105896,353.9611555891252L662.6591437212626,353.71863467232436L663.1904517206826,353.66359608082445L663.6154981202188,353.9713637888958L664.949671540985,353.9902150475195L665.13858105189,353.693035284312L665.8706054066467,353.652718063233L666.0713217619831,353.7869831954589L667.0867103830973,353.9175379433238L669.4126587361145,353.99236628600613L670.0266146465556,353.9033647684054L675.3396946407572,354.0066994659134L675.8473889513143,352.6922902576433L676.4731517061869,352.8103902293226L676.5557996172078,353.8404155017576L676.791936505839,353.91702811781437L677.0989144610595,353.79770110483037L678.1615304598998,353.9092854927624L678.7754863703409,353.93329832576933L679.4838970362346,353.9720640734701L679.9089434357707,353.9909060079021L680.5347061906432,353.45462006411555L680.5819335683695,353.93804166057174L680.7354225459798,353.4739416095117L680.9007183680216,352.1531847944096L681.184082634379,353.24810268049646L681.3257647675576,353.9234319400484L681.7035837893676,354.0022164794225L681.7862317003885,353.3636965567179L681.9515275224304,353.91805613141395L683.2857009431966,354.0056666513023L683.4155762319436,353.9746216902385L683.4864172985331,352.8988830933772L683.9704979202271,352.0059344116112L684.0177252979532,353.66939140081314L684.1830211199951,353.99064439606764L684.4545785419209,351.3934660020163L685.7061040516662,353.9108805734792L686.9458227169799,353.9517545544081L687.1347322278849,352.0332941658048L687.4889375608317,353.78118234620734L690.8775019126891,353.8062799965452L690.9719566681416,354.004373853545L692.24709586675,354.0068222011004L692.4832327553812,353.98623948499244L694.7737605751038,352.63938160001106L696.4031051066588,353.8956709021791L699.827089991811,353.86156676952334L700.4646595911153,353.9962458956461L700.7598307019042,353.96389262575093L702.2474931002807,353.993617348266L703.203847499237,353.65661117942824L703.924065009562,353.92801679793513L704.1483950537618,353.8000503375051L704.8449988752237,352.66784157448217L707.1473335393778,353.8718898431639L708.4933138045756,353.9214944657397L709.0836560261536,353.75816733908545L710.1816925582885,353.98462620450096L710.3706020691934,353.94637385186087L710.7248074021403,353.0564710684242L711.5867070456441,353.94502194280113L712.9326873108417,353.9956907617342L713.9716896208191,353.9469757773743L714.774555042165,353.64824777442L715.848977885437,353.9795410449167L715.8725915743,353.8631611376177L715.9434326408895,353.7687558259287L718.0922783274333,353.8847423570848L719.9813734364827,353.70438497206476L720.4064198360188,353.9118480742766L721.8114343233743,354.00320462721936L722.9094708555093,353.400765353044L723.5588472992451,353.7301650399024L724.2672579651387,353.80136597580264L725.3889081861369,353.981188471182L729.0844504932148,353.64349628309634L729.6039516482034,353.9486624043102L729.6511790259298,353.9902341541706L729.7456337813823,353.9510144059093L731.493046757253,353.8685450856018L732.0479684455363,353.99867591812756L732.827220178019,353.99476643254536L732.8508338668822,353.81037457023035L734.8343837313843,353.9872517479201L735.48376017512,352.862009778816L735.8143518192037,354.00635458585697L736.2039776854451,354.00660263170613L736.4873419518025,354.00599498737125L736.6054103961181,353.98254031584815L738.0576522611999,353.8284539547071L738.270175460968,353.0855273790451L739.6043488817342,353.66049364921673L740.0884295034281,354.005154475561L741.5052508352153,353.90669455231165L742.7331626560973,354.005337093365L743.1227885223389,353.72845388759487L743.8784265659586,353.93783591446874L743.9964950102742,353.8251763210222L744.9292357203673,353.5492893551766L745.1063383868408,353.8151739703843L745.5431916308085,353.9445820573153L748.5775506497192,353.87366344866706L748.6720054051717,353.9822776114692L749.3686092266337,353.3284844250391L749.5339050486755,353.7029991189977L751.4938412243143,353.8835428504788L752.1786382013447,353.8943248615218L752.2612861123656,353.7145630399285L752.308513490092,353.932555232337L752.3557408678181,353.97488401898823L754.020505932668,353.95496147534635L754.4101317989094,354.0065036325327L754.5400070876566,353.9621625331424L755.921407886149,352.79538772507743L756.4999432632954,354.00070365293004L756.6770459297688,354.00070635316786L756.9249896628315,353.8848463570241L757.1020923293049,353.47972576794496L758.495299972229,353.1164049807684L759.994769215037,353.93560423014446L761.1518399693298,354.0057187866326L762.6040818344115,353.19116521649806L763.0291282339476,353.95015666183804L763.288878811442,353.51460301861727L763.8083799664306,354.00342017831946L764.1389716105143,353.9070378302422L765.1779739204915,353.53835882675975L766.7128636965942,353.7407017714716L767.2441716960143,353.9226470766413L769.7354158710733,353.56183415359976L770.9869413808186,353.3537883924364L771.0223619141133,354.00741856824806L771.3293398693338,353.97229418610715L771.6953520467122,353.58160192081084L773.8087771999614,353.9846488045043L773.8678114221191,352.3508768906846L773.9622661775716,353.9971056874335L775.8749749754842,353.8950538227078L776.5007377303567,353.99705259813896L776.843136218872,353.7837068496458L777.728649551239,353.86830150611877L778.8266860833739,353.92026152598226L778.8621066166686,353.83710084605195L780.3379621706135,353.99706054967396L782.8528200345356,353.9975431109377L783.2424459007772,353.9517265088536L783.7383333669026,353.34206862184834L784.1161523887124,353.7696423968633L784.3640961217753,353.62685845643415L785.2496094541422,353.8705928961789L785.414905276184,353.76857471681285L785.497553187205,353.9264072930544L786.4421007417296,354.00685531134485L788.5555258949788,353.7684786244063L788.9451517612202,353.9965958790957L789.3701981607564,353.91187213172145L791.0585769144693,353.9938561111086L791.4954301584371,353.82549092234103L793.8686058891805,353.987783136696L794.1519701555378,353.96202291925545L794.6006302439371,353.4111477975738L794.6714713105264,353.99032738535533L796.6077937973022,353.4779065374375L796.7848964637756,353.90033741972263L797.1863291744486,353.99361686638736L799.1698790389505,353.6975511466144L800.043585526886,353.8279788673925L801.3423384143574,353.46140896859816L803.9398441893005,353.92387453006495L806.3602472977701,353.8236940492877L806.9623963637797,353.40407178354195L808.0722397403462,353.9508931699526L809.441833694407,353.59325053219004L810.0912101381429,353.7814510992908L810.4454154710896,354.0073734119335L810.4926428488159,353.96851515388727L811.3663493367512,354.0015074823956L811.6851341364032,353.86942522576334L811.8858504917398,353.8253346262216L812.0629531582132,353.7670450170536L812.1810216025289,353.323721634787L813.1727965347799,353.9002596580245L814.8493684440613,353.71575200315755L815.0382779549661,353.93758980646413L815.0736984882608,353.9890306422833L815.1091190215554,353.9349593541071L817.801079551951,353.8081502096036L818.3560012402343,352.84473608692605L819.7846294164531,353.83185122309465L821.4848150145975,353.8981080363959L822.0515435473123,353.9881464345934L822.2404530582172,354.0074580904758L822.5946583911641,353.86770042201493L823.1731937683104,353.95217650842585L823.3857169680786,353.9213695250053L823.5510127901204,353.8365798074722L824.8615725220235,354.0008867260503L825.1803573216755,353.8040096159667L826.5853718090311,353.9910286894948L827.5063056746927,353.9210832568656L828.6043422068277,353.7565719063504L828.6751832734171,353.7994904223693L828.9349338509114,353.8922677525104L829.9975498497517,353.5045850933166L831.1900411373392,353.69351591806094L832.0991681585693,353.994478791749L832.4297598026528,354.0045782868237L833.5277963347879,353.891713838857L834.0236838009134,354.00095415472384L834.4133096671549,353.72130039519664L835.1807545552062,354.00672474992206L836.7746785534667,353.8371346569791L838.5575120626321,353.40922835347004L839.7381965057881,353.9511534917688L840.7181645936075,353.84512643370596L841.5564505482482,353.81976698479235L842.7017144581094,353.9681780749129L842.8433965912882,353.43937726016753L843.1739882353719,353.98978574941293L843.4691593461607,353.8591556159733L844.6026164115905,353.502989506037L846.3264156985982,353.98264630340293L847.1174742755127,353.90633376791067L847.6487822749327,353.9074624587403L851.7457572926838,353.61125491101416L852.0527352479044,353.23687415572084L852.6903048472085,353.98966441149975L854.6384341784159,353.94101693630546L856.1969376433817,354.0054703762889L856.56294982076,354.0067626935761L856.6574045762125,353.67966882369194L860.4237879498799,353.99860229371745L861.1203917713418,353.14035932722476L861.4509834154255,353.8707125652249L861.4864039487202,353.11668906811184L862.1948146146138,353.9454990349027L864.5089561231994,353.84198275585806L866.1383006547546,353.91649337627894L866.9647797649637,353.81385625432034L866.9765866093952,353.95252438835155L867.9683615416462,353.9501821531135L869.1608528292338,353.9834138492275L869.798422428538,353.65530977640685L869.8338429618326,353.8247257891296L871.1325958493042,353.99201465622707L871.7465517597452,353.4911922227393L872.1243707815551,353.91998432445996L872.3368939813231,353.9649380985989L873.5766126466369,354.00682118804167L874.6746491787719,353.99396685627636L874.8753655341084,353.63429507456493L875.2413777114867,353.9219538066753L875.7608788664753,354.0009938512251L876.0678568216958,353.5962891197006L876.3748347769164,353.9800125261902L879.7515922843425,354.0074112979016L879.869660728658,353.71725634042855L879.8932744175211,353.92414874372474L881.8295969042967,353.891772351165L884.1909657906086,353.48430763796915L884.2145794794718,353.47563926492296L885.3952639226277,353.2640727027107L885.5251392113748,353.85499773051134L885.8557308554585,353.879687640643L886.1627088106791,353.99705259813896L888.4178160971068,353.94669336426415L888.7602145856221,354.00706189308875L888.9727377853902,353.80981783184484L889.6575347624206,353.8176549952714L889.9527058732095,353.95734789746524L890.7319576056925,353.9763629787457L890.8382192055765,353.92786706996174L891.2042313829548,353.4953342244493L891.4521751160175,353.9896973456009L891.7473462268065,353.91453666975167L892.621052714742,353.02129444766325L893.1169401808673,353.9813138626716L893.8961919133503,354.0074097501078L894.923387378896,353.79055307300854L896.233947110799,353.8147643069563L896.7180277324929,353.99874004072694L897.8042574201964,353.7866924798687L897.9105190200804,353.86729591007406L900.8504232835387,353.2937505574252L902.1137556377156,353.91903686294745L903.6368385693867,354.0017884541626L904.9710119901529,353.987783136696L906.6239702105712,353.2877615758637L908.5248721640522,353.9758798722829L908.8554638081358,353.99304955672096L908.9499185635883,353.75476763232723L909.3867718075561,354.00744978503593L912.06692549352,353.8762849030932L912.3148692265827,353.8360846808728L914.3338396243794,354.0013362072541L914.7352723350524,353.8083613347177L915.1957392678831,354.00026205833103L917.533494465332,353.9932819456714L921.8311858384195,353.8714385814774L923.2952345479329,353.86582776200015L924.0508725915527,353.98706397621424L924.0626794359843,353.9701107154095L924.2633957913207,353.6220659249297L924.5467600576782,353.8462975384463L924.6176011242675,353.83851530704413L924.9599996127827,353.9883091614859L925.4086597011819,353.97343048181966L926.0108087671915,353.810065377973L926.9907768550108,353.685632082161L927.9117107206725,353.98398039261014L929.10420200826,353.2039939305484L930.5564438733418,353.9295284245604L931.9142309829712,353.99638814967017L932.6108348044331,353.70815184248215L934.7714873354084,353.98478046792945L934.78329417984,353.8793550949773L934.9367831574502,353.51293987816973L936.6015482223002,353.6082429395205L937.1918904438782,353.7891929086906L938.1246311539712,353.9716489108296L938.3725748870339,353.9985174997027L940.0845673296101,353.97598646084447L940.568647951304,354.00399303764L940.8874327509561,353.53105769274043L941.2416380839029,353.89127588517886L942.1743787939961,353.95319157891396L943.2606084816996,354.00299150456243L943.5557795924885,353.9654737115943L944.0634739030455,354.0058067606174L945.5629431458536,353.8414696333969L946.0706374564106,353.71914284935787L946.5192975448099,354.00679797737246L949.6126907858784,353.5521455456996L949.9668961188253,354.007086600104L950.0141234965514,353.93389224072024L950.2974877629089,354.00745399381935L950.3801356739298,353.7932568653706L950.8051820734659,353.4883385392734L951.0767394953917,353.9675953301032L951.4073311394754,353.5430618941044L951.9622528277588,354.0024056983742L952.304651316274,354.0027808200078L953.1783578042093,353.87370464339244L954.8903502467854,353.9799935129098L955.3626240240478,353.8514479609331L956.1654894453937,353.8625989558274" fill="none"></path></g></g></g></g></g></g><g transform="translate(49, 377)" clip-path="url(#clip_1)"><clipPath id="clip_1"><rect width="1062" height="22"></rect></clipPath><g><g><line x1="0" y1="0" x2="0" y2="5" style="visibility: inherit;" fill="rgb(0, 0, 0)" stroke="rgb(204, 204, 204)" stroke-width="1px"></line><line x1="118.06844431559243" y1="0" x2="118.06844431559243" y2="5" style="visibility: inherit;" fill="rgb(0, 0, 0)" stroke="rgb(204, 204, 204)" stroke-width="1px"></line><line x1="236.13688863118486" y1="0" x2="236.13688863118486" y2="5" style="visibility: inherit;" fill="rgb(0, 0, 0)" stroke="rgb(204, 204, 204)" stroke-width="1px"></line><line x1="354.2053329467773" y1="0" x2="354.2053329467773" y2="5" style="visibility: inherit;" fill="rgb(0, 0, 0)" stroke="rgb(204, 204, 204)" stroke-width="1px"></line><line x1="472.2737772623697" y1="0" x2="472.2737772623697" y2="5" style="visibility: inherit;" fill="rgb(0, 0, 0)" stroke="rgb(204, 204, 204)" stroke-width="1px"></line><line x1="590.3422215779622" y1="0" x2="590.3422215779622" y2="5" style="visibility: inherit;" fill="rgb(0, 0, 0)" stroke="rgb(204, 204, 204)" stroke-width="1px"></line><line x1="708.4106658935546" y1="0" x2="708.4106658935546" y2="5" style="visibility: inherit;" fill="rgb(0, 0, 0)" stroke="rgb(204, 204, 204)" stroke-width="1px"></line><line x1="826.479110209147" y1="0" x2="826.479110209147" y2="5" style="visibility: inherit;" fill="rgb(0, 0, 0)" stroke="rgb(204, 204, 204)" stroke-width="1px"></line><line x1="944.5475545247394" y1="0" x2="944.5475545247394" y2="5" style="visibility: inherit;" fill="rgb(0, 0, 0)" stroke="rgb(204, 204, 204)" stroke-width="1px"></line><line x1="1062.615998840332" y1="0" x2="1062.615998840332" y2="5" style="visibility: inherit;" fill="rgb(0, 0, 0)" stroke="rgb(204, 204, 204)" stroke-width="1px"></line></g><g transform="translate(0, 8)"><text style="text-anchor: middle; visibility: hidden; font-family: Roboto, sans-serif; font-size: 12px; font-weight: 200;" x="0" y="0" dx="0em" dy="0.95em" fill="rgb(33, 33, 33)" stroke="none" stroke-width="1px">-10k</text><text style="text-anchor: middle; visibility: inherit; font-family: Roboto, sans-serif; font-size: 12px; font-weight: 200;" x="118.06844431559243" y="0" dx="0em" dy="0.95em" fill="rgb(33, 33, 33)" stroke="none" stroke-width="1px">0</text><text style="text-anchor: middle; visibility: inherit; font-family: Roboto, sans-serif; font-size: 12px; font-weight: 200;" x="236.13688863118486" y="0" dx="0em" dy="0.95em" fill="rgb(33, 33, 33)" stroke="none" stroke-width="1px">10k</text><text style="text-anchor: middle; visibility: inherit; font-family: Roboto, sans-serif; font-size: 12px; font-weight: 200;" x="354.2053329467773" y="0" dx="0em" dy="0.95em" fill="rgb(33, 33, 33)" stroke="none" stroke-width="1px">20k</text><text style="text-anchor: middle; visibility: inherit; font-family: Roboto, sans-serif; font-size: 12px; font-weight: 200;" x="472.2737772623697" y="0" dx="0em" dy="0.95em" fill="rgb(33, 33, 33)" stroke="none" stroke-width="1px">30k</text><text style="text-anchor: middle; visibility: inherit; font-family: Roboto, sans-serif; font-size: 12px; font-weight: 200;" x="590.3422215779622" y="0" dx="0em" dy="0.95em" fill="rgb(33, 33, 33)" stroke="none" stroke-width="1px">40k</text><text style="text-anchor: middle; visibility: inherit; font-family: Roboto, sans-serif; font-size: 12px; font-weight: 200;" x="708.4106658935546" y="0" dx="0em" dy="0.95em" fill="rgb(33, 33, 33)" stroke="none" stroke-width="1px">50k</text><text style="text-anchor: middle; visibility: inherit; font-family: Roboto, sans-serif; font-size: 12px; font-weight: 200;" x="826.479110209147" y="0" dx="0em" dy="0.95em" fill="rgb(33, 33, 33)" stroke="none" stroke-width="1px">60k</text><text style="text-anchor: middle; visibility: inherit; font-family: Roboto, sans-serif; font-size: 12px; font-weight: 200;" x="944.5475545247394" y="0" dx="0em" dy="0.95em" fill="rgb(33, 33, 33)" stroke="none" stroke-width="1px">70k</text><text style="text-anchor: middle; visibility: hidden; font-family: Roboto, sans-serif; font-size: 12px; font-weight: 200;" x="1062.615998840332" y="0" dx="0em" dy="0.95em" fill="rgb(33, 33, 33)" stroke="none" stroke-width="1px">80k</text></g><line x1="0" y1="0" x2="1062.615998840332" y2="0" fill="rgb(0, 0, 0)" stroke="rgb(204, 204, 204)" stroke-width="1px"></line></g></g></g></g></svg>